ISO-10303-21;
HEADER;
/* Generated by software containing ST-Developer
 * from STEP Tools, Inc. (www.steptools.com) 
 */

FILE_DESCRIPTION(
/* description */ (''),
/* implementation_level */ '2;1');

FILE_NAME(
/* name */ 'switch_cover.step',
/* time_stamp */ '2026-07-28T12:55:10+09:00',
/* author */ (''),
/* organization */ (''),
/* preprocessor_version */ 'ST-DEVELOPER v20.1',
/* originating_system */ 'Autodesk Translation Framework v15.8.0.0',
/* authorisation */ '');

FILE_SCHEMA (('AUTOMOTIVE_DESIGN { 1 0 10303 214 3 1 1 }'));
ENDSEC;

DATA;
#10=MECHANICAL_DESIGN_GEOMETRIC_PRESENTATION_REPRESENTATION('',(#13),#616);
#11=SHAPE_REPRESENTATION_RELATIONSHIP('SRR','None',#623,#12);
#12=ADVANCED_BREP_SHAPE_REPRESENTATION('',(#14),#615);
#13=STYLED_ITEM('',(#632),#14);
#14=MANIFOLD_SOLID_BREP('\X2\30DC30C730A3\X0\1',#376);
#15=CIRCLE('',#394,0.3);
#16=CIRCLE('',#395,0.3);
#17=CIRCLE('',#409,0.3);
#18=CIRCLE('',#410,0.3);
#19=CYLINDRICAL_SURFACE('',#393,0.3);
#20=CYLINDRICAL_SURFACE('',#408,0.3);
#21=FACE_OUTER_BOUND('',#40,.T.);
#22=FACE_OUTER_BOUND('',#41,.T.);
#23=FACE_OUTER_BOUND('',#42,.T.);
#24=FACE_OUTER_BOUND('',#43,.T.);
#25=FACE_OUTER_BOUND('',#44,.T.);
#26=FACE_OUTER_BOUND('',#45,.T.);
#27=FACE_OUTER_BOUND('',#46,.T.);
#28=FACE_OUTER_BOUND('',#47,.T.);
#29=FACE_OUTER_BOUND('',#48,.T.);
#30=FACE_OUTER_BOUND('',#49,.T.);
#31=FACE_OUTER_BOUND('',#50,.T.);
#32=FACE_OUTER_BOUND('',#51,.T.);
#33=FACE_OUTER_BOUND('',#52,.T.);
#34=FACE_OUTER_BOUND('',#53,.T.);
#35=FACE_OUTER_BOUND('',#54,.T.);
#36=FACE_OUTER_BOUND('',#55,.T.);
#37=FACE_OUTER_BOUND('',#56,.T.);
#38=FACE_OUTER_BOUND('',#57,.T.);
#39=FACE_OUTER_BOUND('',#58,.T.);
#40=EDGE_LOOP('',(#238,#239,#240,#241));
#41=EDGE_LOOP('',(#242,#243,#244,#245));
#42=EDGE_LOOP('',(#246,#247,#248,#249));
#43=EDGE_LOOP('',(#250,#251,#252,#253));
#44=EDGE_LOOP('',(#254,#255,#256,#257));
#45=EDGE_LOOP('',(#258,#259,#260,#261));
#46=EDGE_LOOP('',(#262,#263,#264,#265));
#47=EDGE_LOOP('',(#266,#267,#268,#269));
#48=EDGE_LOOP('',(#270,#271,#272,#273));
#49=EDGE_LOOP('',(#274,#275,#276,#277));
#50=EDGE_LOOP('',(#278,#279,#280,#281));
#51=EDGE_LOOP('',(#282,#283,#284,#285));
#52=EDGE_LOOP('',(#286,#287,#288,#289));
#53=EDGE_LOOP('',(#290,#291,#292,#293));
#54=EDGE_LOOP('',(#294,#295,#296,#297));
#55=EDGE_LOOP('',(#298,#299,#300,#301));
#56=EDGE_LOOP('',(#302,#303,#304,#305));
#57=EDGE_LOOP('',(#306,#307,#308,#309,#310,#311,#312,#313,#314,#315,#316,
#317,#318,#319,#320,#321,#322));
#58=EDGE_LOOP('',(#323,#324,#325,#326,#327,#328,#329,#330,#331,#332,#333,
#334,#335,#336,#337,#338,#339));
#59=LINE('',#512,#106);
#60=LINE('',#514,#107);
#61=LINE('',#516,#108);
#62=LINE('',#517,#109);
#63=LINE('',#520,#110);
#64=LINE('',#522,#111);
#65=LINE('',#523,#112);
#66=LINE('',#526,#113);
#67=LINE('',#528,#114);
#68=LINE('',#529,#115);
#69=LINE('',#535,#116);
#70=LINE('',#538,#117);
#71=LINE('',#540,#118);
#72=LINE('',#541,#119);
#73=LINE('',#544,#120);
#74=LINE('',#546,#121);
#75=LINE('',#547,#122);
#76=LINE('',#550,#123);
#77=LINE('',#552,#124);
#78=LINE('',#553,#125);
#79=LINE('',#556,#126);
#80=LINE('',#558,#127);
#81=LINE('',#559,#128);
#82=LINE('',#562,#129);
#83=LINE('',#564,#130);
#84=LINE('',#565,#131);
#85=LINE('',#568,#132);
#86=LINE('',#570,#133);
#87=LINE('',#571,#134);
#88=LINE('',#574,#135);
#89=LINE('',#576,#136);
#90=LINE('',#577,#137);
#91=LINE('',#580,#138);
#92=LINE('',#582,#139);
#93=LINE('',#583,#140);
#94=LINE('',#586,#141);
#95=LINE('',#588,#142);
#96=LINE('',#589,#143);
#97=LINE('',#592,#144);
#98=LINE('',#594,#145);
#99=LINE('',#595,#146);
#100=LINE('',#598,#147);
#101=LINE('',#600,#148);
#102=LINE('',#601,#149);
#103=LINE('',#604,#150);
#104=LINE('',#606,#151);
#105=LINE('',#607,#152);
#106=VECTOR('',#417,10.);
#107=VECTOR('',#418,10.);
#108=VECTOR('',#419,10.);
#109=VECTOR('',#420,10.);
#110=VECTOR('',#423,10.);
#111=VECTOR('',#424,10.);
#112=VECTOR('',#425,10.);
#113=VECTOR('',#428,10.);
#114=VECTOR('',#429,10.);
#115=VECTOR('',#430,10.);
#116=VECTOR('',#437,10.);
#117=VECTOR('',#440,10.);
#118=VECTOR('',#441,10.);
#119=VECTOR('',#442,10.);
#120=VECTOR('',#445,10.);
#121=VECTOR('',#446,10.);
#122=VECTOR('',#447,10.);
#123=VECTOR('',#450,10.);
#124=VECTOR('',#451,10.);
#125=VECTOR('',#452,10.);
#126=VECTOR('',#455,10.);
#127=VECTOR('',#456,10.);
#128=VECTOR('',#457,10.);
#129=VECTOR('',#460,10.);
#130=VECTOR('',#461,10.);
#131=VECTOR('',#462,10.);
#132=VECTOR('',#465,10.);
#133=VECTOR('',#466,10.);
#134=VECTOR('',#467,10.);
#135=VECTOR('',#470,10.);
#136=VECTOR('',#471,10.);
#137=VECTOR('',#472,10.);
#138=VECTOR('',#475,10.);
#139=VECTOR('',#476,10.);
#140=VECTOR('',#477,10.);
#141=VECTOR('',#480,10.);
#142=VECTOR('',#481,10.);
#143=VECTOR('',#482,10.);
#144=VECTOR('',#485,10.);
#145=VECTOR('',#486,10.);
#146=VECTOR('',#487,10.);
#147=VECTOR('',#490,10.);
#148=VECTOR('',#491,10.);
#149=VECTOR('',#492,10.);
#150=VECTOR('',#495,10.);
#151=VECTOR('',#496,10.);
#152=VECTOR('',#497,10.);
#153=VERTEX_POINT('',#510);
#154=VERTEX_POINT('',#511);
#155=VERTEX_POINT('',#513);
#156=VERTEX_POINT('',#515);
#157=VERTEX_POINT('',#519);
#158=VERTEX_POINT('',#521);
#159=VERTEX_POINT('',#525);
#160=VERTEX_POINT('',#527);
#161=VERTEX_POINT('',#531);
#162=VERTEX_POINT('',#533);
#163=VERTEX_POINT('',#537);
#164=VERTEX_POINT('',#539);
#165=VERTEX_POINT('',#543);
#166=VERTEX_POINT('',#545);
#167=VERTEX_POINT('',#549);
#168=VERTEX_POINT('',#551);
#169=VERTEX_POINT('',#555);
#170=VERTEX_POINT('',#557);
#171=VERTEX_POINT('',#561);
#172=VERTEX_POINT('',#563);
#173=VERTEX_POINT('',#567);
#174=VERTEX_POINT('',#569);
#175=VERTEX_POINT('',#573);
#176=VERTEX_POINT('',#575);
#177=VERTEX_POINT('',#579);
#178=VERTEX_POINT('',#581);
#179=VERTEX_POINT('',#585);
#180=VERTEX_POINT('',#587);
#181=VERTEX_POINT('',#591);
#182=VERTEX_POINT('',#593);
#183=VERTEX_POINT('',#597);
#184=VERTEX_POINT('',#599);
#185=VERTEX_POINT('',#603);
#186=VERTEX_POINT('',#605);
#187=EDGE_CURVE('',#153,#154,#59,.T.);
#188=EDGE_CURVE('',#154,#155,#60,.T.);
#189=EDGE_CURVE('',#156,#155,#61,.T.);
#190=EDGE_CURVE('',#153,#156,#62,.T.);
#191=EDGE_CURVE('',#153,#157,#63,.T.);
#192=EDGE_CURVE('',#158,#156,#64,.T.);
#193=EDGE_CURVE('',#157,#158,#65,.T.);
#194=EDGE_CURVE('',#157,#159,#66,.T.);
#195=EDGE_CURVE('',#160,#158,#67,.T.);
#196=EDGE_CURVE('',#159,#160,#68,.T.);
#197=EDGE_CURVE('',#159,#161,#15,.T.);
#198=EDGE_CURVE('',#162,#160,#16,.T.);
#199=EDGE_CURVE('',#161,#162,#69,.T.);
#200=EDGE_CURVE('',#161,#163,#70,.T.);
#201=EDGE_CURVE('',#164,#162,#71,.T.);
#202=EDGE_CURVE('',#163,#164,#72,.T.);
#203=EDGE_CURVE('',#165,#163,#73,.T.);
#204=EDGE_CURVE('',#166,#164,#74,.T.);
#205=EDGE_CURVE('',#165,#166,#75,.T.);
#206=EDGE_CURVE('',#167,#165,#76,.T.);
#207=EDGE_CURVE('',#168,#166,#77,.T.);
#208=EDGE_CURVE('',#167,#168,#78,.T.);
#209=EDGE_CURVE('',#169,#167,#79,.T.);
#210=EDGE_CURVE('',#170,#168,#80,.T.);
#211=EDGE_CURVE('',#169,#170,#81,.T.);
#212=EDGE_CURVE('',#169,#171,#82,.T.);
#213=EDGE_CURVE('',#172,#170,#83,.T.);
#214=EDGE_CURVE('',#171,#172,#84,.T.);
#215=EDGE_CURVE('',#171,#173,#85,.T.);
#216=EDGE_CURVE('',#174,#172,#86,.T.);
#217=EDGE_CURVE('',#173,#174,#87,.T.);
#218=EDGE_CURVE('',#173,#175,#88,.T.);
#219=EDGE_CURVE('',#176,#174,#89,.T.);
#220=EDGE_CURVE('',#175,#176,#90,.T.);
#221=EDGE_CURVE('',#175,#177,#91,.T.);
#222=EDGE_CURVE('',#178,#176,#92,.T.);
#223=EDGE_CURVE('',#177,#178,#93,.T.);
#224=EDGE_CURVE('',#179,#177,#94,.T.);
#225=EDGE_CURVE('',#180,#178,#95,.T.);
#226=EDGE_CURVE('',#179,#180,#96,.T.);
#227=EDGE_CURVE('',#181,#179,#97,.T.);
#228=EDGE_CURVE('',#182,#180,#98,.T.);
#229=EDGE_CURVE('',#181,#182,#99,.T.);
#230=EDGE_CURVE('',#183,#181,#100,.T.);
#231=EDGE_CURVE('',#184,#182,#101,.T.);
#232=EDGE_CURVE('',#183,#184,#102,.T.);
#233=EDGE_CURVE('',#185,#183,#103,.T.);
#234=EDGE_CURVE('',#186,#184,#104,.T.);
#235=EDGE_CURVE('',#185,#186,#105,.T.);
#236=EDGE_CURVE('',#185,#154,#17,.T.);
#237=EDGE_CURVE('',#155,#186,#18,.T.);
#238=ORIENTED_EDGE('',*,*,#187,.T.);
#239=ORIENTED_EDGE('',*,*,#188,.T.);
#240=ORIENTED_EDGE('',*,*,#189,.F.);
#241=ORIENTED_EDGE('',*,*,#190,.F.);
#242=ORIENTED_EDGE('',*,*,#191,.F.);
#243=ORIENTED_EDGE('',*,*,#190,.T.);
#244=ORIENTED_EDGE('',*,*,#192,.F.);
#245=ORIENTED_EDGE('',*,*,#193,.F.);
#246=ORIENTED_EDGE('',*,*,#194,.F.);
#247=ORIENTED_EDGE('',*,*,#193,.T.);
#248=ORIENTED_EDGE('',*,*,#195,.F.);
#249=ORIENTED_EDGE('',*,*,#196,.F.);
#250=ORIENTED_EDGE('',*,*,#197,.F.);
#251=ORIENTED_EDGE('',*,*,#196,.T.);
#252=ORIENTED_EDGE('',*,*,#198,.F.);
#253=ORIENTED_EDGE('',*,*,#199,.F.);
#254=ORIENTED_EDGE('',*,*,#200,.F.);
#255=ORIENTED_EDGE('',*,*,#199,.T.);
#256=ORIENTED_EDGE('',*,*,#201,.F.);
#257=ORIENTED_EDGE('',*,*,#202,.F.);
#258=ORIENTED_EDGE('',*,*,#203,.T.);
#259=ORIENTED_EDGE('',*,*,#202,.T.);
#260=ORIENTED_EDGE('',*,*,#204,.F.);
#261=ORIENTED_EDGE('',*,*,#205,.F.);
#262=ORIENTED_EDGE('',*,*,#206,.T.);
#263=ORIENTED_EDGE('',*,*,#205,.T.);
#264=ORIENTED_EDGE('',*,*,#207,.F.);
#265=ORIENTED_EDGE('',*,*,#208,.F.);
#266=ORIENTED_EDGE('',*,*,#209,.T.);
#267=ORIENTED_EDGE('',*,*,#208,.T.);
#268=ORIENTED_EDGE('',*,*,#210,.F.);
#269=ORIENTED_EDGE('',*,*,#211,.F.);
#270=ORIENTED_EDGE('',*,*,#212,.F.);
#271=ORIENTED_EDGE('',*,*,#211,.T.);
#272=ORIENTED_EDGE('',*,*,#213,.F.);
#273=ORIENTED_EDGE('',*,*,#214,.F.);
#274=ORIENTED_EDGE('',*,*,#215,.F.);
#275=ORIENTED_EDGE('',*,*,#214,.T.);
#276=ORIENTED_EDGE('',*,*,#216,.F.);
#277=ORIENTED_EDGE('',*,*,#217,.F.);
#278=ORIENTED_EDGE('',*,*,#218,.F.);
#279=ORIENTED_EDGE('',*,*,#217,.T.);
#280=ORIENTED_EDGE('',*,*,#219,.F.);
#281=ORIENTED_EDGE('',*,*,#220,.F.);
#282=ORIENTED_EDGE('',*,*,#221,.F.);
#283=ORIENTED_EDGE('',*,*,#220,.T.);
#284=ORIENTED_EDGE('',*,*,#222,.F.);
#285=ORIENTED_EDGE('',*,*,#223,.F.);
#286=ORIENTED_EDGE('',*,*,#224,.T.);
#287=ORIENTED_EDGE('',*,*,#223,.T.);
#288=ORIENTED_EDGE('',*,*,#225,.F.);
#289=ORIENTED_EDGE('',*,*,#226,.F.);
#290=ORIENTED_EDGE('',*,*,#227,.T.);
#291=ORIENTED_EDGE('',*,*,#226,.T.);
#292=ORIENTED_EDGE('',*,*,#228,.F.);
#293=ORIENTED_EDGE('',*,*,#229,.F.);
#294=ORIENTED_EDGE('',*,*,#230,.T.);
#295=ORIENTED_EDGE('',*,*,#229,.T.);
#296=ORIENTED_EDGE('',*,*,#231,.F.);
#297=ORIENTED_EDGE('',*,*,#232,.F.);
#298=ORIENTED_EDGE('',*,*,#233,.T.);
#299=ORIENTED_EDGE('',*,*,#232,.T.);
#300=ORIENTED_EDGE('',*,*,#234,.F.);
#301=ORIENTED_EDGE('',*,*,#235,.F.);
#302=ORIENTED_EDGE('',*,*,#236,.F.);
#303=ORIENTED_EDGE('',*,*,#235,.T.);
#304=ORIENTED_EDGE('',*,*,#237,.F.);
#305=ORIENTED_EDGE('',*,*,#188,.F.);
#306=ORIENTED_EDGE('',*,*,#236,.T.);
#307=ORIENTED_EDGE('',*,*,#187,.F.);
#308=ORIENTED_EDGE('',*,*,#191,.T.);
#309=ORIENTED_EDGE('',*,*,#194,.T.);
#310=ORIENTED_EDGE('',*,*,#197,.T.);
#311=ORIENTED_EDGE('',*,*,#200,.T.);
#312=ORIENTED_EDGE('',*,*,#203,.F.);
#313=ORIENTED_EDGE('',*,*,#206,.F.);
#314=ORIENTED_EDGE('',*,*,#209,.F.);
#315=ORIENTED_EDGE('',*,*,#212,.T.);
#316=ORIENTED_EDGE('',*,*,#215,.T.);
#317=ORIENTED_EDGE('',*,*,#218,.T.);
#318=ORIENTED_EDGE('',*,*,#221,.T.);
#319=ORIENTED_EDGE('',*,*,#224,.F.);
#320=ORIENTED_EDGE('',*,*,#227,.F.);
#321=ORIENTED_EDGE('',*,*,#230,.F.);
#322=ORIENTED_EDGE('',*,*,#233,.F.);
#323=ORIENTED_EDGE('',*,*,#237,.T.);
#324=ORIENTED_EDGE('',*,*,#234,.T.);
#325=ORIENTED_EDGE('',*,*,#231,.T.);
#326=ORIENTED_EDGE('',*,*,#228,.T.);
#327=ORIENTED_EDGE('',*,*,#225,.T.);
#328=ORIENTED_EDGE('',*,*,#222,.T.);
#329=ORIENTED_EDGE('',*,*,#219,.T.);
#330=ORIENTED_EDGE('',*,*,#216,.T.);
#331=ORIENTED_EDGE('',*,*,#213,.T.);
#332=ORIENTED_EDGE('',*,*,#210,.T.);
#333=ORIENTED_EDGE('',*,*,#207,.T.);
#334=ORIENTED_EDGE('',*,*,#204,.T.);
#335=ORIENTED_EDGE('',*,*,#201,.T.);
#336=ORIENTED_EDGE('',*,*,#198,.T.);
#337=ORIENTED_EDGE('',*,*,#195,.T.);
#338=ORIENTED_EDGE('',*,*,#192,.T.);
#339=ORIENTED_EDGE('',*,*,#189,.T.);
#340=PLANE('',#390);
#341=PLANE('',#391);
#342=PLANE('',#392);
#343=PLANE('',#396);
#344=PLANE('',#397);
#345=PLANE('',#398);
#346=PLANE('',#399);
#347=PLANE('',#400);
#348=PLANE('',#401);
#349=PLANE('',#402);
#350=PLANE('',#403);
#351=PLANE('',#404);
#352=PLANE('',#405);
#353=PLANE('',#406);
#354=PLANE('',#407);
#355=PLANE('',#411);
#356=PLANE('',#412);
#357=ADVANCED_FACE('',(#21),#340,.T.);
#358=ADVANCED_FACE('',(#22),#341,.T.);
#359=ADVANCED_FACE('',(#23),#342,.T.);
#360=ADVANCED_FACE('',(#24),#19,.T.);
#361=ADVANCED_FACE('',(#25),#343,.T.);
#362=ADVANCED_FACE('',(#26),#344,.T.);
#363=ADVANCED_FACE('',(#27),#345,.T.);
#364=ADVANCED_FACE('',(#28),#346,.T.);
#365=ADVANCED_FACE('',(#29),#347,.T.);
#366=ADVANCED_FACE('',(#30),#348,.T.);
#367=ADVANCED_FACE('',(#31),#349,.T.);
#368=ADVANCED_FACE('',(#32),#350,.T.);
#369=ADVANCED_FACE('',(#33),#351,.T.);
#370=ADVANCED_FACE('',(#34),#352,.T.);
#371=ADVANCED_FACE('',(#35),#353,.T.);
#372=ADVANCED_FACE('',(#36),#354,.T.);
#373=ADVANCED_FACE('',(#37),#20,.T.);
#374=ADVANCED_FACE('',(#38),#355,.T.);
#375=ADVANCED_FACE('',(#39),#356,.F.);
#376=CLOSED_SHELL('',(#357,#358,#359,#360,#361,#362,#363,#364,#365,#366,
#367,#368,#369,#370,#371,#372,#373,#374,#375));
#377=DERIVED_UNIT_ELEMENT(#379,1.);
#378=DERIVED_UNIT_ELEMENT(#618,-3.);
#379=(
MASS_UNIT()
NAMED_UNIT(*)
SI_UNIT(.KILO.,.GRAM.)
);
#380=DERIVED_UNIT((#377,#378));
#381=MEASURE_REPRESENTATION_ITEM('density measure',
POSITIVE_RATIO_MEASURE(7850.),#380);
#382=PROPERTY_DEFINITION_REPRESENTATION(#387,#384);
#383=PROPERTY_DEFINITION_REPRESENTATION(#388,#385);
#384=REPRESENTATION('material name',(#386),#615);
#385=REPRESENTATION('density',(#381),#615);
#386=DESCRIPTIVE_REPRESENTATION_ITEM('\X2\92FC\X0\','\X2\92FC\X0\');
#387=PROPERTY_DEFINITION('material property','material name',#625);
#388=PROPERTY_DEFINITION('material property','density of part',#625);
#389=AXIS2_PLACEMENT_3D('',#508,#413,#414);
#390=AXIS2_PLACEMENT_3D('',#509,#415,#416);
#391=AXIS2_PLACEMENT_3D('',#518,#421,#422);
#392=AXIS2_PLACEMENT_3D('',#524,#426,#427);
#393=AXIS2_PLACEMENT_3D('',#530,#431,#432);
#394=AXIS2_PLACEMENT_3D('',#532,#433,#434);
#395=AXIS2_PLACEMENT_3D('',#534,#435,#436);
#396=AXIS2_PLACEMENT_3D('',#536,#438,#439);
#397=AXIS2_PLACEMENT_3D('',#542,#443,#444);
#398=AXIS2_PLACEMENT_3D('',#548,#448,#449);
#399=AXIS2_PLACEMENT_3D('',#554,#453,#454);
#400=AXIS2_PLACEMENT_3D('',#560,#458,#459);
#401=AXIS2_PLACEMENT_3D('',#566,#463,#464);
#402=AXIS2_PLACEMENT_3D('',#572,#468,#469);
#403=AXIS2_PLACEMENT_3D('',#578,#473,#474);
#404=AXIS2_PLACEMENT_3D('',#584,#478,#479);
#405=AXIS2_PLACEMENT_3D('',#590,#483,#484);
#406=AXIS2_PLACEMENT_3D('',#596,#488,#489);
#407=AXIS2_PLACEMENT_3D('',#602,#493,#494);
#408=AXIS2_PLACEMENT_3D('',#608,#498,#499);
#409=AXIS2_PLACEMENT_3D('',#609,#500,#501);
#410=AXIS2_PLACEMENT_3D('',#610,#502,#503);
#411=AXIS2_PLACEMENT_3D('',#611,#504,#505);
#412=AXIS2_PLACEMENT_3D('',#612,#506,#507);
#413=DIRECTION('axis',(0.,0.,1.));
#414=DIRECTION('refdir',(1.,0.,0.));
#415=DIRECTION('center_axis',(-1.,0.,0.));
#416=DIRECTION('ref_axis',(0.,0.,-1.));
#417=DIRECTION('',(0.,0.,-1.));
#418=DIRECTION('',(0.,-1.,0.));
#419=DIRECTION('',(0.,0.,-1.));
#420=DIRECTION('',(0.,-1.,0.));
#421=DIRECTION('center_axis',(-9.5161973539299E-15,0.,-1.));
#422=DIRECTION('ref_axis',(1.,0.,-9.5161973539299E-15));
#423=DIRECTION('',(-1.,0.,9.5161973539299E-15));
#424=DIRECTION('',(1.,0.,-9.5161973539299E-15));
#425=DIRECTION('',(0.,-1.,0.));
#426=DIRECTION('center_axis',(1.,0.,0.));
#427=DIRECTION('ref_axis',(0.,0.,1.));
#428=DIRECTION('',(0.,0.,-1.));
#429=DIRECTION('',(0.,0.,1.));
#430=DIRECTION('',(0.,-1.,0.));
#431=DIRECTION('center_axis',(0.,-1.,0.));
#432=DIRECTION('ref_axis',(0.,0.,1.));
#433=DIRECTION('center_axis',(-3.70074341541719E-15,1.,8.09539049008433E-16));
#434=DIRECTION('ref_axis',(0.,-8.09539049008433E-16,1.));
#435=DIRECTION('center_axis',(3.70074341541719E-15,-1.,-8.09539049008433E-16));
#436=DIRECTION('ref_axis',(0.,-8.09539049008433E-16,1.));
#437=DIRECTION('',(0.,-1.,0.));
#438=DIRECTION('center_axis',(1.26882631385732E-15,0.,-1.));
#439=DIRECTION('ref_axis',(1.,0.,1.26882631385732E-15));
#440=DIRECTION('',(-1.,0.,-1.26882631385732E-15));
#441=DIRECTION('',(1.,0.,1.26882631385732E-15));
#442=DIRECTION('',(0.,-1.,0.));
#443=DIRECTION('center_axis',(-1.,0.,-2.7755575615629E-15));
#444=DIRECTION('ref_axis',(2.7755575615629E-15,0.,-1.));
#445=DIRECTION('',(2.7755575615629E-15,0.,-1.));
#446=DIRECTION('',(2.7755575615629E-15,0.,-1.));
#447=DIRECTION('',(0.,-1.,0.));
#448=DIRECTION('center_axis',(-2.46716227694479E-15,0.,1.));
#449=DIRECTION('ref_axis',(-1.,0.,-2.46716227694479E-15));
#450=DIRECTION('',(-1.,0.,-2.46716227694479E-15));
#451=DIRECTION('',(-1.,0.,-2.46716227694479E-15));
#452=DIRECTION('',(0.,-1.,0.));
#453=DIRECTION('center_axis',(-1.,0.,0.));
#454=DIRECTION('ref_axis',(0.,0.,-1.));
#455=DIRECTION('',(0.,0.,-1.));
#456=DIRECTION('',(0.,0.,-1.));
#457=DIRECTION('',(0.,-1.,0.));
#458=DIRECTION('center_axis',(-0.707106781186548,0.,0.707106781186547));
#459=DIRECTION('ref_axis',(-0.707106781186547,0.,-0.707106781186548));
#460=DIRECTION('',(0.707106781186547,0.,0.707106781186548));
#461=DIRECTION('',(-0.707106781186547,0.,-0.707106781186548));
#462=DIRECTION('',(0.,-1.,0.));
#463=DIRECTION('center_axis',(0.707106781186548,0.,0.707106781186547));
#464=DIRECTION('ref_axis',(-0.707106781186547,0.,0.707106781186548));
#465=DIRECTION('',(0.707106781186547,0.,-0.707106781186548));
#466=DIRECTION('',(-0.707106781186547,0.,0.707106781186548));
#467=DIRECTION('',(0.,-1.,0.));
#468=DIRECTION('center_axis',(-0.71215329315838,0.,0.702023993210826));
#469=DIRECTION('ref_axis',(-0.702023993210826,0.,-0.71215329315838));
#470=DIRECTION('',(0.702023993210826,0.,0.71215329315838));
#471=DIRECTION('',(-0.702023993210826,0.,-0.71215329315838));
#472=DIRECTION('',(0.,-1.,0.));
#473=DIRECTION('center_axis',(0.702023993210846,0.,0.712153293158361));
#474=DIRECTION('ref_axis',(-0.712153293158361,0.,0.702023993210846));
#475=DIRECTION('',(0.712153293158361,0.,-0.702023993210845));
#476=DIRECTION('',(-0.712153293158361,0.,0.702023993210845));
#477=DIRECTION('',(0.,-1.,0.));
#478=DIRECTION('center_axis',(1.,0.,2.50812747981129E-15));
#479=DIRECTION('ref_axis',(-2.50812747981129E-15,0.,1.));
#480=DIRECTION('',(-2.50812747981129E-15,0.,1.));
#481=DIRECTION('',(-2.50812747981129E-15,0.,1.));
#482=DIRECTION('',(0.,-1.,0.));
#483=DIRECTION('center_axis',(0.,0.,1.));
#484=DIRECTION('ref_axis',(-1.,0.,0.));
#485=DIRECTION('',(-1.,0.,0.));
#486=DIRECTION('',(-1.,0.,0.));
#487=DIRECTION('',(0.,-1.,0.));
#488=DIRECTION('center_axis',(1.,0.,2.77555756156289E-15));
#489=DIRECTION('ref_axis',(-2.77555756156289E-15,0.,1.));
#490=DIRECTION('',(-2.77555756156289E-15,0.,1.));
#491=DIRECTION('',(-2.77555756156289E-15,0.,1.));
#492=DIRECTION('',(0.,-1.,0.));
#493=DIRECTION('center_axis',(0.,0.,-1.));
#494=DIRECTION('ref_axis',(1.,0.,0.));
#495=DIRECTION('',(1.,0.,0.));
#496=DIRECTION('',(1.,0.,0.));
#497=DIRECTION('',(0.,-1.,0.));
#498=DIRECTION('center_axis',(0.,-1.,0.));
#499=DIRECTION('ref_axis',(0.,0.,-1.));
#500=DIRECTION('center_axis',(-3.70074341541719E-15,1.,-8.09539049008433E-16));
#501=DIRECTION('ref_axis',(0.,-8.09539049008433E-16,-1.));
#502=DIRECTION('center_axis',(3.70074341541719E-15,-1.,8.09539049008433E-16));
#503=DIRECTION('ref_axis',(0.,-8.09539049008433E-16,-1.));
#504=DIRECTION('center_axis',(9.61244797549868E-33,1.,0.));
#505=DIRECTION('ref_axis',(-1.,9.61244797549868E-33,0.));
#506=DIRECTION('center_axis',(9.61244797549868E-33,1.,0.));
#507=DIRECTION('ref_axis',(-1.,9.61244797549868E-33,0.));
#508=CARTESIAN_POINT('',(0.,0.,0.));
#509=CARTESIAN_POINT('Origin',(-9.15,5.18999999999999,15.55));
#510=CARTESIAN_POINT('',(-9.15,5.18999999999999,15.55));
#511=CARTESIAN_POINT('',(-9.15,5.18999999999999,13.95));
#512=CARTESIAN_POINT('',(-9.15,5.18999999999999,15.55));
#513=CARTESIAN_POINT('',(-9.15,2.18999999999999,13.95));
#514=CARTESIAN_POINT('',(-9.15,5.18999999999999,13.95));
#515=CARTESIAN_POINT('',(-9.15,2.18999999999999,15.55));
#516=CARTESIAN_POINT('',(-9.15,2.18999999999999,15.55));
#517=CARTESIAN_POINT('',(-9.15,5.18999999999999,15.55));
#518=CARTESIAN_POINT('Origin',(-11.25,5.18999999999999,15.55));
#519=CARTESIAN_POINT('',(-11.25,5.18999999999999,15.55));
#520=CARTESIAN_POINT('',(-9.15,5.18999999999999,15.55));
#521=CARTESIAN_POINT('',(-11.25,2.18999999999999,15.55));
#522=CARTESIAN_POINT('',(-9.15,2.18999999999999,15.55));
#523=CARTESIAN_POINT('',(-11.25,5.18999999999999,15.55));
#524=CARTESIAN_POINT('Origin',(-11.25,5.18999999999999,13.95));
#525=CARTESIAN_POINT('',(-11.25,5.18999999999999,13.95));
#526=CARTESIAN_POINT('',(-11.25,5.18999999999999,15.55));
#527=CARTESIAN_POINT('',(-11.25,2.18999999999999,13.95));
#528=CARTESIAN_POINT('',(-11.25,2.18999999999999,15.55));
#529=CARTESIAN_POINT('',(-11.25,5.18999999999999,13.95));
#530=CARTESIAN_POINT('Origin',(-11.25,5.18999999999999,13.65));
#531=CARTESIAN_POINT('',(-11.25,5.18999999999999,13.35));
#532=CARTESIAN_POINT('Origin',(-11.25,5.18999999999999,13.65));
#533=CARTESIAN_POINT('',(-11.25,2.18999999999999,13.35));
#534=CARTESIAN_POINT('Origin',(-11.25,2.18999999999999,13.65));
#535=CARTESIAN_POINT('',(-11.25,5.18999999999999,13.35));
#536=CARTESIAN_POINT('Origin',(-14.75,5.18999999999999,13.35));
#537=CARTESIAN_POINT('',(-14.75,5.18999999999999,13.35));
#538=CARTESIAN_POINT('',(-11.25,5.18999999999999,13.35));
#539=CARTESIAN_POINT('',(-14.75,2.18999999999999,13.35));
#540=CARTESIAN_POINT('',(-11.25,2.18999999999999,13.35));
#541=CARTESIAN_POINT('',(-14.75,5.18999999999999,13.35));
#542=CARTESIAN_POINT('Origin',(-14.75,5.18999999999999,14.15));
#543=CARTESIAN_POINT('',(-14.75,5.18999999999999,14.15));
#544=CARTESIAN_POINT('',(-14.75,5.18999999999999,14.15));
#545=CARTESIAN_POINT('',(-14.75,2.18999999999999,14.15));
#546=CARTESIAN_POINT('',(-14.75,2.18999999999999,14.15));
#547=CARTESIAN_POINT('',(-14.75,5.18999999999999,14.15));
#548=CARTESIAN_POINT('Origin',(-12.05,5.18999999999999,14.15));
#549=CARTESIAN_POINT('',(-12.05,5.18999999999999,14.15));
#550=CARTESIAN_POINT('',(-12.05,5.18999999999999,14.15));
#551=CARTESIAN_POINT('',(-12.05,2.18999999999999,14.15));
#552=CARTESIAN_POINT('',(-12.05,2.18999999999999,14.15));
#553=CARTESIAN_POINT('',(-12.05,5.18999999999999,14.15));
#554=CARTESIAN_POINT('Origin',(-12.05,5.18999999999999,16.35));
#555=CARTESIAN_POINT('',(-12.05,5.18999999999999,16.35));
#556=CARTESIAN_POINT('',(-12.05,5.18999999999999,16.35));
#557=CARTESIAN_POINT('',(-12.05,2.18999999999999,16.35));
#558=CARTESIAN_POINT('',(-12.05,2.18999999999999,16.35));
#559=CARTESIAN_POINT('',(-12.05,5.18999999999999,16.35));
#560=CARTESIAN_POINT('Origin',(-11.1249881362565,5.18999999999999,17.2750118637435));
#561=CARTESIAN_POINT('',(-11.1249881362565,5.18999999999999,17.2750118637435));
#562=CARTESIAN_POINT('',(-12.05,5.18999999999999,16.35));
#563=CARTESIAN_POINT('',(-11.1249881362565,2.18999999999999,17.2750118637435));
#564=CARTESIAN_POINT('',(-12.05,2.18999999999999,16.35));
#565=CARTESIAN_POINT('',(-11.1249881362565,5.18999999999999,17.2750118637435));
#566=CARTESIAN_POINT('Origin',(-10.199976272513,5.18999999999999,16.35));
#567=CARTESIAN_POINT('',(-10.199976272513,5.18999999999999,16.35));
#568=CARTESIAN_POINT('',(-11.1249881362565,5.18999999999999,17.2750118637435));
#569=CARTESIAN_POINT('',(-10.199976272513,2.18999999999999,16.35));
#570=CARTESIAN_POINT('',(-11.1249881362565,2.18999999999999,17.2750118637435));
#571=CARTESIAN_POINT('',(-10.199976272513,5.18999999999999,16.35));
#572=CARTESIAN_POINT('Origin',(-9.28161353066096,5.18999999999999,17.281613530661));
#573=CARTESIAN_POINT('',(-9.28161353066096,5.18999999999999,17.281613530661));
#574=CARTESIAN_POINT('',(-10.199976272513,5.18999999999999,16.35));
#575=CARTESIAN_POINT('',(-9.28161353066096,2.18999999999999,17.281613530661));
#576=CARTESIAN_POINT('',(-10.199976272513,2.18999999999999,16.35));
#577=CARTESIAN_POINT('',(-9.28161353066096,5.18999999999999,17.281613530661));
#578=CARTESIAN_POINT('Origin',(-8.35000000000001,5.18999999999999,16.3632507888089));
#579=CARTESIAN_POINT('',(-8.35000000000001,5.18999999999999,16.3632507888089));
#580=CARTESIAN_POINT('',(-9.28161353066096,5.18999999999999,17.281613530661));
#581=CARTESIAN_POINT('',(-8.35000000000001,2.18999999999999,16.3632507888089));
#582=CARTESIAN_POINT('',(-9.28161353066096,2.18999999999999,17.281613530661));
#583=CARTESIAN_POINT('',(-8.35000000000001,5.18999999999999,16.3632507888089));
#584=CARTESIAN_POINT('Origin',(-8.35,5.18999999999999,14.15));
#585=CARTESIAN_POINT('',(-8.35,5.18999999999999,14.15));
#586=CARTESIAN_POINT('',(-8.35,5.18999999999999,14.15));
#587=CARTESIAN_POINT('',(-8.35,2.18999999999999,14.15));
#588=CARTESIAN_POINT('',(-8.35,2.18999999999999,14.15));
#589=CARTESIAN_POINT('',(-8.35,5.18999999999999,14.15));
#590=CARTESIAN_POINT('Origin',(-5.65,5.18999999999999,14.15));
#591=CARTESIAN_POINT('',(-5.65,5.18999999999999,14.15));
#592=CARTESIAN_POINT('',(-5.65,5.18999999999999,14.15));
#593=CARTESIAN_POINT('',(-5.65,2.18999999999999,14.15));
#594=CARTESIAN_POINT('',(-5.65,2.18999999999999,14.15));
#595=CARTESIAN_POINT('',(-5.65,5.18999999999999,14.15));
#596=CARTESIAN_POINT('Origin',(-5.65,5.18999999999999,13.35));
#597=CARTESIAN_POINT('',(-5.65,5.18999999999999,13.35));
#598=CARTESIAN_POINT('',(-5.65,5.18999999999999,13.35));
#599=CARTESIAN_POINT('',(-5.65,2.18999999999999,13.35));
#600=CARTESIAN_POINT('',(-5.65,2.18999999999999,13.35));
#601=CARTESIAN_POINT('',(-5.65,5.18999999999999,13.35));
#602=CARTESIAN_POINT('Origin',(-9.15,5.18999999999999,13.35));
#603=CARTESIAN_POINT('',(-9.15,5.18999999999999,13.35));
#604=CARTESIAN_POINT('',(-9.15,5.18999999999999,13.35));
#605=CARTESIAN_POINT('',(-9.15,2.18999999999999,13.35));
#606=CARTESIAN_POINT('',(-9.15,2.18999999999999,13.35));
#607=CARTESIAN_POINT('',(-9.15,5.18999999999999,13.35));
#608=CARTESIAN_POINT('Origin',(-9.15,5.18999999999999,13.65));
#609=CARTESIAN_POINT('Origin',(-9.15,5.18999999999999,13.65));
#610=CARTESIAN_POINT('Origin',(-9.15,2.18999999999999,13.65));
#611=CARTESIAN_POINT('Origin',(2.85623970268087,5.18999999999999,0.609556765330463));
#612=CARTESIAN_POINT('Origin',(2.85623970268087,2.18999999999999,0.609556765330463));
#613=UNCERTAINTY_MEASURE_WITH_UNIT(LENGTH_MEASURE(0.01),#617,
'DISTANCE_ACCURACY_VALUE',
'Maximum model space distance between geometric entities at asserted c
onnectivities');
#614=UNCERTAINTY_MEASURE_WITH_UNIT(LENGTH_MEASURE(0.01),#617,
'DISTANCE_ACCURACY_VALUE',
'Maximum model space distance between geometric entities at asserted c
onnectivities');
#615=(
GEOMETRIC_REPRESENTATION_CONTEXT(3)
GLOBAL_UNCERTAINTY_ASSIGNED_CONTEXT((#613))
GLOBAL_UNIT_ASSIGNED_CONTEXT((#617,#619,#620))
REPRESENTATION_CONTEXT('','3D')
);
#616=(
GEOMETRIC_REPRESENTATION_CONTEXT(3)
GLOBAL_UNCERTAINTY_ASSIGNED_CONTEXT((#614))
GLOBAL_UNIT_ASSIGNED_CONTEXT((#617,#619,#620))
REPRESENTATION_CONTEXT('','3D')
);
#617=(
LENGTH_UNIT()
NAMED_UNIT(*)
SI_UNIT(.MILLI.,.METRE.)
);
#618=(
LENGTH_UNIT()
NAMED_UNIT(*)
SI_UNIT($,.METRE.)
);
#619=(
NAMED_UNIT(*)
PLANE_ANGLE_UNIT()
SI_UNIT($,.RADIAN.)
);
#620=(
NAMED_UNIT(*)
SI_UNIT($,.STERADIAN.)
SOLID_ANGLE_UNIT()
);
#621=SHAPE_DEFINITION_REPRESENTATION(#622,#623);
#622=PRODUCT_DEFINITION_SHAPE('',$,#625);
#623=SHAPE_REPRESENTATION('',(#389),#615);
#624=PRODUCT_DEFINITION_CONTEXT('part definition',#629,'design');
#625=PRODUCT_DEFINITION('2026-07-28-12-55-10-267','switch_cover',#626,#624);
#626=PRODUCT_DEFINITION_FORMATION('',$,#631);
#627=PRODUCT_RELATED_PRODUCT_CATEGORY('switch_cover','switch_cover',(#631));
#628=APPLICATION_PROTOCOL_DEFINITION('international standard',
'automotive_design',2009,#629);
#629=APPLICATION_CONTEXT(
'Core Data for Automotive Mechanical Design Process');
#630=PRODUCT_CONTEXT('part definition',#629,'mechanical');
#631=PRODUCT('2026-07-28-12-55-10-267','switch_cover',$,(#630));
#632=PRESENTATION_STYLE_ASSIGNMENT((#633));
#633=SURFACE_STYLE_USAGE(.BOTH.,#634);
#634=SURFACE_SIDE_STYLE('',(#635));
#635=SURFACE_STYLE_FILL_AREA(#636);
#636=FILL_AREA_STYLE('\X2\92FC\X0\ - \X2\30B530C630F3\X0\',(#637));
#637=FILL_AREA_STYLE_COLOUR('\X2\92FC\X0\ - \X2\30B530C630F3\X0\',#638);
#638=COLOUR_RGB('\X2\92FC\X0\ - \X2\30B530C630F3\X0\',0.627450980392157,
0.627450980392157,0.627450980392157);
ENDSEC;
END-ISO-10303-21;
