%TF.GenerationSoftware,KiCad,Pcbnew,9.0.3*%
%TF.CreationDate,2026-07-25T14:43:38+09:00*%
%TF.ProjectId,pacer,70616365-722e-46b6-9963-61645f706362,rev?*%
%TF.SameCoordinates,Original*%
%TF.FileFunction,Paste,Top*%
%TF.FilePolarity,Positive*%
%FSLAX46Y46*%
G04 Gerber Fmt 4.6, Leading zero omitted, Abs format (unit mm)*
G04 Created by KiCad (PCBNEW 9.0.3) date 2026-07-25 14:43:38*
%MOMM*%
%LPD*%
G01*
G04 APERTURE LIST*
G04 Aperture macros list*
%AMRoundRect*
0 Rectangle with rounded corners*
0 $1 Rounding radius*
0 $2 $3 $4 $5 $6 $7 $8 $9 X,Y pos of 4 corners*
0 Add a 4 corners polygon primitive as box body*
4,1,4,$2,$3,$4,$5,$6,$7,$8,$9,$2,$3,0*
0 Add four circle primitives for the rounded corners*
1,1,$1+$1,$2,$3*
1,1,$1+$1,$4,$5*
1,1,$1+$1,$6,$7*
1,1,$1+$1,$8,$9*
0 Add four rect primitives between the rounded corners*
20,1,$1+$1,$2,$3,$4,$5,0*
20,1,$1+$1,$4,$5,$6,$7,0*
20,1,$1+$1,$6,$7,$8,$9,0*
20,1,$1+$1,$8,$9,$2,$3,0*%
G04 Aperture macros list end*
%ADD10R,0.800000X0.500000*%
%ADD11R,0.800000X0.400000*%
%ADD12RoundRect,0.237500X-0.237500X0.250000X-0.237500X-0.250000X0.237500X-0.250000X0.237500X0.250000X0*%
%ADD13R,0.500000X0.800000*%
%ADD14R,0.400000X0.800000*%
%ADD15RoundRect,0.150000X-0.150000X0.825000X-0.150000X-0.825000X0.150000X-0.825000X0.150000X0.825000X0*%
%ADD16RoundRect,0.237500X0.300000X0.237500X-0.300000X0.237500X-0.300000X-0.237500X0.300000X-0.237500X0*%
%ADD17RoundRect,0.100000X-0.637500X-0.100000X0.637500X-0.100000X0.637500X0.100000X-0.637500X0.100000X0*%
%ADD18R,0.600000X1.000000*%
%ADD19RoundRect,0.180000X-0.420000X0.420000X-0.420000X-0.420000X0.420000X-0.420000X0.420000X0.420000X0*%
%ADD20RoundRect,0.237500X0.250000X0.237500X-0.250000X0.237500X-0.250000X-0.237500X0.250000X-0.237500X0*%
%ADD21RoundRect,0.250000X-0.350000X0.450000X-0.350000X-0.450000X0.350000X-0.450000X0.350000X0.450000X0*%
%ADD22RoundRect,0.155000X0.155000X-0.212500X0.155000X0.212500X-0.155000X0.212500X-0.155000X-0.212500X0*%
%ADD23R,0.350000X0.375000*%
%ADD24R,1.500000X1.100000*%
%ADD25R,0.400000X2.100000*%
G04 APERTURE END LIST*
D10*
%TO.C,RN6*%
X142350000Y-98800000D03*
D11*
X142350000Y-99600000D03*
X142350000Y-100400000D03*
D10*
X142350000Y-101200000D03*
X144150000Y-101200000D03*
D11*
X144150000Y-100400000D03*
X144150000Y-99600000D03*
D10*
X144150000Y-98800000D03*
%TD*%
D12*
%TO.C,R1*%
X90200000Y-87175000D03*
X90200000Y-89000000D03*
%TD*%
D13*
%TO.C,RN3*%
X108400000Y-100900000D03*
D14*
X109200000Y-100900000D03*
X110000000Y-100900000D03*
D13*
X110800000Y-100900000D03*
X110800000Y-99100000D03*
D14*
X110000000Y-99100000D03*
X109200000Y-99100000D03*
D13*
X108400000Y-99100000D03*
%TD*%
D15*
%TO.C,U5*%
X120965000Y-106725000D03*
X119695000Y-106725000D03*
X118425000Y-106725000D03*
X117155000Y-106725000D03*
X115885000Y-106725000D03*
X114615000Y-106725000D03*
X113345000Y-106725000D03*
X112075000Y-106725000D03*
X112075000Y-111675000D03*
X113345000Y-111675000D03*
X114615000Y-111675000D03*
X115885000Y-111675000D03*
X117155000Y-111675000D03*
X118425000Y-111675000D03*
X119695000Y-111675000D03*
X120965000Y-111675000D03*
%TD*%
D16*
%TO.C,C4*%
X136262500Y-87990000D03*
X134537500Y-87990000D03*
%TD*%
D15*
%TO.C,U4*%
X137245000Y-106725000D03*
X135975000Y-106725000D03*
X134705000Y-106725000D03*
X133435000Y-106725000D03*
X132165000Y-106725000D03*
X130895000Y-106725000D03*
X129625000Y-106725000D03*
X128355000Y-106725000D03*
X128355000Y-111675000D03*
X129625000Y-111675000D03*
X130895000Y-111675000D03*
X132165000Y-111675000D03*
X133435000Y-111675000D03*
X134705000Y-111675000D03*
X135975000Y-111675000D03*
X137245000Y-111675000D03*
%TD*%
D17*
%TO.C,U1*%
X140137500Y-86875000D03*
X140137500Y-87525000D03*
X140137500Y-88175000D03*
X140137500Y-88825000D03*
X140137500Y-89475000D03*
X140137500Y-90125000D03*
X140137500Y-90775000D03*
X140137500Y-91425000D03*
X140137500Y-92075000D03*
X140137500Y-92725000D03*
X145862500Y-92725000D03*
X145862500Y-92075000D03*
X145862500Y-91425000D03*
X145862500Y-90775000D03*
X145862500Y-90125000D03*
X145862500Y-89475000D03*
X145862500Y-88825000D03*
X145862500Y-88175000D03*
X145862500Y-87525000D03*
X145862500Y-86875000D03*
%TD*%
D13*
%TO.C,RN2*%
X121660000Y-100900000D03*
D14*
X122460000Y-100900000D03*
X123260000Y-100900000D03*
D13*
X124060000Y-100900000D03*
X124060000Y-99100000D03*
D14*
X123260000Y-99100000D03*
X122460000Y-99100000D03*
D13*
X121660000Y-99100000D03*
%TD*%
D16*
%TO.C,C5*%
X136832500Y-93790000D03*
X135107500Y-93790000D03*
%TD*%
D18*
%TO.C,U3*%
X88550000Y-88975000D03*
X87600000Y-88975000D03*
X86650000Y-88975000D03*
X86650000Y-91375000D03*
X88550000Y-91375000D03*
%TD*%
D19*
%TO.C,D5*%
X100600000Y-89200000D03*
X100600000Y-92400000D03*
%TD*%
D20*
%TO.C,R2*%
X102412500Y-87600000D03*
X100587500Y-87600000D03*
%TD*%
D13*
%TO.C,RN5*%
X91180000Y-100900000D03*
D14*
X91980000Y-100900000D03*
X92780000Y-100900000D03*
D13*
X93580000Y-100900000D03*
X93580000Y-99100000D03*
D14*
X92780000Y-99100000D03*
X91980000Y-99100000D03*
D13*
X91180000Y-99100000D03*
%TD*%
D16*
%TO.C,C3*%
X93662500Y-92575000D03*
X91937500Y-92575000D03*
%TD*%
D21*
%TO.C,Y1*%
X135120000Y-89800000D03*
X135120000Y-92000000D03*
X136820000Y-92000000D03*
X136820000Y-89800000D03*
%TD*%
D22*
%TO.C,C1*%
X138600000Y-92567500D03*
X138600000Y-91432500D03*
%TD*%
D15*
%TO.C,U6*%
X100645000Y-106725000D03*
X99375000Y-106725000D03*
X98105000Y-106725000D03*
X96835000Y-106725000D03*
X95565000Y-106725000D03*
X94295000Y-106725000D03*
X93025000Y-106725000D03*
X91755000Y-106725000D03*
X91755000Y-111675000D03*
X93025000Y-111675000D03*
X94295000Y-111675000D03*
X95565000Y-111675000D03*
X96835000Y-111675000D03*
X98105000Y-111675000D03*
X99375000Y-111675000D03*
X100645000Y-111675000D03*
%TD*%
D13*
%TO.C,RN4*%
X101340000Y-100900000D03*
D14*
X102140000Y-100900000D03*
X102940000Y-100900000D03*
D13*
X103740000Y-100900000D03*
X103740000Y-99100000D03*
D14*
X102940000Y-99100000D03*
X102140000Y-99100000D03*
D13*
X101340000Y-99100000D03*
%TD*%
%TO.C,RN1*%
X129200000Y-100900000D03*
D14*
X130000000Y-100900000D03*
X130800000Y-100900000D03*
D13*
X131600000Y-100900000D03*
X131600000Y-99100000D03*
D14*
X130800000Y-99100000D03*
X130000000Y-99100000D03*
D13*
X129200000Y-99100000D03*
%TD*%
D23*
%TO.C,U2*%
X93750000Y-89237500D03*
X93200000Y-89237500D03*
X92650000Y-89237500D03*
D24*
X93200000Y-90175000D03*
D23*
X92650000Y-91112500D03*
X93200000Y-91112500D03*
X93750000Y-91112500D03*
D25*
X94450000Y-90175000D03*
X91950000Y-90175000D03*
%TD*%
D12*
%TO.C,R3*%
X147600000Y-90587500D03*
X147600000Y-92412500D03*
%TD*%
D16*
%TO.C,C2*%
X94062500Y-87775000D03*
X92337500Y-87775000D03*
%TD*%
M02*
