%TF.GenerationSoftware,KiCad,Pcbnew,9.0.3*%
%TF.CreationDate,2026-07-25T14:43:38+09:00*%
%TF.ProjectId,pacer,70616365-722e-46b6-9963-61645f706362,rev?*%
%TF.SameCoordinates,Original*%
%TF.FileFunction,Copper,L1,Top*%
%TF.FilePolarity,Positive*%
%FSLAX46Y46*%
G04 Gerber Fmt 4.6, Leading zero omitted, Abs format (unit mm)*
G04 Created by KiCad (PCBNEW 9.0.3) date 2026-07-25 14:43:38*
%MOMM*%
%LPD*%
G01*
G04 APERTURE LIST*
G04 Aperture macros list*
%AMRoundRect*
0 Rectangle with rounded corners*
0 $1 Rounding radius*
0 $2 $3 $4 $5 $6 $7 $8 $9 X,Y pos of 4 corners*
0 Add a 4 corners polygon primitive as box body*
4,1,4,$2,$3,$4,$5,$6,$7,$8,$9,$2,$3,0*
0 Add four circle primitives for the rounded corners*
1,1,$1+$1,$2,$3*
1,1,$1+$1,$4,$5*
1,1,$1+$1,$6,$7*
1,1,$1+$1,$8,$9*
0 Add four rect primitives between the rounded corners*
20,1,$1+$1,$2,$3,$4,$5,0*
20,1,$1+$1,$4,$5,$6,$7,0*
20,1,$1+$1,$6,$7,$8,$9,0*
20,1,$1+$1,$8,$9,$2,$3,0*%
G04 Aperture macros list end*
%TA.AperFunction,ComponentPad*%
%ADD10R,2.032000X2.032000*%
%TD*%
%TA.AperFunction,ComponentPad*%
%ADD11C,2.032000*%
%TD*%
%TA.AperFunction,SMDPad,CuDef*%
%ADD12R,0.800000X0.500000*%
%TD*%
%TA.AperFunction,SMDPad,CuDef*%
%ADD13R,0.800000X0.400000*%
%TD*%
%TA.AperFunction,SMDPad,CuDef*%
%ADD14RoundRect,0.237500X-0.237500X0.250000X-0.237500X-0.250000X0.237500X-0.250000X0.237500X0.250000X0*%
%TD*%
%TA.AperFunction,SMDPad,CuDef*%
%ADD15R,0.500000X0.800000*%
%TD*%
%TA.AperFunction,SMDPad,CuDef*%
%ADD16R,0.400000X0.800000*%
%TD*%
%TA.AperFunction,SMDPad,CuDef*%
%ADD17RoundRect,0.150000X-0.150000X0.825000X-0.150000X-0.825000X0.150000X-0.825000X0.150000X0.825000X0*%
%TD*%
%TA.AperFunction,SMDPad,CuDef*%
%ADD18RoundRect,0.237500X0.300000X0.237500X-0.300000X0.237500X-0.300000X-0.237500X0.300000X-0.237500X0*%
%TD*%
%TA.AperFunction,SMDPad,CuDef*%
%ADD19RoundRect,0.100000X-0.637500X-0.100000X0.637500X-0.100000X0.637500X0.100000X-0.637500X0.100000X0*%
%TD*%
%TA.AperFunction,SMDPad,CuDef*%
%ADD20R,0.600000X1.000000*%
%TD*%
%TA.AperFunction,SMDPad,CuDef*%
%ADD21RoundRect,0.180000X-0.420000X0.420000X-0.420000X-0.420000X0.420000X-0.420000X0.420000X0.420000X0*%
%TD*%
%TA.AperFunction,SMDPad,CuDef*%
%ADD22RoundRect,0.237500X0.250000X0.237500X-0.250000X0.237500X-0.250000X-0.237500X0.250000X-0.237500X0*%
%TD*%
%TA.AperFunction,SMDPad,CuDef*%
%ADD23RoundRect,0.250000X-0.350000X0.450000X-0.350000X-0.450000X0.350000X-0.450000X0.350000X0.450000X0*%
%TD*%
%TA.AperFunction,SMDPad,CuDef*%
%ADD24RoundRect,0.155000X0.155000X-0.212500X0.155000X0.212500X-0.155000X0.212500X-0.155000X-0.212500X0*%
%TD*%
%TA.AperFunction,SMDPad,CuDef*%
%ADD25R,0.350000X0.375000*%
%TD*%
%TA.AperFunction,SMDPad,CuDef*%
%ADD26R,1.500000X1.100000*%
%TD*%
%TA.AperFunction,SMDPad,CuDef*%
%ADD27R,0.400000X2.100000*%
%TD*%
%TA.AperFunction,ComponentPad*%
%ADD28C,1.400000*%
%TD*%
%TA.AperFunction,ComponentPad*%
%ADD29R,1.700000X1.700000*%
%TD*%
%TA.AperFunction,ComponentPad*%
%ADD30C,1.700000*%
%TD*%
%TA.AperFunction,ViaPad*%
%ADD31C,0.450000*%
%TD*%
%TA.AperFunction,ViaPad*%
%ADD32C,0.600000*%
%TD*%
%TA.AperFunction,Conductor*%
%ADD33C,0.200000*%
%TD*%
%TA.AperFunction,Conductor*%
%ADD34C,0.300000*%
%TD*%
%TA.AperFunction,Conductor*%
%ADD35C,0.150000*%
%TD*%
G04 APERTURE END LIST*
D10*
%TO.P,BAR3,1,A*%
%TO.N,Net-(U4-QD)*%
X147060000Y-105080000D03*
D11*
%TO.P,BAR3,2,A*%
%TO.N,Net-(U4-QC)*%
X147060000Y-102540000D03*
%TO.P,BAR3,3,A*%
%TO.N,Net-(U4-QB)*%
X147060000Y-100000000D03*
%TO.P,BAR3,4,A*%
%TO.N,Net-(U4-QA)*%
X147060000Y-97460000D03*
%TO.P,BAR3,5,A*%
%TO.N,Net-(BAR3-A-Pad5)*%
X147060000Y-94920000D03*
%TO.P,BAR3,6,K*%
%TO.N,GND*%
X139440000Y-94920000D03*
%TO.P,BAR3,7,K*%
%TO.N,Net-(RN6-R1.1)*%
X139440000Y-97460000D03*
%TO.P,BAR3,8,K*%
%TO.N,Net-(RN6-R2.1)*%
X139440000Y-100000000D03*
%TO.P,BAR3,9,K*%
%TO.N,Net-(RN6-R3.1)*%
X139440000Y-102540000D03*
%TO.P,BAR3,10,K*%
%TO.N,Net-(RN6-R4.1)*%
X139440000Y-105080000D03*
%TD*%
D10*
%TO.P,BAR2,1,A*%
%TO.N,Net-(U5-QF)*%
X113970000Y-103810000D03*
D11*
%TO.P,BAR2,2,A*%
%TO.N,Net-(U5-QE)*%
X116510000Y-103810000D03*
%TO.P,BAR2,3,A*%
%TO.N,Net-(U5-QD)*%
X119050000Y-103810000D03*
%TO.P,BAR2,4,A*%
%TO.N,Net-(U5-QC)*%
X121590000Y-103810000D03*
%TO.P,BAR2,5,A*%
%TO.N,Net-(U5-QB)*%
X124130000Y-103810000D03*
%TO.P,BAR2,6,A*%
%TO.N,Net-(U5-QA)*%
X126670000Y-103810000D03*
%TO.P,BAR2,7,A*%
%TO.N,Net-(U4-QH)*%
X129210000Y-103810000D03*
%TO.P,BAR2,8,A*%
%TO.N,Net-(U4-QG)*%
X131750000Y-103810000D03*
%TO.P,BAR2,9,A*%
%TO.N,Net-(U4-QF)*%
X134290000Y-103810000D03*
%TO.P,BAR2,10,A*%
%TO.N,Net-(U4-QE)*%
X136830000Y-103810000D03*
%TO.P,BAR2,11,K*%
%TO.N,Net-(RN1-R4.2)*%
X136830000Y-96190000D03*
%TO.P,BAR2,12,K*%
%TO.N,Net-(RN1-R3.2)*%
X134290000Y-96190000D03*
%TO.P,BAR2,13,K*%
%TO.N,Net-(RN1-R2.2)*%
X131750000Y-96190000D03*
%TO.P,BAR2,14,K*%
%TO.N,Net-(RN1-R1.2)*%
X129210000Y-96190000D03*
%TO.P,BAR2,15,K*%
%TO.N,Net-(RN2-R4.2)*%
X126670000Y-96190000D03*
%TO.P,BAR2,16,K*%
%TO.N,Net-(RN2-R3.2)*%
X124130000Y-96190000D03*
%TO.P,BAR2,17,K*%
%TO.N,Net-(RN2-R2.2)*%
X121590000Y-96190000D03*
%TO.P,BAR2,18,K*%
%TO.N,Net-(RN2-R1.2)*%
X119050000Y-96190000D03*
%TO.P,BAR2,19,K*%
%TO.N,Net-(RN3-R4.2)*%
X116510000Y-96190000D03*
%TO.P,BAR2,20,K*%
%TO.N,Net-(RN3-R3.2)*%
X113970000Y-96190000D03*
%TD*%
D12*
%TO.P,RN6,1,R1.1*%
%TO.N,Net-(RN6-R1.1)*%
X142350000Y-98800000D03*
D13*
%TO.P,RN6,2,R2.1*%
%TO.N,Net-(RN6-R2.1)*%
X142350000Y-99600000D03*
%TO.P,RN6,3,R3.1*%
%TO.N,Net-(RN6-R3.1)*%
X142350000Y-100400000D03*
D12*
%TO.P,RN6,4,R4.1*%
%TO.N,Net-(RN6-R4.1)*%
X142350000Y-101200000D03*
%TO.P,RN6,5,R4.2*%
%TO.N,GND*%
X144150000Y-101200000D03*
D13*
%TO.P,RN6,6,R3.2*%
X144150000Y-100400000D03*
%TO.P,RN6,7,R2.2*%
X144150000Y-99600000D03*
D12*
%TO.P,RN6,8,R1.2*%
X144150000Y-98800000D03*
%TD*%
D14*
%TO.P,R1,1*%
%TO.N,+BATT*%
X90200000Y-87175000D03*
%TO.P,R1,2*%
%TO.N,Net-(U2-CE)*%
X90200000Y-89000000D03*
%TD*%
D15*
%TO.P,RN3,1,R1.1*%
%TO.N,GND*%
X108400000Y-100900000D03*
D16*
%TO.P,RN3,2,R2.1*%
X109200000Y-100900000D03*
%TO.P,RN3,3,R3.1*%
X110000000Y-100900000D03*
D15*
%TO.P,RN3,4,R4.1*%
X110800000Y-100900000D03*
%TO.P,RN3,5,R4.2*%
%TO.N,Net-(RN3-R4.2)*%
X110800000Y-99100000D03*
D16*
%TO.P,RN3,6,R3.2*%
%TO.N,Net-(RN3-R3.2)*%
X110000000Y-99100000D03*
%TO.P,RN3,7,R2.2*%
%TO.N,Net-(RN3-R2.2)*%
X109200000Y-99100000D03*
D15*
%TO.P,RN3,8,R1.2*%
%TO.N,Net-(RN3-R1.2)*%
X108400000Y-99100000D03*
%TD*%
D17*
%TO.P,U5,1,QB*%
%TO.N,Net-(U5-QB)*%
X120965000Y-106725000D03*
%TO.P,U5,2,QC*%
%TO.N,Net-(U5-QC)*%
X119695000Y-106725000D03*
%TO.P,U5,3,QD*%
%TO.N,Net-(U5-QD)*%
X118425000Y-106725000D03*
%TO.P,U5,4,QE*%
%TO.N,Net-(U5-QE)*%
X117155000Y-106725000D03*
%TO.P,U5,5,QF*%
%TO.N,Net-(U5-QF)*%
X115885000Y-106725000D03*
%TO.P,U5,6,QG*%
%TO.N,Net-(U5-QG)*%
X114615000Y-106725000D03*
%TO.P,U5,7,QH*%
%TO.N,Net-(U5-QH)*%
X113345000Y-106725000D03*
%TO.P,U5,8,GND*%
%TO.N,GND*%
X112075000Y-106725000D03*
%TO.P,U5,9,QH'*%
%TO.N,Net-(U5-QH')*%
X112075000Y-111675000D03*
%TO.P,U5,10,~{SRCLR}*%
%TO.N,+3V3*%
X113345000Y-111675000D03*
%TO.P,U5,11,SRCLK*%
%TO.N,LED_CLK*%
X114615000Y-111675000D03*
%TO.P,U5,12,RCLK*%
%TO.N,LED_LATCH*%
X115885000Y-111675000D03*
%TO.P,U5,13,~{OE}*%
%TO.N,GND*%
X117155000Y-111675000D03*
%TO.P,U5,14,SER*%
%TO.N,Net-(U4-QH')*%
X118425000Y-111675000D03*
%TO.P,U5,15,QA*%
%TO.N,Net-(U5-QA)*%
X119695000Y-111675000D03*
%TO.P,U5,16,VCC*%
%TO.N,+3V3*%
X120965000Y-111675000D03*
%TD*%
D18*
%TO.P,C4,1*%
%TO.N,GND*%
X136262500Y-87990000D03*
%TO.P,C4,2*%
%TO.N,Net-(U1-PA1)*%
X134537500Y-87990000D03*
%TD*%
D17*
%TO.P,U4,1,QB*%
%TO.N,Net-(U4-QB)*%
X137245000Y-106725000D03*
%TO.P,U4,2,QC*%
%TO.N,Net-(U4-QC)*%
X135975000Y-106725000D03*
%TO.P,U4,3,QD*%
%TO.N,Net-(U4-QD)*%
X134705000Y-106725000D03*
%TO.P,U4,4,QE*%
%TO.N,Net-(U4-QE)*%
X133435000Y-106725000D03*
%TO.P,U4,5,QF*%
%TO.N,Net-(U4-QF)*%
X132165000Y-106725000D03*
%TO.P,U4,6,QG*%
%TO.N,Net-(U4-QG)*%
X130895000Y-106725000D03*
%TO.P,U4,7,QH*%
%TO.N,Net-(U4-QH)*%
X129625000Y-106725000D03*
%TO.P,U4,8,GND*%
%TO.N,GND*%
X128355000Y-106725000D03*
%TO.P,U4,9,QH'*%
%TO.N,Net-(U4-QH')*%
X128355000Y-111675000D03*
%TO.P,U4,10,~{SRCLR}*%
%TO.N,+3V3*%
X129625000Y-111675000D03*
%TO.P,U4,11,SRCLK*%
%TO.N,LED_CLK*%
X130895000Y-111675000D03*
%TO.P,U4,12,RCLK*%
%TO.N,LED_LATCH*%
X132165000Y-111675000D03*
%TO.P,U4,13,~{OE}*%
%TO.N,GND*%
X133435000Y-111675000D03*
%TO.P,U4,14,SER*%
%TO.N,LED_DATA*%
X134705000Y-111675000D03*
%TO.P,U4,15,QA*%
%TO.N,Net-(U4-QA)*%
X135975000Y-111675000D03*
%TO.P,U4,16,VCC*%
%TO.N,+3V3*%
X137245000Y-111675000D03*
%TD*%
D19*
%TO.P,U1,1,PD4*%
%TO.N,BUZZER*%
X140137500Y-86875000D03*
%TO.P,U1,2,PD5*%
%TO.N,unconnected-(U1-PD5-Pad2)*%
X140137500Y-87525000D03*
%TO.P,U1,3,PD6*%
%TO.N,unconnected-(U1-PD6-Pad3)*%
X140137500Y-88175000D03*
%TO.P,U1,4,NRST*%
%TO.N,~{RST}*%
X140137500Y-88825000D03*
%TO.P,U1,5,OSCI*%
%TO.N,Net-(U1-PA1)*%
X140137500Y-89475000D03*
%TO.P,U1,6,OSCO*%
%TO.N,Net-(U1-PA2)*%
X140137500Y-90125000D03*
%TO.P,U1,7,VSS*%
%TO.N,GND*%
X140137500Y-90775000D03*
%TO.P,U1,8,PD0*%
%TO.N,unconnected-(U1-PD0-Pad8)*%
X140137500Y-91425000D03*
%TO.P,U1,9,VDD*%
%TO.N,+3V3*%
X140137500Y-92075000D03*
%TO.P,U1,10,PC0*%
%TO.N,unconnected-(U1-PC0-Pad10)*%
X140137500Y-92725000D03*
%TO.P,U1,11,PC1*%
%TO.N,unconnected-(U1-PC1-Pad11)*%
X145862500Y-92725000D03*
%TO.P,U1,12,PC2*%
%TO.N,unconnected-(U1-PC2-Pad12)*%
X145862500Y-92075000D03*
%TO.P,U1,13,PC3*%
%TO.N,unconnected-(U1-PC3-Pad13)*%
X145862500Y-91425000D03*
%TO.P,U1,14,PC4*%
%TO.N,LED_LATCH*%
X145862500Y-90775000D03*
%TO.P,U1,15,SCK*%
%TO.N,LED_CLK*%
X145862500Y-90125000D03*
%TO.P,U1,16,MOSI*%
%TO.N,LED_DATA*%
X145862500Y-89475000D03*
%TO.P,U1,17,PC7*%
%TO.N,IND*%
X145862500Y-88825000D03*
%TO.P,U1,18,SWIO*%
%TO.N,SWIO*%
X145862500Y-88175000D03*
%TO.P,U1,19,PD2*%
%TO.N,unconnected-(U1-PD2-Pad19)*%
X145862500Y-87525000D03*
%TO.P,U1,20,PD3*%
%TO.N,unconnected-(U1-PD3-Pad20)*%
X145862500Y-86875000D03*
%TD*%
D15*
%TO.P,RN2,1,R1.1*%
%TO.N,GND*%
X121660000Y-100900000D03*
D16*
%TO.P,RN2,2,R2.1*%
X122460000Y-100900000D03*
%TO.P,RN2,3,R3.1*%
X123260000Y-100900000D03*
D15*
%TO.P,RN2,4,R4.1*%
X124060000Y-100900000D03*
%TO.P,RN2,5,R4.2*%
%TO.N,Net-(RN2-R4.2)*%
X124060000Y-99100000D03*
D16*
%TO.P,RN2,6,R3.2*%
%TO.N,Net-(RN2-R3.2)*%
X123260000Y-99100000D03*
%TO.P,RN2,7,R2.2*%
%TO.N,Net-(RN2-R2.2)*%
X122460000Y-99100000D03*
D15*
%TO.P,RN2,8,R1.2*%
%TO.N,Net-(RN2-R1.2)*%
X121660000Y-99100000D03*
%TD*%
D18*
%TO.P,C5,1*%
%TO.N,Net-(U1-PA2)*%
X136832500Y-93790000D03*
%TO.P,C5,2*%
%TO.N,GND*%
X135107500Y-93790000D03*
%TD*%
D20*
%TO.P,U3,1,VOUT*%
%TO.N,Net-(U2-CE)*%
X88550000Y-88975000D03*
%TO.P,U3,2,VDD*%
%TO.N,+BATT*%
X87600000Y-88975000D03*
%TO.P,U3,3,GND*%
%TO.N,GND*%
X86650000Y-88975000D03*
%TO.P,U3,4,NC*%
%TO.N,unconnected-(U3-NC-Pad4)*%
X86650000Y-91375000D03*
%TO.P,U3,5,CT*%
%TO.N,unconnected-(U3-CT-Pad5)*%
X88550000Y-91375000D03*
%TD*%
D21*
%TO.P,D5,1,K*%
%TO.N,BUZZER_DRV*%
X100600000Y-89200000D03*
%TO.P,D5,2,A*%
%TO.N,GND*%
X100600000Y-92400000D03*
%TD*%
D22*
%TO.P,R2,1*%
%TO.N,Net-(SW1-A)*%
X102412500Y-87600000D03*
%TO.P,R2,2*%
%TO.N,BUZZER_DRV*%
X100587500Y-87600000D03*
%TD*%
D15*
%TO.P,RN5,1,R1.1*%
%TO.N,GND*%
X91180000Y-100900000D03*
D16*
%TO.P,RN5,2,R2.1*%
X91980000Y-100900000D03*
%TO.P,RN5,3,R3.1*%
X92780000Y-100900000D03*
D15*
%TO.P,RN5,4,R4.1*%
X93580000Y-100900000D03*
%TO.P,RN5,5,R4.2*%
%TO.N,Net-(RN5-R4.2)*%
X93580000Y-99100000D03*
D16*
%TO.P,RN5,6,R3.2*%
%TO.N,Net-(RN5-R3.2)*%
X92780000Y-99100000D03*
%TO.P,RN5,7,R2.2*%
%TO.N,Net-(RN5-R2.2)*%
X91980000Y-99100000D03*
D15*
%TO.P,RN5,8,R1.2*%
%TO.N,Net-(RN5-R1.2)*%
X91180000Y-99100000D03*
%TD*%
D18*
%TO.P,C3,1*%
%TO.N,+3V3*%
X93662500Y-92575000D03*
%TO.P,C3,2*%
%TO.N,GND*%
X91937500Y-92575000D03*
%TD*%
D23*
%TO.P,Y1,1,1*%
%TO.N,Net-(U1-PA1)*%
X135120000Y-89800000D03*
%TO.P,Y1,2,2*%
%TO.N,GND*%
X135120000Y-92000000D03*
%TO.P,Y1,3,3*%
%TO.N,Net-(U1-PA2)*%
X136820000Y-92000000D03*
%TO.P,Y1,4,4*%
%TO.N,GND*%
X136820000Y-89800000D03*
%TD*%
D24*
%TO.P,C1,1*%
%TO.N,+3V3*%
X138600000Y-92567500D03*
%TO.P,C1,2*%
%TO.N,GND*%
X138600000Y-91432500D03*
%TD*%
D17*
%TO.P,U6,1,QB*%
%TO.N,Net-(U6-QB)*%
X100645000Y-106725000D03*
%TO.P,U6,2,QC*%
%TO.N,Net-(U6-QC)*%
X99375000Y-106725000D03*
%TO.P,U6,3,QD*%
%TO.N,Net-(U6-QD)*%
X98105000Y-106725000D03*
%TO.P,U6,4,QE*%
%TO.N,Net-(U6-QE)*%
X96835000Y-106725000D03*
%TO.P,U6,5,QF*%
%TO.N,Net-(U6-QF)*%
X95565000Y-106725000D03*
%TO.P,U6,6,QG*%
%TO.N,Net-(U6-QG)*%
X94295000Y-106725000D03*
%TO.P,U6,7,QH*%
%TO.N,Net-(U6-QH)*%
X93025000Y-106725000D03*
%TO.P,U6,8,GND*%
%TO.N,GND*%
X91755000Y-106725000D03*
%TO.P,U6,9,QH'*%
%TO.N,unconnected-(U6-QH&apos;-Pad9)*%
X91755000Y-111675000D03*
%TO.P,U6,10,~{SRCLR}*%
%TO.N,+3V3*%
X93025000Y-111675000D03*
%TO.P,U6,11,SRCLK*%
%TO.N,LED_CLK*%
X94295000Y-111675000D03*
%TO.P,U6,12,RCLK*%
%TO.N,LED_LATCH*%
X95565000Y-111675000D03*
%TO.P,U6,13,~{OE}*%
%TO.N,GND*%
X96835000Y-111675000D03*
%TO.P,U6,14,SER*%
%TO.N,Net-(U5-QH')*%
X98105000Y-111675000D03*
%TO.P,U6,15,QA*%
%TO.N,Net-(U6-QA)*%
X99375000Y-111675000D03*
%TO.P,U6,16,VCC*%
%TO.N,+3V3*%
X100645000Y-111675000D03*
%TD*%
D15*
%TO.P,RN4,1,R1.1*%
%TO.N,GND*%
X101340000Y-100900000D03*
D16*
%TO.P,RN4,2,R2.1*%
X102140000Y-100900000D03*
%TO.P,RN4,3,R3.1*%
X102940000Y-100900000D03*
D15*
%TO.P,RN4,4,R4.1*%
X103740000Y-100900000D03*
%TO.P,RN4,5,R4.2*%
%TO.N,Net-(RN4-R4.2)*%
X103740000Y-99100000D03*
D16*
%TO.P,RN4,6,R3.2*%
%TO.N,Net-(RN4-R3.2)*%
X102940000Y-99100000D03*
%TO.P,RN4,7,R2.2*%
%TO.N,Net-(RN4-R2.2)*%
X102140000Y-99100000D03*
D15*
%TO.P,RN4,8,R1.2*%
%TO.N,Net-(RN4-R1.2)*%
X101340000Y-99100000D03*
%TD*%
%TO.P,RN1,1,R1.1*%
%TO.N,GND*%
X129200000Y-100900000D03*
D16*
%TO.P,RN1,2,R2.1*%
X130000000Y-100900000D03*
%TO.P,RN1,3,R3.1*%
X130800000Y-100900000D03*
D15*
%TO.P,RN1,4,R4.1*%
X131600000Y-100900000D03*
%TO.P,RN1,5,R4.2*%
%TO.N,Net-(RN1-R4.2)*%
X131600000Y-99100000D03*
D16*
%TO.P,RN1,6,R3.2*%
%TO.N,Net-(RN1-R3.2)*%
X130800000Y-99100000D03*
%TO.P,RN1,7,R2.2*%
%TO.N,Net-(RN1-R2.2)*%
X130000000Y-99100000D03*
D15*
%TO.P,RN1,8,R1.2*%
%TO.N,Net-(RN1-R1.2)*%
X129200000Y-99100000D03*
%TD*%
D10*
%TO.P,BAR1,1,A*%
%TO.N,Net-(U6-QH)*%
X88570000Y-103810000D03*
D11*
%TO.P,BAR1,2,A*%
%TO.N,Net-(U6-QG)*%
X91110000Y-103810000D03*
%TO.P,BAR1,3,A*%
%TO.N,Net-(U6-QF)*%
X93650000Y-103810000D03*
%TO.P,BAR1,4,A*%
%TO.N,Net-(U6-QE)*%
X96190000Y-103810000D03*
%TO.P,BAR1,5,A*%
%TO.N,Net-(U6-QD)*%
X98730000Y-103810000D03*
%TO.P,BAR1,6,A*%
%TO.N,Net-(U6-QC)*%
X101270000Y-103810000D03*
%TO.P,BAR1,7,A*%
%TO.N,Net-(U6-QB)*%
X103810000Y-103810000D03*
%TO.P,BAR1,8,A*%
%TO.N,Net-(U6-QA)*%
X106350000Y-103810000D03*
%TO.P,BAR1,9,A*%
%TO.N,Net-(U5-QH)*%
X108890000Y-103810000D03*
%TO.P,BAR1,10,A*%
%TO.N,Net-(U5-QG)*%
X111430000Y-103810000D03*
%TO.P,BAR1,11,K*%
%TO.N,Net-(RN3-R2.2)*%
X111430000Y-96190000D03*
%TO.P,BAR1,12,K*%
%TO.N,Net-(RN3-R1.2)*%
X108890000Y-96190000D03*
%TO.P,BAR1,13,K*%
%TO.N,Net-(RN4-R4.2)*%
X106350000Y-96190000D03*
%TO.P,BAR1,14,K*%
%TO.N,Net-(RN4-R3.2)*%
X103810000Y-96190000D03*
%TO.P,BAR1,15,K*%
%TO.N,Net-(RN4-R2.2)*%
X101270000Y-96190000D03*
%TO.P,BAR1,16,K*%
%TO.N,Net-(RN4-R1.2)*%
X98730000Y-96190000D03*
%TO.P,BAR1,17,K*%
%TO.N,Net-(RN5-R4.2)*%
X96190000Y-96190000D03*
%TO.P,BAR1,18,K*%
%TO.N,Net-(RN5-R3.2)*%
X93650000Y-96190000D03*
%TO.P,BAR1,19,K*%
%TO.N,Net-(RN5-R2.2)*%
X91110000Y-96190000D03*
%TO.P,BAR1,20,K*%
%TO.N,Net-(RN5-R1.2)*%
X88570000Y-96190000D03*
%TD*%
D25*
%TO.P,U2,1,VBAT*%
%TO.N,+BATT*%
X93750000Y-89237500D03*
%TO.P,U2,2,GND*%
%TO.N,GND*%
X93200000Y-89237500D03*
%TO.P,U2,3,CE*%
%TO.N,Net-(U2-CE)*%
X92650000Y-89237500D03*
D26*
%TO.P,U2,4,GND*%
%TO.N,GND*%
X93200000Y-90175000D03*
D25*
X92650000Y-91112500D03*
%TO.P,U2,5,Lx*%
%TO.N,Net-(U2-L2)*%
X93200000Y-91112500D03*
%TO.P,U2,6,VOUT*%
%TO.N,+3V3*%
X93750000Y-91112500D03*
D27*
%TO.P,U2,7,L1*%
%TO.N,+BATT*%
X94450000Y-90175000D03*
%TO.P,U2,8,L2*%
%TO.N,Net-(U2-L2)*%
X91950000Y-90175000D03*
%TD*%
D14*
%TO.P,R3,1*%
%TO.N,IND*%
X147600000Y-90587500D03*
%TO.P,R3,2*%
%TO.N,Net-(BAR3-A-Pad5)*%
X147600000Y-92412500D03*
%TD*%
D18*
%TO.P,C2,1*%
%TO.N,+BATT*%
X94062500Y-87775000D03*
%TO.P,C2,2*%
%TO.N,GND*%
X92337500Y-87775000D03*
%TD*%
D28*
%TO.P,SW1,1,A*%
%TO.N,Net-(SW1-A)*%
X103300000Y-90200000D03*
%TO.P,SW1,2,B*%
%TO.N,BUZZER*%
X105800000Y-87000000D03*
%TO.P,SW1,3,C*%
%TO.N,unconnected-(SW1-C-Pad3)*%
X108300000Y-90200000D03*
%TD*%
D29*
%TO.P,J2,1,Pin_1*%
%TO.N,BUZZER_DRV*%
X97500000Y-87725000D03*
D30*
%TO.P,J2,2,Pin_2*%
%TO.N,+BATT*%
X97500000Y-90265000D03*
%TD*%
D29*
%TO.P,J3,1,Pin_1*%
%TO.N,GND*%
X146600000Y-109725000D03*
D30*
%TO.P,J3,2,Pin_2*%
X146600000Y-112265000D03*
%TD*%
%TO.P,J1,1,Pin_1*%
%TO.N,+3V3*%
X123190000Y-89600000D03*
%TO.P,J1,2,Pin_2*%
%TO.N,SWIO*%
X125730000Y-89600000D03*
%TO.P,J1,3,Pin_3*%
%TO.N,~{RST}*%
X128270000Y-89600000D03*
D29*
%TO.P,J1,4,Pin_4*%
%TO.N,GND*%
X130810000Y-89600000D03*
%TD*%
D31*
%TO.N,GND*%
X113000000Y-93000000D03*
D32*
X97500000Y-110000000D03*
X96600000Y-92400000D03*
X110800000Y-106600000D03*
X138100000Y-89500000D03*
X90400000Y-106600000D03*
X91200000Y-88000000D03*
D31*
X138500000Y-113200000D03*
D32*
X134000000Y-110000000D03*
X137919329Y-91499471D03*
D31*
X143000000Y-87000000D03*
X142500000Y-94000000D03*
X122200000Y-106600000D03*
X88000000Y-100000000D03*
D32*
X136500000Y-100900000D03*
D31*
X101500000Y-86700000D03*
D32*
X106400000Y-100900000D03*
D31*
X120300000Y-94400000D03*
X87000000Y-87100000D03*
D32*
X126700000Y-100900000D03*
D31*
X101800000Y-106600000D03*
D32*
X117800000Y-110000000D03*
D31*
X94800000Y-108600000D03*
D32*
X116800000Y-100900000D03*
X97200000Y-100900000D03*
D31*
X90400000Y-113200000D03*
D32*
X90200000Y-92000000D03*
D31*
X143000000Y-89200000D03*
X145500000Y-94000000D03*
D32*
X127200000Y-106600000D03*
X133000000Y-94400000D03*
%TO.N,+3V3*%
X129900000Y-110000000D03*
X92400000Y-94100000D03*
X92800000Y-110000000D03*
X138600000Y-93300000D03*
D31*
%TO.N,SWIO*%
X144600000Y-88200000D03*
%TO.N,LED_CLK*%
X131100000Y-110200000D03*
X116800000Y-108200000D03*
X114800000Y-110200000D03*
X144000000Y-90700000D03*
X133100000Y-108200000D03*
%TO.N,LED_LATCH*%
X144100000Y-91400000D03*
X140400000Y-108800000D03*
%TO.N,LED_DATA*%
X135202501Y-110202501D03*
X144700000Y-89600000D03*
%TO.N,Net-(U4-QA)*%
X136200000Y-110200000D03*
%TO.N,Net-(U5-QA)*%
X119900000Y-110200000D03*
%TO.N,Net-(U6-QA)*%
X99700000Y-110200000D03*
%TO.N,Net-(U2-L2)*%
X93200000Y-91600000D03*
X91400000Y-90200000D03*
%TD*%
D33*
%TO.N,Net-(RN1-R4.2)*%
X132600000Y-98100000D02*
X134920000Y-98100000D01*
X131600000Y-99100000D02*
X132600000Y-98100000D01*
X134920000Y-98100000D02*
X136830000Y-96190000D01*
%TO.N,Net-(RN1-R3.2)*%
X130800000Y-98500000D02*
X131700000Y-97600000D01*
X132880000Y-97600000D02*
X134290000Y-96190000D01*
X131700000Y-97600000D02*
X132880000Y-97600000D01*
X130800000Y-99100000D02*
X130800000Y-98500000D01*
%TO.N,Net-(RN3-R2.2)*%
X109200000Y-99100000D02*
X109200000Y-98420000D01*
X109200000Y-98420000D02*
X111430000Y-96190000D01*
%TO.N,Net-(RN2-R3.2)*%
X123260000Y-97060000D02*
X124130000Y-96190000D01*
X123260000Y-99100000D02*
X123260000Y-97060000D01*
%TO.N,Net-(RN2-R1.2)*%
X121660000Y-98800000D02*
X119050000Y-96190000D01*
X121660000Y-99100000D02*
X121660000Y-98800000D01*
%TO.N,Net-(RN1-R1.2)*%
X129200000Y-96200000D02*
X129210000Y-96190000D01*
X129200000Y-99100000D02*
X129200000Y-96200000D01*
%TO.N,Net-(RN1-R2.2)*%
X130000000Y-99100000D02*
X130000000Y-97940000D01*
X130000000Y-97940000D02*
X131750000Y-96190000D01*
%TO.N,Net-(RN2-R2.2)*%
X122460000Y-97060000D02*
X121590000Y-96190000D01*
X122460000Y-99100000D02*
X122460000Y-97060000D01*
%TO.N,Net-(RN3-R1.2)*%
X108400000Y-99100000D02*
X108400000Y-96680000D01*
X108400000Y-96680000D02*
X108890000Y-96190000D01*
%TO.N,Net-(RN2-R4.2)*%
X124060000Y-99100000D02*
X124060000Y-98800000D01*
X124060000Y-98800000D02*
X126670000Y-96190000D01*
%TO.N,Net-(RN3-R4.2)*%
X113600000Y-99100000D02*
X116510000Y-96190000D01*
X110800000Y-99100000D02*
X113600000Y-99100000D01*
%TO.N,Net-(RN4-R4.2)*%
X103740000Y-98800000D02*
X106350000Y-96190000D01*
X103740000Y-99100000D02*
X103740000Y-98800000D01*
%TO.N,Net-(RN4-R3.2)*%
X102940000Y-97060000D02*
X103810000Y-96190000D01*
X102940000Y-99100000D02*
X102940000Y-97060000D01*
%TO.N,Net-(RN5-R4.2)*%
X93580000Y-99100000D02*
X93580000Y-98800000D01*
X93580000Y-98800000D02*
X96190000Y-96190000D01*
%TO.N,Net-(RN4-R1.2)*%
X101340000Y-99100000D02*
X101340000Y-98800000D01*
X101340000Y-98800000D02*
X98730000Y-96190000D01*
%TO.N,Net-(RN5-R1.2)*%
X91180000Y-98800000D02*
X88570000Y-96190000D01*
X91180000Y-99100000D02*
X91180000Y-98800000D01*
%TO.N,Net-(RN4-R2.2)*%
X102140000Y-97060000D02*
X101270000Y-96190000D01*
X102140000Y-99100000D02*
X102140000Y-97060000D01*
%TO.N,Net-(RN5-R2.2)*%
X91980000Y-97060000D02*
X91110000Y-96190000D01*
X91980000Y-99100000D02*
X91980000Y-97060000D01*
%TO.N,Net-(RN5-R3.2)*%
X92780000Y-99100000D02*
X92780000Y-97060000D01*
X92780000Y-97060000D02*
X93650000Y-96190000D01*
%TO.N,Net-(RN3-R3.2)*%
X110000000Y-99100000D02*
X110000000Y-98748000D01*
X110000000Y-98748000D02*
X110748000Y-98000000D01*
X110748000Y-98000000D02*
X112160000Y-98000000D01*
X112160000Y-98000000D02*
X113970000Y-96190000D01*
D34*
%TO.N,GND*%
X91755000Y-106725000D02*
X90525000Y-106725000D01*
X97200000Y-93000000D02*
X96600000Y-92400000D01*
X90775000Y-92575000D02*
X90200000Y-92000000D01*
X136820000Y-88547500D02*
X136262500Y-87990000D01*
X138600000Y-91432500D02*
X137986300Y-91432500D01*
X127325000Y-106725000D02*
X127200000Y-106600000D01*
X137800000Y-89800000D02*
X138100000Y-89500000D01*
X116800000Y-100900000D02*
X126700000Y-100900000D01*
X90525000Y-106725000D02*
X90400000Y-106600000D01*
X91180000Y-100900000D02*
X97200000Y-100900000D01*
X117155000Y-110645000D02*
X117800000Y-110000000D01*
X146575000Y-109700000D02*
X146600000Y-109725000D01*
X96835000Y-110665000D02*
X97500000Y-110000000D01*
X140137500Y-90775000D02*
X139257500Y-90775000D01*
X100600000Y-92400000D02*
X100000000Y-93000000D01*
X126700000Y-100900000D02*
X131600000Y-100900000D01*
X92337500Y-87775000D02*
X91425000Y-87775000D01*
X133435000Y-110565000D02*
X134000000Y-110000000D01*
D35*
X88600000Y-106600000D02*
X90400000Y-106600000D01*
D34*
X92650000Y-90725000D02*
X93200000Y-90175000D01*
D35*
X87328000Y-105328000D02*
X88600000Y-106600000D01*
D34*
X144800000Y-101200000D02*
X145300000Y-100700000D01*
X139257500Y-90775000D02*
X138600000Y-91432500D01*
X136820000Y-89800000D02*
X137800000Y-89800000D01*
X100000000Y-93000000D02*
X97200000Y-93000000D01*
X137986300Y-91432500D02*
X137919329Y-91499471D01*
X133435000Y-111675000D02*
X133435000Y-110565000D01*
X96835000Y-111675000D02*
X96835000Y-110665000D01*
X93200000Y-88637500D02*
X93200000Y-89237500D01*
X135107500Y-92012500D02*
X135120000Y-92000000D01*
X91937500Y-92047912D02*
X91937500Y-92575000D01*
X136820000Y-89800000D02*
X136820000Y-88547500D01*
X91425000Y-87775000D02*
X91200000Y-88000000D01*
X144150000Y-97950000D02*
X142600000Y-96400000D01*
X140920000Y-96400000D02*
X139440000Y-94920000D01*
X131600000Y-100900000D02*
X136500000Y-100900000D01*
X93200000Y-90175000D02*
X93200000Y-89237500D01*
X106400000Y-100900000D02*
X116800000Y-100900000D01*
X145000000Y-109600000D02*
X145100000Y-109700000D01*
X135107500Y-93790000D02*
X135107500Y-92012500D01*
X128355000Y-106725000D02*
X127325000Y-106725000D01*
X112075000Y-106725000D02*
X110925000Y-106725000D01*
X134000000Y-110000000D02*
X134400000Y-109600000D01*
X142600000Y-96400000D02*
X140920000Y-96400000D01*
X110925000Y-106725000D02*
X110800000Y-106600000D01*
X92650000Y-91112500D02*
X92650000Y-91335412D01*
X144150000Y-101200000D02*
X144800000Y-101200000D01*
X117155000Y-111675000D02*
X117155000Y-110645000D01*
X92337500Y-87775000D02*
X93200000Y-88637500D01*
X134400000Y-109600000D02*
X145000000Y-109600000D01*
X92650000Y-91335412D02*
X91937500Y-92047912D01*
X92650000Y-91112500D02*
X92650000Y-90725000D01*
X145100000Y-109700000D02*
X146575000Y-109700000D01*
D35*
X90200000Y-92000000D02*
X87328000Y-94872000D01*
D34*
X97200000Y-100900000D02*
X106400000Y-100900000D01*
X144150000Y-101200000D02*
X144150000Y-97950000D01*
D35*
X87328000Y-94872000D02*
X87328000Y-105328000D01*
D34*
X91937500Y-92575000D02*
X90775000Y-92575000D01*
D33*
%TO.N,Net-(SW1-A)*%
X102412500Y-87600000D02*
X102412500Y-89312500D01*
X102412500Y-89312500D02*
X103300000Y-90200000D01*
D34*
%TO.N,+BATT*%
X93236500Y-86949000D02*
X94062500Y-87775000D01*
X87600000Y-88975000D02*
X87600000Y-88175000D01*
X88600000Y-87175000D02*
X90200000Y-87175000D01*
X97500000Y-90265000D02*
X94540000Y-90265000D01*
X93750000Y-89237500D02*
X93750000Y-88087500D01*
X93750000Y-88087500D02*
X94062500Y-87775000D01*
X87600000Y-88175000D02*
X88600000Y-87175000D01*
X94540000Y-90265000D02*
X94450000Y-90175000D01*
X90426000Y-86949000D02*
X93236500Y-86949000D01*
X90200000Y-87175000D02*
X90426000Y-86949000D01*
X94450000Y-88162500D02*
X94062500Y-87775000D01*
X94450000Y-90175000D02*
X94450000Y-88162500D01*
%TO.N,+3V3*%
X113400000Y-113001000D02*
X121000000Y-113001000D01*
X93750000Y-91112500D02*
X93776000Y-91138500D01*
X120965000Y-111675000D02*
X120965000Y-112966000D01*
X137245000Y-112649999D02*
X137245000Y-111675000D01*
X129625000Y-111675000D02*
X129625000Y-110275000D01*
X139092500Y-92075000D02*
X140137500Y-92075000D01*
X93776000Y-92461500D02*
X93662500Y-92575000D01*
X120965000Y-112966000D02*
X121000000Y-113001000D01*
X93776000Y-91138500D02*
X93776000Y-92461500D01*
X100645000Y-112956000D02*
X100600000Y-113001000D01*
X93625000Y-92575000D02*
X92400000Y-93800000D01*
X138600000Y-92567500D02*
X139092500Y-92075000D01*
X129625000Y-112976000D02*
X129600000Y-113001000D01*
X118764000Y-94026000D02*
X123190000Y-89600000D01*
X93376001Y-113001000D02*
X100600000Y-113001000D01*
X129625000Y-111675000D02*
X129625000Y-112976000D01*
X136893999Y-113001000D02*
X137245000Y-112649999D01*
X95113500Y-94026000D02*
X118764000Y-94026000D01*
X121000000Y-113001000D02*
X129600000Y-113001000D01*
X113345000Y-111675000D02*
X113345000Y-112946000D01*
X93662500Y-92575000D02*
X95113500Y-94026000D01*
X92400000Y-93800000D02*
X92400000Y-94100000D01*
X100600000Y-113001000D02*
X113400000Y-113001000D01*
X129625000Y-110275000D02*
X129900000Y-110000000D01*
X93025000Y-111675000D02*
X93025000Y-110225000D01*
X138600000Y-92567500D02*
X138600000Y-93300000D01*
X93025000Y-112649999D02*
X93376001Y-113001000D01*
X93025000Y-110225000D02*
X92800000Y-110000000D01*
X113345000Y-112946000D02*
X113400000Y-113001000D01*
X100645000Y-111675000D02*
X100645000Y-112956000D01*
X93662500Y-92575000D02*
X93625000Y-92575000D01*
X93025000Y-111675000D02*
X93025000Y-112649999D01*
X129600000Y-113001000D02*
X136893999Y-113001000D01*
D33*
%TO.N,Net-(U1-PA1)*%
X135263500Y-87264000D02*
X137189001Y-87264000D01*
X134537500Y-89217500D02*
X135120000Y-89800000D01*
X137189001Y-87264000D02*
X139400001Y-89475000D01*
X134537500Y-87990000D02*
X134537500Y-89217500D01*
X139400001Y-89475000D02*
X140137500Y-89475000D01*
X134537500Y-87990000D02*
X135263500Y-87264000D01*
%TO.N,Net-(U1-PA2)*%
X136820000Y-91780000D02*
X138475000Y-90125000D01*
X136820000Y-92000000D02*
X136820000Y-91780000D01*
X138475000Y-90125000D02*
X140137500Y-90125000D01*
X136832500Y-93790000D02*
X136832500Y-92012500D01*
X136832500Y-92012500D02*
X136820000Y-92000000D01*
%TO.N,Net-(RN6-R3.1)*%
X141580000Y-100400000D02*
X142350000Y-100400000D01*
X139440000Y-102540000D02*
X141580000Y-100400000D01*
%TO.N,Net-(U4-QD)*%
X134705000Y-107699999D02*
X135307001Y-108302000D01*
X135307001Y-108302000D02*
X143838000Y-108302000D01*
X134705000Y-106725000D02*
X134705000Y-107699999D01*
X143838000Y-108302000D02*
X147060000Y-105080000D01*
%TO.N,Net-(U4-QB)*%
X137245000Y-106725000D02*
X140335000Y-106725000D01*
X140335000Y-106725000D02*
X147060000Y-100000000D01*
%TO.N,Net-(RN6-R1.1)*%
X142350000Y-98800000D02*
X140780000Y-98800000D01*
X140780000Y-98800000D02*
X139440000Y-97460000D01*
%TO.N,Net-(RN6-R2.1)*%
X139440000Y-100000000D02*
X139840000Y-99600000D01*
X139840000Y-99600000D02*
X142350000Y-99600000D01*
%TO.N,IND*%
X145862500Y-88825000D02*
X146599999Y-88825000D01*
X146599999Y-88825000D02*
X147600000Y-89825001D01*
X147600000Y-89825001D02*
X147600000Y-90587500D01*
%TO.N,Net-(RN6-R4.1)*%
X142350000Y-102170000D02*
X142350000Y-101200000D01*
X139440000Y-105080000D02*
X142350000Y-102170000D01*
%TO.N,Net-(U4-QC)*%
X135975000Y-106725000D02*
X135975000Y-107001256D01*
X135975000Y-107001256D02*
X136924744Y-107951000D01*
X136924744Y-107951000D02*
X141649000Y-107951000D01*
X141649000Y-107951000D02*
X147060000Y-102540000D01*
%TO.N,SWIO*%
X145837500Y-88200000D02*
X145862500Y-88175000D01*
X144600000Y-88200000D02*
X145837500Y-88200000D01*
D35*
%TO.N,~{RST}*%
X137475001Y-86900000D02*
X139400001Y-88825000D01*
X139400001Y-88825000D02*
X140137500Y-88825000D01*
X128270000Y-89600000D02*
X130970000Y-86900000D01*
X130970000Y-86900000D02*
X137475001Y-86900000D01*
D33*
%TO.N,Net-(U4-QH)*%
X129625000Y-104225000D02*
X129210000Y-103810000D01*
X129625000Y-106725000D02*
X129625000Y-104225000D01*
%TO.N,LED_CLK*%
X144575000Y-90125000D02*
X144000000Y-90700000D01*
X114615000Y-110385000D02*
X114800000Y-110200000D01*
X116800000Y-108200000D02*
X133100000Y-108200000D01*
X145862500Y-90125000D02*
X144575000Y-90125000D01*
X94295000Y-110700001D02*
X96795001Y-108200000D01*
X130895000Y-110405000D02*
X131100000Y-110200000D01*
X130895000Y-111675000D02*
X130895000Y-110405000D01*
X96795001Y-108200000D02*
X116800000Y-108200000D01*
X94295000Y-111675000D02*
X94295000Y-110700001D01*
X114615000Y-111675000D02*
X114615000Y-110385000D01*
%TO.N,LED_LATCH*%
X132165000Y-111675000D02*
X132165000Y-108835000D01*
X132200000Y-108800000D02*
X115900000Y-108800000D01*
X144725000Y-90775000D02*
X145862500Y-90775000D01*
X115885000Y-111675000D02*
X115885000Y-108815000D01*
X140400000Y-108800000D02*
X132200000Y-108800000D01*
X115900000Y-108800000D02*
X97465001Y-108800000D01*
X115885000Y-108815000D02*
X115900000Y-108800000D01*
X144100000Y-91400000D02*
X144725000Y-90775000D01*
X97465001Y-108800000D02*
X95565000Y-110700001D01*
X132165000Y-108835000D02*
X132200000Y-108800000D01*
X95565000Y-110700001D02*
X95565000Y-111675000D01*
%TO.N,BUZZER*%
X105800000Y-87000000D02*
X108400000Y-87000000D01*
X108400000Y-87000000D02*
X113900000Y-92500000D01*
X118088000Y-92500000D02*
X124014000Y-86574000D01*
X139836500Y-86574000D02*
X140137500Y-86875000D01*
X124014000Y-86574000D02*
X139836500Y-86574000D01*
X113900000Y-92500000D02*
X118088000Y-92500000D01*
%TO.N,LED_DATA*%
X144825000Y-89475000D02*
X144700000Y-89600000D01*
X145862500Y-89475000D02*
X144825000Y-89475000D01*
X134705000Y-110700001D02*
X134705000Y-111675000D01*
X135202501Y-110202501D02*
X134705000Y-110700001D01*
%TO.N,Net-(U4-QA)*%
X135975000Y-111675000D02*
X135975000Y-110425000D01*
X135975000Y-110425000D02*
X136200000Y-110200000D01*
%TO.N,Net-(U5-QB)*%
X120965000Y-106725000D02*
X123880000Y-103810000D01*
X123880000Y-103810000D02*
X124130000Y-103810000D01*
%TO.N,Net-(U4-QF)*%
X132165000Y-105935000D02*
X134290000Y-103810000D01*
X132165000Y-106725000D02*
X132165000Y-105935000D01*
%TO.N,Net-(U4-QE)*%
X133435000Y-105750001D02*
X133885001Y-105300000D01*
X135340000Y-105300000D02*
X136830000Y-103810000D01*
X133885001Y-105300000D02*
X135340000Y-105300000D01*
X133435000Y-106725000D02*
X133435000Y-105750001D01*
%TO.N,Net-(U5-QA)*%
X119695000Y-111675000D02*
X119695000Y-110405000D01*
X119695000Y-110405000D02*
X119900000Y-110200000D01*
%TO.N,Net-(U4-QG)*%
X130895000Y-106725000D02*
X130895000Y-104665000D01*
X130895000Y-104665000D02*
X131750000Y-103810000D01*
%TO.N,Net-(U5-QF)*%
X115885000Y-106725000D02*
X115885000Y-105725000D01*
X115885000Y-105725000D02*
X113970000Y-103810000D01*
%TO.N,Net-(U5-QG)*%
X114615000Y-106725000D02*
X114615000Y-105750001D01*
X114615000Y-105750001D02*
X114064999Y-105200000D01*
X112820000Y-105200000D02*
X111430000Y-103810000D01*
X114064999Y-105200000D02*
X112820000Y-105200000D01*
%TO.N,Net-(U6-QB)*%
X100645000Y-106725000D02*
X103560000Y-103810000D01*
X103560000Y-103810000D02*
X103810000Y-103810000D01*
%TO.N,Net-(U5-QH)*%
X112423611Y-105300000D02*
X110380000Y-105300000D01*
X110380000Y-105300000D02*
X108890000Y-103810000D01*
X113345000Y-106221389D02*
X112423611Y-105300000D01*
X113345000Y-106725000D02*
X113345000Y-106221389D01*
%TO.N,Net-(U6-QD)*%
X98105000Y-104435000D02*
X98730000Y-103810000D01*
X98105000Y-106725000D02*
X98105000Y-104435000D01*
%TO.N,Net-(U6-QA)*%
X99375000Y-110525000D02*
X99700000Y-110200000D01*
X99375000Y-111675000D02*
X99375000Y-110525000D01*
%TO.N,Net-(U5-QC)*%
X121590000Y-103810000D02*
X119695000Y-105705000D01*
X119695000Y-105705000D02*
X119695000Y-106725000D01*
%TO.N,Net-(U5-QD)*%
X118425000Y-106725000D02*
X118425000Y-104435000D01*
X118425000Y-104435000D02*
X119050000Y-103810000D01*
%TO.N,Net-(U6-QC)*%
X99375000Y-105705000D02*
X101270000Y-103810000D01*
X99375000Y-106725000D02*
X99375000Y-105705000D01*
%TO.N,Net-(U5-QE)*%
X117155000Y-106725000D02*
X117155000Y-104455000D01*
X117155000Y-104455000D02*
X116510000Y-103810000D01*
%TO.N,Net-(U2-CE)*%
X90175000Y-88975000D02*
X90200000Y-89000000D01*
X92286500Y-88874000D02*
X90326000Y-88874000D01*
X88550000Y-88975000D02*
X90175000Y-88975000D01*
X90326000Y-88874000D02*
X90200000Y-89000000D01*
X92650000Y-89237500D02*
X92286500Y-88874000D01*
%TO.N,Net-(U2-L2)*%
X91925000Y-90200000D02*
X91950000Y-90175000D01*
X93200000Y-91112500D02*
X93200000Y-91600000D01*
X91400000Y-90200000D02*
X91925000Y-90200000D01*
%TO.N,Net-(U4-QH')*%
X118425000Y-111675000D02*
X118425000Y-110775000D01*
X126180000Y-109500000D02*
X128355000Y-111675000D01*
X119700000Y-109500000D02*
X126180000Y-109500000D01*
X118425000Y-110775000D02*
X119700000Y-109500000D01*
%TO.N,Net-(U5-QH')*%
X98105000Y-110700001D02*
X99305001Y-109500000D01*
X99305001Y-109500000D02*
X109900000Y-109500000D01*
X109900000Y-109500000D02*
X112075000Y-111675000D01*
X98105000Y-111675000D02*
X98105000Y-110700001D01*
%TO.N,Net-(U6-QF)*%
X95565000Y-105725000D02*
X93650000Y-103810000D01*
X95565000Y-106725000D02*
X95565000Y-105725000D01*
%TO.N,Net-(U6-QE)*%
X96835000Y-104455000D02*
X96190000Y-103810000D01*
X96835000Y-106725000D02*
X96835000Y-104455000D01*
%TO.N,Net-(U6-QH)*%
X90060000Y-105300000D02*
X88570000Y-103810000D01*
X93025000Y-106725000D02*
X93025000Y-105750001D01*
X92574999Y-105300000D02*
X90060000Y-105300000D01*
X93025000Y-105750001D02*
X92574999Y-105300000D01*
%TO.N,Net-(U6-QG)*%
X91858191Y-103810000D02*
X91110000Y-103810000D01*
X94295000Y-106246809D02*
X91858191Y-103810000D01*
X94295000Y-106725000D02*
X94295000Y-106246809D01*
%TO.N,Net-(BAR3-A-Pad5)*%
X147600000Y-92412500D02*
X147600000Y-94380000D01*
X147600000Y-94380000D02*
X147060000Y-94920000D01*
%TO.N,BUZZER_DRV*%
X100462500Y-87725000D02*
X100587500Y-87600000D01*
X100587500Y-87600000D02*
X100587500Y-89187500D01*
X100587500Y-89187500D02*
X100600000Y-89200000D01*
X97500000Y-87725000D02*
X100462500Y-87725000D01*
%TD*%
%TA.AperFunction,Conductor*%
%TO.N,GND*%
G36*
X87401569Y-105303326D02*
G01*
X87446517Y-105320091D01*
X87506114Y-105326499D01*
X87506118Y-105326499D01*
X87506127Y-105326500D01*
X89175546Y-105326499D01*
X89250046Y-105346461D01*
X89280905Y-105370140D01*
X89579478Y-105668713D01*
X89579480Y-105668716D01*
X89691284Y-105780520D01*
X89766411Y-105823894D01*
X89828215Y-105859577D01*
X89980942Y-105900500D01*
X89980943Y-105900500D01*
X90806000Y-105900500D01*
X90880500Y-105920462D01*
X90935038Y-105975000D01*
X90955000Y-106049500D01*
X90955000Y-106475000D01*
X91606000Y-106475000D01*
X91680500Y-106494962D01*
X91735038Y-106549500D01*
X91755000Y-106624000D01*
X91755000Y-106725000D01*
X91856000Y-106725000D01*
X91930500Y-106744962D01*
X91985038Y-106799500D01*
X92005000Y-106874000D01*
X92005000Y-108197296D01*
X92007488Y-108197100D01*
X92165196Y-108151281D01*
X92165197Y-108151281D01*
X92313662Y-108063480D01*
X92387949Y-108042739D01*
X92462654Y-108061920D01*
X92465356Y-108063480D01*
X92473133Y-108068079D01*
X92473135Y-108068081D01*
X92614602Y-108151744D01*
X92772428Y-108197597D01*
X92772427Y-108197597D01*
X92772431Y-108197598D01*
X92809306Y-108200500D01*
X92809313Y-108200500D01*
X93240687Y-108200500D01*
X93240694Y-108200500D01*
X93277569Y-108197598D01*
X93435398Y-108151744D01*
X93576865Y-108068081D01*
X93576866Y-108068079D01*
X93584152Y-108063771D01*
X93658439Y-108043029D01*
X93733144Y-108062210D01*
X93735848Y-108063771D01*
X93743133Y-108068079D01*
X93743135Y-108068081D01*
X93821647Y-108114512D01*
X93884598Y-108151742D01*
X93884599Y-108151742D01*
X93884602Y-108151744D01*
X94042428Y-108197597D01*
X94042427Y-108197597D01*
X94042431Y-108197598D01*
X94079306Y-108200500D01*
X94079313Y-108200500D01*
X94510687Y-108200500D01*
X94510694Y-108200500D01*
X94547569Y-108197598D01*
X94705398Y-108151744D01*
X94846865Y-108068081D01*
X94846866Y-108068079D01*
X94854152Y-108063771D01*
X94928439Y-108043029D01*
X95003144Y-108062210D01*
X95005848Y-108063771D01*
X95013133Y-108068079D01*
X95013135Y-108068081D01*
X95091647Y-108114512D01*
X95154598Y-108151742D01*
X95154599Y-108151742D01*
X95154602Y-108151744D01*
X95312428Y-108197597D01*
X95312427Y-108197597D01*
X95312431Y-108197598D01*
X95349306Y-108200500D01*
X95349313Y-108200500D01*
X95585547Y-108200500D01*
X95660047Y-108220462D01*
X95714585Y-108275000D01*
X95734547Y-108349500D01*
X95714585Y-108424000D01*
X95690906Y-108454859D01*
X93927453Y-110218311D01*
X93881263Y-110249700D01*
X93877378Y-110251381D01*
X93801077Y-110262645D01*
X93729367Y-110234249D01*
X93681461Y-110173802D01*
X93672073Y-110143706D01*
X93650501Y-110035256D01*
X93603583Y-109921987D01*
X93595105Y-109894037D01*
X93588106Y-109858852D01*
X93569737Y-109766503D01*
X93525280Y-109659174D01*
X93509395Y-109620823D01*
X93508664Y-109619729D01*
X93421789Y-109489711D01*
X93310289Y-109378211D01*
X93179179Y-109290606D01*
X93179178Y-109290605D01*
X93179176Y-109290604D01*
X93033498Y-109230263D01*
X93033494Y-109230262D01*
X92878842Y-109199500D01*
X92721158Y-109199500D01*
X92566505Y-109230262D01*
X92566501Y-109230263D01*
X92420823Y-109290604D01*
X92289707Y-109378214D01*
X92178214Y-109489707D01*
X92090604Y-109620823D01*
X92030263Y-109766501D01*
X92030262Y-109766505D01*
X91999500Y-109921157D01*
X91999500Y-110050500D01*
X91979538Y-110125000D01*
X91925000Y-110179538D01*
X91850500Y-110199500D01*
X91539306Y-110199500D01*
X91514722Y-110201434D01*
X91502428Y-110202402D01*
X91344599Y-110248257D01*
X91203136Y-110331918D01*
X91203133Y-110331920D01*
X91086920Y-110448133D01*
X91086918Y-110448136D01*
X91003257Y-110589599D01*
X90957402Y-110747428D01*
X90957402Y-110747431D01*
X90954500Y-110784306D01*
X90954500Y-112565694D01*
X90955715Y-112581128D01*
X90957402Y-112602571D01*
X91003257Y-112760400D01*
X91006147Y-112765287D01*
X91086919Y-112901865D01*
X91203135Y-113018081D01*
X91344602Y-113101744D01*
X91502428Y-113147597D01*
X91502427Y-113147597D01*
X91502431Y-113147598D01*
X91539306Y-113150500D01*
X91539313Y-113150500D01*
X91970687Y-113150500D01*
X91970694Y-113150500D01*
X92007569Y-113147598D01*
X92165398Y-113101744D01*
X92306865Y-113018081D01*
X92306866Y-113018079D01*
X92314152Y-113013771D01*
X92315709Y-113013336D01*
X92316866Y-113012204D01*
X92352764Y-113002989D01*
X92388439Y-112993029D01*
X92390005Y-112993431D01*
X92391572Y-112993029D01*
X92427250Y-113002994D01*
X92463144Y-113012210D01*
X92465857Y-113013777D01*
X92469507Y-113015936D01*
X92515041Y-113059036D01*
X92515077Y-113059007D01*
X92515307Y-113059287D01*
X92517540Y-113061401D01*
X92519723Y-113064668D01*
X92961330Y-113506275D01*
X92961338Y-113506282D01*
X93058944Y-113571499D01*
X93058945Y-113571499D01*
X93058948Y-113571501D01*
X93067874Y-113577465D01*
X93067881Y-113577467D01*
X93074330Y-113580915D01*
X93072910Y-113583571D01*
X93122712Y-113621768D01*
X93152243Y-113693019D01*
X93142193Y-113769489D01*
X93095254Y-113830690D01*
X93024003Y-113860221D01*
X93004522Y-113861500D01*
X88505858Y-113861500D01*
X88494168Y-113861041D01*
X88478270Y-113859789D01*
X88308399Y-113846420D01*
X88285307Y-113842762D01*
X88109836Y-113800635D01*
X88087600Y-113793410D01*
X87920870Y-113724349D01*
X87900037Y-113713734D01*
X87898023Y-113712500D01*
X87746172Y-113619445D01*
X87727257Y-113605703D01*
X87590031Y-113488500D01*
X87573499Y-113471968D01*
X87456296Y-113334742D01*
X87442553Y-113315826D01*
X87348262Y-113161956D01*
X87337650Y-113141129D01*
X87268589Y-112974399D01*
X87261364Y-112952163D01*
X87219237Y-112776692D01*
X87215579Y-112753599D01*
X87200959Y-112567832D01*
X87200500Y-112556142D01*
X87200500Y-107615634D01*
X90955000Y-107615634D01*
X90957900Y-107652493D01*
X91003718Y-107810196D01*
X91003718Y-107810197D01*
X91087316Y-107951554D01*
X91087318Y-107951557D01*
X91203442Y-108067681D01*
X91203445Y-108067683D01*
X91344802Y-108151281D01*
X91502511Y-108197100D01*
X91504999Y-108197296D01*
X91505000Y-108197295D01*
X91505000Y-106975000D01*
X90955000Y-106975000D01*
X90955000Y-107615634D01*
X87200500Y-107615634D01*
X87200500Y-105442932D01*
X87220462Y-105368432D01*
X87275000Y-105313894D01*
X87349500Y-105293932D01*
X87401569Y-105303326D01*
G37*
%TD.AperFunction*%
%TA.AperFunction,Conductor*%
G36*
X148125000Y-106616461D02*
G01*
X148179538Y-106670999D01*
X148199500Y-106745499D01*
X148199500Y-108627872D01*
X148179538Y-108702372D01*
X148125000Y-108756910D01*
X148050500Y-108776872D01*
X147976000Y-108756910D01*
X147921462Y-108702372D01*
X147910895Y-108679942D01*
X147893354Y-108632915D01*
X147893349Y-108632905D01*
X147807190Y-108517812D01*
X147807187Y-108517809D01*
X147692094Y-108431650D01*
X147692084Y-108431645D01*
X147557376Y-108381401D01*
X147557378Y-108381401D01*
X147497842Y-108375001D01*
X147497823Y-108375000D01*
X146850000Y-108375000D01*
X146850000Y-109291988D01*
X146792993Y-109259075D01*
X146665826Y-109225000D01*
X146534174Y-109225000D01*
X146407007Y-109259075D01*
X146350000Y-109291988D01*
X146350000Y-108375000D01*
X145702177Y-108375000D01*
X145702157Y-108375001D01*
X145642622Y-108381401D01*
X145507915Y-108431645D01*
X145507905Y-108431650D01*
X145392812Y-108517809D01*
X145392809Y-108517812D01*
X145306650Y-108632905D01*
X145306645Y-108632915D01*
X145256401Y-108767622D01*
X145250001Y-108827157D01*
X145250000Y-108827177D01*
X145250000Y-109475000D01*
X146166988Y-109475000D01*
X146134075Y-109532007D01*
X146100000Y-109659174D01*
X146100000Y-109790826D01*
X146134075Y-109917993D01*
X146166988Y-109975000D01*
X145250000Y-109975000D01*
X145250000Y-110622822D01*
X145250001Y-110622842D01*
X145256401Y-110682377D01*
X145306645Y-110817084D01*
X145306650Y-110817094D01*
X145392809Y-110932187D01*
X145392812Y-110932190D01*
X145507905Y-111018349D01*
X145507909Y-111018351D01*
X145642627Y-111068598D01*
X145693813Y-111074101D01*
X145723431Y-111071804D01*
X145793008Y-111105087D01*
X145801472Y-111112919D01*
X146470590Y-111782037D01*
X146407007Y-111799075D01*
X146292993Y-111864901D01*
X146199901Y-111957993D01*
X146134075Y-112072007D01*
X146117037Y-112135590D01*
X145484729Y-111503282D01*
X145484728Y-111503282D01*
X145445378Y-111557444D01*
X145348906Y-111746779D01*
X145283242Y-111948871D01*
X145250000Y-112158757D01*
X145250000Y-112371242D01*
X145283242Y-112581128D01*
X145348906Y-112783220D01*
X145445378Y-112972555D01*
X145484728Y-113026716D01*
X145484729Y-113026716D01*
X146117037Y-112394408D01*
X146134075Y-112457993D01*
X146199901Y-112572007D01*
X146292993Y-112665099D01*
X146407007Y-112730925D01*
X146470590Y-112747962D01*
X145838282Y-113380270D01*
X145892444Y-113419621D01*
X145892444Y-113419622D01*
X146081779Y-113516093D01*
X146250126Y-113570793D01*
X146314812Y-113612799D01*
X146349827Y-113681521D01*
X146345790Y-113758543D01*
X146303784Y-113823229D01*
X146235062Y-113858244D01*
X146204083Y-113861500D01*
X137265478Y-113861500D01*
X137190978Y-113841538D01*
X137136440Y-113787000D01*
X137116478Y-113712500D01*
X137136440Y-113638000D01*
X137190978Y-113583462D01*
X137195768Y-113581100D01*
X137195670Y-113580915D01*
X137202114Y-113577469D01*
X137202126Y-113577465D01*
X137211052Y-113571501D01*
X137308668Y-113506277D01*
X137750276Y-113064669D01*
X137752456Y-113061405D01*
X137754684Y-113059297D01*
X137754924Y-113059005D01*
X137754960Y-113059035D01*
X137790602Y-113025301D01*
X137789458Y-113023826D01*
X137796866Y-113018080D01*
X137851378Y-112963568D01*
X137913081Y-112901865D01*
X137996744Y-112760398D01*
X138042598Y-112602569D01*
X138045500Y-112565694D01*
X138045500Y-110784306D01*
X138042598Y-110747431D01*
X137996744Y-110589602D01*
X137913081Y-110448135D01*
X137796865Y-110331919D01*
X137693271Y-110270654D01*
X137655400Y-110248257D01*
X137655399Y-110248256D01*
X137655398Y-110248256D01*
X137575351Y-110225000D01*
X137497571Y-110202402D01*
X137497572Y-110202402D01*
X137486506Y-110201531D01*
X137460694Y-110199500D01*
X137061895Y-110199500D01*
X136987395Y-110179538D01*
X136932857Y-110125000D01*
X136915758Y-110079569D01*
X136897619Y-109988380D01*
X136897618Y-109988378D01*
X136896256Y-109985091D01*
X136842929Y-109856347D01*
X136763532Y-109737521D01*
X136680870Y-109654859D01*
X136642306Y-109588064D01*
X136642306Y-109510936D01*
X136680870Y-109444141D01*
X136747665Y-109405577D01*
X136786229Y-109400500D01*
X139947649Y-109400500D01*
X140022149Y-109420462D01*
X140030420Y-109425605D01*
X140056347Y-109442929D01*
X140056348Y-109442929D01*
X140056352Y-109442932D01*
X140167794Y-109489092D01*
X140188380Y-109497619D01*
X140328545Y-109525500D01*
X140328549Y-109525500D01*
X140471451Y-109525500D01*
X140471455Y-109525500D01*
X140611620Y-109497619D01*
X140743653Y-109442929D01*
X140862479Y-109363532D01*
X140963532Y-109262479D01*
X141042929Y-109143653D01*
X141097619Y-109011620D01*
X141097619Y-109011617D01*
X141098643Y-109008245D01*
X141099763Y-109006443D01*
X141100420Y-109004858D01*
X141100681Y-109004966D01*
X141139372Y-108942749D01*
X141207394Y-108906392D01*
X141241226Y-108902500D01*
X143749798Y-108902500D01*
X143749814Y-108902501D01*
X143758943Y-108902501D01*
X143917052Y-108902501D01*
X143917057Y-108902501D01*
X144069785Y-108861577D01*
X144132270Y-108825501D01*
X144206716Y-108782520D01*
X144318520Y-108670716D01*
X144318520Y-108670714D01*
X144330782Y-108658453D01*
X144330786Y-108658448D01*
X146349094Y-106640140D01*
X146415889Y-106601576D01*
X146454453Y-106596499D01*
X148050500Y-106596499D01*
X148125000Y-106616461D01*
G37*
%TD.AperFunction*%
%TA.AperFunction,Conductor*%
G36*
X147715269Y-113026716D02*
G01*
X147715270Y-113026716D01*
X147754620Y-112972557D01*
X147754622Y-112972555D01*
X147851091Y-112783226D01*
X147898921Y-112636019D01*
X147910647Y-112617961D01*
X147917835Y-112597666D01*
X147931290Y-112586173D01*
X147940928Y-112571334D01*
X147960110Y-112561559D01*
X147976484Y-112547576D01*
X147993884Y-112544351D01*
X148009650Y-112536318D01*
X148031150Y-112537444D01*
X148052321Y-112533521D01*
X148069001Y-112539428D01*
X148086672Y-112540354D01*
X148104729Y-112552080D01*
X148125025Y-112559268D01*
X148136517Y-112572723D01*
X148151357Y-112582361D01*
X148161131Y-112601543D01*
X148175115Y-112617917D01*
X148178339Y-112635317D01*
X148186373Y-112651083D01*
X148189170Y-112693754D01*
X148184420Y-112754101D01*
X148180762Y-112777192D01*
X148138635Y-112952663D01*
X148131410Y-112974899D01*
X148062349Y-113141629D01*
X148051734Y-113162462D01*
X147957446Y-113316326D01*
X147943703Y-113335242D01*
X147826500Y-113472468D01*
X147809968Y-113489000D01*
X147672742Y-113606203D01*
X147653826Y-113619946D01*
X147499962Y-113714234D01*
X147479129Y-113724849D01*
X147312399Y-113793910D01*
X147290163Y-113801135D01*
X147114692Y-113843262D01*
X147091600Y-113846920D01*
X147038108Y-113851130D01*
X146962271Y-113837074D01*
X146903622Y-113786984D01*
X146877876Y-113714280D01*
X146891932Y-113638443D01*
X146942022Y-113579794D01*
X146980374Y-113560881D01*
X147118226Y-113516091D01*
X147307555Y-113419622D01*
X147307557Y-113419620D01*
X147361716Y-113380270D01*
X147361716Y-113380269D01*
X146729409Y-112747962D01*
X146792993Y-112730925D01*
X146907007Y-112665099D01*
X147000099Y-112572007D01*
X147065925Y-112457993D01*
X147082962Y-112394409D01*
X147715269Y-113026716D01*
G37*
%TD.AperFunction*%
%TA.AperFunction,Conductor*%
G36*
X148102570Y-110682521D02*
G01*
X148165396Y-110727260D01*
X148197437Y-110797418D01*
X148199500Y-110822127D01*
X148199500Y-111878316D01*
X148179538Y-111952816D01*
X148125000Y-112007354D01*
X148050500Y-112027316D01*
X147976000Y-112007354D01*
X147921462Y-111952816D01*
X147908793Y-111924359D01*
X147851093Y-111746779D01*
X147754621Y-111557444D01*
X147715270Y-111503282D01*
X147082962Y-112135589D01*
X147065925Y-112072007D01*
X147000099Y-111957993D01*
X146907007Y-111864901D01*
X146792993Y-111799075D01*
X146729407Y-111782037D01*
X147398526Y-111112919D01*
X147465321Y-111074355D01*
X147503824Y-111074355D01*
X147557370Y-111068598D01*
X147557374Y-111068598D01*
X147692090Y-111018351D01*
X147692094Y-111018349D01*
X147807187Y-110932190D01*
X147807190Y-110932187D01*
X147893349Y-110817094D01*
X147893351Y-110817090D01*
X147910894Y-110770057D01*
X147955633Y-110707231D01*
X148025791Y-110675190D01*
X148102570Y-110682521D01*
G37*
%TD.AperFunction*%
%TA.AperFunction,Conductor*%
G36*
X118665047Y-109420462D02*
G01*
X118719585Y-109475000D01*
X118739547Y-109549500D01*
X118719585Y-109624000D01*
X118695906Y-109654859D01*
X118165557Y-110185206D01*
X118142283Y-110198970D01*
X118124064Y-110214465D01*
X118113251Y-110219594D01*
X118014602Y-110248256D01*
X117873135Y-110331919D01*
X117870105Y-110334948D01*
X117853375Y-110342886D01*
X117821897Y-110348652D01*
X117791068Y-110357260D01*
X117784340Y-110355532D01*
X117777509Y-110356784D01*
X117727940Y-110341050D01*
X117716363Y-110338078D01*
X117715302Y-110337039D01*
X117713663Y-110336519D01*
X117565201Y-110248720D01*
X117565196Y-110248718D01*
X117407489Y-110202899D01*
X117405000Y-110202702D01*
X117405000Y-111526000D01*
X117385038Y-111600500D01*
X117330500Y-111655038D01*
X117256000Y-111675000D01*
X117054000Y-111675000D01*
X116979500Y-111655038D01*
X116924962Y-111600500D01*
X116905000Y-111526000D01*
X116905000Y-110202702D01*
X116902510Y-110202899D01*
X116744803Y-110248718D01*
X116744798Y-110248720D01*
X116710346Y-110269095D01*
X116636059Y-110289836D01*
X116561354Y-110270654D01*
X116506249Y-110216690D01*
X116485508Y-110142403D01*
X116485500Y-110140844D01*
X116485500Y-109549500D01*
X116505462Y-109475000D01*
X116560000Y-109420462D01*
X116634500Y-109400500D01*
X118590547Y-109400500D01*
X118665047Y-109420462D01*
G37*
%TD.AperFunction*%
%TA.AperFunction,Conductor*%
G36*
X134637721Y-109405577D02*
G01*
X134657337Y-109405577D01*
X134674324Y-109415384D01*
X134693273Y-109420462D01*
X134707144Y-109434333D01*
X134724132Y-109444141D01*
X134733939Y-109461128D01*
X134747811Y-109475000D01*
X134752888Y-109493948D01*
X134762696Y-109510936D01*
X134762696Y-109530552D01*
X134767773Y-109549500D01*
X134762696Y-109568447D01*
X134762696Y-109588064D01*
X134752888Y-109605051D01*
X134747811Y-109624000D01*
X134724132Y-109654859D01*
X134638972Y-109740018D01*
X134638969Y-109740021D01*
X134638969Y-109740022D01*
X134621276Y-109766502D01*
X134559572Y-109858848D01*
X134559569Y-109858852D01*
X134504881Y-109990882D01*
X134504880Y-109990885D01*
X134498799Y-110021455D01*
X134496586Y-110025942D01*
X134496586Y-110030947D01*
X134479657Y-110060267D01*
X134464685Y-110090628D01*
X134458022Y-110097742D01*
X134337453Y-110218311D01*
X134302023Y-110242393D01*
X134302669Y-110243485D01*
X134145355Y-110336519D01*
X134071068Y-110357260D01*
X133996364Y-110338078D01*
X133993663Y-110336519D01*
X133845201Y-110248720D01*
X133845196Y-110248718D01*
X133687489Y-110202899D01*
X133685000Y-110202702D01*
X133685000Y-111526000D01*
X133665038Y-111600500D01*
X133610500Y-111655038D01*
X133536000Y-111675000D01*
X133334000Y-111675000D01*
X133259500Y-111655038D01*
X133204962Y-111600500D01*
X133185000Y-111526000D01*
X133185000Y-110202702D01*
X133184999Y-110202702D01*
X133182510Y-110202899D01*
X133024803Y-110248718D01*
X133024798Y-110248720D01*
X132990346Y-110269095D01*
X132916059Y-110289836D01*
X132841354Y-110270654D01*
X132786249Y-110216690D01*
X132765508Y-110142403D01*
X132765500Y-110140844D01*
X132765500Y-109549500D01*
X132785462Y-109475000D01*
X132840000Y-109420462D01*
X132914500Y-109400500D01*
X134618773Y-109400500D01*
X134637721Y-109405577D01*
G37*
%TD.AperFunction*%
%TA.AperFunction,Conductor*%
G36*
X98270047Y-109420462D02*
G01*
X98324585Y-109475000D01*
X98344547Y-109549500D01*
X98324585Y-109624000D01*
X98300906Y-109654859D01*
X97737453Y-110218311D01*
X97702023Y-110242393D01*
X97702669Y-110243485D01*
X97545355Y-110336519D01*
X97471068Y-110357260D01*
X97396364Y-110338078D01*
X97393663Y-110336519D01*
X97245201Y-110248720D01*
X97245196Y-110248718D01*
X97192933Y-110233534D01*
X97126960Y-110193579D01*
X97089804Y-110125991D01*
X97091419Y-110048880D01*
X97129143Y-109985092D01*
X97670095Y-109444141D01*
X97736890Y-109405577D01*
X97775454Y-109400500D01*
X98195547Y-109400500D01*
X98270047Y-109420462D01*
G37*
%TD.AperFunction*%
%TA.AperFunction,Conductor*%
G36*
X107716768Y-104781424D02*
G01*
X107729138Y-104793794D01*
X107729140Y-104793793D01*
X107733276Y-104797929D01*
X107733279Y-104797933D01*
X107902067Y-104966721D01*
X108095181Y-105107027D01*
X108307866Y-105215395D01*
X108534885Y-105289158D01*
X108770649Y-105326500D01*
X108770654Y-105326500D01*
X109009346Y-105326500D01*
X109009351Y-105326500D01*
X109245115Y-105289158D01*
X109365690Y-105249979D01*
X109442712Y-105245943D01*
X109511434Y-105280958D01*
X109517093Y-105286328D01*
X109899478Y-105668713D01*
X109899480Y-105668716D01*
X110011284Y-105780520D01*
X110086411Y-105823894D01*
X110148215Y-105859577D01*
X110300942Y-105900500D01*
X110300943Y-105900500D01*
X111126000Y-105900500D01*
X111200500Y-105920462D01*
X111255038Y-105975000D01*
X111275000Y-106049500D01*
X111275000Y-106475000D01*
X111926000Y-106475000D01*
X112000500Y-106494962D01*
X112055038Y-106549500D01*
X112075000Y-106624000D01*
X112075000Y-106826000D01*
X112055038Y-106900500D01*
X112000500Y-106955038D01*
X111926000Y-106975000D01*
X111275000Y-106975000D01*
X111275000Y-107450500D01*
X111255038Y-107525000D01*
X111200500Y-107579538D01*
X111126000Y-107599500D01*
X101594500Y-107599500D01*
X101520000Y-107579538D01*
X101465462Y-107525000D01*
X101445500Y-107450500D01*
X101445500Y-106835453D01*
X101465462Y-106760953D01*
X101489141Y-106730094D01*
X102244235Y-105975000D01*
X103002911Y-105216323D01*
X103069704Y-105177761D01*
X103146832Y-105177761D01*
X103175912Y-105188924D01*
X103227860Y-105215393D01*
X103227865Y-105215394D01*
X103227866Y-105215395D01*
X103454885Y-105289158D01*
X103690649Y-105326500D01*
X103690654Y-105326500D01*
X103929346Y-105326500D01*
X103929351Y-105326500D01*
X104165115Y-105289158D01*
X104392134Y-105215395D01*
X104604819Y-105107027D01*
X104797933Y-104966721D01*
X104966721Y-104797933D01*
X104966723Y-104797929D01*
X104970860Y-104793793D01*
X104971633Y-104794566D01*
X105030262Y-104754272D01*
X105107153Y-104748220D01*
X105176768Y-104781424D01*
X105189138Y-104793794D01*
X105189140Y-104793793D01*
X105193276Y-104797929D01*
X105193279Y-104797933D01*
X105362067Y-104966721D01*
X105555181Y-105107027D01*
X105767866Y-105215395D01*
X105994885Y-105289158D01*
X106230649Y-105326500D01*
X106230654Y-105326500D01*
X106469346Y-105326500D01*
X106469351Y-105326500D01*
X106705115Y-105289158D01*
X106932134Y-105215395D01*
X107144819Y-105107027D01*
X107337933Y-104966721D01*
X107506721Y-104797933D01*
X107506723Y-104797929D01*
X107510860Y-104793793D01*
X107511633Y-104794566D01*
X107570262Y-104754272D01*
X107647153Y-104748220D01*
X107716768Y-104781424D01*
G37*
%TD.AperFunction*%
%TA.AperFunction,Conductor*%
G36*
X127971406Y-104750248D02*
G01*
X127976118Y-104750169D01*
X128005953Y-104766726D01*
X128036768Y-104781424D01*
X128042168Y-104786824D01*
X128043557Y-104787595D01*
X128050984Y-104794774D01*
X128053279Y-104797933D01*
X128222067Y-104966721D01*
X128249432Y-104986603D01*
X128256950Y-104993870D01*
X128271598Y-105018277D01*
X128289511Y-105040397D01*
X128291173Y-105050890D01*
X128296641Y-105060001D01*
X128297123Y-105088459D01*
X128301577Y-105116575D01*
X128297768Y-105126495D01*
X128297949Y-105137118D01*
X128284137Y-105162006D01*
X128273936Y-105188580D01*
X128265678Y-105195266D01*
X128260523Y-105204557D01*
X128236115Y-105219205D01*
X128213996Y-105237118D01*
X128203502Y-105238780D01*
X128194392Y-105244248D01*
X128153393Y-105250000D01*
X128139365Y-105250000D01*
X128102506Y-105252900D01*
X127944803Y-105298718D01*
X127944802Y-105298718D01*
X127803445Y-105382316D01*
X127803442Y-105382318D01*
X127687318Y-105498442D01*
X127687316Y-105498445D01*
X127603718Y-105639802D01*
X127603718Y-105639803D01*
X127557900Y-105797506D01*
X127555000Y-105834365D01*
X127555000Y-106475000D01*
X128206000Y-106475000D01*
X128280500Y-106494962D01*
X128335038Y-106549500D01*
X128355000Y-106624000D01*
X128355000Y-106826000D01*
X128335038Y-106900500D01*
X128280500Y-106955038D01*
X128206000Y-106975000D01*
X127555000Y-106975000D01*
X127555000Y-107450500D01*
X127535038Y-107525000D01*
X127480500Y-107579538D01*
X127406000Y-107599500D01*
X121914500Y-107599500D01*
X121840000Y-107579538D01*
X121785462Y-107525000D01*
X121765500Y-107450500D01*
X121765500Y-106835453D01*
X121785462Y-106760953D01*
X121809141Y-106730094D01*
X122564235Y-105975000D01*
X123322911Y-105216323D01*
X123389704Y-105177761D01*
X123466832Y-105177761D01*
X123495912Y-105188924D01*
X123547860Y-105215393D01*
X123547865Y-105215394D01*
X123547866Y-105215395D01*
X123774885Y-105289158D01*
X124010649Y-105326500D01*
X124010654Y-105326500D01*
X124249346Y-105326500D01*
X124249351Y-105326500D01*
X124485115Y-105289158D01*
X124712134Y-105215395D01*
X124924819Y-105107027D01*
X125117933Y-104966721D01*
X125286721Y-104797933D01*
X125286723Y-104797929D01*
X125290860Y-104793793D01*
X125291633Y-104794566D01*
X125350262Y-104754272D01*
X125427153Y-104748220D01*
X125496768Y-104781424D01*
X125509138Y-104793794D01*
X125509140Y-104793793D01*
X125513276Y-104797929D01*
X125513279Y-104797933D01*
X125682067Y-104966721D01*
X125875181Y-105107027D01*
X126087866Y-105215395D01*
X126314885Y-105289158D01*
X126550649Y-105326500D01*
X126550654Y-105326500D01*
X126789346Y-105326500D01*
X126789351Y-105326500D01*
X127025115Y-105289158D01*
X127252134Y-105215395D01*
X127464819Y-105107027D01*
X127657933Y-104966721D01*
X127826721Y-104797933D01*
X127826723Y-104797929D01*
X127830860Y-104793793D01*
X127831215Y-104794148D01*
X127832870Y-104791168D01*
X127862127Y-104773607D01*
X127890262Y-104754272D01*
X127894960Y-104753902D01*
X127899001Y-104751477D01*
X127933126Y-104750898D01*
X127967153Y-104748220D01*
X127971406Y-104750248D01*
G37*
%TD.AperFunction*%
%TA.AperFunction,Conductor*%
G36*
X128036768Y-97161424D02*
G01*
X128049138Y-97173794D01*
X128049140Y-97173793D01*
X128053276Y-97177929D01*
X128053279Y-97177933D01*
X128222067Y-97346721D01*
X128254017Y-97369934D01*
X128415177Y-97487025D01*
X128415181Y-97487027D01*
X128518145Y-97539489D01*
X128575461Y-97591096D01*
X128599296Y-97664449D01*
X128599500Y-97672248D01*
X128599500Y-98283448D01*
X128579538Y-98357948D01*
X128569780Y-98372741D01*
X128506205Y-98457666D01*
X128506202Y-98457670D01*
X128455908Y-98592517D01*
X128449500Y-98652114D01*
X128449500Y-99547863D01*
X128449502Y-99547888D01*
X128455908Y-99607478D01*
X128455909Y-99607484D01*
X128506202Y-99742329D01*
X128506204Y-99742333D01*
X128592452Y-99857544D01*
X128592456Y-99857548D01*
X128623827Y-99881033D01*
X128671504Y-99941660D01*
X128682479Y-100018003D01*
X128653812Y-100089606D01*
X128623828Y-100119591D01*
X128592810Y-100142811D01*
X128592809Y-100142812D01*
X128506650Y-100257905D01*
X128506645Y-100257915D01*
X128456401Y-100392622D01*
X128450001Y-100452157D01*
X128450000Y-100452177D01*
X128450000Y-100650000D01*
X129993282Y-100650000D01*
X130014003Y-100655552D01*
X130035447Y-100656091D01*
X130051406Y-100665574D01*
X130067782Y-100669962D01*
X130080947Y-100683127D01*
X130098641Y-100693641D01*
X130105000Y-100700000D01*
X130695000Y-100700000D01*
X130701359Y-100693641D01*
X130708601Y-100689459D01*
X130713551Y-100682721D01*
X130741609Y-100670402D01*
X130768154Y-100655077D01*
X130776517Y-100655077D01*
X130784172Y-100651716D01*
X130806718Y-100650000D01*
X132350000Y-100650000D01*
X132350000Y-100452177D01*
X132349998Y-100452157D01*
X132343598Y-100392622D01*
X132293354Y-100257915D01*
X132293349Y-100257905D01*
X132207190Y-100142812D01*
X132207187Y-100142809D01*
X132176173Y-100119592D01*
X132128496Y-100058965D01*
X132117520Y-99982622D01*
X132146186Y-99911019D01*
X132176173Y-99881032D01*
X132207543Y-99857548D01*
X132207546Y-99857546D01*
X132250671Y-99799938D01*
X132293795Y-99742333D01*
X132293797Y-99742329D01*
X132324661Y-99659577D01*
X132344091Y-99607483D01*
X132346990Y-99580520D01*
X132350499Y-99547885D01*
X132350499Y-99547882D01*
X132350500Y-99547873D01*
X132350499Y-99260453D01*
X132370461Y-99185953D01*
X132394140Y-99155094D01*
X132805095Y-98744141D01*
X132871890Y-98705577D01*
X132910454Y-98700500D01*
X134831798Y-98700500D01*
X134831814Y-98700501D01*
X134840943Y-98700501D01*
X134999052Y-98700501D01*
X134999057Y-98700501D01*
X135151785Y-98659577D01*
X135170813Y-98648590D01*
X135201900Y-98630642D01*
X135201904Y-98630639D01*
X135218842Y-98620860D01*
X135288716Y-98580520D01*
X135400520Y-98468716D01*
X135400520Y-98468714D01*
X135412782Y-98456453D01*
X135412786Y-98456448D01*
X136202908Y-97666325D01*
X136269701Y-97627763D01*
X136346829Y-97627763D01*
X136354262Y-97629965D01*
X136474885Y-97669158D01*
X136710649Y-97706500D01*
X136710654Y-97706500D01*
X136949346Y-97706500D01*
X136949351Y-97706500D01*
X137185115Y-97669158D01*
X137412134Y-97595395D01*
X137624819Y-97487027D01*
X137686923Y-97441905D01*
X137758924Y-97414266D01*
X137835102Y-97426331D01*
X137895043Y-97474869D01*
X137922684Y-97546874D01*
X137923500Y-97562450D01*
X137923500Y-97579351D01*
X137960842Y-97815115D01*
X138034605Y-98042134D01*
X138142973Y-98254819D01*
X138283279Y-98447933D01*
X138452067Y-98616721D01*
X138452070Y-98616723D01*
X138456207Y-98620860D01*
X138455435Y-98621631D01*
X138495733Y-98680278D01*
X138501776Y-98757169D01*
X138468564Y-98826780D01*
X138456205Y-98839138D01*
X138456207Y-98839140D01*
X138452070Y-98843276D01*
X138452067Y-98843279D01*
X138334894Y-98960452D01*
X138283281Y-99012065D01*
X138283272Y-99012076D01*
X138142974Y-99205179D01*
X138142971Y-99205184D01*
X138034610Y-99417855D01*
X138034603Y-99417872D01*
X137965079Y-99631846D01*
X137960842Y-99644885D01*
X137923500Y-99880649D01*
X137923500Y-100119351D01*
X137960842Y-100355115D01*
X138034605Y-100582134D01*
X138142973Y-100794819D01*
X138283279Y-100987933D01*
X138452067Y-101156721D01*
X138452070Y-101156723D01*
X138456207Y-101160860D01*
X138455435Y-101161631D01*
X138495733Y-101220278D01*
X138501776Y-101297169D01*
X138468564Y-101366780D01*
X138456205Y-101379138D01*
X138456207Y-101379140D01*
X138452070Y-101383276D01*
X138452067Y-101383279D01*
X138337474Y-101497872D01*
X138283281Y-101552065D01*
X138283274Y-101552074D01*
X138142974Y-101745179D01*
X138142971Y-101745184D01*
X138034610Y-101957855D01*
X138034603Y-101957872D01*
X137960842Y-102184884D01*
X137953833Y-102229135D01*
X137923500Y-102420649D01*
X137923500Y-102420653D01*
X137923500Y-102437549D01*
X137903538Y-102512049D01*
X137849000Y-102566587D01*
X137774500Y-102586549D01*
X137700000Y-102566587D01*
X137686920Y-102558092D01*
X137624821Y-102512974D01*
X137624815Y-102512971D01*
X137623005Y-102512049D01*
X137535259Y-102467340D01*
X137412144Y-102404610D01*
X137412143Y-102404609D01*
X137412134Y-102404605D01*
X137185115Y-102330842D01*
X136949351Y-102293500D01*
X136710649Y-102293500D01*
X136518058Y-102324004D01*
X136474884Y-102330842D01*
X136399303Y-102355400D01*
X136247866Y-102404605D01*
X136247861Y-102404607D01*
X136247855Y-102404610D01*
X136035184Y-102512971D01*
X136035179Y-102512974D01*
X135842076Y-102653272D01*
X135842070Y-102653276D01*
X135842067Y-102653279D01*
X135673279Y-102822067D01*
X135673276Y-102822070D01*
X135669140Y-102826207D01*
X135668368Y-102825435D01*
X135609722Y-102865733D01*
X135532831Y-102871776D01*
X135463220Y-102838564D01*
X135450861Y-102826205D01*
X135450860Y-102826207D01*
X135446723Y-102822070D01*
X135446721Y-102822067D01*
X135277933Y-102653279D01*
X135084819Y-102512973D01*
X134995259Y-102467340D01*
X134872144Y-102404610D01*
X134872143Y-102404609D01*
X134872134Y-102404605D01*
X134645115Y-102330842D01*
X134409351Y-102293500D01*
X134170649Y-102293500D01*
X133978058Y-102324004D01*
X133934884Y-102330842D01*
X133859303Y-102355400D01*
X133707866Y-102404605D01*
X133707861Y-102404607D01*
X133707855Y-102404610D01*
X133495184Y-102512971D01*
X133495179Y-102512974D01*
X133302076Y-102653272D01*
X133302070Y-102653276D01*
X133302067Y-102653279D01*
X133133279Y-102822067D01*
X133133276Y-102822070D01*
X133129140Y-102826207D01*
X133128368Y-102825435D01*
X133069722Y-102865733D01*
X132992831Y-102871776D01*
X132923220Y-102838564D01*
X132910861Y-102826205D01*
X132910860Y-102826207D01*
X132906723Y-102822070D01*
X132906721Y-102822067D01*
X132737933Y-102653279D01*
X132544819Y-102512973D01*
X132455259Y-102467340D01*
X132332144Y-102404610D01*
X132332143Y-102404609D01*
X132332134Y-102404605D01*
X132105115Y-102330842D01*
X131869351Y-102293500D01*
X131630649Y-102293500D01*
X131438058Y-102324004D01*
X131394884Y-102330842D01*
X131319303Y-102355400D01*
X131167866Y-102404605D01*
X131167861Y-102404607D01*
X131167855Y-102404610D01*
X130955184Y-102512971D01*
X130955179Y-102512974D01*
X130762076Y-102653272D01*
X130762070Y-102653276D01*
X130762067Y-102653279D01*
X130593279Y-102822067D01*
X130593276Y-102822070D01*
X130589140Y-102826207D01*
X130588368Y-102825435D01*
X130529722Y-102865733D01*
X130452831Y-102871776D01*
X130383220Y-102838564D01*
X130370861Y-102826205D01*
X130370860Y-102826207D01*
X130366723Y-102822070D01*
X130366721Y-102822067D01*
X130197933Y-102653279D01*
X130004819Y-102512973D01*
X129915259Y-102467340D01*
X129792144Y-102404610D01*
X129792143Y-102404609D01*
X129792134Y-102404605D01*
X129565115Y-102330842D01*
X129329351Y-102293500D01*
X129090649Y-102293500D01*
X128898058Y-102324004D01*
X128854884Y-102330842D01*
X128779303Y-102355400D01*
X128627866Y-102404605D01*
X128627861Y-102404607D01*
X128627855Y-102404610D01*
X128415184Y-102512971D01*
X128415179Y-102512974D01*
X128222076Y-102653272D01*
X128222070Y-102653276D01*
X128222067Y-102653279D01*
X128053279Y-102822067D01*
X128053276Y-102822070D01*
X128049140Y-102826207D01*
X128048368Y-102825435D01*
X127989722Y-102865733D01*
X127912831Y-102871776D01*
X127843220Y-102838564D01*
X127830861Y-102826205D01*
X127830860Y-102826207D01*
X127826723Y-102822070D01*
X127826721Y-102822067D01*
X127657933Y-102653279D01*
X127464819Y-102512973D01*
X127375259Y-102467340D01*
X127252144Y-102404610D01*
X127252143Y-102404609D01*
X127252134Y-102404605D01*
X127025115Y-102330842D01*
X126789351Y-102293500D01*
X126550649Y-102293500D01*
X126358058Y-102324004D01*
X126314884Y-102330842D01*
X126239303Y-102355400D01*
X126087866Y-102404605D01*
X126087861Y-102404607D01*
X126087855Y-102404610D01*
X125875184Y-102512971D01*
X125875179Y-102512974D01*
X125682076Y-102653272D01*
X125682070Y-102653276D01*
X125682067Y-102653279D01*
X125513279Y-102822067D01*
X125513276Y-102822070D01*
X125509140Y-102826207D01*
X125508368Y-102825435D01*
X125449722Y-102865733D01*
X125372831Y-102871776D01*
X125303220Y-102838564D01*
X125290861Y-102826205D01*
X125290860Y-102826207D01*
X125286723Y-102822070D01*
X125286721Y-102822067D01*
X125117933Y-102653279D01*
X124924819Y-102512973D01*
X124835259Y-102467340D01*
X124712144Y-102404610D01*
X124712143Y-102404609D01*
X124712134Y-102404605D01*
X124485115Y-102330842D01*
X124249351Y-102293500D01*
X124010649Y-102293500D01*
X123818058Y-102324004D01*
X123774884Y-102330842D01*
X123699303Y-102355400D01*
X123547866Y-102404605D01*
X123547861Y-102404607D01*
X123547855Y-102404610D01*
X123335184Y-102512971D01*
X123335179Y-102512974D01*
X123142076Y-102653272D01*
X123142070Y-102653276D01*
X123142067Y-102653279D01*
X122973279Y-102822067D01*
X122973276Y-102822070D01*
X122969140Y-102826207D01*
X122968368Y-102825435D01*
X122909722Y-102865733D01*
X122832831Y-102871776D01*
X122763220Y-102838564D01*
X122750861Y-102826205D01*
X122750860Y-102826207D01*
X122746723Y-102822070D01*
X122746721Y-102822067D01*
X122577933Y-102653279D01*
X122384819Y-102512973D01*
X122295259Y-102467340D01*
X122172144Y-102404610D01*
X122172143Y-102404609D01*
X122172134Y-102404605D01*
X121945115Y-102330842D01*
X121709351Y-102293500D01*
X121470649Y-102293500D01*
X121278058Y-102324004D01*
X121234884Y-102330842D01*
X121159303Y-102355400D01*
X121007866Y-102404605D01*
X121007861Y-102404607D01*
X121007855Y-102404610D01*
X120795184Y-102512971D01*
X120795179Y-102512974D01*
X120602076Y-102653272D01*
X120602070Y-102653276D01*
X120602067Y-102653279D01*
X120433279Y-102822067D01*
X120433276Y-102822070D01*
X120429140Y-102826207D01*
X120428368Y-102825435D01*
X120369722Y-102865733D01*
X120292831Y-102871776D01*
X120223220Y-102838564D01*
X120210861Y-102826205D01*
X120210860Y-102826207D01*
X120206723Y-102822070D01*
X120206721Y-102822067D01*
X120037933Y-102653279D01*
X119844819Y-102512973D01*
X119755259Y-102467340D01*
X119632144Y-102404610D01*
X119632143Y-102404609D01*
X119632134Y-102404605D01*
X119405115Y-102330842D01*
X119169351Y-102293500D01*
X118930649Y-102293500D01*
X118738058Y-102324004D01*
X118694884Y-102330842D01*
X118619303Y-102355400D01*
X118467866Y-102404605D01*
X118467861Y-102404607D01*
X118467855Y-102404610D01*
X118255184Y-102512971D01*
X118255179Y-102512974D01*
X118062076Y-102653272D01*
X118062070Y-102653276D01*
X118062067Y-102653279D01*
X117893279Y-102822067D01*
X117893276Y-102822070D01*
X117889140Y-102826207D01*
X117888368Y-102825435D01*
X117829722Y-102865733D01*
X117752831Y-102871776D01*
X117683220Y-102838564D01*
X117670861Y-102826205D01*
X117670860Y-102826207D01*
X117666723Y-102822070D01*
X117666721Y-102822067D01*
X117497933Y-102653279D01*
X117304819Y-102512973D01*
X117215259Y-102467340D01*
X117092144Y-102404610D01*
X117092143Y-102404609D01*
X117092134Y-102404605D01*
X116865115Y-102330842D01*
X116629351Y-102293500D01*
X116390649Y-102293500D01*
X116198058Y-102324004D01*
X116154884Y-102330842D01*
X116079303Y-102355400D01*
X115927866Y-102404605D01*
X115927861Y-102404607D01*
X115927855Y-102404610D01*
X115715184Y-102512971D01*
X115715180Y-102512973D01*
X115630403Y-102574567D01*
X115558398Y-102602207D01*
X115482219Y-102590141D01*
X115423544Y-102543317D01*
X115366667Y-102467340D01*
X115343546Y-102436454D01*
X115343544Y-102436453D01*
X115343544Y-102436452D01*
X115228333Y-102350204D01*
X115228329Y-102350202D01*
X115093482Y-102299908D01*
X115033876Y-102293500D01*
X112906136Y-102293500D01*
X112906111Y-102293502D01*
X112846521Y-102299908D01*
X112846515Y-102299909D01*
X112711670Y-102350202D01*
X112711666Y-102350204D01*
X112596455Y-102436452D01*
X112516455Y-102543318D01*
X112455827Y-102590994D01*
X112379484Y-102601970D01*
X112309597Y-102574568D01*
X112231196Y-102517606D01*
X112224815Y-102512970D01*
X112012144Y-102404610D01*
X112012143Y-102404609D01*
X112012134Y-102404605D01*
X111785115Y-102330842D01*
X111549351Y-102293500D01*
X111310649Y-102293500D01*
X111118058Y-102324004D01*
X111074884Y-102330842D01*
X110999303Y-102355400D01*
X110847866Y-102404605D01*
X110847861Y-102404607D01*
X110847855Y-102404610D01*
X110635184Y-102512971D01*
X110635179Y-102512974D01*
X110442076Y-102653272D01*
X110442070Y-102653276D01*
X110442067Y-102653279D01*
X110273279Y-102822067D01*
X110273276Y-102822070D01*
X110269140Y-102826207D01*
X110268368Y-102825435D01*
X110209722Y-102865733D01*
X110132831Y-102871776D01*
X110063220Y-102838564D01*
X110050861Y-102826205D01*
X110050860Y-102826207D01*
X110046723Y-102822070D01*
X110046721Y-102822067D01*
X109877933Y-102653279D01*
X109684819Y-102512973D01*
X109595259Y-102467340D01*
X109472144Y-102404610D01*
X109472143Y-102404609D01*
X109472134Y-102404605D01*
X109245115Y-102330842D01*
X109009351Y-102293500D01*
X108770649Y-102293500D01*
X108578058Y-102324004D01*
X108534884Y-102330842D01*
X108459303Y-102355400D01*
X108307866Y-102404605D01*
X108307861Y-102404607D01*
X108307855Y-102404610D01*
X108095184Y-102512971D01*
X108095179Y-102512974D01*
X107902076Y-102653272D01*
X107902070Y-102653276D01*
X107902067Y-102653279D01*
X107733279Y-102822067D01*
X107733276Y-102822070D01*
X107729140Y-102826207D01*
X107728368Y-102825435D01*
X107669722Y-102865733D01*
X107592831Y-102871776D01*
X107523220Y-102838564D01*
X107510861Y-102826205D01*
X107510860Y-102826207D01*
X107506723Y-102822070D01*
X107506721Y-102822067D01*
X107337933Y-102653279D01*
X107144819Y-102512973D01*
X107055259Y-102467340D01*
X106932144Y-102404610D01*
X106932143Y-102404609D01*
X106932134Y-102404605D01*
X106705115Y-102330842D01*
X106469351Y-102293500D01*
X106230649Y-102293500D01*
X106038058Y-102324004D01*
X105994884Y-102330842D01*
X105919303Y-102355400D01*
X105767866Y-102404605D01*
X105767861Y-102404607D01*
X105767855Y-102404610D01*
X105555184Y-102512971D01*
X105555179Y-102512974D01*
X105362076Y-102653272D01*
X105362070Y-102653276D01*
X105362067Y-102653279D01*
X105193279Y-102822067D01*
X105193276Y-102822070D01*
X105189140Y-102826207D01*
X105188368Y-102825435D01*
X105129722Y-102865733D01*
X105052831Y-102871776D01*
X104983220Y-102838564D01*
X104970861Y-102826205D01*
X104970860Y-102826207D01*
X104966723Y-102822070D01*
X104966721Y-102822067D01*
X104797933Y-102653279D01*
X104604819Y-102512973D01*
X104515259Y-102467340D01*
X104392144Y-102404610D01*
X104392143Y-102404609D01*
X104392134Y-102404605D01*
X104165115Y-102330842D01*
X103929351Y-102293500D01*
X103690649Y-102293500D01*
X103498058Y-102324004D01*
X103454884Y-102330842D01*
X103379303Y-102355400D01*
X103227866Y-102404605D01*
X103227861Y-102404607D01*
X103227855Y-102404610D01*
X103015184Y-102512971D01*
X103015179Y-102512974D01*
X102822076Y-102653272D01*
X102822070Y-102653276D01*
X102822067Y-102653279D01*
X102653279Y-102822067D01*
X102653276Y-102822070D01*
X102649140Y-102826207D01*
X102648368Y-102825435D01*
X102589722Y-102865733D01*
X102512831Y-102871776D01*
X102443220Y-102838564D01*
X102430861Y-102826205D01*
X102430860Y-102826207D01*
X102426723Y-102822070D01*
X102426721Y-102822067D01*
X102257933Y-102653279D01*
X102064819Y-102512973D01*
X101975259Y-102467340D01*
X101852144Y-102404610D01*
X101852143Y-102404609D01*
X101852134Y-102404605D01*
X101625115Y-102330842D01*
X101389351Y-102293500D01*
X101150649Y-102293500D01*
X100958058Y-102324004D01*
X100914884Y-102330842D01*
X100839303Y-102355400D01*
X100687866Y-102404605D01*
X100687861Y-102404607D01*
X100687855Y-102404610D01*
X100475184Y-102512971D01*
X100475179Y-102512974D01*
X100282076Y-102653272D01*
X100282070Y-102653276D01*
X100282067Y-102653279D01*
X100113279Y-102822067D01*
X100113276Y-102822070D01*
X100109140Y-102826207D01*
X100108368Y-102825435D01*
X100049722Y-102865733D01*
X99972831Y-102871776D01*
X99903220Y-102838564D01*
X99890861Y-102826205D01*
X99890860Y-102826207D01*
X99886723Y-102822070D01*
X99886721Y-102822067D01*
X99717933Y-102653279D01*
X99524819Y-102512973D01*
X99435259Y-102467340D01*
X99312144Y-102404610D01*
X99312143Y-102404609D01*
X99312134Y-102404605D01*
X99085115Y-102330842D01*
X98849351Y-102293500D01*
X98610649Y-102293500D01*
X98418058Y-102324004D01*
X98374884Y-102330842D01*
X98299303Y-102355400D01*
X98147866Y-102404605D01*
X98147861Y-102404607D01*
X98147855Y-102404610D01*
X97935184Y-102512971D01*
X97935179Y-102512974D01*
X97742076Y-102653272D01*
X97742070Y-102653276D01*
X97742067Y-102653279D01*
X97573279Y-102822067D01*
X97573276Y-102822070D01*
X97569140Y-102826207D01*
X97568368Y-102825435D01*
X97509722Y-102865733D01*
X97432831Y-102871776D01*
X97363220Y-102838564D01*
X97350861Y-102826205D01*
X97350860Y-102826207D01*
X97346723Y-102822070D01*
X97346721Y-102822067D01*
X97177933Y-102653279D01*
X96984819Y-102512973D01*
X96895259Y-102467340D01*
X96772144Y-102404610D01*
X96772143Y-102404609D01*
X96772134Y-102404605D01*
X96545115Y-102330842D01*
X96309351Y-102293500D01*
X96070649Y-102293500D01*
X95878058Y-102324004D01*
X95834884Y-102330842D01*
X95759303Y-102355400D01*
X95607866Y-102404605D01*
X95607861Y-102404607D01*
X95607855Y-102404610D01*
X95395184Y-102512971D01*
X95395179Y-102512974D01*
X95202076Y-102653272D01*
X95202070Y-102653276D01*
X95202067Y-102653279D01*
X95033279Y-102822067D01*
X95033276Y-102822070D01*
X95029140Y-102826207D01*
X95028368Y-102825435D01*
X94969722Y-102865733D01*
X94892831Y-102871776D01*
X94823220Y-102838564D01*
X94810861Y-102826205D01*
X94810860Y-102826207D01*
X94806723Y-102822070D01*
X94806721Y-102822067D01*
X94637933Y-102653279D01*
X94444819Y-102512973D01*
X94355259Y-102467340D01*
X94232144Y-102404610D01*
X94232143Y-102404609D01*
X94232134Y-102404605D01*
X94005115Y-102330842D01*
X93769351Y-102293500D01*
X93530649Y-102293500D01*
X93338058Y-102324004D01*
X93294884Y-102330842D01*
X93219303Y-102355400D01*
X93067866Y-102404605D01*
X93067861Y-102404607D01*
X93067855Y-102404610D01*
X92855184Y-102512971D01*
X92855179Y-102512974D01*
X92662076Y-102653272D01*
X92662070Y-102653276D01*
X92662067Y-102653279D01*
X92493279Y-102822067D01*
X92493276Y-102822070D01*
X92489140Y-102826207D01*
X92488368Y-102825435D01*
X92429722Y-102865733D01*
X92352831Y-102871776D01*
X92283220Y-102838564D01*
X92270861Y-102826205D01*
X92270860Y-102826207D01*
X92266723Y-102822070D01*
X92266721Y-102822067D01*
X92097933Y-102653279D01*
X91904819Y-102512973D01*
X91815259Y-102467340D01*
X91692144Y-102404610D01*
X91692143Y-102404609D01*
X91692134Y-102404605D01*
X91465115Y-102330842D01*
X91229351Y-102293500D01*
X90990649Y-102293500D01*
X90798058Y-102324004D01*
X90754884Y-102330842D01*
X90679303Y-102355400D01*
X90527866Y-102404605D01*
X90527861Y-102404607D01*
X90527855Y-102404610D01*
X90315184Y-102512971D01*
X90315180Y-102512973D01*
X90230403Y-102574567D01*
X90158398Y-102602207D01*
X90082219Y-102590141D01*
X90023544Y-102543317D01*
X89966667Y-102467340D01*
X89943546Y-102436454D01*
X89943544Y-102436453D01*
X89943544Y-102436452D01*
X89828333Y-102350204D01*
X89828329Y-102350202D01*
X89693482Y-102299908D01*
X89633876Y-102293500D01*
X87506136Y-102293500D01*
X87506111Y-102293502D01*
X87446521Y-102299908D01*
X87446512Y-102299910D01*
X87401568Y-102316673D01*
X87324789Y-102324004D01*
X87254631Y-102291962D01*
X87209894Y-102229135D01*
X87200500Y-102177067D01*
X87200500Y-101347822D01*
X90430000Y-101347822D01*
X90430001Y-101347842D01*
X90436401Y-101407377D01*
X90486645Y-101542084D01*
X90486650Y-101542094D01*
X90572809Y-101657187D01*
X90572812Y-101657190D01*
X90687905Y-101743349D01*
X90687915Y-101743354D01*
X90822623Y-101793598D01*
X90822621Y-101793598D01*
X90882157Y-101799998D01*
X90882177Y-101800000D01*
X90930000Y-101800000D01*
X91430000Y-101800000D01*
X91477823Y-101800000D01*
X91477842Y-101799998D01*
X91537373Y-101793598D01*
X91537377Y-101793597D01*
X91552926Y-101787798D01*
X91629704Y-101780464D01*
X91657074Y-101787798D01*
X91672622Y-101793597D01*
X91672626Y-101793598D01*
X91732157Y-101799998D01*
X91732177Y-101800000D01*
X91780000Y-101800000D01*
X92180000Y-101800000D01*
X92227823Y-101800000D01*
X92227842Y-101799998D01*
X92287373Y-101793598D01*
X92327928Y-101778472D01*
X92404706Y-101771140D01*
X92432072Y-101778472D01*
X92472626Y-101793598D01*
X92532157Y-101799998D01*
X92532177Y-101800000D01*
X92580000Y-101800000D01*
X92980000Y-101800000D01*
X93027823Y-101800000D01*
X93027842Y-101799998D01*
X93087373Y-101793598D01*
X93087377Y-101793597D01*
X93102926Y-101787798D01*
X93179704Y-101780464D01*
X93207074Y-101787798D01*
X93222622Y-101793597D01*
X93222626Y-101793598D01*
X93282157Y-101799998D01*
X93282177Y-101800000D01*
X93330000Y-101800000D01*
X93830000Y-101800000D01*
X93877823Y-101800000D01*
X93877842Y-101799998D01*
X93937377Y-101793598D01*
X94072084Y-101743354D01*
X94072094Y-101743349D01*
X94187187Y-101657190D01*
X94187190Y-101657187D01*
X94273349Y-101542094D01*
X94273354Y-101542084D01*
X94323598Y-101407377D01*
X94329998Y-101347842D01*
X94330000Y-101347822D01*
X100590000Y-101347822D01*
X100590001Y-101347842D01*
X100596401Y-101407377D01*
X100646645Y-101542084D01*
X100646650Y-101542094D01*
X100732809Y-101657187D01*
X100732812Y-101657190D01*
X100847905Y-101743349D01*
X100847915Y-101743354D01*
X100982623Y-101793598D01*
X100982621Y-101793598D01*
X101042157Y-101799998D01*
X101042177Y-101800000D01*
X101090000Y-101800000D01*
X101590000Y-101800000D01*
X101637823Y-101800000D01*
X101637842Y-101799998D01*
X101697373Y-101793598D01*
X101697377Y-101793597D01*
X101712926Y-101787798D01*
X101789704Y-101780464D01*
X101817074Y-101787798D01*
X101832622Y-101793597D01*
X101832626Y-101793598D01*
X101892157Y-101799998D01*
X101892177Y-101800000D01*
X101940000Y-101800000D01*
X102340000Y-101800000D01*
X102387823Y-101800000D01*
X102387842Y-101799998D01*
X102447373Y-101793598D01*
X102487928Y-101778472D01*
X102564706Y-101771140D01*
X102592072Y-101778472D01*
X102632626Y-101793598D01*
X102692157Y-101799998D01*
X102692177Y-101800000D01*
X102740000Y-101800000D01*
X103140000Y-101800000D01*
X103187823Y-101800000D01*
X103187842Y-101799998D01*
X103247373Y-101793598D01*
X103247377Y-101793597D01*
X103262926Y-101787798D01*
X103339704Y-101780464D01*
X103367074Y-101787798D01*
X103382622Y-101793597D01*
X103382626Y-101793598D01*
X103442157Y-101799998D01*
X103442177Y-101800000D01*
X103490000Y-101800000D01*
X103990000Y-101800000D01*
X104037823Y-101800000D01*
X104037842Y-101799998D01*
X104097377Y-101793598D01*
X104232084Y-101743354D01*
X104232094Y-101743349D01*
X104347187Y-101657190D01*
X104347190Y-101657187D01*
X104433349Y-101542094D01*
X104433354Y-101542084D01*
X104483598Y-101407377D01*
X104489998Y-101347842D01*
X104490000Y-101347822D01*
X107650000Y-101347822D01*
X107650001Y-101347842D01*
X107656401Y-101407377D01*
X107706645Y-101542084D01*
X107706650Y-101542094D01*
X107792809Y-101657187D01*
X107792812Y-101657190D01*
X107907905Y-101743349D01*
X107907915Y-101743354D01*
X108042623Y-101793598D01*
X108042621Y-101793598D01*
X108102157Y-101799998D01*
X108102177Y-101800000D01*
X108150000Y-101800000D01*
X108650000Y-101800000D01*
X108697823Y-101800000D01*
X108697842Y-101799998D01*
X108757373Y-101793598D01*
X108757377Y-101793597D01*
X108772926Y-101787798D01*
X108849704Y-101780464D01*
X108877074Y-101787798D01*
X108892622Y-101793597D01*
X108892626Y-101793598D01*
X108952157Y-101799998D01*
X108952177Y-101800000D01*
X109000000Y-101800000D01*
X109400000Y-101800000D01*
X109447823Y-101800000D01*
X109447842Y-101799998D01*
X109507373Y-101793598D01*
X109547928Y-101778472D01*
X109624706Y-101771140D01*
X109652072Y-101778472D01*
X109692626Y-101793598D01*
X109752157Y-101799998D01*
X109752177Y-101800000D01*
X109800000Y-101800000D01*
X110200000Y-101800000D01*
X110247823Y-101800000D01*
X110247842Y-101799998D01*
X110307373Y-101793598D01*
X110307377Y-101793597D01*
X110322926Y-101787798D01*
X110399704Y-101780464D01*
X110427074Y-101787798D01*
X110442622Y-101793597D01*
X110442626Y-101793598D01*
X110502157Y-101799998D01*
X110502177Y-101800000D01*
X110550000Y-101800000D01*
X111050000Y-101800000D01*
X111097823Y-101800000D01*
X111097842Y-101799998D01*
X111157377Y-101793598D01*
X111292084Y-101743354D01*
X111292094Y-101743349D01*
X111407187Y-101657190D01*
X111407190Y-101657187D01*
X111493349Y-101542094D01*
X111493354Y-101542084D01*
X111543598Y-101407377D01*
X111549998Y-101347842D01*
X111550000Y-101347822D01*
X120910000Y-101347822D01*
X120910001Y-101347842D01*
X120916401Y-101407377D01*
X120966645Y-101542084D01*
X120966650Y-101542094D01*
X121052809Y-101657187D01*
X121052812Y-101657190D01*
X121167905Y-101743349D01*
X121167915Y-101743354D01*
X121302623Y-101793598D01*
X121302621Y-101793598D01*
X121362157Y-101799998D01*
X121362177Y-101800000D01*
X121410000Y-101800000D01*
X121910000Y-101800000D01*
X121957823Y-101800000D01*
X121957842Y-101799998D01*
X122017373Y-101793598D01*
X122017377Y-101793597D01*
X122032926Y-101787798D01*
X122109704Y-101780464D01*
X122137074Y-101787798D01*
X122152622Y-101793597D01*
X122152626Y-101793598D01*
X122212157Y-101799998D01*
X122212177Y-101800000D01*
X122260000Y-101800000D01*
X122660000Y-101800000D01*
X122707823Y-101800000D01*
X122707842Y-101799998D01*
X122767373Y-101793598D01*
X122807928Y-101778472D01*
X122884706Y-101771140D01*
X122912072Y-101778472D01*
X122952626Y-101793598D01*
X123012157Y-101799998D01*
X123012177Y-101800000D01*
X123060000Y-101800000D01*
X123460000Y-101800000D01*
X123507823Y-101800000D01*
X123507842Y-101799998D01*
X123567373Y-101793598D01*
X123567377Y-101793597D01*
X123582926Y-101787798D01*
X123659704Y-101780464D01*
X123687074Y-101787798D01*
X123702622Y-101793597D01*
X123702626Y-101793598D01*
X123762157Y-101799998D01*
X123762177Y-101800000D01*
X123810000Y-101800000D01*
X124310000Y-101800000D01*
X124357823Y-101800000D01*
X124357842Y-101799998D01*
X124417377Y-101793598D01*
X124552084Y-101743354D01*
X124552094Y-101743349D01*
X124667187Y-101657190D01*
X124667190Y-101657187D01*
X124753349Y-101542094D01*
X124753354Y-101542084D01*
X124803598Y-101407377D01*
X124809998Y-101347842D01*
X124810000Y-101347822D01*
X128450000Y-101347822D01*
X128450001Y-101347842D01*
X128456401Y-101407377D01*
X128506645Y-101542084D01*
X128506650Y-101542094D01*
X128592809Y-101657187D01*
X128592812Y-101657190D01*
X128707905Y-101743349D01*
X128707915Y-101743354D01*
X128842623Y-101793598D01*
X128842621Y-101793598D01*
X128902157Y-101799998D01*
X128902177Y-101800000D01*
X128950000Y-101800000D01*
X129450000Y-101800000D01*
X129497823Y-101800000D01*
X129497842Y-101799998D01*
X129557373Y-101793598D01*
X129557377Y-101793597D01*
X129572926Y-101787798D01*
X129649704Y-101780464D01*
X129677074Y-101787798D01*
X129692622Y-101793597D01*
X129692626Y-101793598D01*
X129752157Y-101799998D01*
X129752177Y-101800000D01*
X129800000Y-101800000D01*
X130200000Y-101800000D01*
X130247823Y-101800000D01*
X130247842Y-101799998D01*
X130307373Y-101793598D01*
X130347928Y-101778472D01*
X130424706Y-101771140D01*
X130452072Y-101778472D01*
X130492626Y-101793598D01*
X130552157Y-101799998D01*
X130552177Y-101800000D01*
X130600000Y-101800000D01*
X131000000Y-101800000D01*
X131047823Y-101800000D01*
X131047842Y-101799998D01*
X131107373Y-101793598D01*
X131107377Y-101793597D01*
X131122926Y-101787798D01*
X131199704Y-101780464D01*
X131227074Y-101787798D01*
X131242622Y-101793597D01*
X131242626Y-101793598D01*
X131302157Y-101799998D01*
X131302177Y-101800000D01*
X131350000Y-101800000D01*
X131850000Y-101800000D01*
X131897823Y-101800000D01*
X131897842Y-101799998D01*
X131957377Y-101793598D01*
X132092084Y-101743354D01*
X132092094Y-101743349D01*
X132207187Y-101657190D01*
X132207190Y-101657187D01*
X132293349Y-101542094D01*
X132293354Y-101542084D01*
X132343598Y-101407377D01*
X132349998Y-101347842D01*
X132350000Y-101347822D01*
X132350000Y-101150000D01*
X131850000Y-101150000D01*
X131850000Y-101800000D01*
X131350000Y-101800000D01*
X131350000Y-101150000D01*
X131000000Y-101150000D01*
X131000000Y-101800000D01*
X130600000Y-101800000D01*
X130600000Y-101100000D01*
X130200000Y-101100000D01*
X130200000Y-101800000D01*
X129800000Y-101800000D01*
X129800000Y-101150000D01*
X129450000Y-101150000D01*
X129450000Y-101800000D01*
X128950000Y-101800000D01*
X128950000Y-101150000D01*
X128450000Y-101150000D01*
X128450000Y-101347822D01*
X124810000Y-101347822D01*
X124810000Y-101150000D01*
X124310000Y-101150000D01*
X124310000Y-101800000D01*
X123810000Y-101800000D01*
X123810000Y-101150000D01*
X123460000Y-101150000D01*
X123460000Y-101800000D01*
X123060000Y-101800000D01*
X123060000Y-101100000D01*
X122660000Y-101100000D01*
X122660000Y-101800000D01*
X122260000Y-101800000D01*
X122260000Y-101150000D01*
X121910000Y-101150000D01*
X121910000Y-101800000D01*
X121410000Y-101800000D01*
X121410000Y-101150000D01*
X120910000Y-101150000D01*
X120910000Y-101347822D01*
X111550000Y-101347822D01*
X111550000Y-101150000D01*
X111050000Y-101150000D01*
X111050000Y-101800000D01*
X110550000Y-101800000D01*
X110550000Y-101150000D01*
X110200000Y-101150000D01*
X110200000Y-101800000D01*
X109800000Y-101800000D01*
X109800000Y-101100000D01*
X109400000Y-101100000D01*
X109400000Y-101800000D01*
X109000000Y-101800000D01*
X109000000Y-101150000D01*
X108650000Y-101150000D01*
X108650000Y-101800000D01*
X108150000Y-101800000D01*
X108150000Y-101150000D01*
X107650000Y-101150000D01*
X107650000Y-101347822D01*
X104490000Y-101347822D01*
X104490000Y-101150000D01*
X103990000Y-101150000D01*
X103990000Y-101800000D01*
X103490000Y-101800000D01*
X103490000Y-101150000D01*
X103140000Y-101150000D01*
X103140000Y-101800000D01*
X102740000Y-101800000D01*
X102740000Y-101100000D01*
X102340000Y-101100000D01*
X102340000Y-101800000D01*
X101940000Y-101800000D01*
X101940000Y-101150000D01*
X101590000Y-101150000D01*
X101590000Y-101800000D01*
X101090000Y-101800000D01*
X101090000Y-101150000D01*
X100590000Y-101150000D01*
X100590000Y-101347822D01*
X94330000Y-101347822D01*
X94330000Y-101150000D01*
X93830000Y-101150000D01*
X93830000Y-101800000D01*
X93330000Y-101800000D01*
X93330000Y-101150000D01*
X92980000Y-101150000D01*
X92980000Y-101800000D01*
X92580000Y-101800000D01*
X92580000Y-101100000D01*
X92180000Y-101100000D01*
X92180000Y-101800000D01*
X91780000Y-101800000D01*
X91780000Y-101150000D01*
X91430000Y-101150000D01*
X91430000Y-101800000D01*
X90930000Y-101800000D01*
X90930000Y-101150000D01*
X90430000Y-101150000D01*
X90430000Y-101347822D01*
X87200500Y-101347822D01*
X87200500Y-97324871D01*
X87220462Y-97250371D01*
X87275000Y-97195833D01*
X87349500Y-97175871D01*
X87424000Y-97195833D01*
X87454854Y-97219508D01*
X87582067Y-97346721D01*
X87775181Y-97487027D01*
X87987866Y-97595395D01*
X88214885Y-97669158D01*
X88450649Y-97706500D01*
X88450654Y-97706500D01*
X88689346Y-97706500D01*
X88689351Y-97706500D01*
X88925115Y-97669158D01*
X89045690Y-97629979D01*
X89122712Y-97625943D01*
X89191434Y-97660958D01*
X89197093Y-97666328D01*
X90385859Y-98855094D01*
X90424423Y-98921889D01*
X90429500Y-98960453D01*
X90429500Y-99547863D01*
X90429502Y-99547888D01*
X90435908Y-99607478D01*
X90435909Y-99607484D01*
X90486202Y-99742329D01*
X90486204Y-99742333D01*
X90572452Y-99857544D01*
X90572456Y-99857548D01*
X90603827Y-99881033D01*
X90651504Y-99941660D01*
X90662479Y-100018003D01*
X90633812Y-100089606D01*
X90603828Y-100119591D01*
X90572810Y-100142811D01*
X90572809Y-100142812D01*
X90486650Y-100257905D01*
X90486645Y-100257915D01*
X90436401Y-100392622D01*
X90430001Y-100452157D01*
X90430000Y-100452177D01*
X90430000Y-100650000D01*
X91973282Y-100650000D01*
X92047782Y-100669962D01*
X92078641Y-100693641D01*
X92085000Y-100700000D01*
X92675000Y-100700000D01*
X92681359Y-100693641D01*
X92748154Y-100655077D01*
X92786718Y-100650000D01*
X94330000Y-100650000D01*
X94330000Y-100452177D01*
X94329998Y-100452157D01*
X94323598Y-100392622D01*
X94273354Y-100257915D01*
X94273349Y-100257905D01*
X94187190Y-100142812D01*
X94187187Y-100142809D01*
X94156173Y-100119592D01*
X94108496Y-100058965D01*
X94097520Y-99982622D01*
X94126186Y-99911019D01*
X94156173Y-99881032D01*
X94187543Y-99857548D01*
X94187546Y-99857546D01*
X94230671Y-99799938D01*
X94273795Y-99742333D01*
X94273797Y-99742329D01*
X94304661Y-99659577D01*
X94324091Y-99607483D01*
X94326990Y-99580520D01*
X94330499Y-99547885D01*
X94330499Y-99547882D01*
X94330500Y-99547873D01*
X94330499Y-98960451D01*
X94350461Y-98885952D01*
X94374136Y-98855097D01*
X95562908Y-97666325D01*
X95629701Y-97627763D01*
X95706829Y-97627763D01*
X95714262Y-97629965D01*
X95834885Y-97669158D01*
X96070649Y-97706500D01*
X96070654Y-97706500D01*
X96309346Y-97706500D01*
X96309351Y-97706500D01*
X96545115Y-97669158D01*
X96772134Y-97595395D01*
X96984819Y-97487027D01*
X97177933Y-97346721D01*
X97346721Y-97177933D01*
X97346723Y-97177929D01*
X97350860Y-97173793D01*
X97351633Y-97174566D01*
X97410262Y-97134272D01*
X97487153Y-97128220D01*
X97556768Y-97161424D01*
X97569138Y-97173794D01*
X97569140Y-97173793D01*
X97573276Y-97177929D01*
X97573279Y-97177933D01*
X97742067Y-97346721D01*
X97935181Y-97487027D01*
X98147866Y-97595395D01*
X98374885Y-97669158D01*
X98610649Y-97706500D01*
X98610654Y-97706500D01*
X98849346Y-97706500D01*
X98849351Y-97706500D01*
X99085115Y-97669158D01*
X99205690Y-97629979D01*
X99282712Y-97625943D01*
X99351434Y-97660958D01*
X99357093Y-97666328D01*
X100545859Y-98855094D01*
X100584423Y-98921889D01*
X100589500Y-98960453D01*
X100589500Y-99547863D01*
X100589502Y-99547888D01*
X100595908Y-99607478D01*
X100595909Y-99607484D01*
X100646202Y-99742329D01*
X100646204Y-99742333D01*
X100732452Y-99857544D01*
X100732456Y-99857548D01*
X100763827Y-99881033D01*
X100811504Y-99941660D01*
X100822479Y-100018003D01*
X100793812Y-100089606D01*
X100763828Y-100119591D01*
X100732810Y-100142811D01*
X100732809Y-100142812D01*
X100646650Y-100257905D01*
X100646645Y-100257915D01*
X100596401Y-100392622D01*
X100590001Y-100452157D01*
X100590000Y-100452177D01*
X100590000Y-100650000D01*
X102133282Y-100650000D01*
X102207782Y-100669962D01*
X102238641Y-100693641D01*
X102245000Y-100700000D01*
X102835000Y-100700000D01*
X102841359Y-100693641D01*
X102908154Y-100655077D01*
X102946718Y-100650000D01*
X104490000Y-100650000D01*
X104490000Y-100452177D01*
X104489998Y-100452157D01*
X104483598Y-100392622D01*
X104433354Y-100257915D01*
X104433349Y-100257905D01*
X104347190Y-100142812D01*
X104347187Y-100142809D01*
X104316173Y-100119592D01*
X104268496Y-100058965D01*
X104257520Y-99982622D01*
X104286186Y-99911019D01*
X104316173Y-99881032D01*
X104347543Y-99857548D01*
X104347546Y-99857546D01*
X104390671Y-99799938D01*
X104433795Y-99742333D01*
X104433797Y-99742329D01*
X104464661Y-99659577D01*
X104484091Y-99607483D01*
X104486990Y-99580520D01*
X104490499Y-99547885D01*
X104490499Y-99547882D01*
X104490500Y-99547873D01*
X104490499Y-98960451D01*
X104510461Y-98885952D01*
X104534136Y-98855097D01*
X105722908Y-97666325D01*
X105789701Y-97627763D01*
X105866829Y-97627763D01*
X105874262Y-97629965D01*
X105994885Y-97669158D01*
X106230649Y-97706500D01*
X106230654Y-97706500D01*
X106469346Y-97706500D01*
X106469351Y-97706500D01*
X106705115Y-97669158D01*
X106932134Y-97595395D01*
X107144819Y-97487027D01*
X107337933Y-97346721D01*
X107506721Y-97177933D01*
X107506723Y-97177929D01*
X107510860Y-97173793D01*
X107511633Y-97174566D01*
X107512295Y-97174110D01*
X107515751Y-97168268D01*
X107543761Y-97152485D01*
X107570262Y-97134272D01*
X107577030Y-97133739D01*
X107582946Y-97130406D01*
X107615099Y-97130742D01*
X107647153Y-97128220D01*
X107653281Y-97131142D01*
X107660070Y-97131214D01*
X107679700Y-97143744D01*
X107716768Y-97161424D01*
X107726457Y-97170476D01*
X107731898Y-97176032D01*
X107733279Y-97177933D01*
X107756437Y-97201091D01*
X107756957Y-97201622D01*
X107775509Y-97234547D01*
X107794423Y-97267307D01*
X107794561Y-97268360D01*
X107794819Y-97268817D01*
X107794804Y-97270204D01*
X107799500Y-97305871D01*
X107799500Y-98283448D01*
X107779538Y-98357948D01*
X107769780Y-98372741D01*
X107706205Y-98457666D01*
X107706202Y-98457670D01*
X107655908Y-98592517D01*
X107649500Y-98652114D01*
X107649500Y-99547863D01*
X107649502Y-99547888D01*
X107655908Y-99607478D01*
X107655909Y-99607484D01*
X107706202Y-99742329D01*
X107706204Y-99742333D01*
X107792452Y-99857544D01*
X107792456Y-99857548D01*
X107823827Y-99881033D01*
X107871504Y-99941660D01*
X107882479Y-100018003D01*
X107853812Y-100089606D01*
X107823828Y-100119591D01*
X107792810Y-100142811D01*
X107792809Y-100142812D01*
X107706650Y-100257905D01*
X107706645Y-100257915D01*
X107656401Y-100392622D01*
X107650001Y-100452157D01*
X107650000Y-100452177D01*
X107650000Y-100650000D01*
X109193282Y-100650000D01*
X109267782Y-100669962D01*
X109298641Y-100693641D01*
X109305000Y-100700000D01*
X109895000Y-100700000D01*
X109901359Y-100693641D01*
X109968154Y-100655077D01*
X110006718Y-100650000D01*
X111550000Y-100650000D01*
X111550000Y-100452177D01*
X111549998Y-100452157D01*
X111543598Y-100392622D01*
X111493354Y-100257915D01*
X111493349Y-100257905D01*
X111407190Y-100142812D01*
X111407187Y-100142809D01*
X111376173Y-100119592D01*
X111328496Y-100058965D01*
X111317520Y-99982622D01*
X111346186Y-99911019D01*
X111354166Y-99901250D01*
X111364150Y-99890031D01*
X111407546Y-99857546D01*
X111484192Y-99755160D01*
X111488395Y-99750438D01*
X111515522Y-99732598D01*
X111541043Y-99712530D01*
X111548304Y-99711040D01*
X111552837Y-99708060D01*
X111566796Y-99707247D01*
X111599695Y-99700500D01*
X113511798Y-99700500D01*
X113511814Y-99700501D01*
X113520943Y-99700501D01*
X113679052Y-99700501D01*
X113679057Y-99700501D01*
X113831785Y-99659577D01*
X113857231Y-99644885D01*
X113881900Y-99630642D01*
X113881904Y-99630639D01*
X113922011Y-99607484D01*
X113968716Y-99580520D01*
X114080520Y-99468716D01*
X114080520Y-99468714D01*
X114092782Y-99456453D01*
X114092786Y-99456448D01*
X115882908Y-97666325D01*
X115949701Y-97627763D01*
X116026829Y-97627763D01*
X116034262Y-97629965D01*
X116154885Y-97669158D01*
X116390649Y-97706500D01*
X116390654Y-97706500D01*
X116629346Y-97706500D01*
X116629351Y-97706500D01*
X116865115Y-97669158D01*
X117092134Y-97595395D01*
X117304819Y-97487027D01*
X117497933Y-97346721D01*
X117666721Y-97177933D01*
X117666723Y-97177929D01*
X117670860Y-97173793D01*
X117671633Y-97174566D01*
X117730262Y-97134272D01*
X117807153Y-97128220D01*
X117876768Y-97161424D01*
X117889138Y-97173794D01*
X117889140Y-97173793D01*
X117893276Y-97177929D01*
X117893279Y-97177933D01*
X118062067Y-97346721D01*
X118255181Y-97487027D01*
X118467866Y-97595395D01*
X118694885Y-97669158D01*
X118930649Y-97706500D01*
X118930654Y-97706500D01*
X119169346Y-97706500D01*
X119169351Y-97706500D01*
X119405115Y-97669158D01*
X119525690Y-97629979D01*
X119602712Y-97625943D01*
X119671434Y-97660958D01*
X119677093Y-97666328D01*
X120865859Y-98855094D01*
X120904423Y-98921889D01*
X120909500Y-98960453D01*
X120909500Y-99547863D01*
X120909502Y-99547888D01*
X120915908Y-99607478D01*
X120915909Y-99607484D01*
X120966202Y-99742329D01*
X120966204Y-99742333D01*
X121052452Y-99857544D01*
X121052456Y-99857548D01*
X121083827Y-99881033D01*
X121131504Y-99941660D01*
X121142479Y-100018003D01*
X121113812Y-100089606D01*
X121083828Y-100119591D01*
X121052810Y-100142811D01*
X121052809Y-100142812D01*
X120966650Y-100257905D01*
X120966645Y-100257915D01*
X120916401Y-100392622D01*
X120910001Y-100452157D01*
X120910000Y-100452177D01*
X120910000Y-100650000D01*
X122453282Y-100650000D01*
X122527782Y-100669962D01*
X122558641Y-100693641D01*
X122565000Y-100700000D01*
X123155000Y-100700000D01*
X123161359Y-100693641D01*
X123228154Y-100655077D01*
X123266718Y-100650000D01*
X124810000Y-100650000D01*
X124810000Y-100452177D01*
X124809998Y-100452157D01*
X124803598Y-100392622D01*
X124753354Y-100257915D01*
X124753349Y-100257905D01*
X124667190Y-100142812D01*
X124667187Y-100142809D01*
X124636173Y-100119592D01*
X124588496Y-100058965D01*
X124577520Y-99982622D01*
X124606186Y-99911019D01*
X124636173Y-99881032D01*
X124667543Y-99857548D01*
X124667546Y-99857546D01*
X124710671Y-99799938D01*
X124753795Y-99742333D01*
X124753797Y-99742329D01*
X124784661Y-99659577D01*
X124804091Y-99607483D01*
X124806990Y-99580520D01*
X124810499Y-99547885D01*
X124810499Y-99547882D01*
X124810500Y-99547873D01*
X124810499Y-98960451D01*
X124830461Y-98885952D01*
X124854136Y-98855097D01*
X126042908Y-97666325D01*
X126109701Y-97627763D01*
X126186829Y-97627763D01*
X126194262Y-97629965D01*
X126314885Y-97669158D01*
X126550649Y-97706500D01*
X126550654Y-97706500D01*
X126789346Y-97706500D01*
X126789351Y-97706500D01*
X127025115Y-97669158D01*
X127252134Y-97595395D01*
X127464819Y-97487027D01*
X127657933Y-97346721D01*
X127826721Y-97177933D01*
X127826723Y-97177929D01*
X127830860Y-97173793D01*
X127831633Y-97174566D01*
X127890262Y-97134272D01*
X127967153Y-97128220D01*
X128036768Y-97161424D01*
G37*
%TD.AperFunction*%
%TA.AperFunction,Conductor*%
G36*
X144729231Y-86157962D02*
G01*
X144783769Y-86212500D01*
X144803731Y-86287000D01*
X144783769Y-86361500D01*
X144772941Y-86377705D01*
X144700463Y-86472159D01*
X144639954Y-86618242D01*
X144624500Y-86735634D01*
X144624500Y-87014356D01*
X144639956Y-87131764D01*
X144639957Y-87131767D01*
X144644602Y-87142981D01*
X144654669Y-87219449D01*
X144653204Y-87228443D01*
X144650340Y-87243167D01*
X144639956Y-87268238D01*
X144628409Y-87355944D01*
X144627538Y-87360425D01*
X144612558Y-87391130D01*
X144599488Y-87422687D01*
X144595774Y-87425536D01*
X144593722Y-87429744D01*
X144565399Y-87448844D01*
X144538298Y-87469640D01*
X144531508Y-87471699D01*
X144529776Y-87472868D01*
X144527023Y-87473060D01*
X144510348Y-87478119D01*
X144388379Y-87502381D01*
X144388378Y-87502381D01*
X144256354Y-87557067D01*
X144256347Y-87557071D01*
X144138604Y-87635745D01*
X144137517Y-87636471D01*
X144036471Y-87737517D01*
X144036468Y-87737520D01*
X144036468Y-87737521D01*
X143968616Y-87839069D01*
X143957071Y-87856347D01*
X143957067Y-87856354D01*
X143902381Y-87988378D01*
X143902380Y-87988380D01*
X143874500Y-88128541D01*
X143874500Y-88271458D01*
X143902380Y-88411619D01*
X143902381Y-88411621D01*
X143957067Y-88543645D01*
X143957069Y-88543649D01*
X143957071Y-88543653D01*
X144036468Y-88662479D01*
X144137521Y-88763532D01*
X144207574Y-88810340D01*
X144210120Y-88812041D01*
X144260974Y-88870029D01*
X144276021Y-88945676D01*
X144251229Y-89018710D01*
X144232699Y-89041288D01*
X144136476Y-89137511D01*
X144136471Y-89137517D01*
X144136468Y-89137520D01*
X144136468Y-89137521D01*
X144112601Y-89173241D01*
X144057071Y-89256347D01*
X144057067Y-89256354D01*
X144002381Y-89388378D01*
X144002380Y-89388380D01*
X143974500Y-89528541D01*
X143974500Y-89671450D01*
X143974501Y-89671461D01*
X143992942Y-89764171D01*
X143990728Y-89797952D01*
X143990728Y-89831803D01*
X143988225Y-89836137D01*
X143987898Y-89841134D01*
X143952164Y-89898598D01*
X143895241Y-89955521D01*
X143828446Y-89994085D01*
X143818954Y-89996298D01*
X143788384Y-90002379D01*
X143788381Y-90002380D01*
X143656351Y-90057068D01*
X143656347Y-90057071D01*
X143583834Y-90105523D01*
X143537517Y-90136471D01*
X143436471Y-90237517D01*
X143436468Y-90237520D01*
X143436468Y-90237521D01*
X143384353Y-90315517D01*
X143357071Y-90356347D01*
X143357067Y-90356354D01*
X143302381Y-90488378D01*
X143302380Y-90488380D01*
X143274500Y-90628541D01*
X143274500Y-90771458D01*
X143302380Y-90911619D01*
X143302381Y-90911621D01*
X143357067Y-91043645D01*
X143357075Y-91043660D01*
X143379881Y-91077791D01*
X143404674Y-91150826D01*
X143402130Y-91189641D01*
X143374500Y-91328541D01*
X143374500Y-91471458D01*
X143402380Y-91611619D01*
X143402381Y-91611621D01*
X143457067Y-91743645D01*
X143457069Y-91743649D01*
X143457071Y-91743653D01*
X143536468Y-91862479D01*
X143637521Y-91963532D01*
X143756347Y-92042929D01*
X143756353Y-92042931D01*
X143756354Y-92042932D01*
X143803545Y-92062479D01*
X143888380Y-92097619D01*
X144028545Y-92125500D01*
X144028549Y-92125500D01*
X144171451Y-92125500D01*
X144171455Y-92125500D01*
X144311620Y-92097619D01*
X144418484Y-92053354D01*
X144494948Y-92043288D01*
X144566205Y-92072803D01*
X144613158Y-92133992D01*
X144622842Y-92168844D01*
X144624500Y-92179869D01*
X144624501Y-92214360D01*
X144639956Y-92331762D01*
X144651575Y-92359812D01*
X144654286Y-92377831D01*
X144651932Y-92398665D01*
X144654669Y-92419449D01*
X144645880Y-92452250D01*
X144645630Y-92454472D01*
X144645089Y-92455203D01*
X144644605Y-92457013D01*
X144639954Y-92468240D01*
X144624500Y-92585634D01*
X144624500Y-92864356D01*
X144633217Y-92930571D01*
X144639956Y-92981762D01*
X144657839Y-93024936D01*
X144700463Y-93127840D01*
X144785527Y-93238697D01*
X144796718Y-93253282D01*
X144922159Y-93349536D01*
X145068238Y-93410044D01*
X145068241Y-93410044D01*
X145068243Y-93410045D01*
X145068240Y-93410045D01*
X145132697Y-93418530D01*
X145185639Y-93425500D01*
X146078407Y-93425499D01*
X146152906Y-93445461D01*
X146207444Y-93499999D01*
X146227406Y-93574499D01*
X146207444Y-93648999D01*
X146165987Y-93695042D01*
X146072070Y-93763276D01*
X145903281Y-93932065D01*
X145903272Y-93932076D01*
X145762974Y-94125179D01*
X145762971Y-94125184D01*
X145654610Y-94337855D01*
X145654603Y-94337872D01*
X145580842Y-94564884D01*
X145577080Y-94588638D01*
X145543500Y-94800649D01*
X145543500Y-95039351D01*
X145580842Y-95275115D01*
X145654605Y-95502134D01*
X145762973Y-95714819D01*
X145903279Y-95907933D01*
X146072067Y-96076721D01*
X146072070Y-96076723D01*
X146076207Y-96080860D01*
X146075435Y-96081631D01*
X146115733Y-96140278D01*
X146121776Y-96217169D01*
X146088564Y-96286780D01*
X146076205Y-96299138D01*
X146076207Y-96299140D01*
X146072070Y-96303276D01*
X146072067Y-96303279D01*
X145947776Y-96427570D01*
X145903281Y-96472065D01*
X145903272Y-96472076D01*
X145762974Y-96665179D01*
X145762971Y-96665184D01*
X145654610Y-96877855D01*
X145654607Y-96877861D01*
X145654605Y-96877866D01*
X145580842Y-97104885D01*
X145543500Y-97340649D01*
X145543500Y-97579351D01*
X145580842Y-97815115D01*
X145654605Y-98042134D01*
X145762973Y-98254819D01*
X145903279Y-98447933D01*
X146072067Y-98616721D01*
X146072070Y-98616723D01*
X146076207Y-98620860D01*
X146075435Y-98621631D01*
X146115733Y-98680278D01*
X146121776Y-98757169D01*
X146088564Y-98826780D01*
X146076205Y-98839138D01*
X146076207Y-98839140D01*
X146072070Y-98843276D01*
X146072067Y-98843279D01*
X145954894Y-98960452D01*
X145903281Y-99012065D01*
X145903272Y-99012076D01*
X145762974Y-99205179D01*
X145762971Y-99205184D01*
X145654610Y-99417855D01*
X145654603Y-99417872D01*
X145585079Y-99631846D01*
X145580842Y-99644885D01*
X145543500Y-99880649D01*
X145543500Y-100119351D01*
X145565447Y-100257915D01*
X145580842Y-100355115D01*
X145620019Y-100475689D01*
X145624056Y-100552712D01*
X145589041Y-100621433D01*
X145583671Y-100627092D01*
X145294552Y-100916211D01*
X145264644Y-100933478D01*
X145235743Y-100952394D01*
X145231466Y-100952633D01*
X145227757Y-100954775D01*
X145193221Y-100954775D01*
X145158736Y-100956706D01*
X145154912Y-100954775D01*
X145150629Y-100954775D01*
X145120721Y-100937508D01*
X145089889Y-100921937D01*
X145087868Y-100918540D01*
X145083834Y-100916211D01*
X145047651Y-100857402D01*
X145035860Y-100821550D01*
X145033862Y-100785869D01*
X145030464Y-100750296D01*
X145031627Y-100745955D01*
X145031548Y-100744543D01*
X145032522Y-100742612D01*
X145037798Y-100722926D01*
X145043597Y-100707377D01*
X145043598Y-100707373D01*
X145049998Y-100647842D01*
X145050000Y-100647822D01*
X145050000Y-100600000D01*
X144400000Y-100600000D01*
X144400000Y-101051000D01*
X144380038Y-101125500D01*
X144325500Y-101180038D01*
X144251000Y-101200000D01*
X144049000Y-101200000D01*
X143974500Y-101180038D01*
X143919962Y-101125500D01*
X143900000Y-101051000D01*
X143900000Y-100406718D01*
X143919962Y-100332218D01*
X143943641Y-100301359D01*
X143950000Y-100295000D01*
X143950000Y-100200000D01*
X144350000Y-100200000D01*
X145050000Y-100200000D01*
X145050000Y-100152177D01*
X145049998Y-100152157D01*
X145043598Y-100092626D01*
X145028472Y-100052072D01*
X145021140Y-99975294D01*
X145028472Y-99947928D01*
X145043598Y-99907373D01*
X145049998Y-99847842D01*
X145050000Y-99847822D01*
X145050000Y-99800000D01*
X144350000Y-99800000D01*
X144350000Y-100200000D01*
X143950000Y-100200000D01*
X143950000Y-99705000D01*
X143943641Y-99698641D01*
X143905077Y-99631846D01*
X143900000Y-99593282D01*
X143900000Y-99400000D01*
X144400000Y-99400000D01*
X145050000Y-99400000D01*
X145050000Y-99352177D01*
X145049998Y-99352157D01*
X145043598Y-99292626D01*
X145043597Y-99292622D01*
X145037798Y-99277074D01*
X145030464Y-99200296D01*
X145037798Y-99172926D01*
X145043597Y-99157377D01*
X145043598Y-99157373D01*
X145049998Y-99097842D01*
X145050000Y-99097822D01*
X145050000Y-99050000D01*
X144400000Y-99050000D01*
X144400000Y-99400000D01*
X143900000Y-99400000D01*
X143900000Y-98550000D01*
X144400000Y-98550000D01*
X145050000Y-98550000D01*
X145050000Y-98502177D01*
X145049998Y-98502157D01*
X145043598Y-98442622D01*
X144993354Y-98307915D01*
X144993349Y-98307905D01*
X144907190Y-98192812D01*
X144907187Y-98192809D01*
X144792094Y-98106650D01*
X144792084Y-98106645D01*
X144657376Y-98056401D01*
X144657378Y-98056401D01*
X144597842Y-98050001D01*
X144597823Y-98050000D01*
X144400000Y-98050000D01*
X144400000Y-98550000D01*
X143900000Y-98550000D01*
X143900000Y-98050000D01*
X143702177Y-98050000D01*
X143702157Y-98050001D01*
X143642622Y-98056401D01*
X143507915Y-98106645D01*
X143507905Y-98106650D01*
X143392812Y-98192809D01*
X143392811Y-98192810D01*
X143369591Y-98223828D01*
X143308963Y-98271504D01*
X143232620Y-98282479D01*
X143161017Y-98253812D01*
X143131033Y-98223827D01*
X143107548Y-98192456D01*
X143107544Y-98192452D01*
X142992333Y-98106204D01*
X142992329Y-98106202D01*
X142857482Y-98055908D01*
X142797876Y-98049500D01*
X141902136Y-98049500D01*
X141902111Y-98049502D01*
X141842521Y-98055908D01*
X141842515Y-98055909D01*
X141707670Y-98106202D01*
X141707666Y-98106204D01*
X141622742Y-98169780D01*
X141551139Y-98198446D01*
X141533449Y-98199500D01*
X141090453Y-98199500D01*
X141071505Y-98194423D01*
X141051889Y-98194423D01*
X141034901Y-98184615D01*
X141015953Y-98179538D01*
X140985094Y-98155859D01*
X140916328Y-98087093D01*
X140877764Y-98020298D01*
X140877764Y-97943170D01*
X140879980Y-97935690D01*
X140919158Y-97815115D01*
X140956500Y-97579351D01*
X140956500Y-97340649D01*
X140919158Y-97104885D01*
X140845395Y-96877866D01*
X140737027Y-96665181D01*
X140596721Y-96472067D01*
X140427933Y-96303279D01*
X140382768Y-96270465D01*
X140334233Y-96210528D01*
X140325364Y-96158917D01*
X139534463Y-95368016D01*
X139616473Y-95346042D01*
X139720727Y-95285851D01*
X139805851Y-95200727D01*
X139866042Y-95096473D01*
X139888016Y-95014463D01*
X140674113Y-95800560D01*
X140674114Y-95800560D01*
X140736598Y-95714558D01*
X140844930Y-95501947D01*
X140844934Y-95501935D01*
X140918669Y-95275003D01*
X140918670Y-95275003D01*
X140956000Y-95039308D01*
X140956000Y-94800691D01*
X140918670Y-94564996D01*
X140844934Y-94338064D01*
X140844930Y-94338052D01*
X140736598Y-94125441D01*
X140736593Y-94125432D01*
X140674115Y-94039438D01*
X140674113Y-94039438D01*
X139888016Y-94825535D01*
X139866042Y-94743527D01*
X139805851Y-94639273D01*
X139720727Y-94554149D01*
X139616473Y-94493958D01*
X139534462Y-94471983D01*
X140320560Y-93685885D01*
X140320001Y-93678786D01*
X140284627Y-93635103D01*
X140272561Y-93558925D01*
X140300201Y-93486920D01*
X140360141Y-93438381D01*
X140420743Y-93425499D01*
X140814360Y-93425499D01*
X140931762Y-93410044D01*
X141077841Y-93349536D01*
X141203282Y-93253282D01*
X141299536Y-93127841D01*
X141360044Y-92981762D01*
X141375500Y-92864361D01*
X141375499Y-92585640D01*
X141360044Y-92468238D01*
X141355398Y-92457023D01*
X141345328Y-92380560D01*
X141355396Y-92342980D01*
X141360044Y-92331762D01*
X141375500Y-92214361D01*
X141375499Y-91935640D01*
X141360044Y-91818238D01*
X141355398Y-91807023D01*
X141345328Y-91730560D01*
X141355396Y-91692980D01*
X141360044Y-91681762D01*
X141375500Y-91564361D01*
X141375499Y-91285640D01*
X141360044Y-91168238D01*
X141355125Y-91156364D01*
X141345059Y-91079897D01*
X141355128Y-91042321D01*
X141359554Y-91031635D01*
X141359555Y-91031630D01*
X141367012Y-90975000D01*
X141336828Y-90975000D01*
X141315310Y-90969234D01*
X141293047Y-90968423D01*
X141280974Y-90960034D01*
X141262328Y-90955038D01*
X141227701Y-90927451D01*
X141222908Y-90922296D01*
X141203282Y-90896718D01*
X141188795Y-90885602D01*
X141180288Y-90876451D01*
X141167887Y-90853041D01*
X141151758Y-90832023D01*
X141150105Y-90819476D01*
X141144183Y-90808296D01*
X141145147Y-90781822D01*
X141141689Y-90755555D01*
X141146531Y-90743864D01*
X141146992Y-90731219D01*
X141161064Y-90708774D01*
X141171203Y-90684297D01*
X141185168Y-90670331D01*
X141187964Y-90665873D01*
X141191500Y-90663999D01*
X141198709Y-90656790D01*
X141203282Y-90653282D01*
X141218619Y-90633293D01*
X141279809Y-90586342D01*
X141336828Y-90575000D01*
X141367011Y-90575000D01*
X141367011Y-90574999D01*
X141359557Y-90518371D01*
X141355126Y-90507674D01*
X141345059Y-90431205D01*
X141355127Y-90393632D01*
X141360044Y-90381762D01*
X141360044Y-90381761D01*
X141360045Y-90381759D01*
X141370808Y-90300003D01*
X141375500Y-90264361D01*
X141375499Y-89985640D01*
X141360044Y-89868238D01*
X141355398Y-89857023D01*
X141345328Y-89780560D01*
X141355396Y-89742980D01*
X141360044Y-89731762D01*
X141375500Y-89614361D01*
X141375499Y-89335640D01*
X141360044Y-89218238D01*
X141355398Y-89207023D01*
X141345328Y-89130560D01*
X141355396Y-89092980D01*
X141360044Y-89081762D01*
X141360869Y-89075500D01*
X141368333Y-89018798D01*
X141375500Y-88964361D01*
X141375499Y-88685640D01*
X141360044Y-88568238D01*
X141355398Y-88557023D01*
X141345328Y-88480560D01*
X141355396Y-88442980D01*
X141360044Y-88431762D01*
X141375500Y-88314361D01*
X141375499Y-88035640D01*
X141360044Y-87918238D01*
X141355398Y-87907023D01*
X141345328Y-87830560D01*
X141355396Y-87792980D01*
X141360044Y-87781762D01*
X141362866Y-87760331D01*
X141370370Y-87703327D01*
X141375500Y-87664361D01*
X141375499Y-87385640D01*
X141360044Y-87268238D01*
X141355398Y-87257023D01*
X141345328Y-87180560D01*
X141355396Y-87142980D01*
X141360044Y-87131762D01*
X141375500Y-87014361D01*
X141375499Y-86735640D01*
X141360044Y-86618238D01*
X141299536Y-86472159D01*
X141227058Y-86377704D01*
X141197544Y-86306448D01*
X141207611Y-86229980D01*
X141254564Y-86168790D01*
X141325821Y-86139275D01*
X141345269Y-86138000D01*
X144654731Y-86138000D01*
X144729231Y-86157962D01*
G37*
%TD.AperFunction*%
%TA.AperFunction,Conductor*%
G36*
X89364146Y-86142837D02*
G01*
X89382833Y-86142601D01*
X89400750Y-86152645D01*
X89420593Y-86157962D01*
X89433808Y-86171177D01*
X89450110Y-86180316D01*
X89460604Y-86197973D01*
X89475131Y-86212500D01*
X89479968Y-86230553D01*
X89489516Y-86246618D01*
X89489775Y-86267156D01*
X89495093Y-86287000D01*
X89490255Y-86305053D01*
X89490492Y-86323740D01*
X89480447Y-86341657D01*
X89475131Y-86361500D01*
X89453578Y-86389587D01*
X89452777Y-86391017D01*
X89452152Y-86391657D01*
X89379660Y-86464150D01*
X89376540Y-86469208D01*
X89366489Y-86479517D01*
X89339760Y-86495402D01*
X89314819Y-86513972D01*
X89306974Y-86514889D01*
X89300187Y-86518923D01*
X89259805Y-86524500D01*
X88535927Y-86524500D01*
X88410256Y-86549498D01*
X88410254Y-86549499D01*
X88361220Y-86569810D01*
X88291882Y-86598530D01*
X88291876Y-86598532D01*
X88291874Y-86598534D01*
X88291871Y-86598535D01*
X88291871Y-86598536D01*
X88185332Y-86669722D01*
X88185330Y-86669723D01*
X87094725Y-87760329D01*
X87094724Y-87760329D01*
X87045365Y-87834201D01*
X87045361Y-87834206D01*
X87042113Y-87839069D01*
X87023535Y-87866873D01*
X87013487Y-87891129D01*
X87009193Y-87898799D01*
X86988205Y-87920345D01*
X86969892Y-87944211D01*
X86961620Y-87947636D01*
X86955376Y-87954048D01*
X86926428Y-87962213D01*
X86898634Y-87973726D01*
X86881677Y-87974836D01*
X86881145Y-87974987D01*
X86880784Y-87974895D01*
X86879188Y-87975000D01*
X86302177Y-87975000D01*
X86302157Y-87975001D01*
X86242626Y-87981401D01*
X86107912Y-88031646D01*
X86080625Y-88052073D01*
X86721416Y-88692864D01*
X86759980Y-88759659D01*
X86759980Y-88836787D01*
X86721417Y-88903581D01*
X86650000Y-88974999D01*
X86650000Y-88975000D01*
X86721416Y-89046416D01*
X86759980Y-89113211D01*
X86759980Y-89190339D01*
X86721416Y-89257134D01*
X86080625Y-89897925D01*
X86107911Y-89918352D01*
X86107909Y-89918352D01*
X86242626Y-89968598D01*
X86302157Y-89974998D01*
X86302177Y-89975000D01*
X86997823Y-89975000D01*
X86997842Y-89974998D01*
X87057374Y-89968598D01*
X87072209Y-89963065D01*
X87148988Y-89955730D01*
X87176357Y-89963063D01*
X87177071Y-89963330D01*
X87192516Y-89969091D01*
X87252114Y-89975499D01*
X87252118Y-89975499D01*
X87252127Y-89975500D01*
X87947872Y-89975499D01*
X88007483Y-89969091D01*
X88022926Y-89963330D01*
X88099704Y-89955997D01*
X88127071Y-89963330D01*
X88142517Y-89969091D01*
X88202114Y-89975499D01*
X88202118Y-89975499D01*
X88202127Y-89975500D01*
X88897872Y-89975499D01*
X88957483Y-89969091D01*
X89074357Y-89925500D01*
X89092329Y-89918797D01*
X89092333Y-89918795D01*
X89159868Y-89868238D01*
X89207546Y-89832546D01*
X89230282Y-89802174D01*
X89290906Y-89754499D01*
X89367249Y-89743522D01*
X89438852Y-89772186D01*
X89454912Y-89786102D01*
X89501650Y-89832840D01*
X89648484Y-89923408D01*
X89812247Y-89977674D01*
X89913323Y-89988000D01*
X90486676Y-89987999D01*
X90510356Y-89985580D01*
X90586500Y-89997867D01*
X90646298Y-90046579D01*
X90673728Y-90118664D01*
X90674500Y-90133808D01*
X90674500Y-90271458D01*
X90702380Y-90411619D01*
X90702381Y-90411621D01*
X90757067Y-90543645D01*
X90757069Y-90543649D01*
X90757071Y-90543653D01*
X90836468Y-90662479D01*
X90937521Y-90763532D01*
X91056347Y-90842929D01*
X91056353Y-90842931D01*
X91056354Y-90842932D01*
X91157519Y-90884836D01*
X91218709Y-90931788D01*
X91248225Y-91003045D01*
X91249500Y-91022493D01*
X91249500Y-91272863D01*
X91249502Y-91272888D01*
X91255908Y-91332478D01*
X91255909Y-91332484D01*
X91306202Y-91467329D01*
X91306204Y-91467332D01*
X91315024Y-91479114D01*
X91343689Y-91550717D01*
X91332713Y-91627060D01*
X91285035Y-91687687D01*
X91273965Y-91695222D01*
X91176961Y-91755055D01*
X91055055Y-91876961D01*
X90964546Y-92023697D01*
X90964543Y-92023704D01*
X90910318Y-92187350D01*
X90910317Y-92187351D01*
X90900000Y-92288342D01*
X90900000Y-92325000D01*
X91788500Y-92325000D01*
X91863000Y-92344962D01*
X91917538Y-92399500D01*
X91937500Y-92474000D01*
X91937500Y-92676000D01*
X91917538Y-92750500D01*
X91863000Y-92805038D01*
X91788500Y-92825000D01*
X90900001Y-92825000D01*
X90900001Y-92861641D01*
X90910319Y-92962651D01*
X90910320Y-92962654D01*
X90964543Y-93126295D01*
X90964546Y-93126302D01*
X91055055Y-93273038D01*
X91176961Y-93394944D01*
X91323697Y-93485453D01*
X91323704Y-93485456D01*
X91487347Y-93539680D01*
X91555231Y-93546615D01*
X91627316Y-93574045D01*
X91676030Y-93633843D01*
X91688318Y-93709986D01*
X91677748Y-93751863D01*
X91630261Y-93866507D01*
X91599500Y-94021157D01*
X91599500Y-94178842D01*
X91630262Y-94333494D01*
X91630263Y-94333498D01*
X91690605Y-94479177D01*
X91690606Y-94479179D01*
X91712136Y-94511401D01*
X91736929Y-94584435D01*
X91721883Y-94660081D01*
X91671030Y-94718070D01*
X91597995Y-94742863D01*
X91542206Y-94735890D01*
X91512690Y-94726300D01*
X91465115Y-94710842D01*
X91229351Y-94673500D01*
X90990649Y-94673500D01*
X90807970Y-94702434D01*
X90754884Y-94710842D01*
X90610597Y-94757724D01*
X90527866Y-94784605D01*
X90527861Y-94784607D01*
X90527855Y-94784610D01*
X90315184Y-94892971D01*
X90315179Y-94892974D01*
X90122076Y-95033272D01*
X90122070Y-95033276D01*
X90122067Y-95033279D01*
X89953279Y-95202067D01*
X89953276Y-95202070D01*
X89949140Y-95206207D01*
X89948368Y-95205435D01*
X89889722Y-95245733D01*
X89812831Y-95251776D01*
X89743220Y-95218564D01*
X89730861Y-95206205D01*
X89730860Y-95206207D01*
X89726723Y-95202070D01*
X89726721Y-95202067D01*
X89557933Y-95033279D01*
X89364819Y-94892973D01*
X89217281Y-94817799D01*
X89152144Y-94784610D01*
X89152143Y-94784609D01*
X89152134Y-94784605D01*
X88925115Y-94710842D01*
X88689351Y-94673500D01*
X88450649Y-94673500D01*
X88267970Y-94702434D01*
X88214884Y-94710842D01*
X88070597Y-94757724D01*
X87987866Y-94784605D01*
X87987861Y-94784607D01*
X87987855Y-94784610D01*
X87775184Y-94892971D01*
X87775179Y-94892974D01*
X87582076Y-95033272D01*
X87582065Y-95033281D01*
X87413281Y-95202065D01*
X87413272Y-95202076D01*
X87403201Y-95215937D01*
X87343259Y-95264472D01*
X87267080Y-95276534D01*
X87195076Y-95248890D01*
X87146541Y-95188948D01*
X87138742Y-95166925D01*
X87113715Y-95073535D01*
X87028406Y-94867592D01*
X86916948Y-94674546D01*
X86916145Y-94673500D01*
X86867681Y-94610340D01*
X86781247Y-94497698D01*
X86702436Y-94418886D01*
X86674236Y-94390685D01*
X86674234Y-94390684D01*
X85585259Y-93301709D01*
X85577317Y-93293118D01*
X85530655Y-93238484D01*
X85456293Y-93151417D01*
X85442553Y-93132504D01*
X85439695Y-93127841D01*
X85348260Y-92978634D01*
X85337646Y-92957804D01*
X85268580Y-92791074D01*
X85261355Y-92768839D01*
X85219219Y-92593357D01*
X85215561Y-92570266D01*
X85207526Y-92468238D01*
X85202153Y-92400000D01*
X85200960Y-92384852D01*
X85200500Y-92373155D01*
X85200500Y-90827114D01*
X85849500Y-90827114D01*
X85849500Y-91922863D01*
X85849502Y-91922888D01*
X85855908Y-91982478D01*
X85855909Y-91982484D01*
X85906202Y-92117329D01*
X85906204Y-92117333D01*
X85992452Y-92232544D01*
X85992455Y-92232547D01*
X86107666Y-92318795D01*
X86107670Y-92318797D01*
X86242517Y-92369091D01*
X86302114Y-92375499D01*
X86302118Y-92375499D01*
X86302127Y-92375500D01*
X86997872Y-92375499D01*
X87057483Y-92369091D01*
X87157583Y-92331756D01*
X87192329Y-92318797D01*
X87192333Y-92318795D01*
X87284230Y-92250000D01*
X87307546Y-92232546D01*
X87387681Y-92125500D01*
X87393795Y-92117333D01*
X87393797Y-92117329D01*
X87421546Y-92042928D01*
X87444091Y-91982483D01*
X87447434Y-91951388D01*
X87450499Y-91922885D01*
X87450499Y-91922882D01*
X87450500Y-91922873D01*
X87450499Y-90827128D01*
X87450499Y-90827127D01*
X87450499Y-90827123D01*
X87450498Y-90827114D01*
X87749500Y-90827114D01*
X87749500Y-91922863D01*
X87749502Y-91922888D01*
X87755908Y-91982478D01*
X87755909Y-91982484D01*
X87806202Y-92117329D01*
X87806204Y-92117333D01*
X87892452Y-92232544D01*
X87892455Y-92232547D01*
X88007666Y-92318795D01*
X88007670Y-92318797D01*
X88142517Y-92369091D01*
X88202114Y-92375499D01*
X88202118Y-92375499D01*
X88202127Y-92375500D01*
X88897872Y-92375499D01*
X88957483Y-92369091D01*
X89057583Y-92331756D01*
X89092329Y-92318797D01*
X89092333Y-92318795D01*
X89184230Y-92250000D01*
X89207546Y-92232546D01*
X89287681Y-92125500D01*
X89293795Y-92117333D01*
X89293797Y-92117329D01*
X89321546Y-92042928D01*
X89344091Y-91982483D01*
X89347434Y-91951388D01*
X89350499Y-91922885D01*
X89350499Y-91922882D01*
X89350500Y-91922873D01*
X89350499Y-90827128D01*
X89344091Y-90767517D01*
X89315957Y-90692086D01*
X89293797Y-90632670D01*
X89293795Y-90632666D01*
X89207547Y-90517455D01*
X89207544Y-90517452D01*
X89092333Y-90431204D01*
X89092329Y-90431202D01*
X88957482Y-90380908D01*
X88897876Y-90374500D01*
X88202136Y-90374500D01*
X88202111Y-90374502D01*
X88142521Y-90380908D01*
X88142515Y-90380909D01*
X88007670Y-90431202D01*
X88007666Y-90431204D01*
X87892455Y-90517452D01*
X87892452Y-90517455D01*
X87806204Y-90632666D01*
X87806202Y-90632670D01*
X87755908Y-90767517D01*
X87749500Y-90827114D01*
X87450498Y-90827114D01*
X87445800Y-90783417D01*
X87444091Y-90767517D01*
X87415957Y-90692086D01*
X87393797Y-90632670D01*
X87393795Y-90632666D01*
X87307547Y-90517455D01*
X87307544Y-90517452D01*
X87192333Y-90431204D01*
X87192329Y-90431202D01*
X87057482Y-90380908D01*
X86997876Y-90374500D01*
X86302136Y-90374500D01*
X86302111Y-90374502D01*
X86242521Y-90380908D01*
X86242515Y-90380909D01*
X86107670Y-90431202D01*
X86107666Y-90431204D01*
X85992455Y-90517452D01*
X85992452Y-90517455D01*
X85906204Y-90632666D01*
X85906202Y-90632670D01*
X85855908Y-90767517D01*
X85849500Y-90827114D01*
X85200500Y-90827114D01*
X85200500Y-89421447D01*
X85850000Y-89421447D01*
X86296447Y-88975000D01*
X85850000Y-88528552D01*
X85850000Y-89421447D01*
X85200500Y-89421447D01*
X85200500Y-88774187D01*
X85200734Y-88765833D01*
X85202740Y-88730118D01*
X85216580Y-88483647D01*
X85218448Y-88467072D01*
X85265090Y-88192559D01*
X85268802Y-88176297D01*
X85345887Y-87908728D01*
X85351394Y-87892990D01*
X85457951Y-87635739D01*
X85465199Y-87620691D01*
X85465326Y-87620462D01*
X85599878Y-87377007D01*
X85608761Y-87362872D01*
X85769881Y-87135795D01*
X85780289Y-87122743D01*
X85965832Y-86915119D01*
X85977619Y-86903332D01*
X86185243Y-86717789D01*
X86198295Y-86707381D01*
X86392183Y-86569810D01*
X86425372Y-86546260D01*
X86439507Y-86537378D01*
X86683197Y-86402695D01*
X86698239Y-86395451D01*
X86955490Y-86288894D01*
X86971228Y-86283387D01*
X87238797Y-86206302D01*
X87255059Y-86202590D01*
X87529574Y-86155948D01*
X87546147Y-86154080D01*
X87828333Y-86138233D01*
X87836687Y-86138000D01*
X87872382Y-86138000D01*
X89346093Y-86138000D01*
X89364146Y-86142837D01*
G37*
%TD.AperFunction*%
%TA.AperFunction,Conductor*%
G36*
X133432277Y-87495462D02*
G01*
X133486815Y-87550000D01*
X133506777Y-87624500D01*
X133506006Y-87639635D01*
X133501722Y-87681578D01*
X133499500Y-87703327D01*
X133499500Y-88276671D01*
X133507731Y-88357240D01*
X133509826Y-88377753D01*
X133564092Y-88541516D01*
X133654660Y-88688350D01*
X133776650Y-88810340D01*
X133866222Y-88865589D01*
X133891242Y-88892108D01*
X133917038Y-88917904D01*
X133917616Y-88920063D01*
X133919149Y-88921688D01*
X133937000Y-88992404D01*
X133937000Y-89129297D01*
X133936999Y-89129315D01*
X133936999Y-89296557D01*
X133977923Y-89449287D01*
X133989467Y-89469281D01*
X133999535Y-89486718D01*
X134019500Y-89561217D01*
X134019500Y-90300003D01*
X134027111Y-90374502D01*
X134030001Y-90402797D01*
X134085186Y-90569334D01*
X134147481Y-90670331D01*
X134177288Y-90718656D01*
X134253627Y-90794995D01*
X134292191Y-90861790D01*
X134292191Y-90938918D01*
X134253627Y-91005713D01*
X134177680Y-91081659D01*
X134085642Y-91230878D01*
X134030494Y-91397302D01*
X134030492Y-91397311D01*
X134020000Y-91500010D01*
X134020000Y-91750000D01*
X134971000Y-91750000D01*
X135045500Y-91769962D01*
X135100038Y-91824500D01*
X135120000Y-91899000D01*
X135120000Y-92000000D01*
X135221000Y-92000000D01*
X135295500Y-92019962D01*
X135350038Y-92074500D01*
X135370000Y-92149000D01*
X135370000Y-93280782D01*
X135357500Y-93327433D01*
X135357500Y-93641000D01*
X135337538Y-93715500D01*
X135283000Y-93770038D01*
X135208500Y-93790000D01*
X135107500Y-93790000D01*
X135107500Y-93891000D01*
X135087538Y-93965500D01*
X135033000Y-94020038D01*
X134958500Y-94040000D01*
X134070001Y-94040000D01*
X134070001Y-94076641D01*
X134080319Y-94177651D01*
X134080320Y-94177654D01*
X134134543Y-94341295D01*
X134134546Y-94341302D01*
X134206990Y-94458750D01*
X134229111Y-94532638D01*
X134211324Y-94607687D01*
X134158396Y-94663788D01*
X134103483Y-94684137D01*
X133934895Y-94710839D01*
X133934886Y-94710841D01*
X133752298Y-94770168D01*
X133707866Y-94784605D01*
X133707861Y-94784607D01*
X133707855Y-94784610D01*
X133495184Y-94892971D01*
X133495179Y-94892974D01*
X133302076Y-95033272D01*
X133302070Y-95033276D01*
X133302067Y-95033279D01*
X133133279Y-95202067D01*
X133133276Y-95202070D01*
X133129140Y-95206207D01*
X133128368Y-95205435D01*
X133069722Y-95245733D01*
X132992831Y-95251776D01*
X132923220Y-95218564D01*
X132910861Y-95206205D01*
X132910860Y-95206207D01*
X132906723Y-95202070D01*
X132906721Y-95202067D01*
X132737933Y-95033279D01*
X132544819Y-94892973D01*
X132397281Y-94817799D01*
X132332144Y-94784610D01*
X132332143Y-94784609D01*
X132332134Y-94784605D01*
X132105115Y-94710842D01*
X131869351Y-94673500D01*
X131630649Y-94673500D01*
X131447970Y-94702434D01*
X131394884Y-94710842D01*
X131250597Y-94757724D01*
X131167866Y-94784605D01*
X131167861Y-94784607D01*
X131167855Y-94784610D01*
X130955184Y-94892971D01*
X130955179Y-94892974D01*
X130762076Y-95033272D01*
X130762070Y-95033276D01*
X130762067Y-95033279D01*
X130593279Y-95202067D01*
X130593276Y-95202070D01*
X130589140Y-95206207D01*
X130588368Y-95205435D01*
X130529722Y-95245733D01*
X130452831Y-95251776D01*
X130383220Y-95218564D01*
X130370861Y-95206205D01*
X130370860Y-95206207D01*
X130366723Y-95202070D01*
X130366721Y-95202067D01*
X130197933Y-95033279D01*
X130004819Y-94892973D01*
X129857281Y-94817799D01*
X129792144Y-94784610D01*
X129792143Y-94784609D01*
X129792134Y-94784605D01*
X129565115Y-94710842D01*
X129329351Y-94673500D01*
X129090649Y-94673500D01*
X128907970Y-94702434D01*
X128854884Y-94710842D01*
X128710597Y-94757724D01*
X128627866Y-94784605D01*
X128627861Y-94784607D01*
X128627855Y-94784610D01*
X128415184Y-94892971D01*
X128415179Y-94892974D01*
X128222076Y-95033272D01*
X128222070Y-95033276D01*
X128222067Y-95033279D01*
X128053279Y-95202067D01*
X128053276Y-95202070D01*
X128049140Y-95206207D01*
X128048368Y-95205435D01*
X127989722Y-95245733D01*
X127912831Y-95251776D01*
X127843220Y-95218564D01*
X127830861Y-95206205D01*
X127830860Y-95206207D01*
X127826723Y-95202070D01*
X127826721Y-95202067D01*
X127657933Y-95033279D01*
X127464819Y-94892973D01*
X127317281Y-94817799D01*
X127252144Y-94784610D01*
X127252143Y-94784609D01*
X127252134Y-94784605D01*
X127025115Y-94710842D01*
X126789351Y-94673500D01*
X126550649Y-94673500D01*
X126367970Y-94702434D01*
X126314884Y-94710842D01*
X126170597Y-94757724D01*
X126087866Y-94784605D01*
X126087861Y-94784607D01*
X126087855Y-94784610D01*
X125875184Y-94892971D01*
X125875179Y-94892974D01*
X125682076Y-95033272D01*
X125682070Y-95033276D01*
X125682067Y-95033279D01*
X125513279Y-95202067D01*
X125513276Y-95202070D01*
X125509140Y-95206207D01*
X125508368Y-95205435D01*
X125449722Y-95245733D01*
X125372831Y-95251776D01*
X125303220Y-95218564D01*
X125290861Y-95206205D01*
X125290860Y-95206207D01*
X125286723Y-95202070D01*
X125286721Y-95202067D01*
X125117933Y-95033279D01*
X124924819Y-94892973D01*
X124777281Y-94817799D01*
X124712144Y-94784610D01*
X124712143Y-94784609D01*
X124712134Y-94784605D01*
X124485115Y-94710842D01*
X124249351Y-94673500D01*
X124010649Y-94673500D01*
X123827970Y-94702434D01*
X123774884Y-94710842D01*
X123630597Y-94757724D01*
X123547866Y-94784605D01*
X123547861Y-94784607D01*
X123547855Y-94784610D01*
X123335184Y-94892971D01*
X123335179Y-94892974D01*
X123142076Y-95033272D01*
X123142070Y-95033276D01*
X123142067Y-95033279D01*
X122973279Y-95202067D01*
X122973276Y-95202070D01*
X122969140Y-95206207D01*
X122968368Y-95205435D01*
X122909722Y-95245733D01*
X122832831Y-95251776D01*
X122763220Y-95218564D01*
X122750861Y-95206205D01*
X122750860Y-95206207D01*
X122746723Y-95202070D01*
X122746721Y-95202067D01*
X122577933Y-95033279D01*
X122384819Y-94892973D01*
X122237281Y-94817799D01*
X122172144Y-94784610D01*
X122172143Y-94784609D01*
X122172134Y-94784605D01*
X121945115Y-94710842D01*
X121709351Y-94673500D01*
X121470649Y-94673500D01*
X121287970Y-94702434D01*
X121234884Y-94710842D01*
X121090597Y-94757724D01*
X121007866Y-94784605D01*
X121007861Y-94784607D01*
X121007855Y-94784610D01*
X120795184Y-94892971D01*
X120795179Y-94892974D01*
X120602076Y-95033272D01*
X120602070Y-95033276D01*
X120602067Y-95033279D01*
X120433279Y-95202067D01*
X120433276Y-95202070D01*
X120429140Y-95206207D01*
X120428368Y-95205435D01*
X120369722Y-95245733D01*
X120292831Y-95251776D01*
X120223220Y-95218564D01*
X120210861Y-95206205D01*
X120210860Y-95206207D01*
X120206723Y-95202070D01*
X120206721Y-95202067D01*
X120037933Y-95033279D01*
X119844819Y-94892973D01*
X119697281Y-94817799D01*
X119632144Y-94784610D01*
X119632143Y-94784609D01*
X119632134Y-94784605D01*
X119516062Y-94746891D01*
X119405113Y-94710841D01*
X119405106Y-94710839D01*
X119343445Y-94701073D01*
X119272985Y-94669702D01*
X119227651Y-94607303D01*
X119219590Y-94530598D01*
X119250961Y-94460138D01*
X119261387Y-94448558D01*
X121209971Y-92499973D01*
X134020001Y-92499973D01*
X134030494Y-92602696D01*
X134085642Y-92769121D01*
X134177680Y-92918340D01*
X134189911Y-92930571D01*
X134228475Y-92997366D01*
X134228475Y-93074494D01*
X134211368Y-93114152D01*
X134134546Y-93238697D01*
X134134543Y-93238704D01*
X134080318Y-93402350D01*
X134080317Y-93402351D01*
X134070000Y-93503342D01*
X134070000Y-93540000D01*
X134857500Y-93540000D01*
X134857500Y-92734218D01*
X134870000Y-92687566D01*
X134870000Y-92250000D01*
X134020001Y-92250000D01*
X134020001Y-92499973D01*
X121209971Y-92499973D01*
X122750099Y-90959844D01*
X122816892Y-90921282D01*
X122878764Y-90918039D01*
X123083713Y-90950500D01*
X123083717Y-90950500D01*
X123296282Y-90950500D01*
X123296287Y-90950500D01*
X123506243Y-90917246D01*
X123708412Y-90851557D01*
X123897816Y-90755051D01*
X124069792Y-90630104D01*
X124220104Y-90479792D01*
X124339456Y-90315517D01*
X124399396Y-90266979D01*
X124475574Y-90254913D01*
X124547580Y-90282553D01*
X124580544Y-90315517D01*
X124699896Y-90479792D01*
X124850208Y-90630104D01*
X125022184Y-90755051D01*
X125211588Y-90851557D01*
X125413757Y-90917246D01*
X125623713Y-90950500D01*
X125623718Y-90950500D01*
X125836282Y-90950500D01*
X125836287Y-90950500D01*
X126046243Y-90917246D01*
X126248412Y-90851557D01*
X126437816Y-90755051D01*
X126609792Y-90630104D01*
X126760104Y-90479792D01*
X126879456Y-90315517D01*
X126939396Y-90266979D01*
X127015574Y-90254913D01*
X127087580Y-90282553D01*
X127120544Y-90315517D01*
X127239896Y-90479792D01*
X127390208Y-90630104D01*
X127562184Y-90755051D01*
X127751588Y-90851557D01*
X127953757Y-90917246D01*
X128163713Y-90950500D01*
X128163718Y-90950500D01*
X128376282Y-90950500D01*
X128376287Y-90950500D01*
X128586243Y-90917246D01*
X128788412Y-90851557D01*
X128977816Y-90755051D01*
X129149792Y-90630104D01*
X129236207Y-90543689D01*
X129303001Y-90505124D01*
X129380129Y-90505124D01*
X129446924Y-90543688D01*
X129481171Y-90596976D01*
X129516646Y-90692086D01*
X129516650Y-90692094D01*
X129602809Y-90807187D01*
X129602812Y-90807190D01*
X129717905Y-90893349D01*
X129717915Y-90893354D01*
X129852623Y-90943598D01*
X129852621Y-90943598D01*
X129912157Y-90949998D01*
X129912177Y-90950000D01*
X130560000Y-90950000D01*
X130560000Y-90033012D01*
X130617007Y-90065925D01*
X130744174Y-90100000D01*
X130875826Y-90100000D01*
X131002993Y-90065925D01*
X131060000Y-90033012D01*
X131060000Y-90950000D01*
X131707823Y-90950000D01*
X131707842Y-90949998D01*
X131767377Y-90943598D01*
X131902084Y-90893354D01*
X131902094Y-90893349D01*
X132017187Y-90807190D01*
X132017190Y-90807187D01*
X132103349Y-90692094D01*
X132103354Y-90692084D01*
X132153598Y-90557377D01*
X132159998Y-90497842D01*
X132160000Y-90497822D01*
X132160000Y-89850000D01*
X131243012Y-89850000D01*
X131275925Y-89792993D01*
X131310000Y-89665826D01*
X131310000Y-89534174D01*
X131275925Y-89407007D01*
X131243012Y-89350000D01*
X132160000Y-89350000D01*
X132160000Y-88702177D01*
X132159998Y-88702157D01*
X132153598Y-88642622D01*
X132103354Y-88507915D01*
X132103349Y-88507905D01*
X132017190Y-88392812D01*
X132017187Y-88392809D01*
X131902094Y-88306650D01*
X131902084Y-88306645D01*
X131767376Y-88256401D01*
X131767378Y-88256401D01*
X131707842Y-88250001D01*
X131707823Y-88250000D01*
X131060000Y-88250000D01*
X131060000Y-89166988D01*
X131002993Y-89134075D01*
X130875826Y-89100000D01*
X130744174Y-89100000D01*
X130617007Y-89134075D01*
X130560000Y-89166988D01*
X130560000Y-88188282D01*
X130563735Y-88174342D01*
X130563735Y-88148376D01*
X130576718Y-88125888D01*
X130579962Y-88113782D01*
X130588824Y-88104919D01*
X130602299Y-88081581D01*
X131164739Y-87519141D01*
X131231534Y-87480577D01*
X131270098Y-87475500D01*
X133357777Y-87475500D01*
X133432277Y-87495462D01*
G37*
%TD.AperFunction*%
%TA.AperFunction,Conductor*%
G36*
X104724451Y-86157962D02*
G01*
X104778989Y-86212500D01*
X104798951Y-86287000D01*
X104778989Y-86361500D01*
X104776219Y-86365765D01*
X104776297Y-86365813D01*
X104773238Y-86370804D01*
X104687458Y-86539157D01*
X104687451Y-86539174D01*
X104657522Y-86631286D01*
X104629060Y-86718882D01*
X104599500Y-86905519D01*
X104599500Y-87094481D01*
X104629060Y-87281118D01*
X104687453Y-87460832D01*
X104687457Y-87460841D01*
X104687458Y-87460842D01*
X104701461Y-87488324D01*
X104773240Y-87629199D01*
X104884310Y-87782073D01*
X105017927Y-87915690D01*
X105170801Y-88026760D01*
X105339168Y-88112547D01*
X105518882Y-88170940D01*
X105705519Y-88200500D01*
X105705524Y-88200500D01*
X105894476Y-88200500D01*
X105894481Y-88200500D01*
X106081118Y-88170940D01*
X106260832Y-88112547D01*
X106429199Y-88026760D01*
X106582073Y-87915690D01*
X106715690Y-87782073D01*
X106802988Y-87661918D01*
X106862927Y-87613381D01*
X106923530Y-87600500D01*
X108089547Y-87600500D01*
X108164047Y-87620462D01*
X108194905Y-87644140D01*
X113531284Y-92980520D01*
X113668216Y-93059577D01*
X113754054Y-93082577D01*
X113820848Y-93121141D01*
X113859412Y-93187936D01*
X113859412Y-93265064D01*
X113820848Y-93331859D01*
X113754053Y-93370423D01*
X113715489Y-93375500D01*
X101742967Y-93375500D01*
X101668467Y-93355538D01*
X101613929Y-93301000D01*
X101593967Y-93226500D01*
X101613929Y-93152000D01*
X101615455Y-93149417D01*
X101644647Y-93101126D01*
X101644647Y-93101125D01*
X101693773Y-92943478D01*
X101700000Y-92874952D01*
X101700000Y-91925047D01*
X101693773Y-91856523D01*
X101647030Y-91706521D01*
X100882135Y-92471417D01*
X100815340Y-92509981D01*
X100738212Y-92509981D01*
X100671417Y-92471417D01*
X100600000Y-92400000D01*
X100528583Y-92471417D01*
X100461788Y-92509981D01*
X100384660Y-92509981D01*
X100317865Y-92471417D01*
X99552969Y-91706521D01*
X99506226Y-91856524D01*
X99500000Y-91925047D01*
X99500000Y-92874952D01*
X99506226Y-92943478D01*
X99555352Y-93101125D01*
X99555352Y-93101126D01*
X99584545Y-93149417D01*
X99606003Y-93223500D01*
X99587545Y-93298387D01*
X99534116Y-93354012D01*
X99460033Y-93375470D01*
X99457033Y-93375500D01*
X95444664Y-93375500D01*
X95370164Y-93355538D01*
X95339305Y-93331859D01*
X94744140Y-92736694D01*
X94705576Y-92669899D01*
X94700499Y-92631335D01*
X94700499Y-92288327D01*
X94694801Y-92232546D01*
X94690174Y-92187247D01*
X94635908Y-92023484D01*
X94591437Y-91951385D01*
X94569317Y-91877500D01*
X94587104Y-91802451D01*
X94640032Y-91746350D01*
X94702325Y-91725020D01*
X94757483Y-91719091D01*
X94841682Y-91687687D01*
X94892329Y-91668797D01*
X94892333Y-91668795D01*
X94968708Y-91611620D01*
X95007546Y-91582546D01*
X95056948Y-91516553D01*
X95093795Y-91467333D01*
X95093797Y-91467329D01*
X95136450Y-91352969D01*
X95144091Y-91332483D01*
X95146914Y-91306226D01*
X95150499Y-91272885D01*
X95150500Y-91272867D01*
X95150500Y-91064500D01*
X95170462Y-90990000D01*
X95225000Y-90935462D01*
X95299500Y-90915500D01*
X96227387Y-90915500D01*
X96301887Y-90935462D01*
X96347930Y-90976919D01*
X96469896Y-91144792D01*
X96620208Y-91295104D01*
X96792184Y-91420051D01*
X96981588Y-91516557D01*
X97183757Y-91582246D01*
X97393713Y-91615500D01*
X97393718Y-91615500D01*
X97606282Y-91615500D01*
X97606287Y-91615500D01*
X97816243Y-91582246D01*
X98018412Y-91516557D01*
X98207816Y-91420051D01*
X98300147Y-91352969D01*
X99906521Y-91352969D01*
X100599999Y-92046447D01*
X101293478Y-91352968D01*
X101143478Y-91306226D01*
X101074952Y-91300000D01*
X100125048Y-91300000D01*
X100056524Y-91306226D01*
X99906521Y-91352969D01*
X98300147Y-91352969D01*
X98379792Y-91295104D01*
X98530104Y-91144792D01*
X98655051Y-90972816D01*
X98751557Y-90783412D01*
X98817246Y-90581243D01*
X98850500Y-90371287D01*
X98850500Y-90158713D01*
X98817246Y-89948757D01*
X98751557Y-89746588D01*
X98655051Y-89557184D01*
X98645679Y-89544285D01*
X98628978Y-89521298D01*
X98530104Y-89385208D01*
X98444075Y-89299179D01*
X98405512Y-89232385D01*
X98405512Y-89155257D01*
X98444076Y-89088462D01*
X98497366Y-89054215D01*
X98544950Y-89036468D01*
X98592327Y-89018798D01*
X98592333Y-89018795D01*
X98650836Y-88974999D01*
X98707546Y-88932546D01*
X98757672Y-88865587D01*
X98793795Y-88817333D01*
X98793797Y-88817329D01*
X98830021Y-88720206D01*
X98844091Y-88682483D01*
X98846242Y-88662479D01*
X98850499Y-88622885D01*
X98850500Y-88622867D01*
X98850500Y-88474500D01*
X98870462Y-88400000D01*
X98925000Y-88345462D01*
X98999500Y-88325500D01*
X99406357Y-88325500D01*
X99480857Y-88345462D01*
X99535395Y-88400000D01*
X99555357Y-88474500D01*
X99548611Y-88518825D01*
X99533214Y-88568238D01*
X99510036Y-88642622D01*
X99505731Y-88656436D01*
X99499500Y-88725002D01*
X99499500Y-89674998D01*
X99505331Y-89739157D01*
X99505731Y-89743564D01*
X99554040Y-89898598D01*
X99554894Y-89901337D01*
X99640387Y-90042760D01*
X99757240Y-90159613D01*
X99898663Y-90245106D01*
X100056436Y-90294269D01*
X100125002Y-90300500D01*
X100125009Y-90300500D01*
X101074991Y-90300500D01*
X101074998Y-90300500D01*
X101143564Y-90294269D01*
X101301337Y-90245106D01*
X101442760Y-90159613D01*
X101559613Y-90042760D01*
X101645106Y-89901337D01*
X101692230Y-89750106D01*
X101711294Y-89719958D01*
X101729123Y-89689078D01*
X101731797Y-89687533D01*
X101733450Y-89684921D01*
X101765034Y-89668343D01*
X101795917Y-89650513D01*
X101799007Y-89650513D01*
X101801743Y-89649077D01*
X101837384Y-89650513D01*
X101873045Y-89650513D01*
X101875720Y-89652057D01*
X101878808Y-89652182D01*
X101939818Y-89689064D01*
X101939841Y-89689077D01*
X102052274Y-89801510D01*
X102052280Y-89801515D01*
X102080926Y-89830161D01*
X102119490Y-89896956D01*
X102122733Y-89958827D01*
X102115835Y-90002380D01*
X102099500Y-90105519D01*
X102099500Y-90294481D01*
X102129060Y-90481118D01*
X102187453Y-90660832D01*
X102187457Y-90660841D01*
X102187458Y-90660842D01*
X102192293Y-90670331D01*
X102273240Y-90829199D01*
X102384310Y-90982073D01*
X102517927Y-91115690D01*
X102670801Y-91226760D01*
X102839168Y-91312547D01*
X103018882Y-91370940D01*
X103205519Y-91400500D01*
X103205524Y-91400500D01*
X103394476Y-91400500D01*
X103394481Y-91400500D01*
X103581118Y-91370940D01*
X103760832Y-91312547D01*
X103929199Y-91226760D01*
X104082073Y-91115690D01*
X104215690Y-90982073D01*
X104326760Y-90829199D01*
X104412547Y-90660832D01*
X104470940Y-90481118D01*
X104500500Y-90294481D01*
X104500500Y-90105519D01*
X107099500Y-90105519D01*
X107099500Y-90294481D01*
X107129060Y-90481118D01*
X107187453Y-90660832D01*
X107187457Y-90660841D01*
X107187458Y-90660842D01*
X107192293Y-90670331D01*
X107273240Y-90829199D01*
X107384310Y-90982073D01*
X107517927Y-91115690D01*
X107670801Y-91226760D01*
X107839168Y-91312547D01*
X108018882Y-91370940D01*
X108205519Y-91400500D01*
X108205524Y-91400500D01*
X108394476Y-91400500D01*
X108394481Y-91400500D01*
X108581118Y-91370940D01*
X108760832Y-91312547D01*
X108929199Y-91226760D01*
X109082073Y-91115690D01*
X109215690Y-90982073D01*
X109326760Y-90829199D01*
X109412547Y-90660832D01*
X109470940Y-90481118D01*
X109500500Y-90294481D01*
X109500500Y-90105519D01*
X109470940Y-89918882D01*
X109412547Y-89739168D01*
X109326760Y-89570801D01*
X109215690Y-89417927D01*
X109082073Y-89284310D01*
X108929199Y-89173240D01*
X108760832Y-89087453D01*
X108581118Y-89029060D01*
X108394481Y-88999500D01*
X108205519Y-88999500D01*
X108018882Y-89029060D01*
X107839168Y-89087453D01*
X107839163Y-89087455D01*
X107839157Y-89087458D01*
X107670804Y-89173238D01*
X107670799Y-89173241D01*
X107517936Y-89284303D01*
X107517925Y-89284312D01*
X107384312Y-89417925D01*
X107384303Y-89417936D01*
X107273241Y-89570799D01*
X107273238Y-89570804D01*
X107187458Y-89739157D01*
X107187455Y-89739163D01*
X107187453Y-89739168D01*
X107129060Y-89918882D01*
X107099500Y-90105519D01*
X104500500Y-90105519D01*
X104470940Y-89918882D01*
X104412547Y-89739168D01*
X104326760Y-89570801D01*
X104215690Y-89417927D01*
X104082073Y-89284310D01*
X103929199Y-89173240D01*
X103760832Y-89087453D01*
X103581118Y-89029060D01*
X103394481Y-88999500D01*
X103205519Y-88999500D01*
X103185304Y-89002701D01*
X103173482Y-89001458D01*
X103162000Y-89004535D01*
X103135688Y-88997484D01*
X103108599Y-88994637D01*
X103098982Y-88987649D01*
X103087500Y-88984573D01*
X103068238Y-88965311D01*
X103046202Y-88949300D01*
X103041367Y-88938440D01*
X103032962Y-88930035D01*
X103025911Y-88903722D01*
X103014834Y-88878839D01*
X103013000Y-88855535D01*
X103013000Y-88571564D01*
X103032962Y-88497064D01*
X103083777Y-88444748D01*
X103123350Y-88420340D01*
X103245340Y-88298350D01*
X103335908Y-88151516D01*
X103390174Y-87987753D01*
X103400500Y-87886677D01*
X103400499Y-87313324D01*
X103390174Y-87212247D01*
X103335908Y-87048484D01*
X103245340Y-86901650D01*
X103123350Y-86779660D01*
X102976516Y-86689092D01*
X102894634Y-86661959D01*
X102812754Y-86634826D01*
X102812755Y-86634826D01*
X102783874Y-86631875D01*
X102711677Y-86624500D01*
X102711672Y-86624500D01*
X102113328Y-86624500D01*
X102012246Y-86634826D01*
X101848484Y-86689092D01*
X101701651Y-86779659D01*
X101701650Y-86779659D01*
X101701650Y-86779660D01*
X101605356Y-86875953D01*
X101538564Y-86914516D01*
X101461436Y-86914516D01*
X101394643Y-86875953D01*
X101298350Y-86779660D01*
X101151516Y-86689092D01*
X101069634Y-86661959D01*
X100987754Y-86634826D01*
X100987755Y-86634826D01*
X100958874Y-86631875D01*
X100886677Y-86624500D01*
X100886672Y-86624500D01*
X100288328Y-86624500D01*
X100187246Y-86634826D01*
X100023484Y-86689092D01*
X99876651Y-86779659D01*
X99754659Y-86901651D01*
X99752271Y-86905523D01*
X99664092Y-87048484D01*
X99664090Y-87048488D01*
X99660863Y-87053721D01*
X99604762Y-87106650D01*
X99534046Y-87124500D01*
X98999499Y-87124500D01*
X98924999Y-87104538D01*
X98870461Y-87050000D01*
X98850499Y-86975500D01*
X98850499Y-86827136D01*
X98850499Y-86827128D01*
X98844091Y-86767517D01*
X98821662Y-86707381D01*
X98793797Y-86632670D01*
X98793795Y-86632666D01*
X98707547Y-86517455D01*
X98707544Y-86517452D01*
X98592333Y-86431204D01*
X98592327Y-86431201D01*
X98580005Y-86426606D01*
X98517177Y-86381868D01*
X98485136Y-86311711D01*
X98492467Y-86234932D01*
X98537205Y-86172104D01*
X98607362Y-86140063D01*
X98632073Y-86138000D01*
X104649951Y-86138000D01*
X104724451Y-86157962D01*
G37*
%TD.AperFunction*%
%TA.AperFunction,Conductor*%
G36*
X138119933Y-89057943D02*
G01*
X138164291Y-89088525D01*
X138374600Y-89298834D01*
X138388127Y-89322263D01*
X138405205Y-89343244D01*
X138407124Y-89355168D01*
X138413164Y-89365629D01*
X138413164Y-89392682D01*
X138417464Y-89419392D01*
X138413164Y-89430679D01*
X138413164Y-89442757D01*
X138399636Y-89466186D01*
X138390006Y-89491467D01*
X138380639Y-89499091D01*
X138374600Y-89509552D01*
X138351168Y-89523080D01*
X138330190Y-89540157D01*
X138319312Y-89545032D01*
X138243216Y-89565423D01*
X138136903Y-89626802D01*
X138129948Y-89629920D01*
X138099138Y-89634880D01*
X138068998Y-89642956D01*
X138061482Y-89640942D01*
X138053800Y-89642179D01*
X138024637Y-89631069D01*
X137994498Y-89622993D01*
X137988996Y-89617491D01*
X137981725Y-89614721D01*
X137962024Y-89590519D01*
X137939961Y-89568455D01*
X137937947Y-89560939D01*
X137933035Y-89554905D01*
X137919999Y-89493956D01*
X137919999Y-89300026D01*
X137910703Y-89209026D01*
X137922991Y-89132883D01*
X137971704Y-89073085D01*
X138043790Y-89045655D01*
X138119933Y-89057943D01*
G37*
%TD.AperFunction*%
%TD*%
M02*
