%TF.GenerationSoftware,KiCad,Pcbnew,9.0.3*%
%TF.CreationDate,2026-07-31T19:46:21+09:00*%
%TF.ProjectId,pacer,70616365-722e-46b6-9963-61645f706362,rev?*%
%TF.SameCoordinates,Original*%
%TF.FileFunction,Legend,Bot*%
%TF.FilePolarity,Positive*%
%FSLAX46Y46*%
G04 Gerber Fmt 4.6, Leading zero omitted, Abs format (unit mm)*
G04 Created by KiCad (PCBNEW 9.0.3) date 2026-07-31 19:46:21*
%MOMM*%
%LPD*%
G01*
G04 APERTURE LIST*
%ADD10C,0.100000*%
%ADD11C,0.153000*%
%ADD12C,0.000000*%
%ADD13C,0.120000*%
%ADD14R,2.032000X2.032000*%
%ADD15C,2.032000*%
%ADD16C,1.400000*%
%ADD17R,1.700000X1.700000*%
%ADD18C,1.700000*%
G04 APERTURE END LIST*
D10*
G36*
X129282375Y-113056500D02*
G01*
X129143877Y-113056500D01*
X129143877Y-112594795D01*
X128920749Y-112594795D01*
X128842977Y-112588633D01*
X128776634Y-112571155D01*
X128719711Y-112543224D01*
X128670687Y-112504792D01*
X128630607Y-112457002D01*
X128601750Y-112401959D01*
X128583822Y-112338248D01*
X128577527Y-112263931D01*
X128720659Y-112263931D01*
X128727188Y-112324328D01*
X128745581Y-112373548D01*
X128775333Y-112414049D01*
X128814892Y-112444754D01*
X128862578Y-112463561D01*
X128920749Y-112470201D01*
X129143877Y-112470201D01*
X129143877Y-112057729D01*
X128920749Y-112057729D01*
X128862523Y-112064295D01*
X128814837Y-112082872D01*
X128775333Y-112113142D01*
X128745679Y-112153180D01*
X128727241Y-112202557D01*
X128720659Y-112263931D01*
X128577527Y-112263931D01*
X128583821Y-112189651D01*
X128601748Y-112125962D01*
X128630604Y-112070929D01*
X128670687Y-112023139D01*
X128719715Y-111984675D01*
X128776640Y-111956723D01*
X128842982Y-111939234D01*
X128920749Y-111933068D01*
X129282375Y-111933068D01*
X129282375Y-113056500D01*
G37*
G36*
X128108660Y-112199275D02*
G01*
X128169130Y-112212218D01*
X128220650Y-112232619D01*
X128264597Y-112260103D01*
X128303271Y-112295897D01*
X128331014Y-112334932D01*
X128349034Y-112377804D01*
X128357690Y-112425535D01*
X128219192Y-112425535D01*
X128212087Y-112393418D01*
X128195125Y-112366657D01*
X128166869Y-112343994D01*
X128132795Y-112328451D01*
X128090335Y-112318371D01*
X128037573Y-112314710D01*
X127978115Y-112320144D01*
X127933881Y-112334756D01*
X127901264Y-112357093D01*
X127877901Y-112387299D01*
X127863016Y-112427076D01*
X127857566Y-112479403D01*
X127857566Y-112545562D01*
X128119181Y-112545562D01*
X128172720Y-112549423D01*
X128220648Y-112560576D01*
X128263858Y-112578675D01*
X128303165Y-112603793D01*
X128335770Y-112634183D01*
X128362324Y-112670223D01*
X128381671Y-112710568D01*
X128393584Y-112755868D01*
X128397721Y-112807176D01*
X128392605Y-112865279D01*
X128377940Y-112915693D01*
X128354146Y-112959859D01*
X128320815Y-112998803D01*
X128280374Y-113029912D01*
X128233189Y-113052605D01*
X128177963Y-113066848D01*
X128113001Y-113071881D01*
X128041365Y-113066247D01*
X127983802Y-113050685D01*
X127937562Y-113026476D01*
X127899184Y-112992233D01*
X127873379Y-112951447D01*
X127859111Y-112902620D01*
X127856021Y-112902620D01*
X127856021Y-113056500D01*
X127719068Y-113056500D01*
X127719068Y-112771780D01*
X127857566Y-112771780D01*
X127864540Y-112825360D01*
X127884457Y-112869227D01*
X127917613Y-112905710D01*
X127960168Y-112932137D01*
X128013102Y-112948902D01*
X128079149Y-112954943D01*
X128133124Y-112949900D01*
X128175643Y-112935993D01*
X128209184Y-112914173D01*
X128234944Y-112884149D01*
X128250607Y-112847622D01*
X128256134Y-112802609D01*
X128251138Y-112759226D01*
X128236976Y-112723632D01*
X128213819Y-112694068D01*
X128183424Y-112671760D01*
X128147291Y-112658102D01*
X128103799Y-112653297D01*
X127857566Y-112653297D01*
X127857566Y-112771780D01*
X127719068Y-112771780D01*
X127719068Y-112474768D01*
X127724702Y-112409545D01*
X127740635Y-112354640D01*
X127766124Y-112308111D01*
X127801415Y-112268566D01*
X127844242Y-112237806D01*
X127896505Y-112214791D01*
X127960142Y-112200003D01*
X128037573Y-112194683D01*
X128108660Y-112199275D01*
G37*
G36*
X127103686Y-113071881D02*
G01*
X127180032Y-113065976D01*
X127245322Y-113049221D01*
X127301463Y-113022461D01*
X127349919Y-112985706D01*
X127389497Y-112939795D01*
X127418102Y-112886116D01*
X127435967Y-112823135D01*
X127442274Y-112748741D01*
X127442274Y-112517889D01*
X127435966Y-112443459D01*
X127418099Y-112380456D01*
X127389494Y-112326768D01*
X127349919Y-112280857D01*
X127301463Y-112244102D01*
X127245322Y-112217342D01*
X127180032Y-112200587D01*
X127103686Y-112194683D01*
X127030986Y-112200063D01*
X126968448Y-112215349D01*
X126914381Y-112239758D01*
X126867460Y-112273200D01*
X126828276Y-112315342D01*
X126799589Y-112364140D01*
X126780940Y-112420817D01*
X126772822Y-112487127D01*
X126911320Y-112487127D01*
X126920084Y-112435065D01*
X126938677Y-112394036D01*
X126966733Y-112361659D01*
X127002926Y-112338046D01*
X127047800Y-112323151D01*
X127103686Y-112317799D01*
X127162198Y-112323974D01*
X127209910Y-112341352D01*
X127249169Y-112369383D01*
X127278634Y-112407044D01*
X127297108Y-112455005D01*
X127303776Y-112516344D01*
X127303776Y-112748741D01*
X127297129Y-112810053D01*
X127278668Y-112858292D01*
X127249169Y-112896441D01*
X127209855Y-112924903D01*
X127162143Y-112942513D01*
X127103686Y-112948764D01*
X127047855Y-112943334D01*
X127002982Y-112928203D01*
X126966733Y-112904165D01*
X126938564Y-112871342D01*
X126920014Y-112830507D01*
X126911320Y-112779504D01*
X126772822Y-112779504D01*
X126780938Y-112845776D01*
X126799583Y-112902445D01*
X126828270Y-112951256D01*
X126867460Y-112993430D01*
X126914377Y-113026842D01*
X126968442Y-113051230D01*
X127030982Y-113066504D01*
X127103686Y-113071881D01*
G37*
G36*
X126266484Y-112200755D02*
G01*
X126330054Y-112218088D01*
X126385346Y-112246009D01*
X126433697Y-112284753D01*
X126472682Y-112332383D01*
X126501080Y-112388474D01*
X126518924Y-112454693D01*
X126525246Y-112533270D01*
X126525246Y-112733293D01*
X126518925Y-112811868D01*
X126501082Y-112878101D01*
X126472684Y-112934215D01*
X126433697Y-112981877D01*
X126385350Y-113020590D01*
X126330059Y-113048491D01*
X126266488Y-113065812D01*
X126192837Y-113071881D01*
X126105504Y-113064412D01*
X126031993Y-113043299D01*
X125969709Y-113009550D01*
X125929295Y-112975125D01*
X125899191Y-112936073D01*
X125878367Y-112891750D01*
X125866608Y-112841028D01*
X126005106Y-112841028D01*
X126016453Y-112872167D01*
X126036306Y-112898852D01*
X126065959Y-112921830D01*
X126100523Y-112937909D01*
X126142294Y-112948174D01*
X126192837Y-112951854D01*
X126250068Y-112945390D01*
X126297011Y-112927089D01*
X126335970Y-112897247D01*
X126365196Y-112857754D01*
X126383357Y-112809119D01*
X126389837Y-112748741D01*
X126389837Y-112668678D01*
X125860429Y-112668678D01*
X125860429Y-112517889D01*
X125995904Y-112517889D01*
X125995904Y-112560943D01*
X126389837Y-112560943D01*
X126389837Y-112517889D01*
X126383461Y-112453138D01*
X126365912Y-112402664D01*
X126338320Y-112363271D01*
X126300648Y-112333693D01*
X126253127Y-112315233D01*
X126192837Y-112308597D01*
X126132594Y-112315233D01*
X126085119Y-112333692D01*
X126047488Y-112363271D01*
X126019858Y-112402669D01*
X126002288Y-112453144D01*
X125995904Y-112517889D01*
X125860429Y-112517889D01*
X125865334Y-112453299D01*
X125879378Y-112396816D01*
X125902005Y-112347084D01*
X125933407Y-112302433D01*
X125971905Y-112265169D01*
X126018204Y-112234714D01*
X126069364Y-112212930D01*
X126127156Y-112199401D01*
X126192837Y-112194683D01*
X126266484Y-112200755D01*
G37*
G36*
X125559051Y-113056500D02*
G01*
X125559051Y-112210064D01*
X125420554Y-112210064D01*
X125420554Y-112371667D01*
X125417464Y-112371667D01*
X125404636Y-112320133D01*
X125381644Y-112277624D01*
X125348215Y-112242438D01*
X125306738Y-112216791D01*
X125255286Y-112200534D01*
X125191246Y-112194683D01*
X125125738Y-112200179D01*
X125071196Y-112215636D01*
X125025559Y-112240189D01*
X124987328Y-112273939D01*
X124957457Y-112315237D01*
X124935183Y-112365319D01*
X124920916Y-112425968D01*
X124915795Y-112499418D01*
X124915795Y-112571757D01*
X125054293Y-112571757D01*
X125054293Y-112499418D01*
X125060057Y-112439229D01*
X125075638Y-112394111D01*
X125099677Y-112360497D01*
X125132550Y-112336143D01*
X125176300Y-112320478D01*
X125234300Y-112314710D01*
X125292602Y-112321121D01*
X125337768Y-112338831D01*
X125372865Y-112367032D01*
X125398232Y-112404694D01*
X125414566Y-112453860D01*
X125420554Y-112517889D01*
X125420554Y-113056500D01*
X125559051Y-113056500D01*
G37*
G36*
X123241865Y-112179301D02*
G01*
X123238775Y-112371667D01*
X123240320Y-112371667D01*
X123254344Y-112320416D01*
X123279039Y-112277875D01*
X123314942Y-112242438D01*
X123358753Y-112216530D01*
X123410681Y-112200390D01*
X123472717Y-112194683D01*
X123535261Y-112200347D01*
X123588911Y-112216520D01*
X123635371Y-112242700D01*
X123675829Y-112279380D01*
X123707670Y-112323511D01*
X123731135Y-112375599D01*
X123745983Y-112437171D01*
X123751258Y-112510165D01*
X123751258Y-112757943D01*
X123745959Y-112830080D01*
X123731013Y-112891159D01*
X123707329Y-112943058D01*
X123675090Y-112987251D01*
X123634241Y-113023999D01*
X123587728Y-113050155D01*
X123534425Y-113066258D01*
X123472717Y-113071881D01*
X123410636Y-113066242D01*
X123359000Y-113050348D01*
X123315748Y-113024931D01*
X123280565Y-112989918D01*
X123256583Y-112947187D01*
X123243409Y-112894896D01*
X123241865Y-112894896D01*
X123241865Y-113056500D01*
X123103367Y-113056500D01*
X123103367Y-112517889D01*
X123241865Y-112517889D01*
X123241865Y-112748741D01*
X123247915Y-112810509D01*
X123264656Y-112859312D01*
X123291098Y-112897986D01*
X123327107Y-112927373D01*
X123371419Y-112945436D01*
X123426506Y-112951854D01*
X123483244Y-112946192D01*
X123528039Y-112930517D01*
X123563526Y-112905710D01*
X123589346Y-112871543D01*
X123606356Y-112823365D01*
X123612760Y-112756398D01*
X123612760Y-112510165D01*
X123606302Y-112442139D01*
X123589250Y-112393829D01*
X123563526Y-112360114D01*
X123528097Y-112335733D01*
X123483302Y-112320293D01*
X123426506Y-112314710D01*
X123371419Y-112321127D01*
X123327107Y-112339191D01*
X123291098Y-112368577D01*
X123264659Y-112407252D01*
X123247916Y-112456075D01*
X123241865Y-112517889D01*
X123103367Y-112517889D01*
X123103367Y-111933068D01*
X123241865Y-111933068D01*
X123241865Y-112179301D01*
G37*
G36*
X122573923Y-112200755D02*
G01*
X122637493Y-112218088D01*
X122692785Y-112246009D01*
X122741136Y-112284753D01*
X122780121Y-112332383D01*
X122808519Y-112388474D01*
X122826363Y-112454693D01*
X122832685Y-112533270D01*
X122832685Y-112733293D01*
X122826364Y-112811868D01*
X122808521Y-112878101D01*
X122780123Y-112934215D01*
X122741136Y-112981877D01*
X122692789Y-113020590D01*
X122637498Y-113048491D01*
X122573927Y-113065812D01*
X122500276Y-113071881D01*
X122412943Y-113064412D01*
X122339432Y-113043299D01*
X122277148Y-113009550D01*
X122236734Y-112975125D01*
X122206630Y-112936073D01*
X122185806Y-112891750D01*
X122174047Y-112841028D01*
X122312545Y-112841028D01*
X122323892Y-112872167D01*
X122343745Y-112898852D01*
X122373398Y-112921830D01*
X122407962Y-112937909D01*
X122449733Y-112948174D01*
X122500276Y-112951854D01*
X122557507Y-112945390D01*
X122604450Y-112927089D01*
X122643409Y-112897247D01*
X122672635Y-112857754D01*
X122690796Y-112809119D01*
X122697276Y-112748741D01*
X122697276Y-112668678D01*
X122167868Y-112668678D01*
X122167868Y-112517889D01*
X122303343Y-112517889D01*
X122303343Y-112560943D01*
X122697276Y-112560943D01*
X122697276Y-112517889D01*
X122690900Y-112453138D01*
X122673351Y-112402664D01*
X122645759Y-112363271D01*
X122608087Y-112333693D01*
X122560566Y-112315233D01*
X122500276Y-112308597D01*
X122440033Y-112315233D01*
X122392558Y-112333692D01*
X122354927Y-112363271D01*
X122327297Y-112402669D01*
X122309727Y-112453144D01*
X122303343Y-112517889D01*
X122167868Y-112517889D01*
X122172773Y-112453299D01*
X122186817Y-112396816D01*
X122209444Y-112347084D01*
X122240846Y-112302433D01*
X122279344Y-112265169D01*
X122325643Y-112234714D01*
X122376803Y-112212930D01*
X122434595Y-112199401D01*
X122500276Y-112194683D01*
X122573923Y-112200755D01*
G37*
G36*
X121610988Y-113068791D02*
G01*
X121682452Y-113064186D01*
X121741488Y-113051377D01*
X121790193Y-113031471D01*
X121830288Y-113004983D01*
X121863782Y-112970389D01*
X121887786Y-112929629D01*
X121902723Y-112881469D01*
X121907999Y-112824102D01*
X121769502Y-112824102D01*
X121764659Y-112861106D01*
X121750879Y-112891082D01*
X121727993Y-112915718D01*
X121698499Y-112933232D01*
X121660297Y-112944596D01*
X121610988Y-112948764D01*
X121543284Y-112948764D01*
X121493022Y-112944495D01*
X121454099Y-112932856D01*
X121424063Y-112914912D01*
X121400832Y-112889691D01*
X121386736Y-112858520D01*
X121381748Y-112819535D01*
X121388702Y-112768538D01*
X121407371Y-112733360D01*
X121437303Y-112709657D01*
X121481759Y-112696418D01*
X121715634Y-112662566D01*
X121770238Y-112648581D01*
X121814214Y-112624726D01*
X121849564Y-112590967D01*
X121875262Y-112549061D01*
X121891456Y-112497807D01*
X121897253Y-112434804D01*
X121892156Y-112380663D01*
X121877634Y-112334612D01*
X121854122Y-112295052D01*
X121821086Y-112260909D01*
X121781695Y-112234506D01*
X121734599Y-112214826D01*
X121678307Y-112202262D01*
X121610988Y-112197772D01*
X121543284Y-112197772D01*
X121463239Y-112205105D01*
X121397232Y-112225704D01*
X121342455Y-112258558D01*
X121307741Y-112291703D01*
X121282647Y-112328774D01*
X121266300Y-112370462D01*
X121258631Y-112417878D01*
X121398674Y-112417878D01*
X121404632Y-112390044D01*
X121418414Y-112365710D01*
X121440989Y-112343994D01*
X121468552Y-112328243D01*
X121502155Y-112318278D01*
X121543284Y-112314710D01*
X121610988Y-112314710D01*
X121657164Y-112318749D01*
X121693400Y-112329838D01*
X121721813Y-112347084D01*
X121743955Y-112371042D01*
X121757211Y-112399775D01*
X121761845Y-112434804D01*
X121756186Y-112476467D01*
X121740961Y-112505406D01*
X121716533Y-112525089D01*
X121680304Y-112536360D01*
X121461743Y-112567122D01*
X121392990Y-112583712D01*
X121340312Y-112609986D01*
X121300445Y-112645250D01*
X121271453Y-112690300D01*
X121252971Y-112747305D01*
X121246272Y-112819535D01*
X121251550Y-112877683D01*
X121266498Y-112926616D01*
X121290514Y-112968122D01*
X121323984Y-113003438D01*
X121364180Y-113030622D01*
X121412924Y-113051000D01*
X121471925Y-113064089D01*
X121543284Y-113068791D01*
X121610988Y-113068791D01*
G37*
G36*
X120984859Y-113056500D02*
G01*
X120984859Y-112930293D01*
X120684825Y-112930293D01*
X120684825Y-112336270D01*
X120954097Y-112336270D01*
X120954097Y-112210064D01*
X120546327Y-112210064D01*
X120546327Y-112930293D01*
X120261607Y-112930293D01*
X120261607Y-113056500D01*
X120984859Y-113056500D01*
G37*
G36*
X120630957Y-112057729D02*
G01*
X120677686Y-112050750D01*
X120710953Y-112031602D01*
X120732619Y-112001398D01*
X120740171Y-111960808D01*
X120732575Y-111918696D01*
X120710953Y-111887663D01*
X120677616Y-111867899D01*
X120630957Y-111860729D01*
X120584299Y-111867899D01*
X120550962Y-111887663D01*
X120529288Y-111918702D01*
X120521677Y-111960808D01*
X120529243Y-112001392D01*
X120550962Y-112031602D01*
X120584229Y-112050750D01*
X120630957Y-112057729D01*
G37*
G36*
X119839732Y-112200399D02*
G01*
X119894381Y-112216656D01*
X119941285Y-112242850D01*
X119981723Y-112279380D01*
X120013624Y-112323527D01*
X120037084Y-112375399D01*
X120051899Y-112436473D01*
X120057152Y-112508620D01*
X120057152Y-112687149D01*
X120051875Y-112759375D01*
X120037027Y-112820176D01*
X120013569Y-112871510D01*
X119981723Y-112914912D01*
X119941387Y-112950675D01*
X119894521Y-112976384D01*
X119839836Y-112992371D01*
X119775521Y-112997997D01*
X119716183Y-112993083D01*
X119666519Y-112979242D01*
X119624732Y-112957227D01*
X119590087Y-112926291D01*
X119566179Y-112888105D01*
X119552393Y-112841028D01*
X119547759Y-112841028D01*
X119550848Y-112979526D01*
X119550848Y-113056500D01*
X119555806Y-113100930D01*
X119569773Y-113136978D01*
X119592425Y-113166519D01*
X119622421Y-113188584D01*
X119659680Y-113202357D01*
X119706272Y-113207289D01*
X119944782Y-113207289D01*
X119944782Y-113333495D01*
X119707817Y-113333495D01*
X119639671Y-113328318D01*
X119582072Y-113313709D01*
X119533189Y-113290525D01*
X119491607Y-113258873D01*
X119457545Y-113219143D01*
X119433002Y-113173078D01*
X119417726Y-113119436D01*
X119412350Y-113056500D01*
X119412350Y-112517889D01*
X119549304Y-112517889D01*
X119549304Y-112679492D01*
X119555354Y-112741260D01*
X119572095Y-112790063D01*
X119598537Y-112828737D01*
X119634546Y-112858124D01*
X119678858Y-112876187D01*
X119733945Y-112882605D01*
X119790298Y-112876443D01*
X119834804Y-112859296D01*
X119870159Y-112831827D01*
X119896452Y-112795284D01*
X119912816Y-112750410D01*
X119918654Y-112694874D01*
X119918654Y-112502508D01*
X119912816Y-112446971D01*
X119896452Y-112402097D01*
X119870159Y-112365555D01*
X119834798Y-112338047D01*
X119790293Y-112320878D01*
X119733945Y-112314710D01*
X119678858Y-112321127D01*
X119634546Y-112339191D01*
X119598537Y-112368577D01*
X119572098Y-112407252D01*
X119555355Y-112456075D01*
X119549304Y-112517889D01*
X119412350Y-112517889D01*
X119412350Y-112210064D01*
X119549304Y-112210064D01*
X119549304Y-112356286D01*
X119552393Y-112356286D01*
X119566112Y-112309100D01*
X119590007Y-112270103D01*
X119624732Y-112237804D01*
X119666679Y-112214453D01*
X119716336Y-112199851D01*
X119775521Y-112194683D01*
X119839732Y-112200399D01*
G37*
G36*
X119127832Y-113056500D02*
G01*
X119127832Y-112210064D01*
X118989334Y-112210064D01*
X118989334Y-112371667D01*
X118987789Y-112371667D01*
X118974800Y-112318141D01*
X118951734Y-112275240D01*
X118918540Y-112240893D01*
X118877203Y-112216067D01*
X118826219Y-112200336D01*
X118763116Y-112194683D01*
X118700145Y-112200005D01*
X118646346Y-112215141D01*
X118600041Y-112239463D01*
X118560004Y-112273200D01*
X118527945Y-112314460D01*
X118504523Y-112362870D01*
X118489791Y-112419820D01*
X118484576Y-112487127D01*
X118484576Y-113056500D01*
X118623074Y-113056500D01*
X118623074Y-112511710D01*
X118629133Y-112448861D01*
X118645706Y-112400475D01*
X118671568Y-112363271D01*
X118706844Y-112335114D01*
X118749937Y-112317819D01*
X118803148Y-112311687D01*
X118858258Y-112318086D01*
X118902863Y-112336139D01*
X118939362Y-112365555D01*
X118966095Y-112404304D01*
X118983135Y-112454031D01*
X118989334Y-112517889D01*
X118989334Y-113056500D01*
X119127832Y-113056500D01*
G37*
G36*
X117958221Y-112200755D02*
G01*
X118021791Y-112218088D01*
X118077084Y-112246009D01*
X118125435Y-112284753D01*
X118164419Y-112332383D01*
X118192818Y-112388474D01*
X118210662Y-112454693D01*
X118216983Y-112533270D01*
X118216983Y-112733293D01*
X118210663Y-112811868D01*
X118192820Y-112878101D01*
X118164422Y-112934215D01*
X118125435Y-112981877D01*
X118077088Y-113020590D01*
X118021797Y-113048491D01*
X117958225Y-113065812D01*
X117884575Y-113071881D01*
X117797242Y-113064412D01*
X117723731Y-113043299D01*
X117661447Y-113009550D01*
X117621033Y-112975125D01*
X117590928Y-112936073D01*
X117570105Y-112891750D01*
X117558346Y-112841028D01*
X117696844Y-112841028D01*
X117708190Y-112872167D01*
X117728043Y-112898852D01*
X117757697Y-112921830D01*
X117792260Y-112937909D01*
X117834031Y-112948174D01*
X117884575Y-112951854D01*
X117941805Y-112945390D01*
X117988749Y-112927089D01*
X118027707Y-112897247D01*
X118056934Y-112857754D01*
X118075095Y-112809119D01*
X118081575Y-112748741D01*
X118081575Y-112668678D01*
X117552166Y-112668678D01*
X117552166Y-112517889D01*
X117687642Y-112517889D01*
X117687642Y-112560943D01*
X118081575Y-112560943D01*
X118081575Y-112517889D01*
X118075199Y-112453138D01*
X118057650Y-112402664D01*
X118030058Y-112363271D01*
X117992385Y-112333693D01*
X117944865Y-112315233D01*
X117884575Y-112308597D01*
X117824332Y-112315233D01*
X117776856Y-112333692D01*
X117739226Y-112363271D01*
X117711596Y-112402669D01*
X117694025Y-112453144D01*
X117687642Y-112517889D01*
X117552166Y-112517889D01*
X117557071Y-112453299D01*
X117571116Y-112396816D01*
X117593743Y-112347084D01*
X117625145Y-112302433D01*
X117663642Y-112265169D01*
X117709941Y-112234714D01*
X117761102Y-112212930D01*
X117818893Y-112199401D01*
X117884575Y-112194683D01*
X117958221Y-112200755D01*
G37*
G36*
X116779883Y-112179301D02*
G01*
X116776793Y-112371667D01*
X116778338Y-112371667D01*
X116792363Y-112320416D01*
X116817057Y-112277875D01*
X116852960Y-112242438D01*
X116896772Y-112216530D01*
X116948699Y-112200390D01*
X117010735Y-112194683D01*
X117073279Y-112200347D01*
X117126929Y-112216520D01*
X117173389Y-112242700D01*
X117213847Y-112279380D01*
X117245688Y-112323511D01*
X117269153Y-112375599D01*
X117284001Y-112437171D01*
X117289276Y-112510165D01*
X117289276Y-112757943D01*
X117283978Y-112830080D01*
X117269031Y-112891159D01*
X117245347Y-112943058D01*
X117213109Y-112987251D01*
X117172259Y-113023999D01*
X117125746Y-113050155D01*
X117072443Y-113066258D01*
X117010735Y-113071881D01*
X116948655Y-113066242D01*
X116897018Y-113050348D01*
X116853766Y-113024931D01*
X116818583Y-112989918D01*
X116794601Y-112947187D01*
X116781428Y-112894896D01*
X116779883Y-112894896D01*
X116779883Y-113056500D01*
X116641385Y-113056500D01*
X116641385Y-112517889D01*
X116779883Y-112517889D01*
X116779883Y-112748741D01*
X116785933Y-112810509D01*
X116802674Y-112859312D01*
X116829116Y-112897986D01*
X116865125Y-112927373D01*
X116909437Y-112945436D01*
X116964524Y-112951854D01*
X117021262Y-112946192D01*
X117066057Y-112930517D01*
X117101544Y-112905710D01*
X117127364Y-112871543D01*
X117144374Y-112823365D01*
X117150778Y-112756398D01*
X117150778Y-112510165D01*
X117144321Y-112442139D01*
X117127269Y-112393829D01*
X117101544Y-112360114D01*
X117066115Y-112335733D01*
X117021320Y-112320293D01*
X116964524Y-112314710D01*
X116909437Y-112321127D01*
X116865125Y-112339191D01*
X116829116Y-112368577D01*
X116802677Y-112407252D01*
X116785934Y-112456075D01*
X116779883Y-112517889D01*
X116641385Y-112517889D01*
X116641385Y-111933068D01*
X116779883Y-111933068D01*
X116779883Y-112179301D01*
G37*
G36*
X115435271Y-113056500D02*
G01*
X115296773Y-113056500D01*
X115296773Y-112894896D01*
X115295228Y-112894896D01*
X115282060Y-112947192D01*
X115258099Y-112989923D01*
X115222957Y-113024931D01*
X115179663Y-113050351D01*
X115128002Y-113066243D01*
X115065921Y-113071881D01*
X115003372Y-113066220D01*
X114949721Y-113050058D01*
X114903262Y-113023898D01*
X114862808Y-112987251D01*
X114830910Y-112943104D01*
X114807450Y-112891222D01*
X114792634Y-112830127D01*
X114787380Y-112757943D01*
X114787380Y-112510165D01*
X114925878Y-112510165D01*
X114925878Y-112756398D01*
X114932289Y-112823358D01*
X114949321Y-112871537D01*
X114975178Y-112905710D01*
X115010624Y-112930515D01*
X115055395Y-112946191D01*
X115112132Y-112951854D01*
X115166206Y-112945494D01*
X115210337Y-112927479D01*
X115246801Y-112897986D01*
X115273669Y-112859255D01*
X115290645Y-112810451D01*
X115296773Y-112748741D01*
X115296773Y-112517889D01*
X115290643Y-112456134D01*
X115273666Y-112407310D01*
X115246801Y-112368577D01*
X115210337Y-112339085D01*
X115166206Y-112321069D01*
X115112132Y-112314710D01*
X115055337Y-112320294D01*
X115010567Y-112335736D01*
X114975178Y-112360114D01*
X114949416Y-112393835D01*
X114932343Y-112442146D01*
X114925878Y-112510165D01*
X114787380Y-112510165D01*
X114792654Y-112437171D01*
X114807503Y-112375599D01*
X114830968Y-112323511D01*
X114862808Y-112279380D01*
X114903267Y-112242700D01*
X114949727Y-112216520D01*
X115003377Y-112200347D01*
X115065921Y-112194683D01*
X115127957Y-112200390D01*
X115179884Y-112216530D01*
X115223696Y-112242438D01*
X115259599Y-112277875D01*
X115284293Y-112320416D01*
X115298318Y-112371667D01*
X115299863Y-112371667D01*
X115296773Y-112179301D01*
X115296773Y-111933068D01*
X115435271Y-111933068D01*
X115435271Y-113056500D01*
G37*
G36*
X114379812Y-113333495D02*
G01*
X114255151Y-113004177D01*
X114570633Y-112210064D01*
X114421321Y-112210064D01*
X114221299Y-112733293D01*
X114198193Y-112797975D01*
X114182812Y-112856410D01*
X114167431Y-112797975D01*
X114145870Y-112733293D01*
X113959684Y-112210064D01*
X113813462Y-112210064D01*
X114235135Y-113333495D01*
X114379812Y-113333495D01*
G37*
G36*
X112422033Y-112203861D02*
G01*
X112486707Y-112221087D01*
X112541825Y-112248554D01*
X112588944Y-112286298D01*
X112626650Y-112333017D01*
X112654345Y-112388934D01*
X112671887Y-112455902D01*
X112678142Y-112536360D01*
X112678142Y-112730270D01*
X112671875Y-112809809D01*
X112654246Y-112876419D01*
X112626311Y-112932427D01*
X112588138Y-112979594D01*
X112540610Y-113017742D01*
X112485435Y-113045408D01*
X112421136Y-113062698D01*
X112345733Y-113068791D01*
X112270367Y-113062699D01*
X112206089Y-113045411D01*
X112150925Y-113017745D01*
X112103396Y-112979594D01*
X112065191Y-112932423D01*
X112037236Y-112876413D01*
X112019595Y-112809804D01*
X112013325Y-112730270D01*
X112013325Y-112536360D01*
X112014521Y-112520979D01*
X112151823Y-112520979D01*
X112151823Y-112745652D01*
X112158263Y-112809284D01*
X112175861Y-112857863D01*
X112203407Y-112894896D01*
X112240710Y-112922345D01*
X112287269Y-112939514D01*
X112345733Y-112945674D01*
X112403214Y-112939565D01*
X112449596Y-112922439D01*
X112487321Y-112894896D01*
X112515294Y-112857803D01*
X112533125Y-112809221D01*
X112539644Y-112745652D01*
X112539644Y-112520979D01*
X112533124Y-112457363D01*
X112515291Y-112408761D01*
X112487321Y-112371667D01*
X112449596Y-112344124D01*
X112403214Y-112326998D01*
X112345733Y-112320889D01*
X112287269Y-112327050D01*
X112240710Y-112344218D01*
X112203407Y-112371667D01*
X112175864Y-112408701D01*
X112158265Y-112457300D01*
X112151823Y-112520979D01*
X112014521Y-112520979D01*
X112019583Y-112455907D01*
X112037137Y-112388940D01*
X112064852Y-112333021D01*
X112102590Y-112286298D01*
X112149710Y-112248552D01*
X112204818Y-112221084D01*
X112269470Y-112203860D01*
X112345733Y-112197772D01*
X112422033Y-112203861D01*
G37*
G36*
X111742710Y-113056500D02*
G01*
X111604212Y-113056500D01*
X111604212Y-112894896D01*
X111602667Y-112894896D01*
X111589499Y-112947192D01*
X111565538Y-112989923D01*
X111530396Y-113024931D01*
X111487102Y-113050351D01*
X111435441Y-113066243D01*
X111373360Y-113071881D01*
X111310811Y-113066220D01*
X111257160Y-113050058D01*
X111210701Y-113023898D01*
X111170247Y-112987251D01*
X111138349Y-112943104D01*
X111114889Y-112891222D01*
X111100073Y-112830127D01*
X111094819Y-112757943D01*
X111094819Y-112510165D01*
X111233317Y-112510165D01*
X111233317Y-112756398D01*
X111239728Y-112823358D01*
X111256760Y-112871537D01*
X111282617Y-112905710D01*
X111318063Y-112930515D01*
X111362834Y-112946191D01*
X111419570Y-112951854D01*
X111473645Y-112945494D01*
X111517776Y-112927479D01*
X111554240Y-112897986D01*
X111581108Y-112859255D01*
X111598084Y-112810451D01*
X111604212Y-112748741D01*
X111604212Y-112517889D01*
X111598082Y-112456134D01*
X111581105Y-112407310D01*
X111554240Y-112368577D01*
X111517776Y-112339085D01*
X111473645Y-112321069D01*
X111419570Y-112314710D01*
X111362776Y-112320294D01*
X111318006Y-112335736D01*
X111282617Y-112360114D01*
X111256855Y-112393835D01*
X111239782Y-112442146D01*
X111233317Y-112510165D01*
X111094819Y-112510165D01*
X111100093Y-112437171D01*
X111114942Y-112375599D01*
X111138406Y-112323511D01*
X111170247Y-112279380D01*
X111210706Y-112242700D01*
X111257166Y-112216520D01*
X111310816Y-112200347D01*
X111373360Y-112194683D01*
X111435396Y-112200390D01*
X111487323Y-112216530D01*
X111531135Y-112242438D01*
X111567038Y-112277875D01*
X111591732Y-112320416D01*
X111605757Y-112371667D01*
X111607302Y-112371667D01*
X111604212Y-112179301D01*
X111604212Y-111933068D01*
X111742710Y-111933068D01*
X111742710Y-113056500D01*
G37*
G36*
X110822659Y-113333495D02*
G01*
X110822659Y-113207289D01*
X110631838Y-113207289D01*
X110570283Y-113200894D01*
X110521754Y-113183160D01*
X110483333Y-113154966D01*
X110454626Y-113116966D01*
X110436662Y-113069195D01*
X110430204Y-113008811D01*
X110430204Y-112336270D01*
X110830316Y-112336270D01*
X110830316Y-112210064D01*
X110291706Y-112210064D01*
X110291706Y-113008811D01*
X110297964Y-113082343D01*
X110315759Y-113145118D01*
X110344362Y-113199117D01*
X110384060Y-113245775D01*
X110432599Y-113283185D01*
X110488993Y-113310418D01*
X110554749Y-113327478D01*
X110631838Y-113333495D01*
X110822659Y-113333495D01*
G37*
G36*
X110376403Y-112057729D02*
G01*
X110423132Y-112050750D01*
X110456399Y-112031602D01*
X110478065Y-112001398D01*
X110485616Y-111960808D01*
X110478021Y-111918696D01*
X110456399Y-111887663D01*
X110423061Y-111867899D01*
X110376403Y-111860729D01*
X110329745Y-111867899D01*
X110296408Y-111887663D01*
X110274734Y-111918702D01*
X110267123Y-111960808D01*
X110274689Y-112001392D01*
X110296408Y-112031602D01*
X110329675Y-112050750D01*
X110376403Y-112057729D01*
G37*
G36*
X109649959Y-112200755D02*
G01*
X109713529Y-112218088D01*
X109768821Y-112246009D01*
X109817173Y-112284753D01*
X109856157Y-112332383D01*
X109884555Y-112388474D01*
X109902399Y-112454693D01*
X109908721Y-112533270D01*
X109908721Y-112733293D01*
X109902400Y-112811868D01*
X109884558Y-112878101D01*
X109856159Y-112934215D01*
X109817173Y-112981877D01*
X109768826Y-113020590D01*
X109713535Y-113048491D01*
X109649963Y-113065812D01*
X109576312Y-113071881D01*
X109488979Y-113064412D01*
X109415468Y-113043299D01*
X109353184Y-113009550D01*
X109312770Y-112975125D01*
X109282666Y-112936073D01*
X109261842Y-112891750D01*
X109250083Y-112841028D01*
X109388581Y-112841028D01*
X109399928Y-112872167D01*
X109419781Y-112898852D01*
X109449434Y-112921830D01*
X109483998Y-112937909D01*
X109525769Y-112948174D01*
X109576312Y-112951854D01*
X109633543Y-112945390D01*
X109680486Y-112927089D01*
X109719445Y-112897247D01*
X109748671Y-112857754D01*
X109766833Y-112809119D01*
X109773313Y-112748741D01*
X109773313Y-112668678D01*
X109243904Y-112668678D01*
X109243904Y-112517889D01*
X109379379Y-112517889D01*
X109379379Y-112560943D01*
X109773313Y-112560943D01*
X109773313Y-112517889D01*
X109766936Y-112453138D01*
X109749387Y-112402664D01*
X109721796Y-112363271D01*
X109684123Y-112333693D01*
X109636602Y-112315233D01*
X109576312Y-112308597D01*
X109516070Y-112315233D01*
X109468594Y-112333692D01*
X109430964Y-112363271D01*
X109403333Y-112402669D01*
X109385763Y-112453144D01*
X109379379Y-112517889D01*
X109243904Y-112517889D01*
X109248809Y-112453299D01*
X109262854Y-112396816D01*
X109285480Y-112347084D01*
X109316882Y-112302433D01*
X109355380Y-112265169D01*
X109401679Y-112234714D01*
X109452839Y-112212930D01*
X109510631Y-112199401D01*
X109576312Y-112194683D01*
X109649959Y-112200755D01*
G37*
G36*
X108640881Y-113071881D02*
G01*
X108717226Y-113065976D01*
X108782516Y-113049221D01*
X108838658Y-113022461D01*
X108887114Y-112985706D01*
X108926692Y-112939795D01*
X108955297Y-112886116D01*
X108973162Y-112823135D01*
X108979468Y-112748741D01*
X108979468Y-112517889D01*
X108973161Y-112443459D01*
X108955294Y-112380456D01*
X108926689Y-112326768D01*
X108887114Y-112280857D01*
X108838658Y-112244102D01*
X108782516Y-112217342D01*
X108717226Y-112200587D01*
X108640881Y-112194683D01*
X108568180Y-112200063D01*
X108505642Y-112215349D01*
X108451576Y-112239758D01*
X108404655Y-112273200D01*
X108365471Y-112315342D01*
X108336783Y-112364140D01*
X108318135Y-112420817D01*
X108310017Y-112487127D01*
X108448515Y-112487127D01*
X108457279Y-112435065D01*
X108475872Y-112394036D01*
X108503928Y-112361659D01*
X108540121Y-112338046D01*
X108584994Y-112323151D01*
X108640881Y-112317799D01*
X108699392Y-112323974D01*
X108747105Y-112341352D01*
X108786364Y-112369383D01*
X108815829Y-112407044D01*
X108834303Y-112455005D01*
X108840971Y-112516344D01*
X108840971Y-112748741D01*
X108834324Y-112810053D01*
X108815862Y-112858292D01*
X108786364Y-112896441D01*
X108747050Y-112924903D01*
X108699338Y-112942513D01*
X108640881Y-112948764D01*
X108585050Y-112943334D01*
X108540177Y-112928203D01*
X108503928Y-112904165D01*
X108475758Y-112871342D01*
X108457209Y-112830507D01*
X108448515Y-112779504D01*
X108310017Y-112779504D01*
X108318133Y-112845776D01*
X108336778Y-112902445D01*
X108365465Y-112951256D01*
X108404655Y-112993430D01*
X108451572Y-113026842D01*
X108505637Y-113051230D01*
X108568176Y-113066504D01*
X108640881Y-113071881D01*
G37*
G36*
X107645402Y-113056500D02*
G01*
X107712732Y-113049249D01*
X107767762Y-113028803D01*
X107813184Y-112995714D01*
X107847674Y-112951625D01*
X107868795Y-112898399D01*
X107876254Y-112833371D01*
X107876254Y-112336270D01*
X108119398Y-112336270D01*
X108119398Y-112210064D01*
X107876254Y-112210064D01*
X107876254Y-111971554D01*
X107737756Y-111971554D01*
X107737756Y-112210064D01*
X107391511Y-112210064D01*
X107391511Y-112336270D01*
X107737756Y-112336270D01*
X107737756Y-112833371D01*
X107731159Y-112873077D01*
X107712367Y-112903359D01*
X107683437Y-112923354D01*
X107645402Y-112930293D01*
X107399168Y-112930293D01*
X107399168Y-113056500D01*
X107645402Y-113056500D01*
G37*
G36*
X107130098Y-113056500D02*
G01*
X107130098Y-112930293D01*
X106825363Y-112930293D01*
X106825363Y-112053095D01*
X107130098Y-112280857D01*
X107130098Y-112122344D01*
X106876141Y-111933068D01*
X106686865Y-111933068D01*
X106686865Y-112930293D01*
X106437609Y-112930293D01*
X106437609Y-113056500D01*
X107130098Y-113056500D01*
G37*
G36*
X105922168Y-112409867D02*
G01*
X105950717Y-112426341D01*
X105969409Y-112452580D01*
X105976106Y-112490149D01*
X105969371Y-112529257D01*
X105950717Y-112556376D01*
X105922112Y-112573364D01*
X105883751Y-112579414D01*
X105845449Y-112573366D01*
X105816853Y-112556376D01*
X105798199Y-112529257D01*
X105791464Y-112490149D01*
X105798161Y-112452580D01*
X105816853Y-112426341D01*
X105845393Y-112409865D01*
X105883751Y-112403974D01*
X105922168Y-112409867D01*
G37*
G36*
X105960747Y-111923854D02*
G01*
X106026318Y-111941338D01*
X106082492Y-111969282D01*
X106130791Y-112007757D01*
X106170114Y-112055447D01*
X106198484Y-112110444D01*
X106216136Y-112174169D01*
X106222339Y-112248550D01*
X106222339Y-112741017D01*
X106216137Y-112815397D01*
X106198486Y-112879135D01*
X106170116Y-112934156D01*
X106130791Y-112981877D01*
X106082496Y-113020321D01*
X106026324Y-113048245D01*
X105960751Y-113065718D01*
X105883751Y-113071881D01*
X105816018Y-113067058D01*
X105756708Y-113053263D01*
X105704483Y-113031110D01*
X105657346Y-112999999D01*
X105618367Y-112961748D01*
X105586807Y-112915718D01*
X105564150Y-112864425D01*
X105550118Y-112806617D01*
X105545231Y-112741017D01*
X105545231Y-112248550D01*
X105679094Y-112248550D01*
X105679094Y-112741017D01*
X105685713Y-112801373D01*
X105704546Y-112851686D01*
X105735313Y-112894157D01*
X105776079Y-112926672D01*
X105824776Y-112946450D01*
X105883751Y-112953398D01*
X105942774Y-112946450D01*
X105991515Y-112926671D01*
X106032324Y-112894157D01*
X106063052Y-112851691D01*
X106081864Y-112801377D01*
X106088476Y-112741017D01*
X106088476Y-112248550D01*
X106081866Y-112188235D01*
X106063055Y-112137942D01*
X106032324Y-112095477D01*
X105991510Y-112062924D01*
X105942769Y-112043124D01*
X105883751Y-112036169D01*
X105824781Y-112043124D01*
X105776084Y-112062923D01*
X105735313Y-112095477D01*
X105704542Y-112137947D01*
X105685711Y-112188240D01*
X105679094Y-112248550D01*
X105545231Y-112248550D01*
X105551434Y-112174169D01*
X105569086Y-112110444D01*
X105597456Y-112055447D01*
X105636779Y-112007757D01*
X105685079Y-111969279D01*
X105741243Y-111941336D01*
X105806793Y-111923853D01*
X105883751Y-111917687D01*
X105960747Y-111923854D01*
G37*
G36*
X104977537Y-113071881D02*
G01*
X105054748Y-113065886D01*
X105120251Y-113048934D01*
X105176093Y-113021947D01*
X105223838Y-112984967D01*
X105262751Y-112938763D01*
X105290866Y-112885059D01*
X105308402Y-112822387D01*
X105314580Y-112748741D01*
X105176082Y-112748741D01*
X105169620Y-112808059D01*
X105151481Y-112855929D01*
X105122214Y-112894896D01*
X105083247Y-112924163D01*
X105035378Y-112942302D01*
X104976059Y-112948764D01*
X104916696Y-112942301D01*
X104868806Y-112924160D01*
X104829837Y-112894896D01*
X104800571Y-112855929D01*
X104782431Y-112808059D01*
X104775970Y-112748741D01*
X104775970Y-112671768D01*
X104782433Y-112612405D01*
X104800574Y-112564515D01*
X104829837Y-112525546D01*
X104868806Y-112496282D01*
X104916696Y-112478142D01*
X104976059Y-112471678D01*
X105097631Y-112471678D01*
X105097631Y-112351651D01*
X104822113Y-112059274D01*
X105283818Y-112059274D01*
X105283818Y-111933068D01*
X104665144Y-111933068D01*
X104665144Y-112062364D01*
X104936028Y-112350106D01*
X104867864Y-112360799D01*
X104809749Y-112380649D01*
X104760043Y-112409115D01*
X104717535Y-112446356D01*
X104683279Y-112491193D01*
X104658427Y-112542785D01*
X104642921Y-112602416D01*
X104637472Y-112671768D01*
X104637472Y-112748741D01*
X104643696Y-112822336D01*
X104661369Y-112884990D01*
X104689726Y-112938712D01*
X104729020Y-112984967D01*
X104777107Y-113021910D01*
X104833417Y-113048904D01*
X104899537Y-113065875D01*
X104977537Y-113071881D01*
G37*
G36*
X104206798Y-113056500D02*
G01*
X103806686Y-112059274D01*
X104234471Y-112059274D01*
X104234471Y-112240893D01*
X104372969Y-112240893D01*
X104372969Y-111933068D01*
X103658919Y-111933068D01*
X103658919Y-112062364D01*
X104055942Y-113056500D01*
X104206798Y-113056500D01*
G37*
D11*
X110061247Y-92869663D02*
X110061247Y-91869663D01*
X110061247Y-91869663D02*
X109727914Y-92583948D01*
X109727914Y-92583948D02*
X109394581Y-91869663D01*
X109394581Y-91869663D02*
X109394581Y-92869663D01*
X108489819Y-92202996D02*
X108489819Y-92869663D01*
X108918390Y-92202996D02*
X108918390Y-92726805D01*
X108918390Y-92726805D02*
X108870771Y-92822044D01*
X108870771Y-92822044D02*
X108775533Y-92869663D01*
X108775533Y-92869663D02*
X108632676Y-92869663D01*
X108632676Y-92869663D02*
X108537438Y-92822044D01*
X108537438Y-92822044D02*
X108489819Y-92774424D01*
X108156485Y-92202996D02*
X107775533Y-92202996D01*
X108013628Y-91869663D02*
X108013628Y-92726805D01*
X108013628Y-92726805D02*
X107966009Y-92822044D01*
X107966009Y-92822044D02*
X107870771Y-92869663D01*
X107870771Y-92869663D02*
X107775533Y-92869663D01*
X107061247Y-92822044D02*
X107156485Y-92869663D01*
X107156485Y-92869663D02*
X107346961Y-92869663D01*
X107346961Y-92869663D02*
X107442199Y-92822044D01*
X107442199Y-92822044D02*
X107489818Y-92726805D01*
X107489818Y-92726805D02*
X107489818Y-92345853D01*
X107489818Y-92345853D02*
X107442199Y-92250615D01*
X107442199Y-92250615D02*
X107346961Y-92202996D01*
X107346961Y-92202996D02*
X107156485Y-92202996D01*
X107156485Y-92202996D02*
X107061247Y-92250615D01*
X107061247Y-92250615D02*
X107013628Y-92345853D01*
X107013628Y-92345853D02*
X107013628Y-92441091D01*
X107013628Y-92441091D02*
X107489818Y-92536329D01*
X105870770Y-92822044D02*
X105727913Y-92869663D01*
X105727913Y-92869663D02*
X105489818Y-92869663D01*
X105489818Y-92869663D02*
X105394580Y-92822044D01*
X105394580Y-92822044D02*
X105346961Y-92774424D01*
X105346961Y-92774424D02*
X105299342Y-92679186D01*
X105299342Y-92679186D02*
X105299342Y-92583948D01*
X105299342Y-92583948D02*
X105346961Y-92488710D01*
X105346961Y-92488710D02*
X105394580Y-92441091D01*
X105394580Y-92441091D02*
X105489818Y-92393472D01*
X105489818Y-92393472D02*
X105680294Y-92345853D01*
X105680294Y-92345853D02*
X105775532Y-92298234D01*
X105775532Y-92298234D02*
X105823151Y-92250615D01*
X105823151Y-92250615D02*
X105870770Y-92155377D01*
X105870770Y-92155377D02*
X105870770Y-92060139D01*
X105870770Y-92060139D02*
X105823151Y-91964901D01*
X105823151Y-91964901D02*
X105775532Y-91917282D01*
X105775532Y-91917282D02*
X105680294Y-91869663D01*
X105680294Y-91869663D02*
X105442199Y-91869663D01*
X105442199Y-91869663D02*
X105299342Y-91917282D01*
X104966008Y-91869663D02*
X104727913Y-92869663D01*
X104727913Y-92869663D02*
X104537437Y-92155377D01*
X104537437Y-92155377D02*
X104346961Y-92869663D01*
X104346961Y-92869663D02*
X104108866Y-91869663D01*
X131307717Y-86937438D02*
X131355336Y-87032676D01*
X131355336Y-87032676D02*
X131355336Y-87175533D01*
X131355336Y-87175533D02*
X131307717Y-87318390D01*
X131307717Y-87318390D02*
X131212479Y-87413628D01*
X131212479Y-87413628D02*
X131117241Y-87461247D01*
X131117241Y-87461247D02*
X130926765Y-87508866D01*
X130926765Y-87508866D02*
X130783908Y-87508866D01*
X130783908Y-87508866D02*
X130593432Y-87461247D01*
X130593432Y-87461247D02*
X130498194Y-87413628D01*
X130498194Y-87413628D02*
X130402956Y-87318390D01*
X130402956Y-87318390D02*
X130355336Y-87175533D01*
X130355336Y-87175533D02*
X130355336Y-87080295D01*
X130355336Y-87080295D02*
X130402956Y-86937438D01*
X130402956Y-86937438D02*
X130450575Y-86889819D01*
X130450575Y-86889819D02*
X130783908Y-86889819D01*
X130783908Y-86889819D02*
X130783908Y-87080295D01*
X127815336Y-86889819D02*
X128291527Y-87223152D01*
X127815336Y-87461247D02*
X128815336Y-87461247D01*
X128815336Y-87461247D02*
X128815336Y-87080295D01*
X128815336Y-87080295D02*
X128767717Y-86985057D01*
X128767717Y-86985057D02*
X128720098Y-86937438D01*
X128720098Y-86937438D02*
X128624860Y-86889819D01*
X128624860Y-86889819D02*
X128482003Y-86889819D01*
X128482003Y-86889819D02*
X128386765Y-86937438D01*
X128386765Y-86937438D02*
X128339146Y-86985057D01*
X128339146Y-86985057D02*
X128291527Y-87080295D01*
X128291527Y-87080295D02*
X128291527Y-87461247D01*
X129092956Y-87599343D02*
X129092956Y-86799343D01*
X125322956Y-87508866D02*
X125275336Y-87366009D01*
X125275336Y-87366009D02*
X125275336Y-87127914D01*
X125275336Y-87127914D02*
X125322956Y-87032676D01*
X125322956Y-87032676D02*
X125370575Y-86985057D01*
X125370575Y-86985057D02*
X125465813Y-86937438D01*
X125465813Y-86937438D02*
X125561051Y-86937438D01*
X125561051Y-86937438D02*
X125656289Y-86985057D01*
X125656289Y-86985057D02*
X125703908Y-87032676D01*
X125703908Y-87032676D02*
X125751527Y-87127914D01*
X125751527Y-87127914D02*
X125799146Y-87318390D01*
X125799146Y-87318390D02*
X125846765Y-87413628D01*
X125846765Y-87413628D02*
X125894384Y-87461247D01*
X125894384Y-87461247D02*
X125989622Y-87508866D01*
X125989622Y-87508866D02*
X126084860Y-87508866D01*
X126084860Y-87508866D02*
X126180098Y-87461247D01*
X126180098Y-87461247D02*
X126227717Y-87413628D01*
X126227717Y-87413628D02*
X126275336Y-87318390D01*
X126275336Y-87318390D02*
X126275336Y-87080295D01*
X126275336Y-87080295D02*
X126227717Y-86937438D01*
X123745336Y-87556485D02*
X123745336Y-86937438D01*
X123745336Y-86937438D02*
X123364384Y-87270771D01*
X123364384Y-87270771D02*
X123364384Y-87127914D01*
X123364384Y-87127914D02*
X123316765Y-87032676D01*
X123316765Y-87032676D02*
X123269146Y-86985057D01*
X123269146Y-86985057D02*
X123173908Y-86937438D01*
X123173908Y-86937438D02*
X122935813Y-86937438D01*
X122935813Y-86937438D02*
X122840575Y-86985057D01*
X122840575Y-86985057D02*
X122792956Y-87032676D01*
X122792956Y-87032676D02*
X122745336Y-87127914D01*
X122745336Y-87127914D02*
X122745336Y-87413628D01*
X122745336Y-87413628D02*
X122792956Y-87508866D01*
X122792956Y-87508866D02*
X122840575Y-87556485D01*
X95033333Y-86554663D02*
X95033333Y-87268948D01*
X95033333Y-87268948D02*
X95080952Y-87411805D01*
X95080952Y-87411805D02*
X95176190Y-87507044D01*
X95176190Y-87507044D02*
X95319047Y-87554663D01*
X95319047Y-87554663D02*
X95414285Y-87554663D01*
X94604761Y-86649901D02*
X94557142Y-86602282D01*
X94557142Y-86602282D02*
X94461904Y-86554663D01*
X94461904Y-86554663D02*
X94223809Y-86554663D01*
X94223809Y-86554663D02*
X94128571Y-86602282D01*
X94128571Y-86602282D02*
X94080952Y-86649901D01*
X94080952Y-86649901D02*
X94033333Y-86745139D01*
X94033333Y-86745139D02*
X94033333Y-86840377D01*
X94033333Y-86840377D02*
X94080952Y-86983234D01*
X94080952Y-86983234D02*
X94652380Y-87554663D01*
X94652380Y-87554663D02*
X94033333Y-87554663D01*
X144133333Y-112454663D02*
X144133333Y-113168948D01*
X144133333Y-113168948D02*
X144180952Y-113311805D01*
X144180952Y-113311805D02*
X144276190Y-113407044D01*
X144276190Y-113407044D02*
X144419047Y-113454663D01*
X144419047Y-113454663D02*
X144514285Y-113454663D01*
X143752380Y-112454663D02*
X143133333Y-112454663D01*
X143133333Y-112454663D02*
X143466666Y-112835615D01*
X143466666Y-112835615D02*
X143323809Y-112835615D01*
X143323809Y-112835615D02*
X143228571Y-112883234D01*
X143228571Y-112883234D02*
X143180952Y-112930853D01*
X143180952Y-112930853D02*
X143133333Y-113026091D01*
X143133333Y-113026091D02*
X143133333Y-113264186D01*
X143133333Y-113264186D02*
X143180952Y-113359424D01*
X143180952Y-113359424D02*
X143228571Y-113407044D01*
X143228571Y-113407044D02*
X143323809Y-113454663D01*
X143323809Y-113454663D02*
X143609523Y-113454663D01*
X143609523Y-113454663D02*
X143704761Y-113407044D01*
X143704761Y-113407044D02*
X143752380Y-113359424D01*
D12*
%TO.C,G\u002A\u002A\u002A*%
G36*
X144632490Y-91029218D02*
G01*
X144635491Y-91049059D01*
X144643250Y-91104310D01*
X144647767Y-91146894D01*
X144648864Y-91179141D01*
X144646362Y-91203382D01*
X144640082Y-91221950D01*
X144629845Y-91237175D01*
X144615474Y-91251388D01*
X144599354Y-91262973D01*
X144564017Y-91275217D01*
X144526877Y-91273782D01*
X144491427Y-91259114D01*
X144461163Y-91231660D01*
X144444913Y-91211001D01*
X144440826Y-91237500D01*
X144423219Y-91350081D01*
X144403625Y-91470707D01*
X144385066Y-91578928D01*
X144367126Y-91676638D01*
X144349390Y-91765734D01*
X144331440Y-91848112D01*
X144312861Y-91925667D01*
X144293236Y-92000296D01*
X144272149Y-92073893D01*
X144249185Y-92148356D01*
X144223927Y-92225580D01*
X144214059Y-92254905D01*
X144193523Y-92314676D01*
X144176564Y-92361599D01*
X144162420Y-92397407D01*
X144150326Y-92423830D01*
X144139518Y-92442601D01*
X144129233Y-92455451D01*
X144118706Y-92464112D01*
X144105702Y-92471294D01*
X144069773Y-92480697D01*
X144033079Y-92478144D01*
X144000115Y-92464385D01*
X143975377Y-92440171D01*
X143973785Y-92437471D01*
X143965317Y-92416935D01*
X143956316Y-92387240D01*
X143948483Y-92353838D01*
X143935456Y-92288669D01*
X143876682Y-92376334D01*
X143851131Y-92413768D01*
X143729444Y-92575413D01*
X143597490Y-92724909D01*
X143455435Y-92862097D01*
X143303440Y-92986814D01*
X143141670Y-93098901D01*
X143093255Y-93128662D01*
X143045734Y-93154649D01*
X143002044Y-93173754D01*
X142957589Y-93187661D01*
X142907773Y-93198056D01*
X142848000Y-93206626D01*
X142812724Y-93209579D01*
X142778438Y-93207179D01*
X142751013Y-93197021D01*
X142725988Y-93178061D01*
X142714353Y-93165607D01*
X142705175Y-93150158D01*
X142700137Y-93130969D01*
X142699170Y-93105680D01*
X142702207Y-93071930D01*
X142709181Y-93027360D01*
X142720024Y-92969609D01*
X142728160Y-92927244D01*
X142738663Y-92870278D01*
X142748703Y-92813476D01*
X142757925Y-92759062D01*
X142765971Y-92709257D01*
X142772485Y-92666286D01*
X142777109Y-92632369D01*
X142779487Y-92609731D01*
X142779262Y-92600594D01*
X142778196Y-92600210D01*
X142765554Y-92599999D01*
X142742153Y-92601442D01*
X142711998Y-92604315D01*
X142709202Y-92604620D01*
X142583726Y-92617320D01*
X142446178Y-92629526D01*
X142300396Y-92640956D01*
X142150214Y-92651325D01*
X141999470Y-92660351D01*
X141852000Y-92667750D01*
X141787487Y-92670108D01*
X141708870Y-92672069D01*
X141619483Y-92673602D01*
X141521954Y-92674705D01*
X141418911Y-92675379D01*
X141312983Y-92675623D01*
X141206798Y-92675435D01*
X141102984Y-92674815D01*
X141004169Y-92673764D01*
X140912981Y-92672279D01*
X140832049Y-92670361D01*
X140764000Y-92668008D01*
X140752883Y-92667530D01*
X140675346Y-92663828D01*
X140591484Y-92659263D01*
X140503325Y-92653986D01*
X140412896Y-92648150D01*
X140322225Y-92641907D01*
X140233340Y-92635409D01*
X140148268Y-92628808D01*
X140069037Y-92622255D01*
X139997675Y-92615903D01*
X139936209Y-92609904D01*
X139886668Y-92604410D01*
X139851078Y-92599573D01*
X139822156Y-92594957D01*
X139837172Y-92693425D01*
X139839356Y-92707489D01*
X139847235Y-92755827D01*
X139856794Y-92811931D01*
X139867020Y-92869929D01*
X139876900Y-92923946D01*
X139886006Y-92973153D01*
X139895794Y-93029241D01*
X139902211Y-93073079D01*
X139905169Y-93106655D01*
X139904578Y-93131959D01*
X139900349Y-93150977D01*
X139892394Y-93165699D01*
X139880622Y-93178113D01*
X139864944Y-93190207D01*
X139851465Y-93198541D01*
X139834768Y-93204218D01*
X139812177Y-93206476D01*
X139778678Y-93206247D01*
X139729638Y-93203553D01*
X139675732Y-93196234D01*
X139625280Y-93183291D01*
X139574458Y-93163438D01*
X139519446Y-93135389D01*
X139456420Y-93097859D01*
X139379665Y-93047535D01*
X139232885Y-92937685D01*
X139092589Y-92814388D01*
X138960048Y-92678896D01*
X138836534Y-92532461D01*
X138723319Y-92376334D01*
X138664545Y-92288669D01*
X138651518Y-92353838D01*
X138647507Y-92372735D01*
X138636258Y-92412837D01*
X138622701Y-92441018D01*
X138605110Y-92460236D01*
X138581759Y-92473452D01*
X138574544Y-92476215D01*
X138535377Y-92482396D01*
X138499286Y-92473568D01*
X138468184Y-92450555D01*
X138443985Y-92414180D01*
X138442484Y-92410909D01*
X138430920Y-92382558D01*
X138416028Y-92342140D01*
X138398734Y-92292507D01*
X138379967Y-92236510D01*
X138360655Y-92177000D01*
X138341725Y-92116828D01*
X138324104Y-92058846D01*
X138308721Y-92005905D01*
X138296502Y-91960857D01*
X138291622Y-91941608D01*
X138271442Y-91856843D01*
X138250796Y-91762706D01*
X138230477Y-91663327D01*
X138211284Y-91562837D01*
X138194010Y-91465366D01*
X138179453Y-91375043D01*
X138168406Y-91296000D01*
X138166789Y-91283628D01*
X138162665Y-91255254D01*
X138159015Y-91233788D01*
X138154636Y-91211576D01*
X138138612Y-91231948D01*
X138124277Y-91247276D01*
X138091004Y-91268212D01*
X138054262Y-91276174D01*
X138017590Y-91270715D01*
X137984527Y-91251388D01*
X137979670Y-91246997D01*
X137966585Y-91232721D01*
X137957581Y-91216719D01*
X137952479Y-91196660D01*
X137951099Y-91170211D01*
X137953263Y-91135042D01*
X137958794Y-91088822D01*
X137967511Y-91029218D01*
X137995086Y-90865059D01*
X138205563Y-90865059D01*
X138207757Y-90870835D01*
X138212349Y-90871980D01*
X138219207Y-90870525D01*
X138224573Y-90869649D01*
X138249118Y-90873360D01*
X138276514Y-90885800D01*
X138301223Y-90903921D01*
X138317701Y-90924677D01*
X138321629Y-90935486D01*
X138328388Y-90963514D01*
X138335993Y-91004232D01*
X138344093Y-91055705D01*
X138352336Y-91116000D01*
X138361607Y-91186286D01*
X138385642Y-91351658D01*
X138411793Y-91509941D01*
X138439653Y-91658910D01*
X138468818Y-91796338D01*
X138498880Y-91920000D01*
X138513540Y-91976000D01*
X138525801Y-91947343D01*
X138530266Y-91937860D01*
X138554704Y-91905165D01*
X138586254Y-91885735D01*
X138622748Y-91880476D01*
X138662018Y-91890298D01*
X138664706Y-91891500D01*
X138678195Y-91898434D01*
X138689513Y-91907160D01*
X138700503Y-91920193D01*
X138713007Y-91940049D01*
X138728867Y-91969243D01*
X138749926Y-92010288D01*
X138783792Y-92074767D01*
X138882424Y-92241037D01*
X138991581Y-92396250D01*
X139110791Y-92539865D01*
X139239579Y-92671340D01*
X139377473Y-92790134D01*
X139524000Y-92895706D01*
X139530043Y-92899662D01*
X139580350Y-92932065D01*
X139620939Y-92957197D01*
X139650969Y-92974570D01*
X139669603Y-92983697D01*
X139676000Y-92984090D01*
X139675883Y-92982887D01*
X139673902Y-92969451D01*
X139669773Y-92943369D01*
X139663886Y-92907048D01*
X139656631Y-92862899D01*
X139648396Y-92813330D01*
X139618209Y-92619082D01*
X139585094Y-92363988D01*
X139559044Y-92108335D01*
X139540262Y-91854996D01*
X139528953Y-91606845D01*
X139525319Y-91366755D01*
X139529565Y-91137599D01*
X139534707Y-90998849D01*
X139736000Y-90998849D01*
X139736115Y-91363424D01*
X139736157Y-91405623D01*
X139736596Y-91510867D01*
X139737617Y-91604252D01*
X139739356Y-91688802D01*
X139741945Y-91767544D01*
X139745520Y-91843501D01*
X139750214Y-91919701D01*
X139756162Y-91999166D01*
X139763498Y-92084924D01*
X139772357Y-92180000D01*
X139774997Y-92207657D01*
X139780394Y-92264075D01*
X139784829Y-92307187D01*
X139788844Y-92338833D01*
X139792980Y-92360853D01*
X139797778Y-92375085D01*
X139803780Y-92383371D01*
X139811527Y-92387550D01*
X139821561Y-92389461D01*
X139834422Y-92390944D01*
X139844274Y-92392203D01*
X139906931Y-92399422D01*
X139982502Y-92407057D01*
X140068385Y-92414911D01*
X140161982Y-92422787D01*
X140260694Y-92430487D01*
X140361922Y-92437817D01*
X140463065Y-92444578D01*
X140561526Y-92450574D01*
X140654704Y-92455608D01*
X140740000Y-92459484D01*
X140974684Y-92467150D01*
X141314637Y-92471576D01*
X141647773Y-92467567D01*
X141978216Y-92455002D01*
X142310091Y-92433760D01*
X142647524Y-92403721D01*
X142657336Y-92402728D01*
X142704969Y-92397813D01*
X142746335Y-92393395D01*
X142779021Y-92389743D01*
X142800611Y-92387125D01*
X142808693Y-92385810D01*
X142808776Y-92385659D01*
X142810314Y-92375814D01*
X142812851Y-92352640D01*
X142816179Y-92318541D01*
X142820091Y-92275922D01*
X142824379Y-92227190D01*
X142828833Y-92174748D01*
X142833246Y-92121003D01*
X142837410Y-92068360D01*
X142841117Y-92019224D01*
X142844158Y-91976000D01*
X142845070Y-91961728D01*
X142848233Y-91902411D01*
X142851256Y-91831432D01*
X142854078Y-91751556D01*
X142856642Y-91665548D01*
X142858887Y-91576172D01*
X142860755Y-91486193D01*
X142862187Y-91398375D01*
X142863123Y-91315482D01*
X142863504Y-91240278D01*
X142863272Y-91175530D01*
X142862368Y-91124000D01*
X142858356Y-90984000D01*
X142802085Y-90898000D01*
X142799022Y-90893342D01*
X142777172Y-90861582D01*
X142757772Y-90835737D01*
X142742830Y-90818359D01*
X142734356Y-90812000D01*
X142732015Y-90813280D01*
X142729705Y-90818841D01*
X142727864Y-90830019D01*
X142726462Y-90848110D01*
X142725464Y-90874413D01*
X142724841Y-90910225D01*
X142724560Y-90956845D01*
X142724589Y-91015570D01*
X142724896Y-91087698D01*
X142725306Y-91152000D01*
X142725449Y-91174526D01*
X142728000Y-91537053D01*
X142703673Y-91576526D01*
X142679887Y-91607400D01*
X142643673Y-91636000D01*
X142608000Y-91656000D01*
X142352000Y-91656000D01*
X142311579Y-91655992D01*
X142248662Y-91655895D01*
X142198880Y-91655593D01*
X142160381Y-91654970D01*
X142131309Y-91653911D01*
X142109811Y-91652303D01*
X142094031Y-91650030D01*
X142082117Y-91646977D01*
X142072212Y-91643030D01*
X142062464Y-91638073D01*
X142038562Y-91622356D01*
X142004037Y-91585792D01*
X141981105Y-91540806D01*
X141978535Y-91526604D01*
X141976166Y-91496567D01*
X141974334Y-91451403D01*
X141973034Y-91390897D01*
X141972258Y-91314831D01*
X141972000Y-91222990D01*
X141972000Y-91180000D01*
X142180000Y-91180000D01*
X142180000Y-91452000D01*
X142352000Y-91452000D01*
X142524000Y-91452000D01*
X142524000Y-91152000D01*
X142523970Y-91082432D01*
X142523822Y-91018111D01*
X142523485Y-90966962D01*
X142522891Y-90927490D01*
X142521969Y-90898198D01*
X142520650Y-90877592D01*
X142518863Y-90864176D01*
X142516539Y-90856453D01*
X142513608Y-90852928D01*
X142510000Y-90852106D01*
X142509768Y-90852111D01*
X142497108Y-90853674D01*
X142471552Y-90857712D01*
X142435803Y-90863769D01*
X142392566Y-90871386D01*
X142344542Y-90880106D01*
X142340896Y-90880777D01*
X142293802Y-90889381D01*
X142252280Y-90896854D01*
X142218870Y-90902747D01*
X142196110Y-90906612D01*
X142186542Y-90908000D01*
X142185336Y-90912662D01*
X142183890Y-90931492D01*
X142182607Y-90963062D01*
X142181533Y-91005534D01*
X142180711Y-91057073D01*
X142180186Y-91115840D01*
X142180000Y-91180000D01*
X141972000Y-91180000D01*
X141972000Y-90932368D01*
X141952690Y-90919715D01*
X141950043Y-90917911D01*
X141926124Y-90892389D01*
X141913287Y-90860329D01*
X141911227Y-90825605D01*
X141919635Y-90792096D01*
X141938202Y-90763675D01*
X141966623Y-90744219D01*
X141967291Y-90743963D01*
X141982224Y-90739985D01*
X142010824Y-90733693D01*
X142051181Y-90725462D01*
X142101387Y-90715664D01*
X142159531Y-90704673D01*
X142223706Y-90692861D01*
X142292000Y-90680603D01*
X142301306Y-90678952D01*
X142368437Y-90666943D01*
X142430663Y-90655643D01*
X142486174Y-90645394D01*
X142533160Y-90636537D01*
X142569813Y-90629410D01*
X142594324Y-90624356D01*
X142604882Y-90621715D01*
X142608140Y-90618174D01*
X142607512Y-90609858D01*
X142601534Y-90595243D01*
X142589334Y-90572570D01*
X142570044Y-90540075D01*
X142542793Y-90496000D01*
X142380722Y-90228148D01*
X142220643Y-89946226D01*
X142070737Y-89664000D01*
X142069319Y-89661232D01*
X142043567Y-89611262D01*
X142020396Y-89566800D01*
X142000739Y-89529600D01*
X141985528Y-89501410D01*
X141975698Y-89483984D01*
X141972181Y-89479070D01*
X141971625Y-89487418D01*
X141969978Y-89509804D01*
X141967406Y-89543944D01*
X141964074Y-89587656D01*
X141960148Y-89638759D01*
X141955793Y-89695070D01*
X141939828Y-89883581D01*
X141916438Y-90112512D01*
X141889798Y-90326911D01*
X141859947Y-90526486D01*
X141826927Y-90710947D01*
X141790778Y-90880000D01*
X141779068Y-90929013D01*
X141767665Y-90972586D01*
X141757255Y-91005485D01*
X141746678Y-91030382D01*
X141734776Y-91049948D01*
X141720389Y-91066855D01*
X141702358Y-91083774D01*
X141678523Y-91102410D01*
X141650240Y-91117501D01*
X141618394Y-91126065D01*
X141580066Y-91128519D01*
X141532333Y-91125284D01*
X141472274Y-91116778D01*
X141435842Y-91111174D01*
X141364597Y-91103094D01*
X141300452Y-91100671D01*
X141238043Y-91103829D01*
X141172000Y-91112490D01*
X141171933Y-91112501D01*
X141093643Y-91122516D01*
X141028125Y-91124566D01*
X140974123Y-91118383D01*
X140930383Y-91103700D01*
X140895649Y-91080249D01*
X140868667Y-91047762D01*
X140867803Y-91046372D01*
X140853479Y-91016133D01*
X140838130Y-90971421D01*
X140821974Y-90913626D01*
X140805235Y-90844137D01*
X140788131Y-90764345D01*
X140770885Y-90675638D01*
X140753717Y-90579406D01*
X140736849Y-90477039D01*
X140720500Y-90369927D01*
X140704892Y-90259459D01*
X140690246Y-90147025D01*
X140676782Y-90034014D01*
X140664722Y-89921817D01*
X140654286Y-89811822D01*
X140645696Y-89705420D01*
X140639172Y-89604000D01*
X140639073Y-89602213D01*
X140636539Y-89562803D01*
X140633710Y-89528480D01*
X140630925Y-89502877D01*
X140628520Y-89489625D01*
X140628294Y-89489136D01*
X140623611Y-89490691D01*
X140613919Y-89503472D01*
X140598842Y-89528122D01*
X140578005Y-89565284D01*
X140551031Y-89615602D01*
X140517547Y-89679718D01*
X140507160Y-89699760D01*
X140385638Y-89929821D01*
X140267888Y-90144472D01*
X140153847Y-90343827D01*
X140043451Y-90528000D01*
X140039866Y-90533860D01*
X140020633Y-90566447D01*
X140005747Y-90593608D01*
X139996622Y-90612652D01*
X139994673Y-90620888D01*
X139995240Y-90621170D01*
X140007029Y-90624128D01*
X140032490Y-90629442D01*
X140069882Y-90636781D01*
X140117468Y-90645813D01*
X140173509Y-90656207D01*
X140236266Y-90667634D01*
X140304000Y-90679762D01*
X140314378Y-90681608D01*
X140382628Y-90693923D01*
X140446474Y-90705732D01*
X140504023Y-90716663D01*
X140553382Y-90726347D01*
X140592657Y-90734412D01*
X140619953Y-90740488D01*
X140633378Y-90744205D01*
X140636222Y-90745440D01*
X140663807Y-90765844D01*
X140681508Y-90794874D01*
X140689016Y-90828652D01*
X140686025Y-90863303D01*
X140672226Y-90894950D01*
X140647311Y-90919715D01*
X140628000Y-90932368D01*
X140628000Y-91180000D01*
X140628000Y-91222990D01*
X140627796Y-91305642D01*
X140627077Y-91383407D01*
X140625833Y-91445590D01*
X140624059Y-91492406D01*
X140621749Y-91524073D01*
X140618896Y-91540806D01*
X140607268Y-91567566D01*
X140577240Y-91608176D01*
X140537537Y-91638073D01*
X140532140Y-91640903D01*
X140522536Y-91645296D01*
X140511768Y-91648742D01*
X140497980Y-91651356D01*
X140479319Y-91653254D01*
X140453929Y-91654548D01*
X140419956Y-91655355D01*
X140375547Y-91655790D01*
X140318847Y-91655966D01*
X140248000Y-91656000D01*
X139992000Y-91656000D01*
X139956328Y-91636000D01*
X139927142Y-91614365D01*
X139896328Y-91576533D01*
X139872000Y-91537066D01*
X139874677Y-91174533D01*
X139874818Y-91152000D01*
X140076000Y-91152000D01*
X140076000Y-91452000D01*
X140248000Y-91452000D01*
X140420000Y-91452000D01*
X140420000Y-91180000D01*
X140419898Y-91129876D01*
X140419482Y-91069731D01*
X140418786Y-91016401D01*
X140417849Y-90971723D01*
X140416712Y-90937533D01*
X140415416Y-90915668D01*
X140414000Y-90907967D01*
X140413587Y-90907938D01*
X140402234Y-90906210D01*
X140377978Y-90902115D01*
X140343318Y-90896087D01*
X140300749Y-90888560D01*
X140252769Y-90879967D01*
X140246758Y-90878885D01*
X140198862Y-90870373D01*
X140156318Y-90862991D01*
X140121724Y-90857176D01*
X140097675Y-90853367D01*
X140086769Y-90852000D01*
X140085310Y-90852563D01*
X140082730Y-90857723D01*
X140080653Y-90869391D01*
X140079029Y-90888923D01*
X140077809Y-90917675D01*
X140076945Y-90957003D01*
X140076388Y-91008262D01*
X140076089Y-91072809D01*
X140076000Y-91152000D01*
X139874818Y-91152000D01*
X139874976Y-91126747D01*
X139875206Y-91051347D01*
X139875105Y-90983840D01*
X139874691Y-90925579D01*
X139873979Y-90877914D01*
X139872986Y-90842195D01*
X139871729Y-90819774D01*
X139870224Y-90812000D01*
X139868751Y-90812797D01*
X139859260Y-90823164D01*
X139843360Y-90843647D01*
X139822855Y-90871862D01*
X139799547Y-90905424D01*
X139736000Y-90998849D01*
X139534707Y-90998849D01*
X139537510Y-90923198D01*
X139593901Y-90841411D01*
X139650292Y-90759624D01*
X139631146Y-90737365D01*
X139631032Y-90737232D01*
X139616078Y-90708436D01*
X139612607Y-90674308D01*
X139619667Y-90639554D01*
X139636306Y-90608879D01*
X139661572Y-90586988D01*
X139671514Y-90583370D01*
X139696045Y-90579213D01*
X139724591Y-90578059D01*
X139769182Y-90579163D01*
X139837482Y-90469581D01*
X139896842Y-90373008D01*
X139958061Y-90270564D01*
X140020441Y-90163216D01*
X140084645Y-90049747D01*
X140151337Y-89928942D01*
X140221180Y-89799584D01*
X140294839Y-89660457D01*
X140372977Y-89510345D01*
X140456256Y-89348031D01*
X140545342Y-89172300D01*
X140557480Y-89148335D01*
X140589393Y-89086613D01*
X140615423Y-89038508D01*
X140636008Y-89003262D01*
X140651586Y-88980113D01*
X140662592Y-88968300D01*
X140684532Y-88957208D01*
X140719327Y-88952466D01*
X140754577Y-88959306D01*
X140785561Y-88976592D01*
X140807559Y-89003187D01*
X140812165Y-89018984D01*
X140816677Y-89050806D01*
X140820490Y-89096797D01*
X140823506Y-89156000D01*
X140830002Y-89307220D01*
X140839864Y-89496045D01*
X140851297Y-89672466D01*
X140864499Y-89838510D01*
X140879672Y-89996202D01*
X140897012Y-90147571D01*
X140916722Y-90294642D01*
X140938999Y-90439443D01*
X140964043Y-90584000D01*
X140968884Y-90610059D01*
X140978693Y-90660776D01*
X140989217Y-90712986D01*
X140999918Y-90764233D01*
X141010261Y-90812058D01*
X141019709Y-90854004D01*
X141027728Y-90887614D01*
X141033780Y-90910430D01*
X141037329Y-90919995D01*
X141037582Y-90920134D01*
X141047915Y-90920005D01*
X141070570Y-90917667D01*
X141102435Y-90913487D01*
X141140396Y-90907832D01*
X141149051Y-90906496D01*
X141235083Y-90896132D01*
X141313551Y-90892939D01*
X141390621Y-90896919D01*
X141472460Y-90908078D01*
X141472651Y-90908111D01*
X141509264Y-90914177D01*
X141539544Y-90918832D01*
X141560350Y-90921619D01*
X141568541Y-90922078D01*
X141569830Y-90917952D01*
X141574179Y-90900552D01*
X141580914Y-90872000D01*
X141589415Y-90834935D01*
X141599063Y-90792000D01*
X141610647Y-90738551D01*
X141639041Y-90593936D01*
X141664986Y-90440607D01*
X141688600Y-90277534D01*
X141710005Y-90103690D01*
X141729320Y-89918043D01*
X141746666Y-89719565D01*
X141762164Y-89507227D01*
X141775934Y-89280000D01*
X141776644Y-89267173D01*
X141780038Y-89207857D01*
X141783314Y-89153581D01*
X141786327Y-89106530D01*
X141788935Y-89068894D01*
X141790992Y-89042860D01*
X141792355Y-89030616D01*
X141796292Y-89018820D01*
X141813812Y-88992465D01*
X141839377Y-88969520D01*
X141867885Y-88955089D01*
X141872033Y-88953880D01*
X141892134Y-88950170D01*
X141910388Y-88952987D01*
X141934519Y-88963282D01*
X141941880Y-88966788D01*
X141951478Y-88971664D01*
X141959727Y-88977358D01*
X141967636Y-88985583D01*
X141976214Y-88998050D01*
X141986468Y-89016475D01*
X141999407Y-89042569D01*
X142016038Y-89078046D01*
X142037369Y-89124618D01*
X142064410Y-89184000D01*
X142091926Y-89243535D01*
X142161449Y-89387850D01*
X142238745Y-89540886D01*
X142322340Y-89699962D01*
X142410760Y-89862392D01*
X142502529Y-90025495D01*
X142596173Y-90186586D01*
X142690217Y-90342982D01*
X142783188Y-90492000D01*
X142836659Y-90576000D01*
X142878439Y-90576706D01*
X142893078Y-90577476D01*
X142919875Y-90581347D01*
X142938538Y-90587217D01*
X142962012Y-90607126D01*
X142979043Y-90637166D01*
X142987072Y-90671683D01*
X142984995Y-90705777D01*
X142971710Y-90734551D01*
X142955420Y-90755261D01*
X143009710Y-90836841D01*
X143064000Y-90918421D01*
X143063659Y-91240278D01*
X143063533Y-91359210D01*
X143063139Y-91464567D01*
X143060966Y-91642329D01*
X143056759Y-91807914D01*
X143050342Y-91963712D01*
X143041538Y-92112114D01*
X143030173Y-92255512D01*
X143016070Y-92396297D01*
X142999054Y-92536859D01*
X142978947Y-92679589D01*
X142955576Y-92826880D01*
X142955559Y-92826982D01*
X142948026Y-92873429D01*
X142941809Y-92914202D01*
X142937261Y-92946777D01*
X142934733Y-92968632D01*
X142934578Y-92977244D01*
X142943450Y-92975921D01*
X142963235Y-92966299D01*
X142991901Y-92949608D01*
X143027484Y-92927154D01*
X143068020Y-92900241D01*
X143111545Y-92870173D01*
X143156096Y-92838254D01*
X143199708Y-92805790D01*
X143240417Y-92774084D01*
X143268036Y-92751600D01*
X143404831Y-92627933D01*
X143531469Y-92491922D01*
X143647914Y-92343613D01*
X143754128Y-92183053D01*
X143850075Y-92010288D01*
X143854169Y-92002233D01*
X143874198Y-91963417D01*
X143889345Y-91936018D01*
X143901455Y-91917522D01*
X143912370Y-91905413D01*
X143923932Y-91897177D01*
X143937983Y-91890298D01*
X143947316Y-91886597D01*
X143986130Y-91880389D01*
X144021661Y-91889049D01*
X144051741Y-91911669D01*
X144074204Y-91947343D01*
X144086469Y-91976000D01*
X144109120Y-91888000D01*
X144134312Y-91783064D01*
X144160205Y-91660636D01*
X144185365Y-91527049D01*
X144209351Y-91384769D01*
X144231725Y-91236263D01*
X144252049Y-91084000D01*
X144254186Y-91067413D01*
X144261456Y-91017531D01*
X144268907Y-90975265D01*
X144276010Y-90943389D01*
X144282241Y-90924677D01*
X144285751Y-90918691D01*
X144305114Y-90898270D01*
X144330927Y-90881751D01*
X144357769Y-90872047D01*
X144380217Y-90872068D01*
X144383702Y-90873128D01*
X144389850Y-90873963D01*
X144393577Y-90871036D01*
X144394764Y-90862360D01*
X144393291Y-90845947D01*
X144389040Y-90819809D01*
X144381891Y-90781957D01*
X144371725Y-90730404D01*
X144336285Y-90564120D01*
X144289877Y-90378243D01*
X144238160Y-90203336D01*
X144180327Y-90036915D01*
X144115569Y-89876499D01*
X144043081Y-89719604D01*
X144025449Y-89683045D01*
X144007301Y-89643793D01*
X143992906Y-89610826D01*
X143983420Y-89586808D01*
X143980000Y-89574403D01*
X143980356Y-89570847D01*
X143983783Y-89552554D01*
X143990383Y-89522319D01*
X143999585Y-89482634D01*
X144010817Y-89435989D01*
X144023507Y-89384874D01*
X144066017Y-89207319D01*
X144107317Y-89016423D01*
X144144723Y-88824041D01*
X144177209Y-88635468D01*
X144203747Y-88456000D01*
X144206184Y-88437842D01*
X144212017Y-88394453D01*
X144217192Y-88356069D01*
X144221220Y-88326309D01*
X144223614Y-88308790D01*
X144227387Y-88281581D01*
X144021694Y-88286347D01*
X143918547Y-88289725D01*
X143706001Y-88303517D01*
X143503623Y-88326467D01*
X143309209Y-88358856D01*
X143120558Y-88400964D01*
X143103530Y-88405065D01*
X143066954Y-88412443D01*
X143038022Y-88416258D01*
X143020558Y-88415936D01*
X143016744Y-88414632D01*
X142998501Y-88405888D01*
X142970946Y-88390831D01*
X142937103Y-88371154D01*
X142900000Y-88348546D01*
X142869647Y-88329820D01*
X142692309Y-88227805D01*
X142514328Y-88137801D01*
X142336882Y-88060249D01*
X142161149Y-87995590D01*
X141988305Y-87944263D01*
X141819530Y-87906710D01*
X141656000Y-87883370D01*
X141617780Y-87880270D01*
X141530635Y-87877442D01*
X141436000Y-87879429D01*
X141413431Y-87880472D01*
X141373475Y-87882326D01*
X141343027Y-87883613D01*
X141318442Y-87884334D01*
X141296080Y-87884489D01*
X141272297Y-87884079D01*
X141243451Y-87883103D01*
X141205899Y-87881563D01*
X141156000Y-87879458D01*
X141131718Y-87878561D01*
X141051864Y-87877626D01*
X140976956Y-87880486D01*
X140902003Y-87887571D01*
X140822015Y-87899313D01*
X140732000Y-87916145D01*
X140621512Y-87941519D01*
X140463157Y-87987575D01*
X140300885Y-88045312D01*
X140137313Y-88113616D01*
X139975059Y-88191371D01*
X139816741Y-88277463D01*
X139664974Y-88370776D01*
X139655762Y-88376727D01*
X139620986Y-88397182D01*
X139594614Y-88408510D01*
X139573797Y-88412000D01*
X139564978Y-88411382D01*
X139539852Y-88407898D01*
X139504532Y-88401860D01*
X139462397Y-88393860D01*
X139416823Y-88384489D01*
X139321445Y-88365159D01*
X139143220Y-88334230D01*
X138963506Y-88309416D01*
X138786160Y-88291150D01*
X138615039Y-88279868D01*
X138454000Y-88276004D01*
X138428944Y-88276128D01*
X138403094Y-88277047D01*
X138388292Y-88279360D01*
X138381580Y-88283647D01*
X138380000Y-88290487D01*
X138380357Y-88297676D01*
X138382877Y-88322165D01*
X138387513Y-88358734D01*
X138393907Y-88404959D01*
X138401702Y-88458413D01*
X138410540Y-88516670D01*
X138420064Y-88577304D01*
X138429916Y-88637889D01*
X138439739Y-88696000D01*
X138440148Y-88698363D01*
X138457454Y-88795571D01*
X138475826Y-88893007D01*
X138495886Y-88993713D01*
X138518256Y-89100735D01*
X138543556Y-89217115D01*
X138572409Y-89345898D01*
X138584763Y-89400974D01*
X138596198Y-89453134D01*
X138605909Y-89498649D01*
X138613425Y-89535283D01*
X138618279Y-89560799D01*
X138620000Y-89572962D01*
X138617439Y-89583034D01*
X138608737Y-89605749D01*
X138594980Y-89637780D01*
X138577320Y-89676459D01*
X138556908Y-89719119D01*
X138492802Y-89857229D01*
X138427457Y-90016425D01*
X138369183Y-90180722D01*
X138317128Y-90352739D01*
X138270443Y-90535094D01*
X138228276Y-90730404D01*
X138223397Y-90755028D01*
X138214684Y-90799637D01*
X138208896Y-90831491D01*
X138205899Y-90852622D01*
X138205563Y-90865059D01*
X137995086Y-90865059D01*
X138006455Y-90797374D01*
X138052328Y-90570221D01*
X138103769Y-90357168D01*
X138160923Y-90157702D01*
X138223940Y-89971312D01*
X138292965Y-89797485D01*
X138368146Y-89635709D01*
X138377701Y-89616150D01*
X138391240Y-89586241D01*
X138400542Y-89562765D01*
X138404000Y-89549584D01*
X138403131Y-89542800D01*
X138399175Y-89521502D01*
X138392468Y-89488587D01*
X138383497Y-89446383D01*
X138372751Y-89397220D01*
X138360720Y-89343424D01*
X138360358Y-89341825D01*
X138334121Y-89223055D01*
X138308833Y-89103412D01*
X138284746Y-88984391D01*
X138262116Y-88867485D01*
X138241196Y-88754186D01*
X138222240Y-88645990D01*
X138205504Y-88544388D01*
X138191241Y-88450875D01*
X138179704Y-88366943D01*
X138171149Y-88294088D01*
X138165830Y-88233801D01*
X138164000Y-88187576D01*
X138164369Y-88167400D01*
X138167405Y-88145750D01*
X138175500Y-88128951D01*
X138190992Y-88110312D01*
X138217983Y-88080860D01*
X138332992Y-88074551D01*
X138435905Y-88071344D01*
X138563078Y-88072660D01*
X138699687Y-88078914D01*
X138842770Y-88089832D01*
X138989361Y-88105141D01*
X139136496Y-88124570D01*
X139281212Y-88147844D01*
X139420543Y-88174691D01*
X139545086Y-88200896D01*
X139662235Y-88130393D01*
X139770386Y-88067773D01*
X139945110Y-87976463D01*
X140122145Y-87895562D01*
X140299531Y-87825816D01*
X140475310Y-87767973D01*
X140647525Y-87722779D01*
X140814216Y-87690982D01*
X140831855Y-87688385D01*
X140888685Y-87681410D01*
X140946624Y-87676713D01*
X141010619Y-87673964D01*
X141085616Y-87672832D01*
X141101529Y-87672744D01*
X141151666Y-87672336D01*
X141188561Y-87671637D01*
X141214389Y-87670424D01*
X141231327Y-87668476D01*
X141241551Y-87665571D01*
X141247238Y-87661486D01*
X141250562Y-87656000D01*
X141258133Y-87643224D01*
X141273021Y-87621862D01*
X141291424Y-87597632D01*
X141323341Y-87562227D01*
X141384344Y-87511552D01*
X141458072Y-87466438D01*
X141542914Y-87427586D01*
X141637258Y-87395697D01*
X141739491Y-87371473D01*
X141848000Y-87355615D01*
X141883137Y-87352524D01*
X141997004Y-87348589D01*
X142118502Y-87352531D01*
X142243114Y-87363978D01*
X142366325Y-87382559D01*
X142483619Y-87407903D01*
X142494843Y-87410788D01*
X142561623Y-87429488D01*
X142628083Y-87450499D01*
X142692050Y-87472941D01*
X142751351Y-87495934D01*
X142803813Y-87518598D01*
X142847262Y-87540055D01*
X142879527Y-87559424D01*
X142898434Y-87575826D01*
X142904536Y-87584703D01*
X142915889Y-87617439D01*
X142914484Y-87652258D01*
X142901582Y-87685394D01*
X142878443Y-87713080D01*
X142846327Y-87731550D01*
X142833772Y-87735635D01*
X142822407Y-87737670D01*
X142809623Y-87736981D01*
X142792736Y-87732921D01*
X142769059Y-87724843D01*
X142735905Y-87712100D01*
X142690588Y-87694045D01*
X142567628Y-87648254D01*
X142445535Y-87610849D01*
X142327363Y-87583832D01*
X142209519Y-87566534D01*
X142088413Y-87558289D01*
X141960452Y-87558430D01*
X141913046Y-87560286D01*
X141842112Y-87565186D01*
X141780838Y-87572857D01*
X141725276Y-87584000D01*
X141671477Y-87599312D01*
X141615490Y-87619493D01*
X141597924Y-87626421D01*
X141562320Y-87641264D01*
X141541517Y-87652038D01*
X141535288Y-87659603D01*
X141543409Y-87664817D01*
X141565652Y-87668540D01*
X141601794Y-87671630D01*
X141640956Y-87674779D01*
X141820056Y-87698059D01*
X142003145Y-87735974D01*
X142189139Y-87788151D01*
X142376952Y-87854216D01*
X142565499Y-87933797D01*
X142753696Y-88026520D01*
X142940457Y-88132013D01*
X143058666Y-88203157D01*
X143181333Y-88175979D01*
X143184508Y-88175277D01*
X143324066Y-88147010D01*
X143463764Y-88124032D01*
X143606692Y-88106006D01*
X143755937Y-88092601D01*
X143914590Y-88083483D01*
X144085738Y-88078318D01*
X144089763Y-88078244D01*
X144167808Y-88076965D01*
X144231604Y-88076445D01*
X144282815Y-88076930D01*
X144323106Y-88078668D01*
X144354143Y-88081905D01*
X144377588Y-88086889D01*
X144395109Y-88093867D01*
X144408369Y-88103087D01*
X144419033Y-88114794D01*
X144428766Y-88129237D01*
X144429241Y-88130010D01*
X144434958Y-88140224D01*
X144439123Y-88151046D01*
X144441668Y-88164382D01*
X144442527Y-88182140D01*
X144441636Y-88206226D01*
X144438926Y-88238549D01*
X144434333Y-88281013D01*
X144427790Y-88335528D01*
X144419231Y-88404000D01*
X144410173Y-88473067D01*
X144376618Y-88695369D01*
X144335591Y-88925313D01*
X144287925Y-89158458D01*
X144234451Y-89390363D01*
X144193838Y-89556726D01*
X144247286Y-89668273D01*
X144293782Y-89769317D01*
X144357170Y-89922422D01*
X144414823Y-90081896D01*
X144467183Y-90249294D01*
X144514690Y-90426170D01*
X144557783Y-90614080D01*
X144596903Y-90814577D01*
X144604825Y-90862360D01*
X144632490Y-91029218D01*
G37*
D13*
%TO.C,J2*%
X96120000Y-88995000D02*
X96120000Y-91645000D01*
X98880000Y-86345000D02*
X97500000Y-86345000D01*
X98880000Y-87725000D02*
X98880000Y-86345000D01*
X98880000Y-88995000D02*
X96120000Y-88995000D01*
X98880000Y-88995000D02*
X98880000Y-91645000D01*
X98880000Y-91645000D02*
X96120000Y-91645000D01*
%TO.C,J3*%
X145220000Y-110995000D02*
X145220000Y-113645000D01*
X147980000Y-108345000D02*
X146600000Y-108345000D01*
X147980000Y-109725000D02*
X147980000Y-108345000D01*
X147980000Y-110995000D02*
X145220000Y-110995000D01*
X147980000Y-110995000D02*
X147980000Y-113645000D01*
X147980000Y-113645000D02*
X145220000Y-113645000D01*
%TO.C,J1*%
X121810000Y-88220000D02*
X121810000Y-89600000D01*
X123190000Y-88220000D02*
X121810000Y-88220000D01*
X124460000Y-88220000D02*
X124460000Y-90980000D01*
X124460000Y-88220000D02*
X132190000Y-88220000D01*
X124460000Y-90980000D02*
X132190000Y-90980000D01*
X132190000Y-88220000D02*
X132190000Y-90980000D01*
%TD*%
%LPC*%
D14*
%TO.C,BAR3*%
X147060000Y-105080000D03*
D15*
X147060000Y-102540000D03*
X147060000Y-100000000D03*
X147060000Y-97460000D03*
X147060000Y-94920000D03*
X139440000Y-94920000D03*
X139440000Y-97460000D03*
X139440000Y-100000000D03*
X139440000Y-102540000D03*
X139440000Y-105080000D03*
%TD*%
D14*
%TO.C,BAR2*%
X113970000Y-103810000D03*
D15*
X116510000Y-103810000D03*
X119050000Y-103810000D03*
X121590000Y-103810000D03*
X124130000Y-103810000D03*
X126670000Y-103810000D03*
X129210000Y-103810000D03*
X131750000Y-103810000D03*
X134290000Y-103810000D03*
X136830000Y-103810000D03*
X136830000Y-96190000D03*
X134290000Y-96190000D03*
X131750000Y-96190000D03*
X129210000Y-96190000D03*
X126670000Y-96190000D03*
X124130000Y-96190000D03*
X121590000Y-96190000D03*
X119050000Y-96190000D03*
X116510000Y-96190000D03*
X113970000Y-96190000D03*
%TD*%
D14*
%TO.C,BAR1*%
X88570000Y-103810000D03*
D15*
X91110000Y-103810000D03*
X93650000Y-103810000D03*
X96190000Y-103810000D03*
X98730000Y-103810000D03*
X101270000Y-103810000D03*
X103810000Y-103810000D03*
X106350000Y-103810000D03*
X108890000Y-103810000D03*
X111430000Y-103810000D03*
X111430000Y-96190000D03*
X108890000Y-96190000D03*
X106350000Y-96190000D03*
X103810000Y-96190000D03*
X101270000Y-96190000D03*
X98730000Y-96190000D03*
X96190000Y-96190000D03*
X93650000Y-96190000D03*
X91110000Y-96190000D03*
X88570000Y-96190000D03*
%TD*%
D16*
%TO.C,SW1*%
X103300000Y-90200000D03*
X105800000Y-87000000D03*
X108300000Y-90200000D03*
%TD*%
D17*
%TO.C,J2*%
X97500000Y-87725000D03*
D18*
X97500000Y-90265000D03*
%TD*%
D17*
%TO.C,J3*%
X146600000Y-109725000D03*
D18*
X146600000Y-112265000D03*
%TD*%
%TO.C,J1*%
X123190000Y-89600000D03*
X125730000Y-89600000D03*
X128270000Y-89600000D03*
D17*
X130810000Y-89600000D03*
%TD*%
%LPD*%
M02*
