M48
; DRILL file {KiCad 9.0.3} date 2026-07-31T19:46:21+0900
; FORMAT={-:-/ absolute / inch / decimal}
; #@! TF.CreationDate,2026-07-31T19:46:21+09:00
; #@! TF.GenerationSoftware,Kicad,Pcbnew,9.0.3
; #@! TF.FileFunction,Plated,1,2,PTH
FMAT,2
INCH
; #@! TA.AperFunction,Plated,PTH,ViaDrill
T1C0.0118
; #@! TA.AperFunction,Plated,PTH,ViaDrill
T2C0.0157
; #@! TA.AperFunction,Plated,PTH,ComponentDrill
T3C0.0315
; #@! TA.AperFunction,Plated,PTH,ComponentDrill
T4C0.0360
; #@! TA.AperFunction,Plated,PTH,ComponentDrill
T5C0.0394
%
G90
G05
T1
X3.4252Y-3.4291
X3.4646Y-3.937
X3.5591Y-4.4567
X3.5984Y-3.5512
X3.6693Y-3.6063
X3.7323Y-4.2756
X3.9252Y-4.3386
X3.9961Y-3.4134
X4.0079Y-4.1969
X4.4488Y-3.6614
X4.5197Y-4.3386
X4.5984Y-4.2598
X4.7205Y-4.3386
X4.7362Y-3.7165
X4.811Y-4.1969
X5.0157Y-3.6299
X5.1614Y-4.3386
X5.2402Y-3.5039
X5.2402Y-4.2598
X5.3229Y-4.3387
X5.3622Y-4.3386
X5.4528Y-4.4567
X5.5276Y-4.2835
X5.6102Y-3.7008
X5.6299Y-3.4252
X5.6299Y-3.5118
X5.6693Y-3.5709
X5.6732Y-3.5984
X5.6929Y-3.4724
X5.6969Y-3.5276
X5.7283Y-3.7008
T2
X3.5512Y-3.622
X3.5591Y-4.1969
X3.5906Y-3.4646
X3.6378Y-3.7047
X3.6535Y-4.3307
X3.8031Y-3.6378
X3.8268Y-3.9724
X3.8386Y-4.3307
X4.189Y-3.9724
X4.3622Y-4.1969
X4.5984Y-3.9724
X4.6378Y-4.3307
X4.9882Y-3.9724
X5.0079Y-4.1969
X5.1142Y-4.3307
X5.2362Y-3.7165
X5.2756Y-4.3307
X5.374Y-3.9724
X5.4299Y-3.6023
X5.437Y-3.5236
X5.4567Y-3.6732
T3
X4.0669Y-3.5512
X4.1654Y-3.4252
X4.2638Y-3.5512
T4
X3.487Y-3.787
X3.487Y-4.087
X3.587Y-3.787
X3.587Y-4.087
X3.687Y-3.787
X3.687Y-4.087
X3.787Y-3.787
X3.787Y-4.087
X3.887Y-3.787
X3.887Y-4.087
X3.987Y-3.787
X3.987Y-4.087
X4.087Y-3.787
X4.087Y-4.087
X4.187Y-3.787
X4.187Y-4.087
X4.287Y-3.787
X4.287Y-4.087
X4.387Y-3.787
X4.387Y-4.087
X4.487Y-3.787
X4.487Y-4.087
X4.587Y-3.787
X4.587Y-4.087
X4.687Y-3.787
X4.687Y-4.087
X4.787Y-3.787
X4.787Y-4.087
X4.887Y-3.787
X4.887Y-4.087
X4.987Y-3.787
X4.987Y-4.087
X5.087Y-3.787
X5.087Y-4.087
X5.187Y-3.787
X5.187Y-4.087
X5.287Y-3.787
X5.287Y-4.087
X5.387Y-3.787
X5.387Y-4.087
X5.4898Y-3.737
X5.4898Y-3.837
X5.4898Y-3.937
X5.4898Y-4.037
X5.4898Y-4.137
X5.7898Y-3.737
X5.7898Y-3.837
X5.7898Y-3.937
X5.7898Y-4.037
X5.7898Y-4.137
T5
X3.8386Y-3.4537
X3.8386Y-3.5537
X4.85Y-3.5276
X4.95Y-3.5276
X5.05Y-3.5276
X5.15Y-3.5276
X5.7717Y-4.3199
X5.7717Y-4.4199
M30
