%TF.GenerationSoftware,KiCad,Pcbnew,9.0.3*%
%TF.CreationDate,2026-07-25T14:26:35+09:00*%
%TF.ProjectId,pacer_bottom,70616365-725f-4626-9f74-746f6d2e6b69,rev?*%
%TF.SameCoordinates,Original*%
%TF.FileFunction,Legend,Bot*%
%TF.FilePolarity,Positive*%
%FSLAX46Y46*%
G04 Gerber Fmt 4.6, Leading zero omitted, Abs format (unit mm)*
G04 Created by KiCad (PCBNEW 9.0.3) date 2026-07-25 14:26:35*
%MOMM*%
%LPD*%
G01*
G04 APERTURE LIST*
%ADD10C,0.100000*%
%ADD11C,0.000000*%
%ADD12C,0.153000*%
%ADD13C,0.200000*%
%ADD14C,0.120000*%
G04 APERTURE END LIST*
D10*
X169600000Y-109470000D02*
X169600000Y-109870000D01*
D11*
G36*
X113259237Y-88099976D02*
G01*
X114009237Y-88099976D01*
X114009237Y-86599976D01*
X114759237Y-86599976D01*
X114759237Y-88099976D01*
X116259237Y-88099976D01*
X116259237Y-88849976D01*
X114759237Y-88849976D01*
X114759237Y-90349976D01*
X114009237Y-90349976D01*
X114009237Y-88849976D01*
X113259237Y-88849976D01*
X113259237Y-90349976D01*
X112509237Y-90349976D01*
X112509237Y-88849976D01*
X111009237Y-88849976D01*
X111009237Y-88099976D01*
X112509237Y-88099976D01*
X112509237Y-86599976D01*
X113259237Y-86599976D01*
X113259237Y-88099976D01*
G37*
D10*
X168400000Y-109070000D02*
X169600000Y-109070000D01*
X169600000Y-109470000D01*
X168400000Y-109470000D01*
X168400000Y-109070000D01*
G36*
X168400000Y-109070000D02*
G01*
X169600000Y-109070000D01*
X169600000Y-109470000D01*
X168400000Y-109470000D01*
X168400000Y-109070000D01*
G37*
X168400000Y-109870000D02*
X169600000Y-109870000D01*
X169600000Y-110270000D01*
X168400000Y-110270000D01*
X168400000Y-109870000D01*
G36*
X168400000Y-109870000D02*
G01*
X169600000Y-109870000D01*
X169600000Y-110270000D01*
X168400000Y-110270000D01*
X168400000Y-109870000D01*
G37*
X115700000Y-109070000D02*
X116900000Y-109070000D01*
X116900000Y-110270000D01*
X115700000Y-110270000D01*
X115700000Y-109070000D01*
D11*
G36*
X117026027Y-88141665D02*
G01*
X117043208Y-88182437D01*
X117061867Y-88222282D01*
X117081966Y-88261173D01*
X117103466Y-88299080D01*
X117126327Y-88335978D01*
X117150510Y-88371837D01*
X117175975Y-88406631D01*
X117202685Y-88440332D01*
X117230599Y-88472911D01*
X117259679Y-88504342D01*
X117289885Y-88534596D01*
X117321178Y-88563646D01*
X117353519Y-88591464D01*
X117386869Y-88618023D01*
X117421188Y-88643294D01*
X117456438Y-88667250D01*
X117492580Y-88689864D01*
X117529573Y-88711107D01*
X117567380Y-88730951D01*
X117605961Y-88749370D01*
X117645276Y-88766336D01*
X117685287Y-88781820D01*
X117725954Y-88795795D01*
X117767238Y-88808234D01*
X117809101Y-88819108D01*
X117851502Y-88828390D01*
X117894403Y-88836052D01*
X117937765Y-88842066D01*
X117981548Y-88846406D01*
X118025714Y-88849042D01*
X118070222Y-88849948D01*
X117009202Y-88849948D01*
X117009202Y-88099994D01*
X117010364Y-88099994D01*
X117026027Y-88141665D01*
G37*
G36*
X118128112Y-86601473D02*
G01*
X118185243Y-86605819D01*
X118241542Y-86612974D01*
X118296940Y-86622868D01*
X118351366Y-86635431D01*
X118404750Y-86650591D01*
X118457020Y-86668278D01*
X118508106Y-86688421D01*
X118557938Y-86710950D01*
X118606443Y-86735794D01*
X118653553Y-86762882D01*
X118699196Y-86792144D01*
X118743302Y-86823508D01*
X118785800Y-86856905D01*
X118826618Y-86892263D01*
X118865687Y-86929512D01*
X118902937Y-86968582D01*
X118938295Y-87009400D01*
X118971692Y-87051898D01*
X119003056Y-87096003D01*
X119032318Y-87141647D01*
X119059406Y-87188756D01*
X119084250Y-87237262D01*
X119106779Y-87287094D01*
X119126922Y-87338180D01*
X119144609Y-87390450D01*
X119159769Y-87443833D01*
X119172332Y-87498259D01*
X119182226Y-87553658D01*
X119189382Y-87609957D01*
X119193727Y-87667087D01*
X119195192Y-87724978D01*
X119194886Y-87748929D01*
X119194072Y-87772849D01*
X119190920Y-87820563D01*
X119185750Y-87868058D01*
X119178572Y-87915269D01*
X119169397Y-87962132D01*
X119158235Y-88008585D01*
X119145099Y-88054562D01*
X119137794Y-88077352D01*
X119130000Y-88100000D01*
X117010364Y-88099994D01*
X117002570Y-88077346D01*
X116995265Y-88054555D01*
X116988451Y-88031630D01*
X116982129Y-88008578D01*
X116976301Y-87985407D01*
X116970968Y-87962126D01*
X116966132Y-87938742D01*
X116961794Y-87915263D01*
X116957954Y-87891697D01*
X116954616Y-87868053D01*
X116951779Y-87844337D01*
X116949446Y-87820559D01*
X116947617Y-87796726D01*
X116946295Y-87772846D01*
X116945480Y-87748928D01*
X116945174Y-87724978D01*
X116946557Y-87669197D01*
X116950680Y-87613794D01*
X116957504Y-87558862D01*
X116966991Y-87504491D01*
X116979104Y-87450776D01*
X116993804Y-87397808D01*
X117011052Y-87345679D01*
X117030812Y-87294481D01*
X117053043Y-87244307D01*
X117077709Y-87195250D01*
X117104771Y-87147400D01*
X117134191Y-87100851D01*
X117165931Y-87055695D01*
X117199952Y-87012024D01*
X117236216Y-86969931D01*
X117274686Y-86929506D01*
X117315110Y-86891038D01*
X117357205Y-86854774D01*
X117400876Y-86820754D01*
X117446033Y-86789015D01*
X117492583Y-86759596D01*
X117540433Y-86732534D01*
X117589492Y-86707869D01*
X117639668Y-86685638D01*
X117690867Y-86665880D01*
X117742998Y-86648632D01*
X117795969Y-86633933D01*
X117849688Y-86621821D01*
X117904062Y-86612334D01*
X117958998Y-86605511D01*
X118014406Y-86601390D01*
X118070192Y-86600008D01*
X118070222Y-86600008D01*
X118128112Y-86601473D01*
G37*
G36*
X119259237Y-89599976D02*
G01*
X119259237Y-90349975D01*
X115509237Y-90349975D01*
X115509237Y-89599975D01*
X119259237Y-89599976D01*
G37*
D10*
X168400000Y-109870000D02*
X168400000Y-109470000D01*
D11*
G36*
X120759205Y-90350011D02*
G01*
X120009251Y-90350011D01*
X120009251Y-88849948D01*
X118070222Y-88849948D01*
X118158891Y-88846400D01*
X118246030Y-88836041D01*
X118331327Y-88819093D01*
X118414468Y-88795777D01*
X118495140Y-88766316D01*
X118573030Y-88730930D01*
X118647824Y-88689841D01*
X118719210Y-88643271D01*
X118786874Y-88591442D01*
X118850503Y-88534575D01*
X118909784Y-88472892D01*
X118964403Y-88406615D01*
X119014048Y-88335965D01*
X119058405Y-88261163D01*
X119097161Y-88182432D01*
X119130002Y-88099994D01*
X120759205Y-88099994D01*
X120759205Y-90350011D01*
G37*
D12*
X146390476Y-109968948D02*
X145914286Y-109968948D01*
X146485714Y-110254663D02*
X146152381Y-109254663D01*
X146152381Y-109254663D02*
X145819048Y-110254663D01*
X145533333Y-109968948D02*
X145057143Y-109968948D01*
X145628571Y-110254663D02*
X145295238Y-109254663D01*
X145295238Y-109254663D02*
X144961905Y-110254663D01*
X143533333Y-109730853D02*
X143390476Y-109778472D01*
X143390476Y-109778472D02*
X143342857Y-109826091D01*
X143342857Y-109826091D02*
X143295238Y-109921329D01*
X143295238Y-109921329D02*
X143295238Y-110064186D01*
X143295238Y-110064186D02*
X143342857Y-110159424D01*
X143342857Y-110159424D02*
X143390476Y-110207044D01*
X143390476Y-110207044D02*
X143485714Y-110254663D01*
X143485714Y-110254663D02*
X143866666Y-110254663D01*
X143866666Y-110254663D02*
X143866666Y-109254663D01*
X143866666Y-109254663D02*
X143533333Y-109254663D01*
X143533333Y-109254663D02*
X143438095Y-109302282D01*
X143438095Y-109302282D02*
X143390476Y-109349901D01*
X143390476Y-109349901D02*
X143342857Y-109445139D01*
X143342857Y-109445139D02*
X143342857Y-109540377D01*
X143342857Y-109540377D02*
X143390476Y-109635615D01*
X143390476Y-109635615D02*
X143438095Y-109683234D01*
X143438095Y-109683234D02*
X143533333Y-109730853D01*
X143533333Y-109730853D02*
X143866666Y-109730853D01*
X142438095Y-110254663D02*
X142438095Y-109730853D01*
X142438095Y-109730853D02*
X142485714Y-109635615D01*
X142485714Y-109635615D02*
X142580952Y-109587996D01*
X142580952Y-109587996D02*
X142771428Y-109587996D01*
X142771428Y-109587996D02*
X142866666Y-109635615D01*
X142438095Y-110207044D02*
X142533333Y-110254663D01*
X142533333Y-110254663D02*
X142771428Y-110254663D01*
X142771428Y-110254663D02*
X142866666Y-110207044D01*
X142866666Y-110207044D02*
X142914285Y-110111805D01*
X142914285Y-110111805D02*
X142914285Y-110016567D01*
X142914285Y-110016567D02*
X142866666Y-109921329D01*
X142866666Y-109921329D02*
X142771428Y-109873710D01*
X142771428Y-109873710D02*
X142533333Y-109873710D01*
X142533333Y-109873710D02*
X142438095Y-109826091D01*
X142104761Y-109587996D02*
X141723809Y-109587996D01*
X141961904Y-109254663D02*
X141961904Y-110111805D01*
X141961904Y-110111805D02*
X141914285Y-110207044D01*
X141914285Y-110207044D02*
X141819047Y-110254663D01*
X141819047Y-110254663D02*
X141723809Y-110254663D01*
X141533332Y-109587996D02*
X141152380Y-109587996D01*
X141390475Y-109254663D02*
X141390475Y-110111805D01*
X141390475Y-110111805D02*
X141342856Y-110207044D01*
X141342856Y-110207044D02*
X141247618Y-110254663D01*
X141247618Y-110254663D02*
X141152380Y-110254663D01*
X140438094Y-110207044D02*
X140533332Y-110254663D01*
X140533332Y-110254663D02*
X140723808Y-110254663D01*
X140723808Y-110254663D02*
X140819046Y-110207044D01*
X140819046Y-110207044D02*
X140866665Y-110111805D01*
X140866665Y-110111805D02*
X140866665Y-109730853D01*
X140866665Y-109730853D02*
X140819046Y-109635615D01*
X140819046Y-109635615D02*
X140723808Y-109587996D01*
X140723808Y-109587996D02*
X140533332Y-109587996D01*
X140533332Y-109587996D02*
X140438094Y-109635615D01*
X140438094Y-109635615D02*
X140390475Y-109730853D01*
X140390475Y-109730853D02*
X140390475Y-109826091D01*
X140390475Y-109826091D02*
X140866665Y-109921329D01*
X139961903Y-110254663D02*
X139961903Y-109587996D01*
X139961903Y-109778472D02*
X139914284Y-109683234D01*
X139914284Y-109683234D02*
X139866665Y-109635615D01*
X139866665Y-109635615D02*
X139771427Y-109587996D01*
X139771427Y-109587996D02*
X139676189Y-109587996D01*
X139438093Y-109587996D02*
X139199998Y-110254663D01*
X138961903Y-109587996D02*
X139199998Y-110254663D01*
X139199998Y-110254663D02*
X139295236Y-110492758D01*
X139295236Y-110492758D02*
X139342855Y-110540377D01*
X139342855Y-110540377D02*
X139438093Y-110587996D01*
G36*
X116867092Y-110240804D02*
G01*
X115732906Y-110240804D01*
X115732906Y-109658786D01*
X115844017Y-109658786D01*
X115844017Y-109688634D01*
X115855440Y-109716211D01*
X115876546Y-109737317D01*
X115904123Y-109748740D01*
X115919047Y-109750210D01*
X116223499Y-109750210D01*
X116223499Y-110054663D01*
X116224969Y-110069587D01*
X116236392Y-110097164D01*
X116257498Y-110118270D01*
X116285075Y-110129693D01*
X116314923Y-110129693D01*
X116342500Y-110118270D01*
X116363606Y-110097164D01*
X116375029Y-110069587D01*
X116376499Y-110054663D01*
X116376499Y-109750210D01*
X116680951Y-109750210D01*
X116695875Y-109748740D01*
X116723452Y-109737317D01*
X116744558Y-109716211D01*
X116755981Y-109688634D01*
X116755981Y-109658786D01*
X116744558Y-109631209D01*
X116723452Y-109610103D01*
X116695875Y-109598680D01*
X116680951Y-109597210D01*
X116376499Y-109597210D01*
X116376499Y-109292758D01*
X116375029Y-109277834D01*
X116363606Y-109250257D01*
X116342500Y-109229151D01*
X116314923Y-109217728D01*
X116285075Y-109217728D01*
X116257498Y-109229151D01*
X116236392Y-109250257D01*
X116224969Y-109277834D01*
X116223499Y-109292758D01*
X116223499Y-109597210D01*
X115919047Y-109597210D01*
X115904123Y-109598680D01*
X115876546Y-109610103D01*
X115855440Y-109631209D01*
X115844017Y-109658786D01*
X115732906Y-109658786D01*
X115732906Y-109106617D01*
X116867092Y-109106617D01*
X116867092Y-110240804D01*
G37*
D13*
G36*
X169590141Y-109882377D02*
G01*
X168409857Y-109882377D01*
X168409857Y-109651757D01*
X168520968Y-109651757D01*
X168520968Y-109690775D01*
X168535900Y-109726823D01*
X168563490Y-109754413D01*
X168599538Y-109769345D01*
X168619047Y-109771266D01*
X169380951Y-109771266D01*
X169400460Y-109769345D01*
X169436508Y-109754413D01*
X169464098Y-109726823D01*
X169479030Y-109690775D01*
X169479030Y-109651757D01*
X169464098Y-109615709D01*
X169436508Y-109588119D01*
X169400460Y-109573187D01*
X169380951Y-109571266D01*
X168619047Y-109571266D01*
X168599538Y-109573187D01*
X168563490Y-109588119D01*
X168535900Y-109615709D01*
X168520968Y-109651757D01*
X168409857Y-109651757D01*
X168409857Y-109460155D01*
X169590141Y-109460155D01*
X169590141Y-109882377D01*
G37*
D11*
%TO.C,G\u002A\u002A\u002A*%
G36*
X169252216Y-86585116D02*
G01*
X169252216Y-86822448D01*
X168571705Y-86829106D01*
X167891195Y-86835764D01*
X167713346Y-87141496D01*
X167690522Y-87180649D01*
X167627916Y-87287136D01*
X167575538Y-87374923D01*
X167538319Y-87435794D01*
X167521192Y-87461534D01*
X167507137Y-87451577D01*
X167473208Y-87409054D01*
X167427049Y-87343593D01*
X167375747Y-87265959D01*
X167326389Y-87186917D01*
X167286064Y-87117232D01*
X167261859Y-87067667D01*
X167261096Y-87062196D01*
X167273999Y-87015742D01*
X167310356Y-86934248D01*
X167367431Y-86823453D01*
X167442483Y-86689098D01*
X167638127Y-86349671D01*
X168445172Y-86348727D01*
X169252216Y-86347784D01*
X169252216Y-86585116D01*
G37*
G36*
X166486786Y-89726194D02*
G01*
X166504307Y-89748171D01*
X166539738Y-89801100D01*
X166585987Y-89873560D01*
X166635963Y-89954126D01*
X166682574Y-90031374D01*
X166718727Y-90093882D01*
X166737331Y-90130227D01*
X166737035Y-90141370D01*
X166718963Y-90192765D01*
X166680253Y-90275421D01*
X166624673Y-90381579D01*
X166555993Y-90503483D01*
X166360444Y-90839705D01*
X165554113Y-90846308D01*
X164747783Y-90852910D01*
X164747783Y-90614830D01*
X164747783Y-90376750D01*
X165421988Y-90376750D01*
X166096193Y-90376750D01*
X166238469Y-90132759D01*
X166286065Y-90051269D01*
X166346453Y-89948236D01*
X166396844Y-89862658D01*
X166429654Y-89807439D01*
X166438608Y-89792766D01*
X166469858Y-89745265D01*
X166486445Y-89726109D01*
X166486786Y-89726194D01*
G37*
G36*
X167135042Y-87417254D02*
G01*
X167800787Y-88486724D01*
X167800787Y-88289374D01*
X167800787Y-88092024D01*
X168028934Y-87695372D01*
X168099262Y-87573906D01*
X168163985Y-87463735D01*
X168216183Y-87376603D01*
X168251772Y-87319327D01*
X168266668Y-87298720D01*
X168267385Y-87302355D01*
X168269185Y-87344564D01*
X168270856Y-87430398D01*
X168272363Y-87555214D01*
X168273673Y-87714370D01*
X168274752Y-87903220D01*
X168275564Y-88117123D01*
X168276077Y-88351434D01*
X168276255Y-88601511D01*
X168276255Y-89904303D01*
X168186421Y-89896536D01*
X168096586Y-89888769D01*
X167150791Y-88362267D01*
X166204997Y-86835764D01*
X165714124Y-86828979D01*
X165223250Y-86822194D01*
X165223250Y-88349225D01*
X165223250Y-89876257D01*
X164985516Y-89876257D01*
X164747783Y-89876257D01*
X164747783Y-88112020D01*
X164747783Y-86347784D01*
X165608539Y-86347784D01*
X166469296Y-86347784D01*
X167135042Y-87417254D01*
G37*
G36*
X165813858Y-87303466D02*
G01*
X165903973Y-87311232D01*
X166846124Y-88833379D01*
X166974236Y-89040059D01*
X167123504Y-89280092D01*
X167263558Y-89504466D01*
X167392268Y-89709812D01*
X167507504Y-89892760D01*
X167607137Y-90049943D01*
X167689037Y-90177989D01*
X167751075Y-90273532D01*
X167791120Y-90333200D01*
X167807044Y-90353625D01*
X167807348Y-90353599D01*
X167839105Y-90353007D01*
X167912472Y-90352493D01*
X168019354Y-90352087D01*
X168151656Y-90351821D01*
X168301280Y-90351725D01*
X168776748Y-90351725D01*
X168776748Y-88837735D01*
X168776748Y-87323745D01*
X169014482Y-87323745D01*
X169252216Y-87323745D01*
X169252216Y-89087981D01*
X169252216Y-90852217D01*
X168391406Y-90852217D01*
X167530595Y-90852217D01*
X166871159Y-89789534D01*
X166843629Y-89745185D01*
X166715629Y-89539439D01*
X166596083Y-89348000D01*
X166487543Y-89174908D01*
X166392559Y-89024199D01*
X166313682Y-88899912D01*
X166253465Y-88806086D01*
X166214457Y-88746757D01*
X166199211Y-88725965D01*
X166197731Y-88727287D01*
X166192958Y-88760142D01*
X166190723Y-88828193D01*
X166191503Y-88919507D01*
X166196308Y-89113934D01*
X165969984Y-89501352D01*
X165903587Y-89614722D01*
X165838092Y-89725913D01*
X165785139Y-89815116D01*
X165748939Y-89875240D01*
X165733702Y-89899196D01*
X165732919Y-89895985D01*
X165731056Y-89854841D01*
X165729327Y-89770088D01*
X165727768Y-89646315D01*
X165726413Y-89488106D01*
X165725298Y-89300050D01*
X165724458Y-89086732D01*
X165723928Y-88852741D01*
X165723743Y-88602661D01*
X165723743Y-87295699D01*
X165813858Y-87303466D01*
G37*
D14*
%TO.C,BT1*%
X163940000Y-101060000D02*
X163940000Y-99060000D01*
X164940000Y-102060000D02*
X164940000Y-98060000D01*
X165940000Y-97060000D02*
X165940000Y-103060000D01*
X166940000Y-104060000D02*
X166940000Y-96060000D01*
%TD*%
M02*
