%TF.GenerationSoftware,KiCad,Pcbnew,9.0.3*%
%TF.CreationDate,2026-07-25T14:26:35+09:00*%
%TF.ProjectId,pacer_bottom,70616365-725f-4626-9f74-746f6d2e6b69,rev?*%
%TF.SameCoordinates,Original*%
%TF.FileFunction,Copper,L1,Top*%
%TF.FilePolarity,Positive*%
%FSLAX46Y46*%
G04 Gerber Fmt 4.6, Leading zero omitted, Abs format (unit mm)*
G04 Created by KiCad (PCBNEW 9.0.3) date 2026-07-25 14:26:35*
%MOMM*%
%LPD*%
G01*
G04 APERTURE LIST*
G04 Aperture macros list*
%AMRoundRect*
0 Rectangle with rounded corners*
0 $1 Rounding radius*
0 $2 $3 $4 $5 $6 $7 $8 $9 X,Y pos of 4 corners*
0 Add a 4 corners polygon primitive as box body*
4,1,4,$2,$3,$4,$5,$6,$7,$8,$9,$2,$3,0*
0 Add four circle primitives for the rounded corners*
1,1,$1+$1,$2,$3*
1,1,$1+$1,$4,$5*
1,1,$1+$1,$6,$7*
1,1,$1+$1,$8,$9*
0 Add four rect primitives between the rounded corners*
20,1,$1+$1,$2,$3,$4,$5,0*
20,1,$1+$1,$4,$5,$6,$7,0*
20,1,$1+$1,$6,$7,$8,$9,0*
20,1,$1+$1,$8,$9,$2,$3,0*%
G04 Aperture macros list end*
%TA.AperFunction,ComponentPad*%
%ADD10R,1.700000X1.700000*%
%TD*%
%TA.AperFunction,ComponentPad*%
%ADD11C,1.700000*%
%TD*%
%TA.AperFunction,ComponentPad*%
%ADD12C,1.600000*%
%TD*%
%TA.AperFunction,ComponentPad*%
%ADD13RoundRect,0.375000X1.875000X-0.875000X1.875000X0.875000X-1.875000X0.875000X-1.875000X-0.875000X0*%
%TD*%
%TA.AperFunction,ComponentPad*%
%ADD14R,2.000000X2.000000*%
%TD*%
%TA.AperFunction,ComponentPad*%
%ADD15C,2.000000*%
%TD*%
%TA.AperFunction,Conductor*%
%ADD16C,0.400000*%
%TD*%
%TA.AperFunction,Conductor*%
%ADD17C,0.200000*%
%TD*%
G04 APERTURE END LIST*
D10*
%TO.P,J2,1,Pin_1*%
%TO.N,GND*%
X172830000Y-109725000D03*
D11*
%TO.P,J2,2,Pin_2*%
X172830000Y-112265000D03*
%TD*%
D12*
%TO.P,LS1,1,1*%
%TO.N,Net-(J1-Pin_1)*%
X106630000Y-97500000D03*
%TO.P,LS1,2,2*%
%TO.N,GND*%
X106630000Y-102500000D03*
%TD*%
D10*
%TO.P,J1,1,Pin_1*%
%TO.N,Net-(J1-Pin_1)*%
X123730000Y-87725000D03*
D11*
%TO.P,J1,2,Pin_2*%
%TO.N,Net-(BT1-+)*%
X123730000Y-90265000D03*
%TD*%
D13*
%TO.P,SW1,1,A*%
%TO.N,GND*%
X181300000Y-106000000D03*
%TO.P,SW1,2,B*%
%TO.N,Net-(BT1--)*%
X181300000Y-100000000D03*
%TD*%
D14*
%TO.P,BT1,1,+*%
%TO.N,Net-(BT1-+)*%
X116630000Y-100000000D03*
D15*
%TO.P,BT1,2,-*%
%TO.N,Net-(BT1--)*%
X168620000Y-100000000D03*
%TD*%
D16*
%TO.N,Net-(BT1--)*%
X180000000Y-98700000D02*
X181300000Y-100000000D01*
X168620000Y-100000000D02*
X169920000Y-98700000D01*
X169920000Y-98700000D02*
X180000000Y-98700000D01*
%TO.N,Net-(BT1-+)*%
X122230000Y-100000000D02*
X116630000Y-100000000D01*
X123730000Y-90265000D02*
X123730000Y-98500000D01*
X122230000Y-100000000D02*
G75*
G03*
X123730000Y-98500000I0J1500000D01*
G01*
D17*
%TO.N,Net-(J1-Pin_1)*%
X116405000Y-87725000D02*
X123730000Y-87725000D01*
X106630000Y-97500000D02*
X116405000Y-87725000D01*
D16*
%TO.N,GND*%
X181300000Y-106000000D02*
X181300000Y-106030000D01*
X181300000Y-106030000D02*
X177605000Y-109725000D01*
X177605000Y-109725000D02*
X172830000Y-109725000D01*
X172830000Y-112265000D02*
X172830000Y-109725000D01*
%TD*%
%TA.AperFunction,Conductor*%
%TO.N,GND*%
G36*
X122401250Y-86457685D02*
G01*
X122447005Y-86510489D01*
X122456949Y-86579647D01*
X122438622Y-86623885D01*
X122440454Y-86624886D01*
X122436202Y-86632671D01*
X122385908Y-86767517D01*
X122379501Y-86827116D01*
X122379500Y-86827135D01*
X122379500Y-87000500D01*
X122359815Y-87067539D01*
X122307011Y-87113294D01*
X122255500Y-87124500D01*
X116491670Y-87124500D01*
X116491654Y-87124499D01*
X116484058Y-87124499D01*
X116325943Y-87124499D01*
X116262093Y-87141608D01*
X116173214Y-87165423D01*
X116173209Y-87165426D01*
X116036290Y-87244475D01*
X116036282Y-87244481D01*
X107074842Y-96205921D01*
X107013519Y-96239406D01*
X106948848Y-96236173D01*
X106934534Y-96231522D01*
X106759995Y-96203878D01*
X106732352Y-96199500D01*
X106527648Y-96199500D01*
X106503329Y-96203351D01*
X106325465Y-96231522D01*
X106130776Y-96294781D01*
X105948386Y-96387715D01*
X105782786Y-96508028D01*
X105638028Y-96652786D01*
X105517715Y-96818386D01*
X105424781Y-97000776D01*
X105361522Y-97195465D01*
X105329500Y-97397648D01*
X105329500Y-97602351D01*
X105361522Y-97804534D01*
X105424781Y-97999223D01*
X105465545Y-98079225D01*
X105504606Y-98155887D01*
X105517715Y-98181613D01*
X105638028Y-98347213D01*
X105782786Y-98491971D01*
X105902790Y-98579157D01*
X105948390Y-98612287D01*
X106064607Y-98671503D01*
X106130776Y-98705218D01*
X106130778Y-98705218D01*
X106130781Y-98705220D01*
X106235137Y-98739127D01*
X106325465Y-98768477D01*
X106426557Y-98784488D01*
X106527648Y-98800500D01*
X106527649Y-98800500D01*
X106732351Y-98800500D01*
X106732352Y-98800500D01*
X106934534Y-98768477D01*
X107129219Y-98705220D01*
X107311610Y-98612287D01*
X107404590Y-98544732D01*
X107477213Y-98491971D01*
X107477215Y-98491968D01*
X107477219Y-98491966D01*
X107621966Y-98347219D01*
X107621968Y-98347215D01*
X107621971Y-98347213D01*
X107707264Y-98229815D01*
X107742287Y-98181610D01*
X107835220Y-97999219D01*
X107898477Y-97804534D01*
X107930500Y-97602352D01*
X107930500Y-97397648D01*
X107898477Y-97195466D01*
X107893825Y-97181151D01*
X107891832Y-97111312D01*
X107924075Y-97055158D01*
X108720238Y-96258995D01*
X114099499Y-96258995D01*
X114126418Y-96394322D01*
X114126421Y-96394332D01*
X114179221Y-96521804D01*
X114179228Y-96521817D01*
X114255885Y-96636541D01*
X114255888Y-96636545D01*
X114353454Y-96734111D01*
X114353458Y-96734114D01*
X114468182Y-96810771D01*
X114468195Y-96810778D01*
X114547513Y-96843632D01*
X114595672Y-96863580D01*
X114595676Y-96863580D01*
X114595677Y-96863581D01*
X114731004Y-96890500D01*
X114731007Y-96890500D01*
X114868995Y-96890500D01*
X114960041Y-96872389D01*
X115004328Y-96863580D01*
X115131811Y-96810775D01*
X115246542Y-96734114D01*
X115344114Y-96636542D01*
X115420775Y-96521811D01*
X115473580Y-96394328D01*
X115482389Y-96350041D01*
X115500500Y-96258995D01*
X116639499Y-96258995D01*
X116666418Y-96394322D01*
X116666421Y-96394332D01*
X116719221Y-96521804D01*
X116719228Y-96521817D01*
X116795885Y-96636541D01*
X116795888Y-96636545D01*
X116893454Y-96734111D01*
X116893458Y-96734114D01*
X117008182Y-96810771D01*
X117008195Y-96810778D01*
X117087513Y-96843632D01*
X117135672Y-96863580D01*
X117135676Y-96863580D01*
X117135677Y-96863581D01*
X117271004Y-96890500D01*
X117271007Y-96890500D01*
X117408995Y-96890500D01*
X117500041Y-96872389D01*
X117544328Y-96863580D01*
X117671811Y-96810775D01*
X117786542Y-96734114D01*
X117884114Y-96636542D01*
X117960775Y-96521811D01*
X118013580Y-96394328D01*
X118022389Y-96350041D01*
X118040500Y-96258995D01*
X119179499Y-96258995D01*
X119206418Y-96394322D01*
X119206421Y-96394332D01*
X119259221Y-96521804D01*
X119259228Y-96521817D01*
X119335885Y-96636541D01*
X119335888Y-96636545D01*
X119433454Y-96734111D01*
X119433458Y-96734114D01*
X119548182Y-96810771D01*
X119548195Y-96810778D01*
X119627513Y-96843632D01*
X119675672Y-96863580D01*
X119675676Y-96863580D01*
X119675677Y-96863581D01*
X119811004Y-96890500D01*
X119811007Y-96890500D01*
X119948995Y-96890500D01*
X120040041Y-96872389D01*
X120084328Y-96863580D01*
X120211811Y-96810775D01*
X120326542Y-96734114D01*
X120424114Y-96636542D01*
X120500775Y-96521811D01*
X120553580Y-96394328D01*
X120562389Y-96350041D01*
X120580500Y-96258995D01*
X120580500Y-96121004D01*
X120553581Y-95985677D01*
X120553580Y-95985676D01*
X120553580Y-95985672D01*
X120553578Y-95985667D01*
X120500778Y-95858195D01*
X120500771Y-95858182D01*
X120424114Y-95743458D01*
X120424111Y-95743454D01*
X120326545Y-95645888D01*
X120326541Y-95645885D01*
X120211817Y-95569228D01*
X120211804Y-95569221D01*
X120084332Y-95516421D01*
X120084322Y-95516418D01*
X119948995Y-95489500D01*
X119948993Y-95489500D01*
X119811007Y-95489500D01*
X119811005Y-95489500D01*
X119675677Y-95516418D01*
X119675667Y-95516421D01*
X119548195Y-95569221D01*
X119548182Y-95569228D01*
X119433458Y-95645885D01*
X119433454Y-95645888D01*
X119335888Y-95743454D01*
X119335885Y-95743458D01*
X119259228Y-95858182D01*
X119259221Y-95858195D01*
X119206421Y-95985667D01*
X119206418Y-95985677D01*
X119179500Y-96121004D01*
X119179500Y-96121007D01*
X119179500Y-96258993D01*
X119179500Y-96258995D01*
X119179499Y-96258995D01*
X118040500Y-96258995D01*
X118040500Y-96121004D01*
X118013581Y-95985677D01*
X118013580Y-95985676D01*
X118013580Y-95985672D01*
X118013578Y-95985667D01*
X117960778Y-95858195D01*
X117960771Y-95858182D01*
X117884114Y-95743458D01*
X117884111Y-95743454D01*
X117786545Y-95645888D01*
X117786541Y-95645885D01*
X117671817Y-95569228D01*
X117671804Y-95569221D01*
X117544332Y-95516421D01*
X117544322Y-95516418D01*
X117408995Y-95489500D01*
X117408993Y-95489500D01*
X117271007Y-95489500D01*
X117271005Y-95489500D01*
X117135677Y-95516418D01*
X117135667Y-95516421D01*
X117008195Y-95569221D01*
X117008182Y-95569228D01*
X116893458Y-95645885D01*
X116893454Y-95645888D01*
X116795888Y-95743454D01*
X116795885Y-95743458D01*
X116719228Y-95858182D01*
X116719221Y-95858195D01*
X116666421Y-95985667D01*
X116666418Y-95985677D01*
X116639500Y-96121004D01*
X116639500Y-96121007D01*
X116639500Y-96258993D01*
X116639500Y-96258995D01*
X116639499Y-96258995D01*
X115500500Y-96258995D01*
X115500500Y-96121004D01*
X115473581Y-95985677D01*
X115473580Y-95985676D01*
X115473580Y-95985672D01*
X115473578Y-95985667D01*
X115420778Y-95858195D01*
X115420771Y-95858182D01*
X115344114Y-95743458D01*
X115344111Y-95743454D01*
X115246545Y-95645888D01*
X115246541Y-95645885D01*
X115131817Y-95569228D01*
X115131804Y-95569221D01*
X115004332Y-95516421D01*
X115004322Y-95516418D01*
X114868995Y-95489500D01*
X114868993Y-95489500D01*
X114731007Y-95489500D01*
X114731005Y-95489500D01*
X114595677Y-95516418D01*
X114595667Y-95516421D01*
X114468195Y-95569221D01*
X114468182Y-95569228D01*
X114353458Y-95645885D01*
X114353454Y-95645888D01*
X114255888Y-95743454D01*
X114255885Y-95743458D01*
X114179228Y-95858182D01*
X114179221Y-95858195D01*
X114126421Y-95985667D01*
X114126418Y-95985677D01*
X114099500Y-96121004D01*
X114099500Y-96121007D01*
X114099500Y-96258993D01*
X114099500Y-96258995D01*
X114099499Y-96258995D01*
X108720238Y-96258995D01*
X116617417Y-88361819D01*
X116678740Y-88328334D01*
X116705098Y-88325500D01*
X122255501Y-88325500D01*
X122322540Y-88345185D01*
X122368295Y-88397989D01*
X122379501Y-88449500D01*
X122379501Y-88622876D01*
X122385908Y-88682483D01*
X122436202Y-88817328D01*
X122436206Y-88817335D01*
X122522452Y-88932544D01*
X122522455Y-88932547D01*
X122637664Y-89018793D01*
X122637671Y-89018797D01*
X122769082Y-89067810D01*
X122825016Y-89109681D01*
X122849433Y-89175145D01*
X122834582Y-89243418D01*
X122813431Y-89271673D01*
X122699889Y-89385215D01*
X122574951Y-89557179D01*
X122478444Y-89746585D01*
X122478443Y-89746587D01*
X122478443Y-89746588D01*
X122460926Y-89800500D01*
X122412753Y-89948760D01*
X122379500Y-90158713D01*
X122379500Y-90371286D01*
X122412753Y-90581239D01*
X122478444Y-90783414D01*
X122574951Y-90972820D01*
X122699890Y-91144786D01*
X122850211Y-91295107D01*
X122921200Y-91346682D01*
X122978385Y-91388229D01*
X123021051Y-91443558D01*
X123029500Y-91488547D01*
X123029500Y-95522782D01*
X123009815Y-95589821D01*
X122957011Y-95635576D01*
X122887853Y-95645520D01*
X122836610Y-95625885D01*
X122751815Y-95569227D01*
X122751804Y-95569221D01*
X122624332Y-95516421D01*
X122624322Y-95516418D01*
X122488995Y-95489500D01*
X122488993Y-95489500D01*
X122351007Y-95489500D01*
X122351005Y-95489500D01*
X122215677Y-95516418D01*
X122215667Y-95516421D01*
X122088195Y-95569221D01*
X122088182Y-95569228D01*
X121973458Y-95645885D01*
X121973454Y-95645888D01*
X121875888Y-95743454D01*
X121875885Y-95743458D01*
X121799228Y-95858182D01*
X121799221Y-95858195D01*
X121746421Y-95985667D01*
X121746418Y-95985677D01*
X121719500Y-96121004D01*
X121719500Y-96121007D01*
X121719500Y-96258993D01*
X121719500Y-96258995D01*
X121719499Y-96258995D01*
X121746418Y-96394322D01*
X121746421Y-96394332D01*
X121799221Y-96521804D01*
X121799228Y-96521817D01*
X121875885Y-96636541D01*
X121875888Y-96636545D01*
X121973454Y-96734111D01*
X121973458Y-96734114D01*
X122088182Y-96810771D01*
X122088195Y-96810778D01*
X122167513Y-96843632D01*
X122215672Y-96863580D01*
X122215676Y-96863580D01*
X122215677Y-96863581D01*
X122351004Y-96890500D01*
X122351007Y-96890500D01*
X122488995Y-96890500D01*
X122580041Y-96872389D01*
X122624328Y-96863580D01*
X122751811Y-96810775D01*
X122756605Y-96807572D01*
X122836609Y-96754115D01*
X122903286Y-96733237D01*
X122970666Y-96751721D01*
X123017357Y-96803700D01*
X123029500Y-96857217D01*
X123029500Y-98493907D01*
X123028903Y-98506061D01*
X123015335Y-98643819D01*
X123010593Y-98667661D01*
X122972186Y-98794271D01*
X122962883Y-98816728D01*
X122900517Y-98933406D01*
X122887012Y-98953618D01*
X122803079Y-99055891D01*
X122785891Y-99073079D01*
X122683618Y-99157012D01*
X122663406Y-99170517D01*
X122546728Y-99232883D01*
X122524271Y-99242186D01*
X122397661Y-99280593D01*
X122373819Y-99285335D01*
X122236062Y-99298903D01*
X122223908Y-99299500D01*
X118254499Y-99299500D01*
X118187460Y-99279815D01*
X118141705Y-99227011D01*
X118130499Y-99175500D01*
X118130499Y-98952129D01*
X118130498Y-98952123D01*
X118130497Y-98952116D01*
X118124091Y-98892517D01*
X118110278Y-98855483D01*
X118073797Y-98757671D01*
X118073793Y-98757664D01*
X117987547Y-98642455D01*
X117987544Y-98642452D01*
X117872335Y-98556206D01*
X117872328Y-98556202D01*
X117737482Y-98505908D01*
X117737483Y-98505908D01*
X117677883Y-98499501D01*
X117677881Y-98499500D01*
X117677873Y-98499500D01*
X117677864Y-98499500D01*
X115582129Y-98499500D01*
X115582123Y-98499501D01*
X115522516Y-98505908D01*
X115387671Y-98556202D01*
X115387664Y-98556206D01*
X115272455Y-98642452D01*
X115272452Y-98642455D01*
X115186206Y-98757664D01*
X115186202Y-98757671D01*
X115135908Y-98892517D01*
X115129501Y-98952116D01*
X115129501Y-98952123D01*
X115129500Y-98952135D01*
X115129500Y-101047870D01*
X115129501Y-101047876D01*
X115135908Y-101107483D01*
X115186202Y-101242328D01*
X115186206Y-101242335D01*
X115272452Y-101357544D01*
X115272455Y-101357547D01*
X115387664Y-101443793D01*
X115387671Y-101443797D01*
X115522517Y-101494091D01*
X115522516Y-101494091D01*
X115529444Y-101494835D01*
X115582127Y-101500500D01*
X117677872Y-101500499D01*
X117737483Y-101494091D01*
X117872331Y-101443796D01*
X117987546Y-101357546D01*
X118073796Y-101242331D01*
X118124091Y-101107483D01*
X118130500Y-101047873D01*
X118130500Y-100824500D01*
X118150185Y-100757461D01*
X118202989Y-100711706D01*
X118254500Y-100700500D01*
X122363108Y-100700500D01*
X122403039Y-100695651D01*
X122627376Y-100668412D01*
X122885852Y-100604703D01*
X123134764Y-100510303D01*
X123370483Y-100386589D01*
X123589570Y-100235363D01*
X123777360Y-100068995D01*
X164969499Y-100068995D01*
X164996418Y-100204322D01*
X164996421Y-100204332D01*
X165049221Y-100331804D01*
X165049228Y-100331817D01*
X165125885Y-100446541D01*
X165125888Y-100446545D01*
X165223454Y-100544111D01*
X165223458Y-100544114D01*
X165338182Y-100620771D01*
X165338195Y-100620778D01*
X165453193Y-100668411D01*
X165465672Y-100673580D01*
X165465676Y-100673580D01*
X165465677Y-100673581D01*
X165601004Y-100700500D01*
X165601007Y-100700500D01*
X165738995Y-100700500D01*
X165830041Y-100682389D01*
X165874328Y-100673580D01*
X166001811Y-100620775D01*
X166116542Y-100544114D01*
X166214114Y-100446542D01*
X166290775Y-100331811D01*
X166343580Y-100204328D01*
X166370500Y-100068993D01*
X166370500Y-99931007D01*
X166370500Y-99931004D01*
X166370499Y-99931002D01*
X166364577Y-99901227D01*
X166360733Y-99881902D01*
X167119500Y-99881902D01*
X167119500Y-100118097D01*
X167156446Y-100351368D01*
X167229433Y-100575996D01*
X167321895Y-100757461D01*
X167336657Y-100786433D01*
X167475483Y-100977510D01*
X167642490Y-101144517D01*
X167833567Y-101283343D01*
X167932991Y-101334002D01*
X168044003Y-101390566D01*
X168044005Y-101390566D01*
X168044008Y-101390568D01*
X168117312Y-101414386D01*
X168268631Y-101463553D01*
X168501903Y-101500500D01*
X168501908Y-101500500D01*
X168738097Y-101500500D01*
X168971368Y-101463553D01*
X169195992Y-101390568D01*
X169200744Y-101388147D01*
X169260805Y-101357544D01*
X169406433Y-101283343D01*
X169597510Y-101144517D01*
X169764517Y-100977510D01*
X169903343Y-100786433D01*
X170010568Y-100575992D01*
X170083553Y-100351368D01*
X170086652Y-100331804D01*
X170120500Y-100118097D01*
X170120500Y-99881902D01*
X170086651Y-99668195D01*
X170083553Y-99648632D01*
X170077230Y-99629175D01*
X170076795Y-99613962D01*
X170071477Y-99599701D01*
X170075817Y-99579748D01*
X170075234Y-99559337D01*
X170083323Y-99545248D01*
X170086330Y-99531428D01*
X170107476Y-99503179D01*
X170173840Y-99436817D01*
X170235164Y-99403333D01*
X170261520Y-99400500D01*
X172616101Y-99400500D01*
X172683140Y-99420185D01*
X172728895Y-99472989D01*
X172738839Y-99542147D01*
X172719203Y-99593391D01*
X172669228Y-99668182D01*
X172669221Y-99668195D01*
X172616421Y-99795667D01*
X172616418Y-99795677D01*
X172589500Y-99931004D01*
X172589500Y-99931007D01*
X172589500Y-100068993D01*
X172589500Y-100068995D01*
X172589499Y-100068995D01*
X172616418Y-100204322D01*
X172616421Y-100204332D01*
X172669221Y-100331804D01*
X172669228Y-100331817D01*
X172745885Y-100446541D01*
X172745888Y-100446545D01*
X172843454Y-100544111D01*
X172843458Y-100544114D01*
X172958182Y-100620771D01*
X172958195Y-100620778D01*
X173073193Y-100668411D01*
X173085672Y-100673580D01*
X173085676Y-100673580D01*
X173085677Y-100673581D01*
X173221004Y-100700500D01*
X173221007Y-100700500D01*
X173358995Y-100700500D01*
X173450041Y-100682389D01*
X173494328Y-100673580D01*
X173621811Y-100620775D01*
X173736542Y-100544114D01*
X173834114Y-100446542D01*
X173910775Y-100331811D01*
X173963580Y-100204328D01*
X173990500Y-100068993D01*
X173990500Y-99931007D01*
X173990500Y-99931004D01*
X173963581Y-99795677D01*
X173963580Y-99795676D01*
X173963580Y-99795672D01*
X173963578Y-99795667D01*
X173910778Y-99668195D01*
X173910771Y-99668182D01*
X173860797Y-99593391D01*
X173839919Y-99526714D01*
X173858403Y-99459333D01*
X173910382Y-99412643D01*
X173963899Y-99400500D01*
X178425500Y-99400500D01*
X178492539Y-99420185D01*
X178538294Y-99472989D01*
X178549500Y-99524500D01*
X178549500Y-100951122D01*
X178549501Y-100951125D01*
X178552399Y-100993886D01*
X178552399Y-100993887D01*
X178598360Y-101178696D01*
X178682967Y-101349292D01*
X178682969Y-101349295D01*
X178802277Y-101497721D01*
X178802278Y-101497722D01*
X178950704Y-101617030D01*
X178950707Y-101617032D01*
X179121302Y-101701639D01*
X179121303Y-101701639D01*
X179121307Y-101701641D01*
X179306111Y-101747600D01*
X179348877Y-101750500D01*
X183251122Y-101750499D01*
X183293889Y-101747600D01*
X183478693Y-101701641D01*
X183649296Y-101617030D01*
X183797722Y-101497722D01*
X183917030Y-101349296D01*
X184001641Y-101178693D01*
X184047600Y-100993889D01*
X184050500Y-100951123D01*
X184050499Y-99048878D01*
X184047600Y-99006111D01*
X184001641Y-98821307D01*
X183949740Y-98716657D01*
X183917032Y-98650707D01*
X183917030Y-98650704D01*
X183797722Y-98502278D01*
X183797721Y-98502277D01*
X183649295Y-98382969D01*
X183649292Y-98382967D01*
X183478697Y-98298360D01*
X183293892Y-98252400D01*
X183268229Y-98250660D01*
X183251123Y-98249500D01*
X183251121Y-98249500D01*
X180591519Y-98249500D01*
X180524480Y-98229815D01*
X180503842Y-98213185D01*
X180446543Y-98155886D01*
X180334135Y-98080778D01*
X180331807Y-98079222D01*
X180204332Y-98026421D01*
X180204322Y-98026418D01*
X180068996Y-97999500D01*
X180068994Y-97999500D01*
X180068993Y-97999500D01*
X174003990Y-97999500D01*
X173936951Y-97979815D01*
X173891196Y-97927011D01*
X173881252Y-97857853D01*
X173900888Y-97806609D01*
X173910771Y-97791817D01*
X173910771Y-97791816D01*
X173910775Y-97791811D01*
X173963580Y-97664328D01*
X173990500Y-97528993D01*
X173990500Y-97391007D01*
X173990500Y-97391004D01*
X173963581Y-97255677D01*
X173963580Y-97255676D01*
X173963580Y-97255672D01*
X173963578Y-97255667D01*
X173910778Y-97128195D01*
X173910771Y-97128182D01*
X173834114Y-97013458D01*
X173834111Y-97013454D01*
X173736545Y-96915888D01*
X173736541Y-96915885D01*
X173621817Y-96839228D01*
X173621804Y-96839221D01*
X173494332Y-96786421D01*
X173494322Y-96786418D01*
X173358995Y-96759500D01*
X173358993Y-96759500D01*
X173221007Y-96759500D01*
X173221005Y-96759500D01*
X173085677Y-96786418D01*
X173085667Y-96786421D01*
X172958195Y-96839221D01*
X172958182Y-96839228D01*
X172843458Y-96915885D01*
X172843454Y-96915888D01*
X172745888Y-97013454D01*
X172745885Y-97013458D01*
X172669228Y-97128182D01*
X172669221Y-97128195D01*
X172616421Y-97255667D01*
X172616418Y-97255677D01*
X172589500Y-97391004D01*
X172589500Y-97391007D01*
X172589500Y-97528993D01*
X172589500Y-97528995D01*
X172589499Y-97528995D01*
X172616418Y-97664322D01*
X172616421Y-97664332D01*
X172669221Y-97791804D01*
X172669228Y-97791817D01*
X172679112Y-97806609D01*
X172699990Y-97873287D01*
X172681505Y-97940667D01*
X172629526Y-97987357D01*
X172576010Y-97999500D01*
X169851004Y-97999500D01*
X169715677Y-98026418D01*
X169715667Y-98026421D01*
X169588192Y-98079222D01*
X169473454Y-98155887D01*
X169116823Y-98512518D01*
X169055500Y-98546003D01*
X168990824Y-98542768D01*
X168971370Y-98536447D01*
X168738097Y-98499500D01*
X168738092Y-98499500D01*
X168501908Y-98499500D01*
X168501903Y-98499500D01*
X168268631Y-98536446D01*
X168044003Y-98609433D01*
X167833566Y-98716657D01*
X167777119Y-98757669D01*
X167642490Y-98855483D01*
X167642488Y-98855485D01*
X167642487Y-98855485D01*
X167475485Y-99022487D01*
X167475485Y-99022488D01*
X167475483Y-99022490D01*
X167438728Y-99073079D01*
X167336657Y-99213566D01*
X167229433Y-99424003D01*
X167156446Y-99648631D01*
X167119500Y-99881902D01*
X166360733Y-99881902D01*
X166343581Y-99795677D01*
X166343580Y-99795676D01*
X166343580Y-99795672D01*
X166343578Y-99795667D01*
X166290778Y-99668195D01*
X166290771Y-99668182D01*
X166214114Y-99553458D01*
X166214111Y-99553454D01*
X166116545Y-99455888D01*
X166116541Y-99455885D01*
X166001817Y-99379228D01*
X166001804Y-99379221D01*
X165874332Y-99326421D01*
X165874322Y-99326418D01*
X165738995Y-99299500D01*
X165738993Y-99299500D01*
X165601007Y-99299500D01*
X165601005Y-99299500D01*
X165465677Y-99326418D01*
X165465667Y-99326421D01*
X165338195Y-99379221D01*
X165338182Y-99379228D01*
X165223458Y-99455885D01*
X165223454Y-99455888D01*
X165125888Y-99553454D01*
X165125885Y-99553458D01*
X165049228Y-99668182D01*
X165049221Y-99668195D01*
X164996421Y-99795667D01*
X164996418Y-99795677D01*
X164969500Y-99931004D01*
X164969500Y-99931007D01*
X164969500Y-100068993D01*
X164969500Y-100068995D01*
X164969499Y-100068995D01*
X123777360Y-100068995D01*
X123788832Y-100058832D01*
X123965363Y-99859570D01*
X124009466Y-99795677D01*
X124014807Y-99787938D01*
X124116589Y-99640483D01*
X124240303Y-99404764D01*
X124334703Y-99155852D01*
X124398412Y-98897376D01*
X124430500Y-98633106D01*
X124430500Y-98500000D01*
X124430500Y-98421073D01*
X124430500Y-97528995D01*
X164969499Y-97528995D01*
X164996418Y-97664322D01*
X164996421Y-97664332D01*
X165049221Y-97791804D01*
X165049228Y-97791817D01*
X165125885Y-97906541D01*
X165125888Y-97906545D01*
X165223454Y-98004111D01*
X165223458Y-98004114D01*
X165338182Y-98080771D01*
X165338195Y-98080778D01*
X165465667Y-98133578D01*
X165465672Y-98133580D01*
X165465676Y-98133580D01*
X165465677Y-98133581D01*
X165601004Y-98160500D01*
X165601007Y-98160500D01*
X165738995Y-98160500D01*
X165830041Y-98142389D01*
X165874328Y-98133580D01*
X166001811Y-98080775D01*
X166116542Y-98004114D01*
X166214114Y-97906542D01*
X166290775Y-97791811D01*
X166343580Y-97664328D01*
X166370500Y-97528993D01*
X166370500Y-97391007D01*
X166370500Y-97391004D01*
X166343581Y-97255677D01*
X166343580Y-97255676D01*
X166343580Y-97255672D01*
X166343578Y-97255667D01*
X166290778Y-97128195D01*
X166290771Y-97128182D01*
X166214114Y-97013458D01*
X166214111Y-97013454D01*
X166116545Y-96915888D01*
X166116541Y-96915885D01*
X166001817Y-96839228D01*
X166001804Y-96839221D01*
X165874332Y-96786421D01*
X165874322Y-96786418D01*
X165738995Y-96759500D01*
X165738993Y-96759500D01*
X165601007Y-96759500D01*
X165601005Y-96759500D01*
X165465677Y-96786418D01*
X165465667Y-96786421D01*
X165338195Y-96839221D01*
X165338182Y-96839228D01*
X165223458Y-96915885D01*
X165223454Y-96915888D01*
X165125888Y-97013454D01*
X165125885Y-97013458D01*
X165049228Y-97128182D01*
X165049221Y-97128195D01*
X164996421Y-97255667D01*
X164996418Y-97255677D01*
X164969500Y-97391004D01*
X164969500Y-97391007D01*
X164969500Y-97528993D01*
X164969500Y-97528995D01*
X164969499Y-97528995D01*
X124430500Y-97528995D01*
X124430500Y-96910671D01*
X124450185Y-96843632D01*
X124502989Y-96797877D01*
X124572147Y-96787933D01*
X124623394Y-96807571D01*
X124628189Y-96810775D01*
X124628191Y-96810776D01*
X124628195Y-96810778D01*
X124707513Y-96843632D01*
X124755672Y-96863580D01*
X124755676Y-96863580D01*
X124755677Y-96863581D01*
X124891004Y-96890500D01*
X124891007Y-96890500D01*
X125028995Y-96890500D01*
X125120041Y-96872389D01*
X125164328Y-96863580D01*
X125291811Y-96810775D01*
X125406542Y-96734114D01*
X125504114Y-96636542D01*
X125580775Y-96521811D01*
X125633580Y-96394328D01*
X125642389Y-96350041D01*
X125660500Y-96258995D01*
X126799499Y-96258995D01*
X126826418Y-96394322D01*
X126826421Y-96394332D01*
X126879221Y-96521804D01*
X126879228Y-96521817D01*
X126955885Y-96636541D01*
X126955888Y-96636545D01*
X127053454Y-96734111D01*
X127053458Y-96734114D01*
X127168182Y-96810771D01*
X127168195Y-96810778D01*
X127247513Y-96843632D01*
X127295672Y-96863580D01*
X127295676Y-96863580D01*
X127295677Y-96863581D01*
X127431004Y-96890500D01*
X127431007Y-96890500D01*
X127568995Y-96890500D01*
X127660041Y-96872389D01*
X127704328Y-96863580D01*
X127831811Y-96810775D01*
X127946542Y-96734114D01*
X128044114Y-96636542D01*
X128120775Y-96521811D01*
X128173580Y-96394328D01*
X128182389Y-96350041D01*
X128200500Y-96258995D01*
X129339499Y-96258995D01*
X129366418Y-96394322D01*
X129366421Y-96394332D01*
X129419221Y-96521804D01*
X129419228Y-96521817D01*
X129495885Y-96636541D01*
X129495888Y-96636545D01*
X129593454Y-96734111D01*
X129593458Y-96734114D01*
X129708182Y-96810771D01*
X129708195Y-96810778D01*
X129787513Y-96843632D01*
X129835672Y-96863580D01*
X129835676Y-96863580D01*
X129835677Y-96863581D01*
X129971004Y-96890500D01*
X129971007Y-96890500D01*
X130108995Y-96890500D01*
X130200041Y-96872389D01*
X130244328Y-96863580D01*
X130371811Y-96810775D01*
X130486542Y-96734114D01*
X130584114Y-96636542D01*
X130660775Y-96521811D01*
X130713580Y-96394328D01*
X130722389Y-96350041D01*
X130740500Y-96258995D01*
X131879499Y-96258995D01*
X131906418Y-96394322D01*
X131906421Y-96394332D01*
X131959221Y-96521804D01*
X131959228Y-96521817D01*
X132035885Y-96636541D01*
X132035888Y-96636545D01*
X132133454Y-96734111D01*
X132133458Y-96734114D01*
X132248182Y-96810771D01*
X132248195Y-96810778D01*
X132327513Y-96843632D01*
X132375672Y-96863580D01*
X132375676Y-96863580D01*
X132375677Y-96863581D01*
X132511004Y-96890500D01*
X132511007Y-96890500D01*
X132648995Y-96890500D01*
X132740041Y-96872389D01*
X132784328Y-96863580D01*
X132911811Y-96810775D01*
X133026542Y-96734114D01*
X133124114Y-96636542D01*
X133200775Y-96521811D01*
X133253580Y-96394328D01*
X133262389Y-96350041D01*
X133280500Y-96258995D01*
X134419499Y-96258995D01*
X134446418Y-96394322D01*
X134446421Y-96394332D01*
X134499221Y-96521804D01*
X134499228Y-96521817D01*
X134575885Y-96636541D01*
X134575888Y-96636545D01*
X134673454Y-96734111D01*
X134673458Y-96734114D01*
X134788182Y-96810771D01*
X134788195Y-96810778D01*
X134867513Y-96843632D01*
X134915672Y-96863580D01*
X134915676Y-96863580D01*
X134915677Y-96863581D01*
X135051004Y-96890500D01*
X135051007Y-96890500D01*
X135188995Y-96890500D01*
X135280041Y-96872389D01*
X135324328Y-96863580D01*
X135451811Y-96810775D01*
X135566542Y-96734114D01*
X135664114Y-96636542D01*
X135740775Y-96521811D01*
X135793580Y-96394328D01*
X135802389Y-96350041D01*
X135820500Y-96258995D01*
X136959499Y-96258995D01*
X136986418Y-96394322D01*
X136986421Y-96394332D01*
X137039221Y-96521804D01*
X137039228Y-96521817D01*
X137115885Y-96636541D01*
X137115888Y-96636545D01*
X137213454Y-96734111D01*
X137213458Y-96734114D01*
X137328182Y-96810771D01*
X137328195Y-96810778D01*
X137407513Y-96843632D01*
X137455672Y-96863580D01*
X137455676Y-96863580D01*
X137455677Y-96863581D01*
X137591004Y-96890500D01*
X137591007Y-96890500D01*
X137728995Y-96890500D01*
X137820041Y-96872389D01*
X137864328Y-96863580D01*
X137991811Y-96810775D01*
X138106542Y-96734114D01*
X138204114Y-96636542D01*
X138280775Y-96521811D01*
X138333580Y-96394328D01*
X138342389Y-96350041D01*
X138360500Y-96258995D01*
X139499499Y-96258995D01*
X139526418Y-96394322D01*
X139526421Y-96394332D01*
X139579221Y-96521804D01*
X139579228Y-96521817D01*
X139655885Y-96636541D01*
X139655888Y-96636545D01*
X139753454Y-96734111D01*
X139753458Y-96734114D01*
X139868182Y-96810771D01*
X139868195Y-96810778D01*
X139947513Y-96843632D01*
X139995672Y-96863580D01*
X139995676Y-96863580D01*
X139995677Y-96863581D01*
X140131004Y-96890500D01*
X140131007Y-96890500D01*
X140268995Y-96890500D01*
X140360041Y-96872389D01*
X140404328Y-96863580D01*
X140531811Y-96810775D01*
X140646542Y-96734114D01*
X140744114Y-96636542D01*
X140820775Y-96521811D01*
X140873580Y-96394328D01*
X140882389Y-96350041D01*
X140900500Y-96258995D01*
X142039499Y-96258995D01*
X142066418Y-96394322D01*
X142066421Y-96394332D01*
X142119221Y-96521804D01*
X142119228Y-96521817D01*
X142195885Y-96636541D01*
X142195888Y-96636545D01*
X142293454Y-96734111D01*
X142293458Y-96734114D01*
X142408182Y-96810771D01*
X142408195Y-96810778D01*
X142487513Y-96843632D01*
X142535672Y-96863580D01*
X142535676Y-96863580D01*
X142535677Y-96863581D01*
X142671004Y-96890500D01*
X142671007Y-96890500D01*
X142808995Y-96890500D01*
X142900041Y-96872389D01*
X142944328Y-96863580D01*
X143071811Y-96810775D01*
X143186542Y-96734114D01*
X143284114Y-96636542D01*
X143360775Y-96521811D01*
X143413580Y-96394328D01*
X143422389Y-96350041D01*
X143440500Y-96258995D01*
X144579499Y-96258995D01*
X144606418Y-96394322D01*
X144606421Y-96394332D01*
X144659221Y-96521804D01*
X144659228Y-96521817D01*
X144735885Y-96636541D01*
X144735888Y-96636545D01*
X144833454Y-96734111D01*
X144833458Y-96734114D01*
X144948182Y-96810771D01*
X144948195Y-96810778D01*
X145027513Y-96843632D01*
X145075672Y-96863580D01*
X145075676Y-96863580D01*
X145075677Y-96863581D01*
X145211004Y-96890500D01*
X145211007Y-96890500D01*
X145348995Y-96890500D01*
X145440041Y-96872389D01*
X145484328Y-96863580D01*
X145611811Y-96810775D01*
X145726542Y-96734114D01*
X145824114Y-96636542D01*
X145900775Y-96521811D01*
X145953580Y-96394328D01*
X145962389Y-96350041D01*
X145980500Y-96258995D01*
X147119499Y-96258995D01*
X147146418Y-96394322D01*
X147146421Y-96394332D01*
X147199221Y-96521804D01*
X147199228Y-96521817D01*
X147275885Y-96636541D01*
X147275888Y-96636545D01*
X147373454Y-96734111D01*
X147373458Y-96734114D01*
X147488182Y-96810771D01*
X147488195Y-96810778D01*
X147567513Y-96843632D01*
X147615672Y-96863580D01*
X147615676Y-96863580D01*
X147615677Y-96863581D01*
X147751004Y-96890500D01*
X147751007Y-96890500D01*
X147888995Y-96890500D01*
X147980041Y-96872389D01*
X148024328Y-96863580D01*
X148151811Y-96810775D01*
X148266542Y-96734114D01*
X148364114Y-96636542D01*
X148440775Y-96521811D01*
X148493580Y-96394328D01*
X148502389Y-96350041D01*
X148520500Y-96258995D01*
X149659499Y-96258995D01*
X149686418Y-96394322D01*
X149686421Y-96394332D01*
X149739221Y-96521804D01*
X149739228Y-96521817D01*
X149815885Y-96636541D01*
X149815888Y-96636545D01*
X149913454Y-96734111D01*
X149913458Y-96734114D01*
X150028182Y-96810771D01*
X150028195Y-96810778D01*
X150107513Y-96843632D01*
X150155672Y-96863580D01*
X150155676Y-96863580D01*
X150155677Y-96863581D01*
X150291004Y-96890500D01*
X150291007Y-96890500D01*
X150428995Y-96890500D01*
X150520041Y-96872389D01*
X150564328Y-96863580D01*
X150691811Y-96810775D01*
X150806542Y-96734114D01*
X150904114Y-96636542D01*
X150980775Y-96521811D01*
X151033580Y-96394328D01*
X151042389Y-96350041D01*
X151060500Y-96258995D01*
X152199499Y-96258995D01*
X152226418Y-96394322D01*
X152226421Y-96394332D01*
X152279221Y-96521804D01*
X152279228Y-96521817D01*
X152355885Y-96636541D01*
X152355888Y-96636545D01*
X152453454Y-96734111D01*
X152453458Y-96734114D01*
X152568182Y-96810771D01*
X152568195Y-96810778D01*
X152647513Y-96843632D01*
X152695672Y-96863580D01*
X152695676Y-96863580D01*
X152695677Y-96863581D01*
X152831004Y-96890500D01*
X152831007Y-96890500D01*
X152968995Y-96890500D01*
X153060041Y-96872389D01*
X153104328Y-96863580D01*
X153231811Y-96810775D01*
X153346542Y-96734114D01*
X153444114Y-96636542D01*
X153520775Y-96521811D01*
X153573580Y-96394328D01*
X153582389Y-96350041D01*
X153600500Y-96258995D01*
X154739499Y-96258995D01*
X154766418Y-96394322D01*
X154766421Y-96394332D01*
X154819221Y-96521804D01*
X154819228Y-96521817D01*
X154895885Y-96636541D01*
X154895888Y-96636545D01*
X154993454Y-96734111D01*
X154993458Y-96734114D01*
X155108182Y-96810771D01*
X155108195Y-96810778D01*
X155187513Y-96843632D01*
X155235672Y-96863580D01*
X155235676Y-96863580D01*
X155235677Y-96863581D01*
X155371004Y-96890500D01*
X155371007Y-96890500D01*
X155508995Y-96890500D01*
X155600041Y-96872389D01*
X155644328Y-96863580D01*
X155771811Y-96810775D01*
X155886542Y-96734114D01*
X155984114Y-96636542D01*
X156060775Y-96521811D01*
X156113580Y-96394328D01*
X156122389Y-96350041D01*
X156140500Y-96258995D01*
X157279499Y-96258995D01*
X157306418Y-96394322D01*
X157306421Y-96394332D01*
X157359221Y-96521804D01*
X157359228Y-96521817D01*
X157435885Y-96636541D01*
X157435888Y-96636545D01*
X157533454Y-96734111D01*
X157533458Y-96734114D01*
X157648182Y-96810771D01*
X157648195Y-96810778D01*
X157727513Y-96843632D01*
X157775672Y-96863580D01*
X157775676Y-96863580D01*
X157775677Y-96863581D01*
X157911004Y-96890500D01*
X157911007Y-96890500D01*
X158048995Y-96890500D01*
X158140041Y-96872389D01*
X158184328Y-96863580D01*
X158311811Y-96810775D01*
X158426542Y-96734114D01*
X158524114Y-96636542D01*
X158600775Y-96521811D01*
X158653580Y-96394328D01*
X158662389Y-96350041D01*
X158680500Y-96258995D01*
X159819499Y-96258995D01*
X159846418Y-96394322D01*
X159846421Y-96394332D01*
X159899221Y-96521804D01*
X159899228Y-96521817D01*
X159975885Y-96636541D01*
X159975888Y-96636545D01*
X160073454Y-96734111D01*
X160073458Y-96734114D01*
X160188182Y-96810771D01*
X160188195Y-96810778D01*
X160267513Y-96843632D01*
X160315672Y-96863580D01*
X160315676Y-96863580D01*
X160315677Y-96863581D01*
X160451004Y-96890500D01*
X160451007Y-96890500D01*
X160588995Y-96890500D01*
X160680041Y-96872389D01*
X160724328Y-96863580D01*
X160851811Y-96810775D01*
X160966542Y-96734114D01*
X161064114Y-96636542D01*
X161140775Y-96521811D01*
X161193580Y-96394328D01*
X161202389Y-96350041D01*
X161220500Y-96258995D01*
X162359499Y-96258995D01*
X162386418Y-96394322D01*
X162386421Y-96394332D01*
X162439221Y-96521804D01*
X162439228Y-96521817D01*
X162515885Y-96636541D01*
X162515888Y-96636545D01*
X162613454Y-96734111D01*
X162613458Y-96734114D01*
X162728182Y-96810771D01*
X162728195Y-96810778D01*
X162807513Y-96843632D01*
X162855672Y-96863580D01*
X162855676Y-96863580D01*
X162855677Y-96863581D01*
X162991004Y-96890500D01*
X162991007Y-96890500D01*
X163128995Y-96890500D01*
X163220041Y-96872389D01*
X163264328Y-96863580D01*
X163391811Y-96810775D01*
X163506542Y-96734114D01*
X163604114Y-96636542D01*
X163680775Y-96521811D01*
X163733580Y-96394328D01*
X163742389Y-96350041D01*
X163760500Y-96258995D01*
X163760500Y-96121004D01*
X163733581Y-95985677D01*
X163733580Y-95985676D01*
X163733580Y-95985672D01*
X163733578Y-95985667D01*
X163680778Y-95858195D01*
X163680771Y-95858182D01*
X163604114Y-95743458D01*
X163604111Y-95743454D01*
X163506545Y-95645888D01*
X163506541Y-95645885D01*
X163391817Y-95569228D01*
X163391804Y-95569221D01*
X163264332Y-95516421D01*
X163264322Y-95516418D01*
X163128995Y-95489500D01*
X163128993Y-95489500D01*
X162991007Y-95489500D01*
X162991005Y-95489500D01*
X162855677Y-95516418D01*
X162855667Y-95516421D01*
X162728195Y-95569221D01*
X162728182Y-95569228D01*
X162613458Y-95645885D01*
X162613454Y-95645888D01*
X162515888Y-95743454D01*
X162515885Y-95743458D01*
X162439228Y-95858182D01*
X162439221Y-95858195D01*
X162386421Y-95985667D01*
X162386418Y-95985677D01*
X162359500Y-96121004D01*
X162359500Y-96121007D01*
X162359500Y-96258993D01*
X162359500Y-96258995D01*
X162359499Y-96258995D01*
X161220500Y-96258995D01*
X161220500Y-96121004D01*
X161193581Y-95985677D01*
X161193580Y-95985676D01*
X161193580Y-95985672D01*
X161193578Y-95985667D01*
X161140778Y-95858195D01*
X161140771Y-95858182D01*
X161064114Y-95743458D01*
X161064111Y-95743454D01*
X160966545Y-95645888D01*
X160966541Y-95645885D01*
X160851817Y-95569228D01*
X160851804Y-95569221D01*
X160724332Y-95516421D01*
X160724322Y-95516418D01*
X160588995Y-95489500D01*
X160588993Y-95489500D01*
X160451007Y-95489500D01*
X160451005Y-95489500D01*
X160315677Y-95516418D01*
X160315667Y-95516421D01*
X160188195Y-95569221D01*
X160188182Y-95569228D01*
X160073458Y-95645885D01*
X160073454Y-95645888D01*
X159975888Y-95743454D01*
X159975885Y-95743458D01*
X159899228Y-95858182D01*
X159899221Y-95858195D01*
X159846421Y-95985667D01*
X159846418Y-95985677D01*
X159819500Y-96121004D01*
X159819500Y-96121007D01*
X159819500Y-96258993D01*
X159819500Y-96258995D01*
X159819499Y-96258995D01*
X158680500Y-96258995D01*
X158680500Y-96121004D01*
X158653581Y-95985677D01*
X158653580Y-95985676D01*
X158653580Y-95985672D01*
X158653578Y-95985667D01*
X158600778Y-95858195D01*
X158600771Y-95858182D01*
X158524114Y-95743458D01*
X158524111Y-95743454D01*
X158426545Y-95645888D01*
X158426541Y-95645885D01*
X158311817Y-95569228D01*
X158311804Y-95569221D01*
X158184332Y-95516421D01*
X158184322Y-95516418D01*
X158048995Y-95489500D01*
X158048993Y-95489500D01*
X157911007Y-95489500D01*
X157911005Y-95489500D01*
X157775677Y-95516418D01*
X157775667Y-95516421D01*
X157648195Y-95569221D01*
X157648182Y-95569228D01*
X157533458Y-95645885D01*
X157533454Y-95645888D01*
X157435888Y-95743454D01*
X157435885Y-95743458D01*
X157359228Y-95858182D01*
X157359221Y-95858195D01*
X157306421Y-95985667D01*
X157306418Y-95985677D01*
X157279500Y-96121004D01*
X157279500Y-96121007D01*
X157279500Y-96258993D01*
X157279500Y-96258995D01*
X157279499Y-96258995D01*
X156140500Y-96258995D01*
X156140500Y-96121004D01*
X156113581Y-95985677D01*
X156113580Y-95985676D01*
X156113580Y-95985672D01*
X156113578Y-95985667D01*
X156060778Y-95858195D01*
X156060771Y-95858182D01*
X155984114Y-95743458D01*
X155984111Y-95743454D01*
X155886545Y-95645888D01*
X155886541Y-95645885D01*
X155771817Y-95569228D01*
X155771804Y-95569221D01*
X155644332Y-95516421D01*
X155644322Y-95516418D01*
X155508995Y-95489500D01*
X155508993Y-95489500D01*
X155371007Y-95489500D01*
X155371005Y-95489500D01*
X155235677Y-95516418D01*
X155235667Y-95516421D01*
X155108195Y-95569221D01*
X155108182Y-95569228D01*
X154993458Y-95645885D01*
X154993454Y-95645888D01*
X154895888Y-95743454D01*
X154895885Y-95743458D01*
X154819228Y-95858182D01*
X154819221Y-95858195D01*
X154766421Y-95985667D01*
X154766418Y-95985677D01*
X154739500Y-96121004D01*
X154739500Y-96121007D01*
X154739500Y-96258993D01*
X154739500Y-96258995D01*
X154739499Y-96258995D01*
X153600500Y-96258995D01*
X153600500Y-96121004D01*
X153573581Y-95985677D01*
X153573580Y-95985676D01*
X153573580Y-95985672D01*
X153573578Y-95985667D01*
X153520778Y-95858195D01*
X153520771Y-95858182D01*
X153444114Y-95743458D01*
X153444111Y-95743454D01*
X153346545Y-95645888D01*
X153346541Y-95645885D01*
X153231817Y-95569228D01*
X153231804Y-95569221D01*
X153104332Y-95516421D01*
X153104322Y-95516418D01*
X152968995Y-95489500D01*
X152968993Y-95489500D01*
X152831007Y-95489500D01*
X152831005Y-95489500D01*
X152695677Y-95516418D01*
X152695667Y-95516421D01*
X152568195Y-95569221D01*
X152568182Y-95569228D01*
X152453458Y-95645885D01*
X152453454Y-95645888D01*
X152355888Y-95743454D01*
X152355885Y-95743458D01*
X152279228Y-95858182D01*
X152279221Y-95858195D01*
X152226421Y-95985667D01*
X152226418Y-95985677D01*
X152199500Y-96121004D01*
X152199500Y-96121007D01*
X152199500Y-96258993D01*
X152199500Y-96258995D01*
X152199499Y-96258995D01*
X151060500Y-96258995D01*
X151060500Y-96121004D01*
X151033581Y-95985677D01*
X151033580Y-95985676D01*
X151033580Y-95985672D01*
X151033578Y-95985667D01*
X150980778Y-95858195D01*
X150980771Y-95858182D01*
X150904114Y-95743458D01*
X150904111Y-95743454D01*
X150806545Y-95645888D01*
X150806541Y-95645885D01*
X150691817Y-95569228D01*
X150691804Y-95569221D01*
X150564332Y-95516421D01*
X150564322Y-95516418D01*
X150428995Y-95489500D01*
X150428993Y-95489500D01*
X150291007Y-95489500D01*
X150291005Y-95489500D01*
X150155677Y-95516418D01*
X150155667Y-95516421D01*
X150028195Y-95569221D01*
X150028182Y-95569228D01*
X149913458Y-95645885D01*
X149913454Y-95645888D01*
X149815888Y-95743454D01*
X149815885Y-95743458D01*
X149739228Y-95858182D01*
X149739221Y-95858195D01*
X149686421Y-95985667D01*
X149686418Y-95985677D01*
X149659500Y-96121004D01*
X149659500Y-96121007D01*
X149659500Y-96258993D01*
X149659500Y-96258995D01*
X149659499Y-96258995D01*
X148520500Y-96258995D01*
X148520500Y-96121004D01*
X148493581Y-95985677D01*
X148493580Y-95985676D01*
X148493580Y-95985672D01*
X148493578Y-95985667D01*
X148440778Y-95858195D01*
X148440771Y-95858182D01*
X148364114Y-95743458D01*
X148364111Y-95743454D01*
X148266545Y-95645888D01*
X148266541Y-95645885D01*
X148151817Y-95569228D01*
X148151804Y-95569221D01*
X148024332Y-95516421D01*
X148024322Y-95516418D01*
X147888995Y-95489500D01*
X147888993Y-95489500D01*
X147751007Y-95489500D01*
X147751005Y-95489500D01*
X147615677Y-95516418D01*
X147615667Y-95516421D01*
X147488195Y-95569221D01*
X147488182Y-95569228D01*
X147373458Y-95645885D01*
X147373454Y-95645888D01*
X147275888Y-95743454D01*
X147275885Y-95743458D01*
X147199228Y-95858182D01*
X147199221Y-95858195D01*
X147146421Y-95985667D01*
X147146418Y-95985677D01*
X147119500Y-96121004D01*
X147119500Y-96121007D01*
X147119500Y-96258993D01*
X147119500Y-96258995D01*
X147119499Y-96258995D01*
X145980500Y-96258995D01*
X145980500Y-96121004D01*
X145953581Y-95985677D01*
X145953580Y-95985676D01*
X145953580Y-95985672D01*
X145953578Y-95985667D01*
X145900778Y-95858195D01*
X145900771Y-95858182D01*
X145824114Y-95743458D01*
X145824111Y-95743454D01*
X145726545Y-95645888D01*
X145726541Y-95645885D01*
X145611817Y-95569228D01*
X145611804Y-95569221D01*
X145484332Y-95516421D01*
X145484322Y-95516418D01*
X145348995Y-95489500D01*
X145348993Y-95489500D01*
X145211007Y-95489500D01*
X145211005Y-95489500D01*
X145075677Y-95516418D01*
X145075667Y-95516421D01*
X144948195Y-95569221D01*
X144948182Y-95569228D01*
X144833458Y-95645885D01*
X144833454Y-95645888D01*
X144735888Y-95743454D01*
X144735885Y-95743458D01*
X144659228Y-95858182D01*
X144659221Y-95858195D01*
X144606421Y-95985667D01*
X144606418Y-95985677D01*
X144579500Y-96121004D01*
X144579500Y-96121007D01*
X144579500Y-96258993D01*
X144579500Y-96258995D01*
X144579499Y-96258995D01*
X143440500Y-96258995D01*
X143440500Y-96121004D01*
X143413581Y-95985677D01*
X143413580Y-95985676D01*
X143413580Y-95985672D01*
X143413578Y-95985667D01*
X143360778Y-95858195D01*
X143360771Y-95858182D01*
X143284114Y-95743458D01*
X143284111Y-95743454D01*
X143186545Y-95645888D01*
X143186541Y-95645885D01*
X143071817Y-95569228D01*
X143071804Y-95569221D01*
X142944332Y-95516421D01*
X142944322Y-95516418D01*
X142808995Y-95489500D01*
X142808993Y-95489500D01*
X142671007Y-95489500D01*
X142671005Y-95489500D01*
X142535677Y-95516418D01*
X142535667Y-95516421D01*
X142408195Y-95569221D01*
X142408182Y-95569228D01*
X142293458Y-95645885D01*
X142293454Y-95645888D01*
X142195888Y-95743454D01*
X142195885Y-95743458D01*
X142119228Y-95858182D01*
X142119221Y-95858195D01*
X142066421Y-95985667D01*
X142066418Y-95985677D01*
X142039500Y-96121004D01*
X142039500Y-96121007D01*
X142039500Y-96258993D01*
X142039500Y-96258995D01*
X142039499Y-96258995D01*
X140900500Y-96258995D01*
X140900500Y-96121004D01*
X140873581Y-95985677D01*
X140873580Y-95985676D01*
X140873580Y-95985672D01*
X140873578Y-95985667D01*
X140820778Y-95858195D01*
X140820771Y-95858182D01*
X140744114Y-95743458D01*
X140744111Y-95743454D01*
X140646545Y-95645888D01*
X140646541Y-95645885D01*
X140531817Y-95569228D01*
X140531804Y-95569221D01*
X140404332Y-95516421D01*
X140404322Y-95516418D01*
X140268995Y-95489500D01*
X140268993Y-95489500D01*
X140131007Y-95489500D01*
X140131005Y-95489500D01*
X139995677Y-95516418D01*
X139995667Y-95516421D01*
X139868195Y-95569221D01*
X139868182Y-95569228D01*
X139753458Y-95645885D01*
X139753454Y-95645888D01*
X139655888Y-95743454D01*
X139655885Y-95743458D01*
X139579228Y-95858182D01*
X139579221Y-95858195D01*
X139526421Y-95985667D01*
X139526418Y-95985677D01*
X139499500Y-96121004D01*
X139499500Y-96121007D01*
X139499500Y-96258993D01*
X139499500Y-96258995D01*
X139499499Y-96258995D01*
X138360500Y-96258995D01*
X138360500Y-96121004D01*
X138333581Y-95985677D01*
X138333580Y-95985676D01*
X138333580Y-95985672D01*
X138333578Y-95985667D01*
X138280778Y-95858195D01*
X138280771Y-95858182D01*
X138204114Y-95743458D01*
X138204111Y-95743454D01*
X138106545Y-95645888D01*
X138106541Y-95645885D01*
X137991817Y-95569228D01*
X137991804Y-95569221D01*
X137864332Y-95516421D01*
X137864322Y-95516418D01*
X137728995Y-95489500D01*
X137728993Y-95489500D01*
X137591007Y-95489500D01*
X137591005Y-95489500D01*
X137455677Y-95516418D01*
X137455667Y-95516421D01*
X137328195Y-95569221D01*
X137328182Y-95569228D01*
X137213458Y-95645885D01*
X137213454Y-95645888D01*
X137115888Y-95743454D01*
X137115885Y-95743458D01*
X137039228Y-95858182D01*
X137039221Y-95858195D01*
X136986421Y-95985667D01*
X136986418Y-95985677D01*
X136959500Y-96121004D01*
X136959500Y-96121007D01*
X136959500Y-96258993D01*
X136959500Y-96258995D01*
X136959499Y-96258995D01*
X135820500Y-96258995D01*
X135820500Y-96121004D01*
X135793581Y-95985677D01*
X135793580Y-95985676D01*
X135793580Y-95985672D01*
X135793578Y-95985667D01*
X135740778Y-95858195D01*
X135740771Y-95858182D01*
X135664114Y-95743458D01*
X135664111Y-95743454D01*
X135566545Y-95645888D01*
X135566541Y-95645885D01*
X135451817Y-95569228D01*
X135451804Y-95569221D01*
X135324332Y-95516421D01*
X135324322Y-95516418D01*
X135188995Y-95489500D01*
X135188993Y-95489500D01*
X135051007Y-95489500D01*
X135051005Y-95489500D01*
X134915677Y-95516418D01*
X134915667Y-95516421D01*
X134788195Y-95569221D01*
X134788182Y-95569228D01*
X134673458Y-95645885D01*
X134673454Y-95645888D01*
X134575888Y-95743454D01*
X134575885Y-95743458D01*
X134499228Y-95858182D01*
X134499221Y-95858195D01*
X134446421Y-95985667D01*
X134446418Y-95985677D01*
X134419500Y-96121004D01*
X134419500Y-96121007D01*
X134419500Y-96258993D01*
X134419500Y-96258995D01*
X134419499Y-96258995D01*
X133280500Y-96258995D01*
X133280500Y-96121004D01*
X133253581Y-95985677D01*
X133253580Y-95985676D01*
X133253580Y-95985672D01*
X133253578Y-95985667D01*
X133200778Y-95858195D01*
X133200771Y-95858182D01*
X133124114Y-95743458D01*
X133124111Y-95743454D01*
X133026545Y-95645888D01*
X133026541Y-95645885D01*
X132911817Y-95569228D01*
X132911804Y-95569221D01*
X132784332Y-95516421D01*
X132784322Y-95516418D01*
X132648995Y-95489500D01*
X132648993Y-95489500D01*
X132511007Y-95489500D01*
X132511005Y-95489500D01*
X132375677Y-95516418D01*
X132375667Y-95516421D01*
X132248195Y-95569221D01*
X132248182Y-95569228D01*
X132133458Y-95645885D01*
X132133454Y-95645888D01*
X132035888Y-95743454D01*
X132035885Y-95743458D01*
X131959228Y-95858182D01*
X131959221Y-95858195D01*
X131906421Y-95985667D01*
X131906418Y-95985677D01*
X131879500Y-96121004D01*
X131879500Y-96121007D01*
X131879500Y-96258993D01*
X131879500Y-96258995D01*
X131879499Y-96258995D01*
X130740500Y-96258995D01*
X130740500Y-96121004D01*
X130713581Y-95985677D01*
X130713580Y-95985676D01*
X130713580Y-95985672D01*
X130713578Y-95985667D01*
X130660778Y-95858195D01*
X130660771Y-95858182D01*
X130584114Y-95743458D01*
X130584111Y-95743454D01*
X130486545Y-95645888D01*
X130486541Y-95645885D01*
X130371817Y-95569228D01*
X130371804Y-95569221D01*
X130244332Y-95516421D01*
X130244322Y-95516418D01*
X130108995Y-95489500D01*
X130108993Y-95489500D01*
X129971007Y-95489500D01*
X129971005Y-95489500D01*
X129835677Y-95516418D01*
X129835667Y-95516421D01*
X129708195Y-95569221D01*
X129708182Y-95569228D01*
X129593458Y-95645885D01*
X129593454Y-95645888D01*
X129495888Y-95743454D01*
X129495885Y-95743458D01*
X129419228Y-95858182D01*
X129419221Y-95858195D01*
X129366421Y-95985667D01*
X129366418Y-95985677D01*
X129339500Y-96121004D01*
X129339500Y-96121007D01*
X129339500Y-96258993D01*
X129339500Y-96258995D01*
X129339499Y-96258995D01*
X128200500Y-96258995D01*
X128200500Y-96121004D01*
X128173581Y-95985677D01*
X128173580Y-95985676D01*
X128173580Y-95985672D01*
X128173578Y-95985667D01*
X128120778Y-95858195D01*
X128120771Y-95858182D01*
X128044114Y-95743458D01*
X128044111Y-95743454D01*
X127946545Y-95645888D01*
X127946541Y-95645885D01*
X127831817Y-95569228D01*
X127831804Y-95569221D01*
X127704332Y-95516421D01*
X127704322Y-95516418D01*
X127568995Y-95489500D01*
X127568993Y-95489500D01*
X127431007Y-95489500D01*
X127431005Y-95489500D01*
X127295677Y-95516418D01*
X127295667Y-95516421D01*
X127168195Y-95569221D01*
X127168182Y-95569228D01*
X127053458Y-95645885D01*
X127053454Y-95645888D01*
X126955888Y-95743454D01*
X126955885Y-95743458D01*
X126879228Y-95858182D01*
X126879221Y-95858195D01*
X126826421Y-95985667D01*
X126826418Y-95985677D01*
X126799500Y-96121004D01*
X126799500Y-96121007D01*
X126799500Y-96258993D01*
X126799500Y-96258995D01*
X126799499Y-96258995D01*
X125660500Y-96258995D01*
X125660500Y-96121004D01*
X125633581Y-95985677D01*
X125633580Y-95985676D01*
X125633580Y-95985672D01*
X125633578Y-95985667D01*
X125580778Y-95858195D01*
X125580771Y-95858182D01*
X125504114Y-95743458D01*
X125504111Y-95743454D01*
X125406545Y-95645888D01*
X125406541Y-95645885D01*
X125291817Y-95569228D01*
X125291804Y-95569221D01*
X125164332Y-95516421D01*
X125164322Y-95516418D01*
X125028995Y-95489500D01*
X125028993Y-95489500D01*
X124891007Y-95489500D01*
X124891005Y-95489500D01*
X124755677Y-95516418D01*
X124755667Y-95516421D01*
X124628195Y-95569221D01*
X124628179Y-95569230D01*
X124623389Y-95572431D01*
X124556711Y-95593308D01*
X124489331Y-95574822D01*
X124442642Y-95522843D01*
X124430500Y-95469328D01*
X124430500Y-94988995D01*
X164969499Y-94988995D01*
X164996418Y-95124322D01*
X164996421Y-95124332D01*
X165049221Y-95251804D01*
X165049228Y-95251817D01*
X165125885Y-95366541D01*
X165125888Y-95366545D01*
X165223454Y-95464111D01*
X165223458Y-95464114D01*
X165338182Y-95540771D01*
X165338195Y-95540778D01*
X165456597Y-95589821D01*
X165465672Y-95593580D01*
X165465676Y-95593580D01*
X165465677Y-95593581D01*
X165601004Y-95620500D01*
X165601007Y-95620500D01*
X165738995Y-95620500D01*
X165830041Y-95602389D01*
X165874328Y-95593580D01*
X166001811Y-95540775D01*
X166116542Y-95464114D01*
X166214114Y-95366542D01*
X166290775Y-95251811D01*
X166343580Y-95124328D01*
X166370500Y-94988995D01*
X172589499Y-94988995D01*
X172616418Y-95124322D01*
X172616421Y-95124332D01*
X172669221Y-95251804D01*
X172669228Y-95251817D01*
X172745885Y-95366541D01*
X172745888Y-95366545D01*
X172843454Y-95464111D01*
X172843458Y-95464114D01*
X172958182Y-95540771D01*
X172958195Y-95540778D01*
X173076597Y-95589821D01*
X173085672Y-95593580D01*
X173085676Y-95593580D01*
X173085677Y-95593581D01*
X173221004Y-95620500D01*
X173221007Y-95620500D01*
X173358995Y-95620500D01*
X173450041Y-95602389D01*
X173494328Y-95593580D01*
X173621811Y-95540775D01*
X173736542Y-95464114D01*
X173834114Y-95366542D01*
X173910775Y-95251811D01*
X173963580Y-95124328D01*
X173990500Y-94988993D01*
X173990500Y-94851007D01*
X173990500Y-94851004D01*
X173963581Y-94715677D01*
X173963580Y-94715676D01*
X173963580Y-94715672D01*
X173963578Y-94715667D01*
X173910778Y-94588195D01*
X173910771Y-94588182D01*
X173834114Y-94473458D01*
X173834111Y-94473454D01*
X173736545Y-94375888D01*
X173736541Y-94375885D01*
X173621817Y-94299228D01*
X173621804Y-94299221D01*
X173494332Y-94246421D01*
X173494322Y-94246418D01*
X173358995Y-94219500D01*
X173358993Y-94219500D01*
X173221007Y-94219500D01*
X173221005Y-94219500D01*
X173085677Y-94246418D01*
X173085667Y-94246421D01*
X172958195Y-94299221D01*
X172958182Y-94299228D01*
X172843458Y-94375885D01*
X172843454Y-94375888D01*
X172745888Y-94473454D01*
X172745885Y-94473458D01*
X172669228Y-94588182D01*
X172669221Y-94588195D01*
X172616421Y-94715667D01*
X172616418Y-94715677D01*
X172589500Y-94851004D01*
X172589500Y-94851007D01*
X172589500Y-94988993D01*
X172589500Y-94988995D01*
X172589499Y-94988995D01*
X166370500Y-94988995D01*
X166370500Y-94988993D01*
X166370500Y-94851007D01*
X166370500Y-94851004D01*
X166343581Y-94715677D01*
X166343580Y-94715676D01*
X166343580Y-94715672D01*
X166343578Y-94715667D01*
X166290778Y-94588195D01*
X166290771Y-94588182D01*
X166214114Y-94473458D01*
X166214111Y-94473454D01*
X166116545Y-94375888D01*
X166116541Y-94375885D01*
X166001817Y-94299228D01*
X166001804Y-94299221D01*
X165874332Y-94246421D01*
X165874322Y-94246418D01*
X165738995Y-94219500D01*
X165738993Y-94219500D01*
X165601007Y-94219500D01*
X165601005Y-94219500D01*
X165465677Y-94246418D01*
X165465667Y-94246421D01*
X165338195Y-94299221D01*
X165338182Y-94299228D01*
X165223458Y-94375885D01*
X165223454Y-94375888D01*
X165125888Y-94473454D01*
X165125885Y-94473458D01*
X165049228Y-94588182D01*
X165049221Y-94588195D01*
X164996421Y-94715667D01*
X164996418Y-94715677D01*
X164969500Y-94851004D01*
X164969500Y-94851007D01*
X164969500Y-94988993D01*
X164969500Y-94988995D01*
X164969499Y-94988995D01*
X124430500Y-94988995D01*
X124430500Y-91488547D01*
X124450185Y-91421508D01*
X124481614Y-91388230D01*
X124609792Y-91295104D01*
X124760104Y-91144792D01*
X124760106Y-91144788D01*
X124760109Y-91144786D01*
X124885048Y-90972820D01*
X124885047Y-90972820D01*
X124885051Y-90972816D01*
X124981557Y-90783412D01*
X125047246Y-90581243D01*
X125080500Y-90371287D01*
X125080500Y-90158713D01*
X125047246Y-89948757D01*
X124981557Y-89746588D01*
X124885051Y-89557184D01*
X124885049Y-89557181D01*
X124885048Y-89557179D01*
X124760109Y-89385213D01*
X124646569Y-89271673D01*
X124613084Y-89210350D01*
X124618068Y-89140658D01*
X124659940Y-89084725D01*
X124690915Y-89067810D01*
X124822331Y-89018796D01*
X124937546Y-88932546D01*
X125023796Y-88817331D01*
X125074091Y-88682483D01*
X125080500Y-88622873D01*
X125080499Y-86958253D01*
X125081948Y-86953317D01*
X125080901Y-86948283D01*
X125091692Y-86920134D01*
X125100184Y-86891215D01*
X125104070Y-86887847D01*
X125105912Y-86883043D01*
X125130208Y-86865197D01*
X125152987Y-86845460D01*
X125158079Y-86844727D01*
X125162225Y-86841683D01*
X125192305Y-86839806D01*
X125222146Y-86835516D01*
X125226825Y-86837653D01*
X125231959Y-86837333D01*
X125258282Y-86852018D01*
X125285702Y-86864541D01*
X125289697Y-86869545D01*
X125292975Y-86871374D01*
X125313867Y-86899820D01*
X125315176Y-86902270D01*
X125324469Y-86924709D01*
X125361169Y-87045692D01*
X125365911Y-87069532D01*
X125369193Y-87102855D01*
X125378284Y-87195159D01*
X125378903Y-87201437D01*
X125379500Y-87213592D01*
X125379500Y-89664108D01*
X125379500Y-89730000D01*
X125379500Y-89856629D01*
X125391566Y-89940551D01*
X125415541Y-90107303D01*
X125415543Y-90107313D01*
X125486894Y-90350312D01*
X125592093Y-90580666D01*
X125592106Y-90580689D01*
X125729016Y-90793725D01*
X125729020Y-90793731D01*
X125894868Y-90985131D01*
X126086268Y-91150979D01*
X126086274Y-91150983D01*
X126299310Y-91287893D01*
X126299333Y-91287906D01*
X126529687Y-91393105D01*
X126529691Y-91393106D01*
X126529693Y-91393107D01*
X126772692Y-91464458D01*
X127023371Y-91500500D01*
X127023374Y-91500500D01*
X137036626Y-91500500D01*
X137036629Y-91500500D01*
X137287308Y-91464458D01*
X137530307Y-91393107D01*
X137530310Y-91393105D01*
X137530312Y-91393105D01*
X137760666Y-91287906D01*
X137760670Y-91287903D01*
X137760678Y-91287900D01*
X137973732Y-91150979D01*
X138165131Y-90985131D01*
X138330979Y-90793732D01*
X138467537Y-90581243D01*
X138467893Y-90580689D01*
X138467893Y-90580688D01*
X138467900Y-90580678D01*
X138467903Y-90580670D01*
X138467906Y-90580666D01*
X138573105Y-90350312D01*
X138573105Y-90350310D01*
X138573107Y-90350307D01*
X138644458Y-90107308D01*
X138680500Y-89856629D01*
X138680500Y-89730000D01*
X138680500Y-89664108D01*
X138680500Y-88293713D01*
X141079500Y-88293713D01*
X141079500Y-88506286D01*
X141107406Y-88682482D01*
X141112754Y-88716243D01*
X141177630Y-88915911D01*
X141178444Y-88918414D01*
X141274951Y-89107820D01*
X141399890Y-89279786D01*
X141550213Y-89430109D01*
X141722179Y-89555048D01*
X141722181Y-89555049D01*
X141722184Y-89555051D01*
X141911588Y-89651557D01*
X142113757Y-89717246D01*
X142323713Y-89750500D01*
X142323714Y-89750500D01*
X142536286Y-89750500D01*
X142536287Y-89750500D01*
X142746243Y-89717246D01*
X142948412Y-89651557D01*
X143137816Y-89555051D01*
X143228387Y-89489248D01*
X143309786Y-89430109D01*
X143309788Y-89430106D01*
X143309792Y-89430104D01*
X143460104Y-89279792D01*
X143460106Y-89279788D01*
X143460109Y-89279786D01*
X143585048Y-89107820D01*
X143585047Y-89107820D01*
X143585051Y-89107816D01*
X143681557Y-88918412D01*
X143747246Y-88716243D01*
X143780500Y-88506287D01*
X143780500Y-88293713D01*
X143747246Y-88083757D01*
X143681557Y-87881588D01*
X143585051Y-87692184D01*
X143585049Y-87692181D01*
X143585048Y-87692179D01*
X143460109Y-87520213D01*
X143309786Y-87369890D01*
X143137820Y-87244951D01*
X142948414Y-87148444D01*
X142948413Y-87148443D01*
X142948412Y-87148443D01*
X142746243Y-87082754D01*
X142746241Y-87082753D01*
X142746240Y-87082753D01*
X142584957Y-87057208D01*
X142536287Y-87049500D01*
X142323713Y-87049500D01*
X142275042Y-87057208D01*
X142113760Y-87082753D01*
X141911585Y-87148444D01*
X141722179Y-87244951D01*
X141550213Y-87369890D01*
X141399890Y-87520213D01*
X141274951Y-87692179D01*
X141178444Y-87881585D01*
X141112753Y-88083760D01*
X141079500Y-88293713D01*
X138680500Y-88293713D01*
X138680500Y-87213592D01*
X138681097Y-87201438D01*
X138681097Y-87201437D01*
X138694089Y-87069522D01*
X138698828Y-87045700D01*
X138735532Y-86924702D01*
X138744830Y-86902257D01*
X138804427Y-86790759D01*
X138817930Y-86770550D01*
X138820419Y-86767517D01*
X138898137Y-86672816D01*
X138915316Y-86655637D01*
X139013052Y-86575428D01*
X139033261Y-86561926D01*
X139144757Y-86502330D01*
X139167202Y-86493032D01*
X139288200Y-86456328D01*
X139312024Y-86451589D01*
X139443939Y-86438597D01*
X139456093Y-86438000D01*
X139515892Y-86438000D01*
X146694108Y-86438000D01*
X146753907Y-86438000D01*
X146766061Y-86438597D01*
X146897973Y-86451589D01*
X146921801Y-86456328D01*
X147042793Y-86493031D01*
X147065245Y-86502332D01*
X147084677Y-86512718D01*
X147176738Y-86561926D01*
X147196949Y-86575430D01*
X147294677Y-86655632D01*
X147311867Y-86672822D01*
X147392069Y-86770550D01*
X147405573Y-86790761D01*
X147465166Y-86902251D01*
X147474469Y-86924709D01*
X147511169Y-87045692D01*
X147515911Y-87069532D01*
X147519193Y-87102855D01*
X147528284Y-87195159D01*
X147528903Y-87201437D01*
X147529500Y-87213592D01*
X147529500Y-89664108D01*
X147529500Y-89730000D01*
X147529500Y-89856629D01*
X147541566Y-89940551D01*
X147565541Y-90107303D01*
X147565543Y-90107313D01*
X147636894Y-90350312D01*
X147742093Y-90580666D01*
X147742106Y-90580689D01*
X147879016Y-90793725D01*
X147879020Y-90793731D01*
X148044868Y-90985131D01*
X148236268Y-91150979D01*
X148236274Y-91150983D01*
X148449310Y-91287893D01*
X148449333Y-91287906D01*
X148679687Y-91393105D01*
X148679691Y-91393106D01*
X148679693Y-91393107D01*
X148922692Y-91464458D01*
X149173371Y-91500500D01*
X149173374Y-91500500D01*
X157286626Y-91500500D01*
X157286629Y-91500500D01*
X157537308Y-91464458D01*
X157780307Y-91393107D01*
X157780310Y-91393105D01*
X157780312Y-91393105D01*
X158010666Y-91287906D01*
X158010670Y-91287903D01*
X158010678Y-91287900D01*
X158223732Y-91150979D01*
X158415131Y-90985131D01*
X158580979Y-90793732D01*
X158717537Y-90581243D01*
X158717893Y-90580689D01*
X158717893Y-90580688D01*
X158717900Y-90580678D01*
X158717903Y-90580670D01*
X158717906Y-90580666D01*
X158823105Y-90350312D01*
X158823105Y-90350310D01*
X158823107Y-90350307D01*
X158894458Y-90107308D01*
X158930500Y-89856629D01*
X158930500Y-89730000D01*
X158930500Y-89664108D01*
X158930500Y-87213592D01*
X158931097Y-87201438D01*
X158931097Y-87201437D01*
X158944089Y-87069522D01*
X158948828Y-87045700D01*
X158985532Y-86924702D01*
X158994830Y-86902257D01*
X159054427Y-86790759D01*
X159067930Y-86770550D01*
X159070419Y-86767517D01*
X159148137Y-86672816D01*
X159165316Y-86655637D01*
X159263052Y-86575428D01*
X159283261Y-86561926D01*
X159394757Y-86502330D01*
X159417202Y-86493032D01*
X159538200Y-86456328D01*
X159562024Y-86451589D01*
X159693939Y-86438597D01*
X159706093Y-86438000D01*
X159765892Y-86438000D01*
X173543868Y-86438000D01*
X173553574Y-86438380D01*
X173723738Y-86451777D01*
X173742922Y-86454817D01*
X173904122Y-86493521D01*
X173922622Y-86499533D01*
X174075770Y-86562972D01*
X174093098Y-86571801D01*
X174234445Y-86658419D01*
X174250178Y-86669850D01*
X174310883Y-86721697D01*
X174376231Y-86777510D01*
X174389989Y-86791268D01*
X174484794Y-86902270D01*
X174497646Y-86917317D01*
X174509081Y-86933057D01*
X174595695Y-87074395D01*
X174604528Y-87091731D01*
X174667966Y-87244878D01*
X174673979Y-87263382D01*
X174712680Y-87424566D01*
X174715724Y-87443784D01*
X174729117Y-87613901D01*
X174729500Y-87623630D01*
X174729502Y-87750727D01*
X174761324Y-88012751D01*
X174824495Y-88269020D01*
X174824497Y-88269026D01*
X174918089Y-88515795D01*
X175023294Y-88716243D01*
X175040754Y-88749508D01*
X175190690Y-88966725D01*
X175190693Y-88966729D01*
X175190697Y-88966734D01*
X175365712Y-89164285D01*
X175365714Y-89164287D01*
X175563265Y-89339302D01*
X175563269Y-89339305D01*
X175563275Y-89339310D01*
X175780492Y-89489246D01*
X176014197Y-89611907D01*
X176014201Y-89611908D01*
X176014204Y-89611910D01*
X176118734Y-89651555D01*
X176260983Y-89705506D01*
X176517252Y-89768676D01*
X176779266Y-89800497D01*
X176845352Y-89800498D01*
X176845358Y-89800500D01*
X176911235Y-89800500D01*
X176977127Y-89800502D01*
X176977130Y-89800500D01*
X176985750Y-89800501D01*
X176985779Y-89800500D01*
X179882866Y-89800500D01*
X179882873Y-89800502D01*
X179948765Y-89800500D01*
X180014642Y-89800500D01*
X180026462Y-89800500D01*
X180026477Y-89800497D01*
X180080734Y-89800497D01*
X180342748Y-89768676D01*
X180599017Y-89705506D01*
X180845803Y-89611907D01*
X181079508Y-89489246D01*
X181296725Y-89339310D01*
X181494286Y-89164286D01*
X181542425Y-89109949D01*
X181669302Y-88966734D01*
X181669301Y-88966734D01*
X181669310Y-88966725D01*
X181819246Y-88749508D01*
X181941907Y-88515803D01*
X182035506Y-88269017D01*
X182098676Y-88012748D01*
X182130497Y-87750734D01*
X182130499Y-87623608D01*
X182130881Y-87613924D01*
X182144276Y-87443771D01*
X182147316Y-87424579D01*
X182186022Y-87263374D01*
X182192033Y-87244878D01*
X182255474Y-87091723D01*
X182264298Y-87074406D01*
X182350923Y-86933048D01*
X182362345Y-86917327D01*
X182470014Y-86791263D01*
X182483763Y-86777514D01*
X182609827Y-86669845D01*
X182625548Y-86658423D01*
X182766906Y-86571798D01*
X182784223Y-86562974D01*
X182937381Y-86499531D01*
X182955874Y-86493522D01*
X183117079Y-86454816D01*
X183136259Y-86451777D01*
X183306425Y-86438380D01*
X183316132Y-86438000D01*
X184134108Y-86438000D01*
X184196949Y-86438000D01*
X184203032Y-86438148D01*
X184536929Y-86454552D01*
X184549037Y-86455745D01*
X184554134Y-86456501D01*
X184876699Y-86504349D01*
X184888617Y-86506719D01*
X185209951Y-86587209D01*
X185221588Y-86590740D01*
X185292806Y-86616222D01*
X185533467Y-86702332D01*
X185544688Y-86706979D01*
X185844163Y-86848620D01*
X185854871Y-86854344D01*
X186138988Y-87024637D01*
X186149103Y-87031395D01*
X186297708Y-87141608D01*
X186415170Y-87228724D01*
X186424576Y-87236444D01*
X186670013Y-87458895D01*
X186678604Y-87467486D01*
X186807094Y-87609253D01*
X186901055Y-87712923D01*
X186908775Y-87722329D01*
X187106102Y-87988393D01*
X187112862Y-87998511D01*
X187267590Y-88256660D01*
X187283148Y-88282616D01*
X187288883Y-88293344D01*
X187421615Y-88573983D01*
X187430514Y-88592797D01*
X187435170Y-88604040D01*
X187546759Y-88915911D01*
X187550292Y-88927555D01*
X187630777Y-89248869D01*
X187633151Y-89260805D01*
X187681754Y-89588462D01*
X187682947Y-89600571D01*
X187695527Y-89856626D01*
X187698822Y-89923709D01*
X187699351Y-89934466D01*
X187699500Y-89940551D01*
X187699500Y-110059448D01*
X187699351Y-110065533D01*
X187682947Y-110399428D01*
X187681754Y-110411537D01*
X187633151Y-110739194D01*
X187630777Y-110751130D01*
X187550292Y-111072444D01*
X187546759Y-111084088D01*
X187435170Y-111395959D01*
X187430514Y-111407202D01*
X187288885Y-111706651D01*
X187283148Y-111717383D01*
X187112862Y-112001488D01*
X187106102Y-112011606D01*
X186908775Y-112277670D01*
X186901055Y-112287076D01*
X186678611Y-112532506D01*
X186670006Y-112541111D01*
X186424576Y-112763555D01*
X186415170Y-112771275D01*
X186149106Y-112968602D01*
X186138988Y-112975362D01*
X185854883Y-113145648D01*
X185844151Y-113151385D01*
X185544702Y-113293014D01*
X185533459Y-113297670D01*
X185221588Y-113409259D01*
X185209944Y-113412792D01*
X184888630Y-113493277D01*
X184876694Y-113495651D01*
X184549037Y-113544254D01*
X184536928Y-113545447D01*
X184221989Y-113560919D01*
X184203031Y-113561851D01*
X184196949Y-113562000D01*
X183316132Y-113562000D01*
X183306400Y-113561617D01*
X183136284Y-113548224D01*
X183117066Y-113545180D01*
X183113209Y-113544254D01*
X183070253Y-113533940D01*
X182955882Y-113506479D01*
X182937378Y-113500466D01*
X182784231Y-113437028D01*
X182766895Y-113428195D01*
X182625557Y-113341581D01*
X182609817Y-113330146D01*
X182566341Y-113293014D01*
X182534979Y-113266228D01*
X182483768Y-113222489D01*
X182470010Y-113208731D01*
X182442264Y-113176245D01*
X182362350Y-113082678D01*
X182350919Y-113066945D01*
X182264301Y-112925598D01*
X182255471Y-112908268D01*
X182212628Y-112804841D01*
X182192033Y-112755121D01*
X182186020Y-112736617D01*
X182147317Y-112575422D01*
X182144276Y-112556226D01*
X182130881Y-112386076D01*
X182130499Y-112376390D01*
X182130497Y-112249266D01*
X182098676Y-111987252D01*
X182035506Y-111730983D01*
X182000381Y-111638372D01*
X181941910Y-111484204D01*
X181941908Y-111484201D01*
X181941907Y-111484197D01*
X181819246Y-111250492D01*
X181669310Y-111033275D01*
X181669305Y-111033269D01*
X181669302Y-111033265D01*
X181494287Y-110835714D01*
X181494285Y-110835712D01*
X181296734Y-110660697D01*
X181296729Y-110660693D01*
X181296725Y-110660690D01*
X181079508Y-110510754D01*
X181079505Y-110510752D01*
X181079503Y-110510751D01*
X180925846Y-110430104D01*
X180845803Y-110388093D01*
X180845801Y-110388092D01*
X180845795Y-110388089D01*
X180599026Y-110294497D01*
X180599020Y-110294495D01*
X180599018Y-110294494D01*
X180599017Y-110294494D01*
X180532261Y-110278038D01*
X180342751Y-110231324D01*
X180253075Y-110220433D01*
X180080734Y-110199503D01*
X180080728Y-110199502D01*
X180080734Y-110199502D01*
X180020773Y-110199501D01*
X180020773Y-110199500D01*
X180014642Y-110199500D01*
X179948766Y-110199500D01*
X179948757Y-110199499D01*
X179882873Y-110199498D01*
X179882872Y-110199498D01*
X179874249Y-110199498D01*
X179874221Y-110199500D01*
X176977134Y-110199500D01*
X176977127Y-110199498D01*
X176911235Y-110199500D01*
X176840253Y-110199500D01*
X176840225Y-110199501D01*
X176779272Y-110199502D01*
X176517248Y-110231324D01*
X176260979Y-110294495D01*
X176260973Y-110294497D01*
X176014204Y-110388089D01*
X175780496Y-110510751D01*
X175563265Y-110660697D01*
X175365714Y-110835712D01*
X175365712Y-110835714D01*
X175190697Y-111033265D01*
X175040751Y-111250496D01*
X174918089Y-111484204D01*
X174824497Y-111730973D01*
X174824495Y-111730979D01*
X174761324Y-111987248D01*
X174729502Y-112249272D01*
X174729500Y-112376369D01*
X174729117Y-112386098D01*
X174715724Y-112556215D01*
X174712680Y-112575433D01*
X174673979Y-112736617D01*
X174667966Y-112755121D01*
X174604528Y-112908268D01*
X174595695Y-112925604D01*
X174509083Y-113066940D01*
X174497646Y-113082682D01*
X174389989Y-113208731D01*
X174376231Y-113222489D01*
X174250182Y-113330146D01*
X174234440Y-113341583D01*
X174093104Y-113428195D01*
X174075768Y-113437028D01*
X173922621Y-113500466D01*
X173904117Y-113506479D01*
X173742933Y-113545180D01*
X173723661Y-113548228D01*
X173722269Y-113548337D01*
X173653900Y-113533940D01*
X173604167Y-113484864D01*
X173588862Y-113416691D01*
X173588984Y-113414985D01*
X173591716Y-113380269D01*
X172959408Y-112747962D01*
X173022993Y-112730925D01*
X173137007Y-112665099D01*
X173230099Y-112572007D01*
X173295925Y-112457993D01*
X173312962Y-112394409D01*
X173945270Y-113026717D01*
X173945270Y-113026716D01*
X173984622Y-112972554D01*
X174081095Y-112783217D01*
X174146757Y-112581130D01*
X174146757Y-112581127D01*
X174180000Y-112371246D01*
X174180000Y-112158753D01*
X174146757Y-111948872D01*
X174146757Y-111948869D01*
X174081095Y-111746782D01*
X173984624Y-111557449D01*
X173945270Y-111503282D01*
X173945269Y-111503282D01*
X173312962Y-112135590D01*
X173295925Y-112072007D01*
X173230099Y-111957993D01*
X173137007Y-111864901D01*
X173022993Y-111799075D01*
X172959409Y-111782037D01*
X173628802Y-111112642D01*
X173690125Y-111079157D01*
X173704833Y-111080078D01*
X173704556Y-111077501D01*
X173787375Y-111068598D01*
X173922086Y-111018354D01*
X173922093Y-111018350D01*
X174037187Y-110932190D01*
X174037190Y-110932187D01*
X174123350Y-110817093D01*
X174123354Y-110817086D01*
X174173596Y-110682379D01*
X174173598Y-110682372D01*
X174179999Y-110622844D01*
X174180000Y-110622827D01*
X174180000Y-109975000D01*
X173263012Y-109975000D01*
X173295925Y-109917993D01*
X173330000Y-109790826D01*
X173330000Y-109659174D01*
X173295925Y-109532007D01*
X173263012Y-109475000D01*
X174180000Y-109475000D01*
X174180000Y-108827172D01*
X174179999Y-108827155D01*
X174173598Y-108767627D01*
X174173596Y-108767620D01*
X174123354Y-108632913D01*
X174123350Y-108632906D01*
X174037190Y-108517812D01*
X174037187Y-108517809D01*
X173922093Y-108431649D01*
X173922086Y-108431645D01*
X173787379Y-108381403D01*
X173787372Y-108381401D01*
X173727844Y-108375000D01*
X173080000Y-108375000D01*
X173080000Y-109291988D01*
X173022993Y-109259075D01*
X172895826Y-109225000D01*
X172764174Y-109225000D01*
X172637007Y-109259075D01*
X172580000Y-109291988D01*
X172580000Y-108375000D01*
X171932155Y-108375000D01*
X171872627Y-108381401D01*
X171872620Y-108381403D01*
X171737913Y-108431645D01*
X171737906Y-108431649D01*
X171622812Y-108517809D01*
X171622809Y-108517812D01*
X171536649Y-108632906D01*
X171536645Y-108632913D01*
X171486403Y-108767620D01*
X171486401Y-108767627D01*
X171480000Y-108827155D01*
X171480000Y-109475000D01*
X172396988Y-109475000D01*
X172364075Y-109532007D01*
X172330000Y-109659174D01*
X172330000Y-109790826D01*
X172364075Y-109917993D01*
X172396988Y-109975000D01*
X171480000Y-109975000D01*
X171480000Y-110622844D01*
X171486401Y-110682372D01*
X171486403Y-110682379D01*
X171536645Y-110817086D01*
X171536649Y-110817093D01*
X171622809Y-110932187D01*
X171622812Y-110932190D01*
X171737906Y-111018350D01*
X171737913Y-111018354D01*
X171872620Y-111068596D01*
X171872619Y-111068596D01*
X171955444Y-111077501D01*
X171955116Y-111080550D01*
X171972014Y-111079642D01*
X172031196Y-111112642D01*
X172700591Y-111782037D01*
X172637007Y-111799075D01*
X172522993Y-111864901D01*
X172429901Y-111957993D01*
X172364075Y-112072007D01*
X172347037Y-112135591D01*
X171714728Y-111503282D01*
X171714727Y-111503282D01*
X171675380Y-111557439D01*
X171578904Y-111746782D01*
X171513242Y-111948869D01*
X171513242Y-111948872D01*
X171480000Y-112158753D01*
X171480000Y-112371246D01*
X171513242Y-112581127D01*
X171513242Y-112581130D01*
X171578904Y-112783217D01*
X171675375Y-112972550D01*
X171714728Y-113026716D01*
X172347037Y-112394408D01*
X172364075Y-112457993D01*
X172429901Y-112572007D01*
X172522993Y-112665099D01*
X172637007Y-112730925D01*
X172700590Y-112747962D01*
X172068282Y-113380269D01*
X172072060Y-113428271D01*
X172057696Y-113496648D01*
X172008645Y-113546405D01*
X171948442Y-113562000D01*
X114064142Y-113562000D01*
X114060896Y-113561958D01*
X113355961Y-113543498D01*
X113349478Y-113543158D01*
X112648113Y-113487960D01*
X112641657Y-113487281D01*
X111944165Y-113395454D01*
X111937753Y-113394439D01*
X111245989Y-113266228D01*
X111239639Y-113264878D01*
X110555559Y-113100645D01*
X110549288Y-113098965D01*
X109874726Y-112899150D01*
X109868552Y-112897144D01*
X109205368Y-112662299D01*
X109199307Y-112659972D01*
X108549340Y-112390746D01*
X108543410Y-112388106D01*
X108286994Y-112265802D01*
X107908406Y-112085225D01*
X107902621Y-112082277D01*
X107284351Y-111746585D01*
X107278729Y-111743339D01*
X107276475Y-111741958D01*
X106975368Y-111557439D01*
X106678878Y-111375749D01*
X106673434Y-111372214D01*
X106093629Y-110973725D01*
X106088377Y-110969909D01*
X105530235Y-110541632D01*
X105525189Y-110537546D01*
X104990215Y-110080634D01*
X104985391Y-110076290D01*
X104475073Y-109592016D01*
X104470483Y-109587426D01*
X104268136Y-109374197D01*
X104191760Y-109293713D01*
X106079500Y-109293713D01*
X106079500Y-109506286D01*
X106112753Y-109716239D01*
X106178444Y-109918414D01*
X106274951Y-110107820D01*
X106399890Y-110279786D01*
X106550213Y-110430109D01*
X106722179Y-110555048D01*
X106722181Y-110555049D01*
X106722184Y-110555051D01*
X106911588Y-110651557D01*
X107113757Y-110717246D01*
X107323713Y-110750500D01*
X107323714Y-110750500D01*
X107536286Y-110750500D01*
X107536287Y-110750500D01*
X107746243Y-110717246D01*
X107948412Y-110651557D01*
X108137816Y-110555051D01*
X108198790Y-110510751D01*
X108309786Y-110430109D01*
X108309788Y-110430106D01*
X108309792Y-110430104D01*
X108460104Y-110279792D01*
X108460106Y-110279788D01*
X108460109Y-110279786D01*
X108585048Y-110107820D01*
X108585047Y-110107820D01*
X108585051Y-110107816D01*
X108681557Y-109918412D01*
X108747246Y-109716243D01*
X108780500Y-109506287D01*
X108780500Y-109293713D01*
X108747246Y-109083757D01*
X108681557Y-108881588D01*
X108680824Y-108880150D01*
X108680824Y-108880148D01*
X108680822Y-108880146D01*
X108585051Y-108692184D01*
X108585049Y-108692181D01*
X108585048Y-108692179D01*
X108460109Y-108520213D01*
X108309786Y-108369890D01*
X108137820Y-108244951D01*
X107948414Y-108148444D01*
X107948413Y-108148443D01*
X107948412Y-108148443D01*
X107746243Y-108082754D01*
X107746241Y-108082753D01*
X107746240Y-108082753D01*
X107584957Y-108057208D01*
X107536287Y-108049500D01*
X107323713Y-108049500D01*
X107275042Y-108057208D01*
X107113760Y-108082753D01*
X106911585Y-108148444D01*
X106722179Y-108244951D01*
X106550213Y-108369890D01*
X106399890Y-108520213D01*
X106274951Y-108692179D01*
X106178444Y-108881585D01*
X106112753Y-109083760D01*
X106079500Y-109293713D01*
X104191760Y-109293713D01*
X103986209Y-109077108D01*
X103981865Y-109072284D01*
X103524953Y-108537310D01*
X103520867Y-108532264D01*
X103509775Y-108517809D01*
X103092587Y-107974117D01*
X103088774Y-107968870D01*
X102904787Y-107701168D01*
X102690284Y-107389063D01*
X102686750Y-107383621D01*
X102319152Y-106783757D01*
X102315914Y-106778148D01*
X102297799Y-106744785D01*
X101980217Y-106159868D01*
X101977274Y-106154093D01*
X101903775Y-106000000D01*
X101674391Y-105519085D01*
X101671753Y-105513159D01*
X101520911Y-105148995D01*
X164969499Y-105148995D01*
X164996418Y-105284322D01*
X164996421Y-105284332D01*
X165049221Y-105411804D01*
X165049228Y-105411817D01*
X165125885Y-105526541D01*
X165125888Y-105526545D01*
X165223454Y-105624111D01*
X165223458Y-105624114D01*
X165338182Y-105700771D01*
X165338195Y-105700778D01*
X165465667Y-105753578D01*
X165465672Y-105753580D01*
X165465676Y-105753580D01*
X165465677Y-105753581D01*
X165601004Y-105780500D01*
X165601007Y-105780500D01*
X165738995Y-105780500D01*
X165830041Y-105762389D01*
X165874328Y-105753580D01*
X166001811Y-105700775D01*
X166116542Y-105624114D01*
X166214114Y-105526542D01*
X166290775Y-105411811D01*
X166343580Y-105284328D01*
X166370500Y-105148995D01*
X172589499Y-105148995D01*
X172616418Y-105284322D01*
X172616421Y-105284332D01*
X172669221Y-105411804D01*
X172669228Y-105411817D01*
X172745885Y-105526541D01*
X172745888Y-105526545D01*
X172843454Y-105624111D01*
X172843458Y-105624114D01*
X172958182Y-105700771D01*
X172958195Y-105700778D01*
X173085667Y-105753578D01*
X173085672Y-105753580D01*
X173085676Y-105753580D01*
X173085677Y-105753581D01*
X173221004Y-105780500D01*
X173221007Y-105780500D01*
X173358995Y-105780500D01*
X173450041Y-105762389D01*
X173494328Y-105753580D01*
X173621811Y-105700775D01*
X173736542Y-105624114D01*
X173834114Y-105526542D01*
X173910775Y-105411811D01*
X173963580Y-105284328D01*
X173990500Y-105148993D01*
X173990500Y-105048903D01*
X178550000Y-105048903D01*
X178550000Y-106951096D01*
X178552897Y-106993824D01*
X178598831Y-107178523D01*
X178683390Y-107349022D01*
X178683392Y-107349025D01*
X178802632Y-107497366D01*
X178802633Y-107497367D01*
X178950974Y-107616607D01*
X178950977Y-107616609D01*
X179121476Y-107701168D01*
X179280788Y-107740787D01*
X179297722Y-107710836D01*
X179300138Y-107691568D01*
X179302404Y-107659889D01*
X179304523Y-107656590D01*
X179304879Y-107653758D01*
X179311232Y-107646152D01*
X179330905Y-107615542D01*
X180446446Y-106500000D01*
X181153552Y-106500000D01*
X179903551Y-107749999D01*
X179903552Y-107750000D01*
X182696448Y-107750000D01*
X182696448Y-107749999D01*
X181446448Y-106500000D01*
X182153552Y-106500000D01*
X183269093Y-107615541D01*
X183302578Y-107676864D01*
X183300387Y-107707494D01*
X183319210Y-107740787D01*
X183478521Y-107701169D01*
X183478522Y-107701168D01*
X183649022Y-107616609D01*
X183649025Y-107616607D01*
X183797366Y-107497367D01*
X183797367Y-107497366D01*
X183916607Y-107349025D01*
X183916609Y-107349022D01*
X184001168Y-107178523D01*
X184047102Y-106993824D01*
X184050000Y-106951096D01*
X184050000Y-105048903D01*
X184047102Y-105006175D01*
X184001168Y-104821476D01*
X183916609Y-104650977D01*
X183916607Y-104650974D01*
X183797367Y-104502633D01*
X183797366Y-104502632D01*
X183649025Y-104383392D01*
X183649022Y-104383390D01*
X183478523Y-104298831D01*
X183478521Y-104298830D01*
X183319210Y-104259211D01*
X183301088Y-104291264D01*
X183297595Y-104340110D01*
X183269094Y-104384457D01*
X182153551Y-105500000D01*
X181446448Y-105500000D01*
X182696448Y-104250000D01*
X179903551Y-104250000D01*
X181153552Y-105500000D01*
X180446448Y-105500000D01*
X179330904Y-104384456D01*
X179328164Y-104379439D01*
X179323410Y-104376260D01*
X179311601Y-104349106D01*
X179297419Y-104323133D01*
X179297826Y-104317430D01*
X179295546Y-104312186D01*
X179298936Y-104291310D01*
X179280788Y-104259211D01*
X179121476Y-104298831D01*
X178950977Y-104383390D01*
X178950974Y-104383392D01*
X178802633Y-104502632D01*
X178802632Y-104502633D01*
X178683392Y-104650974D01*
X178683390Y-104650977D01*
X178598831Y-104821476D01*
X178552897Y-105006175D01*
X178550000Y-105048903D01*
X173990500Y-105048903D01*
X173990500Y-105011007D01*
X173990500Y-105011004D01*
X173963581Y-104875677D01*
X173963580Y-104875676D01*
X173963580Y-104875672D01*
X173955900Y-104857131D01*
X173910778Y-104748195D01*
X173910771Y-104748182D01*
X173834114Y-104633458D01*
X173834111Y-104633454D01*
X173736545Y-104535888D01*
X173736541Y-104535885D01*
X173621817Y-104459228D01*
X173621804Y-104459221D01*
X173494332Y-104406421D01*
X173494322Y-104406418D01*
X173358995Y-104379500D01*
X173358993Y-104379500D01*
X173221007Y-104379500D01*
X173221005Y-104379500D01*
X173085677Y-104406418D01*
X173085667Y-104406421D01*
X172958195Y-104459221D01*
X172958182Y-104459228D01*
X172843458Y-104535885D01*
X172843454Y-104535888D01*
X172745888Y-104633454D01*
X172745885Y-104633458D01*
X172669228Y-104748182D01*
X172669221Y-104748195D01*
X172616421Y-104875667D01*
X172616418Y-104875677D01*
X172589500Y-105011004D01*
X172589500Y-105011007D01*
X172589500Y-105148993D01*
X172589500Y-105148995D01*
X172589499Y-105148995D01*
X166370500Y-105148995D01*
X166370500Y-105148993D01*
X166370500Y-105011007D01*
X166370500Y-105011004D01*
X166343581Y-104875677D01*
X166343580Y-104875676D01*
X166343580Y-104875672D01*
X166335900Y-104857131D01*
X166290778Y-104748195D01*
X166290771Y-104748182D01*
X166214114Y-104633458D01*
X166214111Y-104633454D01*
X166116545Y-104535888D01*
X166116541Y-104535885D01*
X166001817Y-104459228D01*
X166001804Y-104459221D01*
X165874332Y-104406421D01*
X165874322Y-104406418D01*
X165738995Y-104379500D01*
X165738993Y-104379500D01*
X165601007Y-104379500D01*
X165601005Y-104379500D01*
X165465677Y-104406418D01*
X165465667Y-104406421D01*
X165338195Y-104459221D01*
X165338182Y-104459228D01*
X165223458Y-104535885D01*
X165223454Y-104535888D01*
X165125888Y-104633454D01*
X165125885Y-104633458D01*
X165049228Y-104748182D01*
X165049221Y-104748195D01*
X164996421Y-104875667D01*
X164996418Y-104875677D01*
X164969500Y-105011004D01*
X164969500Y-105011007D01*
X164969500Y-105148993D01*
X164969500Y-105148995D01*
X164969499Y-105148995D01*
X101520911Y-105148995D01*
X101480887Y-105052368D01*
X101407699Y-104875677D01*
X101402525Y-104863187D01*
X101400200Y-104857131D01*
X101327196Y-104650974D01*
X101165352Y-104193938D01*
X101163349Y-104187773D01*
X101149736Y-104141817D01*
X101071884Y-103878995D01*
X114099499Y-103878995D01*
X114126418Y-104014322D01*
X114126421Y-104014332D01*
X114179221Y-104141804D01*
X114179228Y-104141817D01*
X114255885Y-104256541D01*
X114255888Y-104256545D01*
X114353454Y-104354111D01*
X114353458Y-104354114D01*
X114468182Y-104430771D01*
X114468195Y-104430778D01*
X114595667Y-104483578D01*
X114595672Y-104483580D01*
X114595676Y-104483580D01*
X114595677Y-104483581D01*
X114731004Y-104510500D01*
X114731007Y-104510500D01*
X114868995Y-104510500D01*
X114960041Y-104492389D01*
X115004328Y-104483580D01*
X115131811Y-104430775D01*
X115246542Y-104354114D01*
X115344114Y-104256542D01*
X115420775Y-104141811D01*
X115473580Y-104014328D01*
X115500500Y-103878995D01*
X116639499Y-103878995D01*
X116666418Y-104014322D01*
X116666421Y-104014332D01*
X116719221Y-104141804D01*
X116719228Y-104141817D01*
X116795885Y-104256541D01*
X116795888Y-104256545D01*
X116893454Y-104354111D01*
X116893458Y-104354114D01*
X117008182Y-104430771D01*
X117008195Y-104430778D01*
X117135667Y-104483578D01*
X117135672Y-104483580D01*
X117135676Y-104483580D01*
X117135677Y-104483581D01*
X117271004Y-104510500D01*
X117271007Y-104510500D01*
X117408995Y-104510500D01*
X117500041Y-104492389D01*
X117544328Y-104483580D01*
X117671811Y-104430775D01*
X117786542Y-104354114D01*
X117884114Y-104256542D01*
X117960775Y-104141811D01*
X118013580Y-104014328D01*
X118040500Y-103878995D01*
X119179499Y-103878995D01*
X119206418Y-104014322D01*
X119206421Y-104014332D01*
X119259221Y-104141804D01*
X119259228Y-104141817D01*
X119335885Y-104256541D01*
X119335888Y-104256545D01*
X119433454Y-104354111D01*
X119433458Y-104354114D01*
X119548182Y-104430771D01*
X119548195Y-104430778D01*
X119675667Y-104483578D01*
X119675672Y-104483580D01*
X119675676Y-104483580D01*
X119675677Y-104483581D01*
X119811004Y-104510500D01*
X119811007Y-104510500D01*
X119948995Y-104510500D01*
X120040041Y-104492389D01*
X120084328Y-104483580D01*
X120211811Y-104430775D01*
X120326542Y-104354114D01*
X120424114Y-104256542D01*
X120500775Y-104141811D01*
X120553580Y-104014328D01*
X120580500Y-103878995D01*
X121719499Y-103878995D01*
X121746418Y-104014322D01*
X121746421Y-104014332D01*
X121799221Y-104141804D01*
X121799228Y-104141817D01*
X121875885Y-104256541D01*
X121875888Y-104256545D01*
X121973454Y-104354111D01*
X121973458Y-104354114D01*
X122088182Y-104430771D01*
X122088195Y-104430778D01*
X122215667Y-104483578D01*
X122215672Y-104483580D01*
X122215676Y-104483580D01*
X122215677Y-104483581D01*
X122351004Y-104510500D01*
X122351007Y-104510500D01*
X122488995Y-104510500D01*
X122580041Y-104492389D01*
X122624328Y-104483580D01*
X122751811Y-104430775D01*
X122866542Y-104354114D01*
X122964114Y-104256542D01*
X123040775Y-104141811D01*
X123093580Y-104014328D01*
X123120500Y-103878995D01*
X124259499Y-103878995D01*
X124286418Y-104014322D01*
X124286421Y-104014332D01*
X124339221Y-104141804D01*
X124339228Y-104141817D01*
X124415885Y-104256541D01*
X124415888Y-104256545D01*
X124513454Y-104354111D01*
X124513458Y-104354114D01*
X124628182Y-104430771D01*
X124628195Y-104430778D01*
X124755667Y-104483578D01*
X124755672Y-104483580D01*
X124755676Y-104483580D01*
X124755677Y-104483581D01*
X124891004Y-104510500D01*
X124891007Y-104510500D01*
X125028995Y-104510500D01*
X125120041Y-104492389D01*
X125164328Y-104483580D01*
X125291811Y-104430775D01*
X125406542Y-104354114D01*
X125504114Y-104256542D01*
X125580775Y-104141811D01*
X125633580Y-104014328D01*
X125660500Y-103878995D01*
X126799499Y-103878995D01*
X126826418Y-104014322D01*
X126826421Y-104014332D01*
X126879221Y-104141804D01*
X126879228Y-104141817D01*
X126955885Y-104256541D01*
X126955888Y-104256545D01*
X127053454Y-104354111D01*
X127053458Y-104354114D01*
X127168182Y-104430771D01*
X127168195Y-104430778D01*
X127295667Y-104483578D01*
X127295672Y-104483580D01*
X127295676Y-104483580D01*
X127295677Y-104483581D01*
X127431004Y-104510500D01*
X127431007Y-104510500D01*
X127568995Y-104510500D01*
X127660041Y-104492389D01*
X127704328Y-104483580D01*
X127831811Y-104430775D01*
X127946542Y-104354114D01*
X128044114Y-104256542D01*
X128120775Y-104141811D01*
X128173580Y-104014328D01*
X128200500Y-103878995D01*
X129339499Y-103878995D01*
X129366418Y-104014322D01*
X129366421Y-104014332D01*
X129419221Y-104141804D01*
X129419228Y-104141817D01*
X129495885Y-104256541D01*
X129495888Y-104256545D01*
X129593454Y-104354111D01*
X129593458Y-104354114D01*
X129708182Y-104430771D01*
X129708195Y-104430778D01*
X129835667Y-104483578D01*
X129835672Y-104483580D01*
X129835676Y-104483580D01*
X129835677Y-104483581D01*
X129971004Y-104510500D01*
X129971007Y-104510500D01*
X130108995Y-104510500D01*
X130200041Y-104492389D01*
X130244328Y-104483580D01*
X130371811Y-104430775D01*
X130486542Y-104354114D01*
X130584114Y-104256542D01*
X130660775Y-104141811D01*
X130713580Y-104014328D01*
X130740500Y-103878995D01*
X131879499Y-103878995D01*
X131906418Y-104014322D01*
X131906421Y-104014332D01*
X131959221Y-104141804D01*
X131959228Y-104141817D01*
X132035885Y-104256541D01*
X132035888Y-104256545D01*
X132133454Y-104354111D01*
X132133458Y-104354114D01*
X132248182Y-104430771D01*
X132248195Y-104430778D01*
X132375667Y-104483578D01*
X132375672Y-104483580D01*
X132375676Y-104483580D01*
X132375677Y-104483581D01*
X132511004Y-104510500D01*
X132511007Y-104510500D01*
X132648995Y-104510500D01*
X132740041Y-104492389D01*
X132784328Y-104483580D01*
X132911811Y-104430775D01*
X133026542Y-104354114D01*
X133124114Y-104256542D01*
X133200775Y-104141811D01*
X133253580Y-104014328D01*
X133280500Y-103878995D01*
X134419499Y-103878995D01*
X134446418Y-104014322D01*
X134446421Y-104014332D01*
X134499221Y-104141804D01*
X134499228Y-104141817D01*
X134575885Y-104256541D01*
X134575888Y-104256545D01*
X134673454Y-104354111D01*
X134673458Y-104354114D01*
X134788182Y-104430771D01*
X134788195Y-104430778D01*
X134915667Y-104483578D01*
X134915672Y-104483580D01*
X134915676Y-104483580D01*
X134915677Y-104483581D01*
X135051004Y-104510500D01*
X135051007Y-104510500D01*
X135188995Y-104510500D01*
X135280041Y-104492389D01*
X135324328Y-104483580D01*
X135451811Y-104430775D01*
X135566542Y-104354114D01*
X135664114Y-104256542D01*
X135740775Y-104141811D01*
X135793580Y-104014328D01*
X135820500Y-103878995D01*
X136959499Y-103878995D01*
X136986418Y-104014322D01*
X136986421Y-104014332D01*
X137039221Y-104141804D01*
X137039228Y-104141817D01*
X137115885Y-104256541D01*
X137115888Y-104256545D01*
X137213454Y-104354111D01*
X137213458Y-104354114D01*
X137328182Y-104430771D01*
X137328195Y-104430778D01*
X137455667Y-104483578D01*
X137455672Y-104483580D01*
X137455676Y-104483580D01*
X137455677Y-104483581D01*
X137591004Y-104510500D01*
X137591007Y-104510500D01*
X137728995Y-104510500D01*
X137820041Y-104492389D01*
X137864328Y-104483580D01*
X137991811Y-104430775D01*
X138106542Y-104354114D01*
X138204114Y-104256542D01*
X138280775Y-104141811D01*
X138333580Y-104014328D01*
X138360500Y-103878995D01*
X139499499Y-103878995D01*
X139526418Y-104014322D01*
X139526421Y-104014332D01*
X139579221Y-104141804D01*
X139579228Y-104141817D01*
X139655885Y-104256541D01*
X139655888Y-104256545D01*
X139753454Y-104354111D01*
X139753458Y-104354114D01*
X139868182Y-104430771D01*
X139868195Y-104430778D01*
X139995667Y-104483578D01*
X139995672Y-104483580D01*
X139995676Y-104483580D01*
X139995677Y-104483581D01*
X140131004Y-104510500D01*
X140131007Y-104510500D01*
X140268995Y-104510500D01*
X140360041Y-104492389D01*
X140404328Y-104483580D01*
X140531811Y-104430775D01*
X140646542Y-104354114D01*
X140744114Y-104256542D01*
X140820775Y-104141811D01*
X140873580Y-104014328D01*
X140900500Y-103878995D01*
X142039499Y-103878995D01*
X142066418Y-104014322D01*
X142066421Y-104014332D01*
X142119221Y-104141804D01*
X142119228Y-104141817D01*
X142195885Y-104256541D01*
X142195888Y-104256545D01*
X142293454Y-104354111D01*
X142293458Y-104354114D01*
X142408182Y-104430771D01*
X142408195Y-104430778D01*
X142535667Y-104483578D01*
X142535672Y-104483580D01*
X142535676Y-104483580D01*
X142535677Y-104483581D01*
X142671004Y-104510500D01*
X142671007Y-104510500D01*
X142808995Y-104510500D01*
X142900041Y-104492389D01*
X142944328Y-104483580D01*
X143071811Y-104430775D01*
X143186542Y-104354114D01*
X143284114Y-104256542D01*
X143360775Y-104141811D01*
X143413580Y-104014328D01*
X143440500Y-103878995D01*
X144579499Y-103878995D01*
X144606418Y-104014322D01*
X144606421Y-104014332D01*
X144659221Y-104141804D01*
X144659228Y-104141817D01*
X144735885Y-104256541D01*
X144735888Y-104256545D01*
X144833454Y-104354111D01*
X144833458Y-104354114D01*
X144948182Y-104430771D01*
X144948195Y-104430778D01*
X145075667Y-104483578D01*
X145075672Y-104483580D01*
X145075676Y-104483580D01*
X145075677Y-104483581D01*
X145211004Y-104510500D01*
X145211007Y-104510500D01*
X145348995Y-104510500D01*
X145440041Y-104492389D01*
X145484328Y-104483580D01*
X145611811Y-104430775D01*
X145726542Y-104354114D01*
X145824114Y-104256542D01*
X145900775Y-104141811D01*
X145953580Y-104014328D01*
X145980500Y-103878995D01*
X147119499Y-103878995D01*
X147146418Y-104014322D01*
X147146421Y-104014332D01*
X147199221Y-104141804D01*
X147199228Y-104141817D01*
X147275885Y-104256541D01*
X147275888Y-104256545D01*
X147373454Y-104354111D01*
X147373458Y-104354114D01*
X147488182Y-104430771D01*
X147488195Y-104430778D01*
X147615667Y-104483578D01*
X147615672Y-104483580D01*
X147615676Y-104483580D01*
X147615677Y-104483581D01*
X147751004Y-104510500D01*
X147751007Y-104510500D01*
X147888995Y-104510500D01*
X147980041Y-104492389D01*
X148024328Y-104483580D01*
X148151811Y-104430775D01*
X148266542Y-104354114D01*
X148364114Y-104256542D01*
X148440775Y-104141811D01*
X148493580Y-104014328D01*
X148520500Y-103878995D01*
X149659499Y-103878995D01*
X149686418Y-104014322D01*
X149686421Y-104014332D01*
X149739221Y-104141804D01*
X149739228Y-104141817D01*
X149815885Y-104256541D01*
X149815888Y-104256545D01*
X149913454Y-104354111D01*
X149913458Y-104354114D01*
X150028182Y-104430771D01*
X150028195Y-104430778D01*
X150155667Y-104483578D01*
X150155672Y-104483580D01*
X150155676Y-104483580D01*
X150155677Y-104483581D01*
X150291004Y-104510500D01*
X150291007Y-104510500D01*
X150428995Y-104510500D01*
X150520041Y-104492389D01*
X150564328Y-104483580D01*
X150691811Y-104430775D01*
X150806542Y-104354114D01*
X150904114Y-104256542D01*
X150980775Y-104141811D01*
X151033580Y-104014328D01*
X151060500Y-103878995D01*
X152199499Y-103878995D01*
X152226418Y-104014322D01*
X152226421Y-104014332D01*
X152279221Y-104141804D01*
X152279228Y-104141817D01*
X152355885Y-104256541D01*
X152355888Y-104256545D01*
X152453454Y-104354111D01*
X152453458Y-104354114D01*
X152568182Y-104430771D01*
X152568195Y-104430778D01*
X152695667Y-104483578D01*
X152695672Y-104483580D01*
X152695676Y-104483580D01*
X152695677Y-104483581D01*
X152831004Y-104510500D01*
X152831007Y-104510500D01*
X152968995Y-104510500D01*
X153060041Y-104492389D01*
X153104328Y-104483580D01*
X153231811Y-104430775D01*
X153346542Y-104354114D01*
X153444114Y-104256542D01*
X153520775Y-104141811D01*
X153573580Y-104014328D01*
X153600500Y-103878995D01*
X154739499Y-103878995D01*
X154766418Y-104014322D01*
X154766421Y-104014332D01*
X154819221Y-104141804D01*
X154819228Y-104141817D01*
X154895885Y-104256541D01*
X154895888Y-104256545D01*
X154993454Y-104354111D01*
X154993458Y-104354114D01*
X155108182Y-104430771D01*
X155108195Y-104430778D01*
X155235667Y-104483578D01*
X155235672Y-104483580D01*
X155235676Y-104483580D01*
X155235677Y-104483581D01*
X155371004Y-104510500D01*
X155371007Y-104510500D01*
X155508995Y-104510500D01*
X155600041Y-104492389D01*
X155644328Y-104483580D01*
X155771811Y-104430775D01*
X155886542Y-104354114D01*
X155984114Y-104256542D01*
X156060775Y-104141811D01*
X156113580Y-104014328D01*
X156140500Y-103878995D01*
X157279499Y-103878995D01*
X157306418Y-104014322D01*
X157306421Y-104014332D01*
X157359221Y-104141804D01*
X157359228Y-104141817D01*
X157435885Y-104256541D01*
X157435888Y-104256545D01*
X157533454Y-104354111D01*
X157533458Y-104354114D01*
X157648182Y-104430771D01*
X157648195Y-104430778D01*
X157775667Y-104483578D01*
X157775672Y-104483580D01*
X157775676Y-104483580D01*
X157775677Y-104483581D01*
X157911004Y-104510500D01*
X157911007Y-104510500D01*
X158048995Y-104510500D01*
X158140041Y-104492389D01*
X158184328Y-104483580D01*
X158311811Y-104430775D01*
X158426542Y-104354114D01*
X158524114Y-104256542D01*
X158600775Y-104141811D01*
X158653580Y-104014328D01*
X158680500Y-103878995D01*
X159819499Y-103878995D01*
X159846418Y-104014322D01*
X159846421Y-104014332D01*
X159899221Y-104141804D01*
X159899228Y-104141817D01*
X159975885Y-104256541D01*
X159975888Y-104256545D01*
X160073454Y-104354111D01*
X160073458Y-104354114D01*
X160188182Y-104430771D01*
X160188195Y-104430778D01*
X160315667Y-104483578D01*
X160315672Y-104483580D01*
X160315676Y-104483580D01*
X160315677Y-104483581D01*
X160451004Y-104510500D01*
X160451007Y-104510500D01*
X160588995Y-104510500D01*
X160680041Y-104492389D01*
X160724328Y-104483580D01*
X160851811Y-104430775D01*
X160966542Y-104354114D01*
X161064114Y-104256542D01*
X161140775Y-104141811D01*
X161193580Y-104014328D01*
X161220500Y-103878995D01*
X162359499Y-103878995D01*
X162386418Y-104014322D01*
X162386421Y-104014332D01*
X162439221Y-104141804D01*
X162439228Y-104141817D01*
X162515885Y-104256541D01*
X162515888Y-104256545D01*
X162613454Y-104354111D01*
X162613458Y-104354114D01*
X162728182Y-104430771D01*
X162728195Y-104430778D01*
X162855667Y-104483578D01*
X162855672Y-104483580D01*
X162855676Y-104483580D01*
X162855677Y-104483581D01*
X162991004Y-104510500D01*
X162991007Y-104510500D01*
X163128995Y-104510500D01*
X163220041Y-104492389D01*
X163264328Y-104483580D01*
X163391811Y-104430775D01*
X163506542Y-104354114D01*
X163604114Y-104256542D01*
X163680775Y-104141811D01*
X163733580Y-104014328D01*
X163760500Y-103878993D01*
X163760500Y-103741007D01*
X163760500Y-103741004D01*
X163733581Y-103605677D01*
X163733580Y-103605676D01*
X163733580Y-103605672D01*
X163733578Y-103605667D01*
X163680778Y-103478195D01*
X163680771Y-103478182D01*
X163604114Y-103363458D01*
X163604111Y-103363454D01*
X163506545Y-103265888D01*
X163506541Y-103265885D01*
X163391817Y-103189228D01*
X163391804Y-103189221D01*
X163264332Y-103136421D01*
X163264322Y-103136418D01*
X163128995Y-103109500D01*
X163128993Y-103109500D01*
X162991007Y-103109500D01*
X162991005Y-103109500D01*
X162855677Y-103136418D01*
X162855667Y-103136421D01*
X162728195Y-103189221D01*
X162728182Y-103189228D01*
X162613458Y-103265885D01*
X162613454Y-103265888D01*
X162515888Y-103363454D01*
X162515885Y-103363458D01*
X162439228Y-103478182D01*
X162439221Y-103478195D01*
X162386421Y-103605667D01*
X162386418Y-103605677D01*
X162359500Y-103741004D01*
X162359500Y-103741007D01*
X162359500Y-103878993D01*
X162359500Y-103878995D01*
X162359499Y-103878995D01*
X161220500Y-103878995D01*
X161220500Y-103878993D01*
X161220500Y-103741007D01*
X161220500Y-103741004D01*
X161193581Y-103605677D01*
X161193580Y-103605676D01*
X161193580Y-103605672D01*
X161193578Y-103605667D01*
X161140778Y-103478195D01*
X161140771Y-103478182D01*
X161064114Y-103363458D01*
X161064111Y-103363454D01*
X160966545Y-103265888D01*
X160966541Y-103265885D01*
X160851817Y-103189228D01*
X160851804Y-103189221D01*
X160724332Y-103136421D01*
X160724322Y-103136418D01*
X160588995Y-103109500D01*
X160588993Y-103109500D01*
X160451007Y-103109500D01*
X160451005Y-103109500D01*
X160315677Y-103136418D01*
X160315667Y-103136421D01*
X160188195Y-103189221D01*
X160188182Y-103189228D01*
X160073458Y-103265885D01*
X160073454Y-103265888D01*
X159975888Y-103363454D01*
X159975885Y-103363458D01*
X159899228Y-103478182D01*
X159899221Y-103478195D01*
X159846421Y-103605667D01*
X159846418Y-103605677D01*
X159819500Y-103741004D01*
X159819500Y-103741007D01*
X159819500Y-103878993D01*
X159819500Y-103878995D01*
X159819499Y-103878995D01*
X158680500Y-103878995D01*
X158680500Y-103878993D01*
X158680500Y-103741007D01*
X158680500Y-103741004D01*
X158653581Y-103605677D01*
X158653580Y-103605676D01*
X158653580Y-103605672D01*
X158653578Y-103605667D01*
X158600778Y-103478195D01*
X158600771Y-103478182D01*
X158524114Y-103363458D01*
X158524111Y-103363454D01*
X158426545Y-103265888D01*
X158426541Y-103265885D01*
X158311817Y-103189228D01*
X158311804Y-103189221D01*
X158184332Y-103136421D01*
X158184322Y-103136418D01*
X158048995Y-103109500D01*
X158048993Y-103109500D01*
X157911007Y-103109500D01*
X157911005Y-103109500D01*
X157775677Y-103136418D01*
X157775667Y-103136421D01*
X157648195Y-103189221D01*
X157648182Y-103189228D01*
X157533458Y-103265885D01*
X157533454Y-103265888D01*
X157435888Y-103363454D01*
X157435885Y-103363458D01*
X157359228Y-103478182D01*
X157359221Y-103478195D01*
X157306421Y-103605667D01*
X157306418Y-103605677D01*
X157279500Y-103741004D01*
X157279500Y-103741007D01*
X157279500Y-103878993D01*
X157279500Y-103878995D01*
X157279499Y-103878995D01*
X156140500Y-103878995D01*
X156140500Y-103878993D01*
X156140500Y-103741007D01*
X156140500Y-103741004D01*
X156113581Y-103605677D01*
X156113580Y-103605676D01*
X156113580Y-103605672D01*
X156113578Y-103605667D01*
X156060778Y-103478195D01*
X156060771Y-103478182D01*
X155984114Y-103363458D01*
X155984111Y-103363454D01*
X155886545Y-103265888D01*
X155886541Y-103265885D01*
X155771817Y-103189228D01*
X155771804Y-103189221D01*
X155644332Y-103136421D01*
X155644322Y-103136418D01*
X155508995Y-103109500D01*
X155508993Y-103109500D01*
X155371007Y-103109500D01*
X155371005Y-103109500D01*
X155235677Y-103136418D01*
X155235667Y-103136421D01*
X155108195Y-103189221D01*
X155108182Y-103189228D01*
X154993458Y-103265885D01*
X154993454Y-103265888D01*
X154895888Y-103363454D01*
X154895885Y-103363458D01*
X154819228Y-103478182D01*
X154819221Y-103478195D01*
X154766421Y-103605667D01*
X154766418Y-103605677D01*
X154739500Y-103741004D01*
X154739500Y-103741007D01*
X154739500Y-103878993D01*
X154739500Y-103878995D01*
X154739499Y-103878995D01*
X153600500Y-103878995D01*
X153600500Y-103878993D01*
X153600500Y-103741007D01*
X153600500Y-103741004D01*
X153573581Y-103605677D01*
X153573580Y-103605676D01*
X153573580Y-103605672D01*
X153573578Y-103605667D01*
X153520778Y-103478195D01*
X153520771Y-103478182D01*
X153444114Y-103363458D01*
X153444111Y-103363454D01*
X153346545Y-103265888D01*
X153346541Y-103265885D01*
X153231817Y-103189228D01*
X153231804Y-103189221D01*
X153104332Y-103136421D01*
X153104322Y-103136418D01*
X152968995Y-103109500D01*
X152968993Y-103109500D01*
X152831007Y-103109500D01*
X152831005Y-103109500D01*
X152695677Y-103136418D01*
X152695667Y-103136421D01*
X152568195Y-103189221D01*
X152568182Y-103189228D01*
X152453458Y-103265885D01*
X152453454Y-103265888D01*
X152355888Y-103363454D01*
X152355885Y-103363458D01*
X152279228Y-103478182D01*
X152279221Y-103478195D01*
X152226421Y-103605667D01*
X152226418Y-103605677D01*
X152199500Y-103741004D01*
X152199500Y-103741007D01*
X152199500Y-103878993D01*
X152199500Y-103878995D01*
X152199499Y-103878995D01*
X151060500Y-103878995D01*
X151060500Y-103878993D01*
X151060500Y-103741007D01*
X151060500Y-103741004D01*
X151033581Y-103605677D01*
X151033580Y-103605676D01*
X151033580Y-103605672D01*
X151033578Y-103605667D01*
X150980778Y-103478195D01*
X150980771Y-103478182D01*
X150904114Y-103363458D01*
X150904111Y-103363454D01*
X150806545Y-103265888D01*
X150806541Y-103265885D01*
X150691817Y-103189228D01*
X150691804Y-103189221D01*
X150564332Y-103136421D01*
X150564322Y-103136418D01*
X150428995Y-103109500D01*
X150428993Y-103109500D01*
X150291007Y-103109500D01*
X150291005Y-103109500D01*
X150155677Y-103136418D01*
X150155667Y-103136421D01*
X150028195Y-103189221D01*
X150028182Y-103189228D01*
X149913458Y-103265885D01*
X149913454Y-103265888D01*
X149815888Y-103363454D01*
X149815885Y-103363458D01*
X149739228Y-103478182D01*
X149739221Y-103478195D01*
X149686421Y-103605667D01*
X149686418Y-103605677D01*
X149659500Y-103741004D01*
X149659500Y-103741007D01*
X149659500Y-103878993D01*
X149659500Y-103878995D01*
X149659499Y-103878995D01*
X148520500Y-103878995D01*
X148520500Y-103878993D01*
X148520500Y-103741007D01*
X148520500Y-103741004D01*
X148493581Y-103605677D01*
X148493580Y-103605676D01*
X148493580Y-103605672D01*
X148493578Y-103605667D01*
X148440778Y-103478195D01*
X148440771Y-103478182D01*
X148364114Y-103363458D01*
X148364111Y-103363454D01*
X148266545Y-103265888D01*
X148266541Y-103265885D01*
X148151817Y-103189228D01*
X148151804Y-103189221D01*
X148024332Y-103136421D01*
X148024322Y-103136418D01*
X147888995Y-103109500D01*
X147888993Y-103109500D01*
X147751007Y-103109500D01*
X147751005Y-103109500D01*
X147615677Y-103136418D01*
X147615667Y-103136421D01*
X147488195Y-103189221D01*
X147488182Y-103189228D01*
X147373458Y-103265885D01*
X147373454Y-103265888D01*
X147275888Y-103363454D01*
X147275885Y-103363458D01*
X147199228Y-103478182D01*
X147199221Y-103478195D01*
X147146421Y-103605667D01*
X147146418Y-103605677D01*
X147119500Y-103741004D01*
X147119500Y-103741007D01*
X147119500Y-103878993D01*
X147119500Y-103878995D01*
X147119499Y-103878995D01*
X145980500Y-103878995D01*
X145980500Y-103878993D01*
X145980500Y-103741007D01*
X145980500Y-103741004D01*
X145953581Y-103605677D01*
X145953580Y-103605676D01*
X145953580Y-103605672D01*
X145953578Y-103605667D01*
X145900778Y-103478195D01*
X145900771Y-103478182D01*
X145824114Y-103363458D01*
X145824111Y-103363454D01*
X145726545Y-103265888D01*
X145726541Y-103265885D01*
X145611817Y-103189228D01*
X145611804Y-103189221D01*
X145484332Y-103136421D01*
X145484322Y-103136418D01*
X145348995Y-103109500D01*
X145348993Y-103109500D01*
X145211007Y-103109500D01*
X145211005Y-103109500D01*
X145075677Y-103136418D01*
X145075667Y-103136421D01*
X144948195Y-103189221D01*
X144948182Y-103189228D01*
X144833458Y-103265885D01*
X144833454Y-103265888D01*
X144735888Y-103363454D01*
X144735885Y-103363458D01*
X144659228Y-103478182D01*
X144659221Y-103478195D01*
X144606421Y-103605667D01*
X144606418Y-103605677D01*
X144579500Y-103741004D01*
X144579500Y-103741007D01*
X144579500Y-103878993D01*
X144579500Y-103878995D01*
X144579499Y-103878995D01*
X143440500Y-103878995D01*
X143440500Y-103878993D01*
X143440500Y-103741007D01*
X143440500Y-103741004D01*
X143413581Y-103605677D01*
X143413580Y-103605676D01*
X143413580Y-103605672D01*
X143413578Y-103605667D01*
X143360778Y-103478195D01*
X143360771Y-103478182D01*
X143284114Y-103363458D01*
X143284111Y-103363454D01*
X143186545Y-103265888D01*
X143186541Y-103265885D01*
X143071817Y-103189228D01*
X143071804Y-103189221D01*
X142944332Y-103136421D01*
X142944322Y-103136418D01*
X142808995Y-103109500D01*
X142808993Y-103109500D01*
X142671007Y-103109500D01*
X142671005Y-103109500D01*
X142535677Y-103136418D01*
X142535667Y-103136421D01*
X142408195Y-103189221D01*
X142408182Y-103189228D01*
X142293458Y-103265885D01*
X142293454Y-103265888D01*
X142195888Y-103363454D01*
X142195885Y-103363458D01*
X142119228Y-103478182D01*
X142119221Y-103478195D01*
X142066421Y-103605667D01*
X142066418Y-103605677D01*
X142039500Y-103741004D01*
X142039500Y-103741007D01*
X142039500Y-103878993D01*
X142039500Y-103878995D01*
X142039499Y-103878995D01*
X140900500Y-103878995D01*
X140900500Y-103878993D01*
X140900500Y-103741007D01*
X140900500Y-103741004D01*
X140873581Y-103605677D01*
X140873580Y-103605676D01*
X140873580Y-103605672D01*
X140873578Y-103605667D01*
X140820778Y-103478195D01*
X140820771Y-103478182D01*
X140744114Y-103363458D01*
X140744111Y-103363454D01*
X140646545Y-103265888D01*
X140646541Y-103265885D01*
X140531817Y-103189228D01*
X140531804Y-103189221D01*
X140404332Y-103136421D01*
X140404322Y-103136418D01*
X140268995Y-103109500D01*
X140268993Y-103109500D01*
X140131007Y-103109500D01*
X140131005Y-103109500D01*
X139995677Y-103136418D01*
X139995667Y-103136421D01*
X139868195Y-103189221D01*
X139868182Y-103189228D01*
X139753458Y-103265885D01*
X139753454Y-103265888D01*
X139655888Y-103363454D01*
X139655885Y-103363458D01*
X139579228Y-103478182D01*
X139579221Y-103478195D01*
X139526421Y-103605667D01*
X139526418Y-103605677D01*
X139499500Y-103741004D01*
X139499500Y-103741007D01*
X139499500Y-103878993D01*
X139499500Y-103878995D01*
X139499499Y-103878995D01*
X138360500Y-103878995D01*
X138360500Y-103878993D01*
X138360500Y-103741007D01*
X138360500Y-103741004D01*
X138333581Y-103605677D01*
X138333580Y-103605676D01*
X138333580Y-103605672D01*
X138333578Y-103605667D01*
X138280778Y-103478195D01*
X138280771Y-103478182D01*
X138204114Y-103363458D01*
X138204111Y-103363454D01*
X138106545Y-103265888D01*
X138106541Y-103265885D01*
X137991817Y-103189228D01*
X137991804Y-103189221D01*
X137864332Y-103136421D01*
X137864322Y-103136418D01*
X137728995Y-103109500D01*
X137728993Y-103109500D01*
X137591007Y-103109500D01*
X137591005Y-103109500D01*
X137455677Y-103136418D01*
X137455667Y-103136421D01*
X137328195Y-103189221D01*
X137328182Y-103189228D01*
X137213458Y-103265885D01*
X137213454Y-103265888D01*
X137115888Y-103363454D01*
X137115885Y-103363458D01*
X137039228Y-103478182D01*
X137039221Y-103478195D01*
X136986421Y-103605667D01*
X136986418Y-103605677D01*
X136959500Y-103741004D01*
X136959500Y-103741007D01*
X136959500Y-103878993D01*
X136959500Y-103878995D01*
X136959499Y-103878995D01*
X135820500Y-103878995D01*
X135820500Y-103878993D01*
X135820500Y-103741007D01*
X135820500Y-103741004D01*
X135793581Y-103605677D01*
X135793580Y-103605676D01*
X135793580Y-103605672D01*
X135793578Y-103605667D01*
X135740778Y-103478195D01*
X135740771Y-103478182D01*
X135664114Y-103363458D01*
X135664111Y-103363454D01*
X135566545Y-103265888D01*
X135566541Y-103265885D01*
X135451817Y-103189228D01*
X135451804Y-103189221D01*
X135324332Y-103136421D01*
X135324322Y-103136418D01*
X135188995Y-103109500D01*
X135188993Y-103109500D01*
X135051007Y-103109500D01*
X135051005Y-103109500D01*
X134915677Y-103136418D01*
X134915667Y-103136421D01*
X134788195Y-103189221D01*
X134788182Y-103189228D01*
X134673458Y-103265885D01*
X134673454Y-103265888D01*
X134575888Y-103363454D01*
X134575885Y-103363458D01*
X134499228Y-103478182D01*
X134499221Y-103478195D01*
X134446421Y-103605667D01*
X134446418Y-103605677D01*
X134419500Y-103741004D01*
X134419500Y-103741007D01*
X134419500Y-103878993D01*
X134419500Y-103878995D01*
X134419499Y-103878995D01*
X133280500Y-103878995D01*
X133280500Y-103878993D01*
X133280500Y-103741007D01*
X133280500Y-103741004D01*
X133253581Y-103605677D01*
X133253580Y-103605676D01*
X133253580Y-103605672D01*
X133253578Y-103605667D01*
X133200778Y-103478195D01*
X133200771Y-103478182D01*
X133124114Y-103363458D01*
X133124111Y-103363454D01*
X133026545Y-103265888D01*
X133026541Y-103265885D01*
X132911817Y-103189228D01*
X132911804Y-103189221D01*
X132784332Y-103136421D01*
X132784322Y-103136418D01*
X132648995Y-103109500D01*
X132648993Y-103109500D01*
X132511007Y-103109500D01*
X132511005Y-103109500D01*
X132375677Y-103136418D01*
X132375667Y-103136421D01*
X132248195Y-103189221D01*
X132248182Y-103189228D01*
X132133458Y-103265885D01*
X132133454Y-103265888D01*
X132035888Y-103363454D01*
X132035885Y-103363458D01*
X131959228Y-103478182D01*
X131959221Y-103478195D01*
X131906421Y-103605667D01*
X131906418Y-103605677D01*
X131879500Y-103741004D01*
X131879500Y-103741007D01*
X131879500Y-103878993D01*
X131879500Y-103878995D01*
X131879499Y-103878995D01*
X130740500Y-103878995D01*
X130740500Y-103878993D01*
X130740500Y-103741007D01*
X130740500Y-103741004D01*
X130713581Y-103605677D01*
X130713580Y-103605676D01*
X130713580Y-103605672D01*
X130713578Y-103605667D01*
X130660778Y-103478195D01*
X130660771Y-103478182D01*
X130584114Y-103363458D01*
X130584111Y-103363454D01*
X130486545Y-103265888D01*
X130486541Y-103265885D01*
X130371817Y-103189228D01*
X130371804Y-103189221D01*
X130244332Y-103136421D01*
X130244322Y-103136418D01*
X130108995Y-103109500D01*
X130108993Y-103109500D01*
X129971007Y-103109500D01*
X129971005Y-103109500D01*
X129835677Y-103136418D01*
X129835667Y-103136421D01*
X129708195Y-103189221D01*
X129708182Y-103189228D01*
X129593458Y-103265885D01*
X129593454Y-103265888D01*
X129495888Y-103363454D01*
X129495885Y-103363458D01*
X129419228Y-103478182D01*
X129419221Y-103478195D01*
X129366421Y-103605667D01*
X129366418Y-103605677D01*
X129339500Y-103741004D01*
X129339500Y-103741007D01*
X129339500Y-103878993D01*
X129339500Y-103878995D01*
X129339499Y-103878995D01*
X128200500Y-103878995D01*
X128200500Y-103878993D01*
X128200500Y-103741007D01*
X128200500Y-103741004D01*
X128173581Y-103605677D01*
X128173580Y-103605676D01*
X128173580Y-103605672D01*
X128173578Y-103605667D01*
X128120778Y-103478195D01*
X128120771Y-103478182D01*
X128044114Y-103363458D01*
X128044111Y-103363454D01*
X127946545Y-103265888D01*
X127946541Y-103265885D01*
X127831817Y-103189228D01*
X127831804Y-103189221D01*
X127704332Y-103136421D01*
X127704322Y-103136418D01*
X127568995Y-103109500D01*
X127568993Y-103109500D01*
X127431007Y-103109500D01*
X127431005Y-103109500D01*
X127295677Y-103136418D01*
X127295667Y-103136421D01*
X127168195Y-103189221D01*
X127168182Y-103189228D01*
X127053458Y-103265885D01*
X127053454Y-103265888D01*
X126955888Y-103363454D01*
X126955885Y-103363458D01*
X126879228Y-103478182D01*
X126879221Y-103478195D01*
X126826421Y-103605667D01*
X126826418Y-103605677D01*
X126799500Y-103741004D01*
X126799500Y-103741007D01*
X126799500Y-103878993D01*
X126799500Y-103878995D01*
X126799499Y-103878995D01*
X125660500Y-103878995D01*
X125660500Y-103878993D01*
X125660500Y-103741007D01*
X125660500Y-103741004D01*
X125633581Y-103605677D01*
X125633580Y-103605676D01*
X125633580Y-103605672D01*
X125633578Y-103605667D01*
X125580778Y-103478195D01*
X125580771Y-103478182D01*
X125504114Y-103363458D01*
X125504111Y-103363454D01*
X125406545Y-103265888D01*
X125406541Y-103265885D01*
X125291817Y-103189228D01*
X125291804Y-103189221D01*
X125164332Y-103136421D01*
X125164322Y-103136418D01*
X125028995Y-103109500D01*
X125028993Y-103109500D01*
X124891007Y-103109500D01*
X124891005Y-103109500D01*
X124755677Y-103136418D01*
X124755667Y-103136421D01*
X124628195Y-103189221D01*
X124628182Y-103189228D01*
X124513458Y-103265885D01*
X124513454Y-103265888D01*
X124415888Y-103363454D01*
X124415885Y-103363458D01*
X124339228Y-103478182D01*
X124339221Y-103478195D01*
X124286421Y-103605667D01*
X124286418Y-103605677D01*
X124259500Y-103741004D01*
X124259500Y-103741007D01*
X124259500Y-103878993D01*
X124259500Y-103878995D01*
X124259499Y-103878995D01*
X123120500Y-103878995D01*
X123120500Y-103878993D01*
X123120500Y-103741007D01*
X123120500Y-103741004D01*
X123093581Y-103605677D01*
X123093580Y-103605676D01*
X123093580Y-103605672D01*
X123093578Y-103605667D01*
X123040778Y-103478195D01*
X123040771Y-103478182D01*
X122964114Y-103363458D01*
X122964111Y-103363454D01*
X122866545Y-103265888D01*
X122866541Y-103265885D01*
X122751817Y-103189228D01*
X122751804Y-103189221D01*
X122624332Y-103136421D01*
X122624322Y-103136418D01*
X122488995Y-103109500D01*
X122488993Y-103109500D01*
X122351007Y-103109500D01*
X122351005Y-103109500D01*
X122215677Y-103136418D01*
X122215667Y-103136421D01*
X122088195Y-103189221D01*
X122088182Y-103189228D01*
X121973458Y-103265885D01*
X121973454Y-103265888D01*
X121875888Y-103363454D01*
X121875885Y-103363458D01*
X121799228Y-103478182D01*
X121799221Y-103478195D01*
X121746421Y-103605667D01*
X121746418Y-103605677D01*
X121719500Y-103741004D01*
X121719500Y-103741007D01*
X121719500Y-103878993D01*
X121719500Y-103878995D01*
X121719499Y-103878995D01*
X120580500Y-103878995D01*
X120580500Y-103878993D01*
X120580500Y-103741007D01*
X120580500Y-103741004D01*
X120553581Y-103605677D01*
X120553580Y-103605676D01*
X120553580Y-103605672D01*
X120553578Y-103605667D01*
X120500778Y-103478195D01*
X120500771Y-103478182D01*
X120424114Y-103363458D01*
X120424111Y-103363454D01*
X120326545Y-103265888D01*
X120326541Y-103265885D01*
X120211817Y-103189228D01*
X120211804Y-103189221D01*
X120084332Y-103136421D01*
X120084322Y-103136418D01*
X119948995Y-103109500D01*
X119948993Y-103109500D01*
X119811007Y-103109500D01*
X119811005Y-103109500D01*
X119675677Y-103136418D01*
X119675667Y-103136421D01*
X119548195Y-103189221D01*
X119548182Y-103189228D01*
X119433458Y-103265885D01*
X119433454Y-103265888D01*
X119335888Y-103363454D01*
X119335885Y-103363458D01*
X119259228Y-103478182D01*
X119259221Y-103478195D01*
X119206421Y-103605667D01*
X119206418Y-103605677D01*
X119179500Y-103741004D01*
X119179500Y-103741007D01*
X119179500Y-103878993D01*
X119179500Y-103878995D01*
X119179499Y-103878995D01*
X118040500Y-103878995D01*
X118040500Y-103878993D01*
X118040500Y-103741007D01*
X118040500Y-103741004D01*
X118013581Y-103605677D01*
X118013580Y-103605676D01*
X118013580Y-103605672D01*
X118013578Y-103605667D01*
X117960778Y-103478195D01*
X117960771Y-103478182D01*
X117884114Y-103363458D01*
X117884111Y-103363454D01*
X117786545Y-103265888D01*
X117786541Y-103265885D01*
X117671817Y-103189228D01*
X117671804Y-103189221D01*
X117544332Y-103136421D01*
X117544322Y-103136418D01*
X117408995Y-103109500D01*
X117408993Y-103109500D01*
X117271007Y-103109500D01*
X117271005Y-103109500D01*
X117135677Y-103136418D01*
X117135667Y-103136421D01*
X117008195Y-103189221D01*
X117008182Y-103189228D01*
X116893458Y-103265885D01*
X116893454Y-103265888D01*
X116795888Y-103363454D01*
X116795885Y-103363458D01*
X116719228Y-103478182D01*
X116719221Y-103478195D01*
X116666421Y-103605667D01*
X116666418Y-103605677D01*
X116639500Y-103741004D01*
X116639500Y-103741007D01*
X116639500Y-103878993D01*
X116639500Y-103878995D01*
X116639499Y-103878995D01*
X115500500Y-103878995D01*
X115500500Y-103878993D01*
X115500500Y-103741007D01*
X115500500Y-103741004D01*
X115473581Y-103605677D01*
X115473580Y-103605676D01*
X115473580Y-103605672D01*
X115473578Y-103605667D01*
X115420778Y-103478195D01*
X115420771Y-103478182D01*
X115344114Y-103363458D01*
X115344111Y-103363454D01*
X115246545Y-103265888D01*
X115246541Y-103265885D01*
X115131817Y-103189228D01*
X115131804Y-103189221D01*
X115004332Y-103136421D01*
X115004322Y-103136418D01*
X114868995Y-103109500D01*
X114868993Y-103109500D01*
X114731007Y-103109500D01*
X114731005Y-103109500D01*
X114595677Y-103136418D01*
X114595667Y-103136421D01*
X114468195Y-103189221D01*
X114468182Y-103189228D01*
X114353458Y-103265885D01*
X114353454Y-103265888D01*
X114255888Y-103363454D01*
X114255885Y-103363458D01*
X114179228Y-103478182D01*
X114179221Y-103478195D01*
X114126421Y-103605667D01*
X114126418Y-103605677D01*
X114099500Y-103741004D01*
X114099500Y-103741007D01*
X114099500Y-103878993D01*
X114099500Y-103878995D01*
X114099499Y-103878995D01*
X101071884Y-103878995D01*
X100983162Y-103579474D01*
X105904076Y-103579474D01*
X105948650Y-103611859D01*
X106130968Y-103704755D01*
X106325582Y-103767990D01*
X106527683Y-103800000D01*
X106732317Y-103800000D01*
X106934417Y-103767990D01*
X107129031Y-103704755D01*
X107286679Y-103624430D01*
X107311349Y-103611859D01*
X107355921Y-103579474D01*
X106630000Y-102853553D01*
X105904076Y-103579474D01*
X100983162Y-103579474D01*
X100963533Y-103513208D01*
X100961854Y-103506940D01*
X100954951Y-103478189D01*
X100797619Y-102822855D01*
X100796271Y-102816510D01*
X100762648Y-102635095D01*
X100718646Y-102397682D01*
X105330000Y-102397682D01*
X105330000Y-102602317D01*
X105362009Y-102804417D01*
X105425244Y-102999031D01*
X105518141Y-103181350D01*
X105518147Y-103181359D01*
X105550523Y-103225921D01*
X105550524Y-103225922D01*
X106276446Y-102500001D01*
X106276446Y-102499999D01*
X106230369Y-102453922D01*
X106280000Y-102453922D01*
X106280000Y-102546078D01*
X106303852Y-102635095D01*
X106349930Y-102714905D01*
X106415095Y-102780070D01*
X106494905Y-102826148D01*
X106583922Y-102850000D01*
X106676078Y-102850000D01*
X106765095Y-102826148D01*
X106844905Y-102780070D01*
X106910070Y-102714905D01*
X106956148Y-102635095D01*
X106980000Y-102546078D01*
X106980000Y-102499999D01*
X106983553Y-102499999D01*
X106983553Y-102500000D01*
X107709474Y-103225921D01*
X107741859Y-103181349D01*
X107834755Y-102999031D01*
X107897990Y-102804417D01*
X107928942Y-102608995D01*
X164969499Y-102608995D01*
X164996418Y-102744322D01*
X164996421Y-102744332D01*
X165049221Y-102871804D01*
X165049228Y-102871817D01*
X165125885Y-102986541D01*
X165125888Y-102986545D01*
X165223454Y-103084111D01*
X165223458Y-103084114D01*
X165338182Y-103160771D01*
X165338195Y-103160778D01*
X165465667Y-103213578D01*
X165465672Y-103213580D01*
X165465676Y-103213580D01*
X165465677Y-103213581D01*
X165601004Y-103240500D01*
X165601007Y-103240500D01*
X165738995Y-103240500D01*
X165830041Y-103222389D01*
X165874328Y-103213580D01*
X166001811Y-103160775D01*
X166116542Y-103084114D01*
X166214114Y-102986542D01*
X166290775Y-102871811D01*
X166343580Y-102744328D01*
X166370500Y-102608995D01*
X172589499Y-102608995D01*
X172616418Y-102744322D01*
X172616421Y-102744332D01*
X172669221Y-102871804D01*
X172669228Y-102871817D01*
X172745885Y-102986541D01*
X172745888Y-102986545D01*
X172843454Y-103084111D01*
X172843458Y-103084114D01*
X172958182Y-103160771D01*
X172958195Y-103160778D01*
X173085667Y-103213578D01*
X173085672Y-103213580D01*
X173085676Y-103213580D01*
X173085677Y-103213581D01*
X173221004Y-103240500D01*
X173221007Y-103240500D01*
X173358995Y-103240500D01*
X173450041Y-103222389D01*
X173494328Y-103213580D01*
X173621811Y-103160775D01*
X173736542Y-103084114D01*
X173834114Y-102986542D01*
X173910775Y-102871811D01*
X173963580Y-102744328D01*
X173990500Y-102608993D01*
X173990500Y-102471007D01*
X173990500Y-102471004D01*
X173963581Y-102335677D01*
X173963580Y-102335676D01*
X173963580Y-102335672D01*
X173963578Y-102335667D01*
X173910778Y-102208195D01*
X173910771Y-102208182D01*
X173834114Y-102093458D01*
X173834111Y-102093454D01*
X173736545Y-101995888D01*
X173736541Y-101995885D01*
X173621817Y-101919228D01*
X173621804Y-101919221D01*
X173494332Y-101866421D01*
X173494322Y-101866418D01*
X173358995Y-101839500D01*
X173358993Y-101839500D01*
X173221007Y-101839500D01*
X173221005Y-101839500D01*
X173085677Y-101866418D01*
X173085667Y-101866421D01*
X172958195Y-101919221D01*
X172958182Y-101919228D01*
X172843458Y-101995885D01*
X172843454Y-101995888D01*
X172745888Y-102093454D01*
X172745885Y-102093458D01*
X172669228Y-102208182D01*
X172669221Y-102208195D01*
X172616421Y-102335667D01*
X172616418Y-102335677D01*
X172589500Y-102471004D01*
X172589500Y-102471007D01*
X172589500Y-102608993D01*
X172589500Y-102608995D01*
X172589499Y-102608995D01*
X166370500Y-102608995D01*
X166370500Y-102608993D01*
X166370500Y-102471007D01*
X166370500Y-102471004D01*
X166343581Y-102335677D01*
X166343580Y-102335676D01*
X166343580Y-102335672D01*
X166343578Y-102335667D01*
X166290778Y-102208195D01*
X166290771Y-102208182D01*
X166214114Y-102093458D01*
X166214111Y-102093454D01*
X166116545Y-101995888D01*
X166116541Y-101995885D01*
X166001817Y-101919228D01*
X166001804Y-101919221D01*
X165874332Y-101866421D01*
X165874322Y-101866418D01*
X165738995Y-101839500D01*
X165738993Y-101839500D01*
X165601007Y-101839500D01*
X165601005Y-101839500D01*
X165465677Y-101866418D01*
X165465667Y-101866421D01*
X165338195Y-101919221D01*
X165338182Y-101919228D01*
X165223458Y-101995885D01*
X165223454Y-101995888D01*
X165125888Y-102093454D01*
X165125885Y-102093458D01*
X165049228Y-102208182D01*
X165049221Y-102208195D01*
X164996421Y-102335667D01*
X164996418Y-102335677D01*
X164969500Y-102471004D01*
X164969500Y-102471007D01*
X164969500Y-102608993D01*
X164969500Y-102608995D01*
X164969499Y-102608995D01*
X107928942Y-102608995D01*
X107930000Y-102602317D01*
X107930000Y-102397682D01*
X107897990Y-102195582D01*
X107834755Y-102000968D01*
X107741859Y-101818650D01*
X107709474Y-101774077D01*
X107709474Y-101774076D01*
X106983553Y-102499999D01*
X106980000Y-102499999D01*
X106980000Y-102453922D01*
X106956148Y-102364905D01*
X106910070Y-102285095D01*
X106844905Y-102219930D01*
X106765095Y-102173852D01*
X106676078Y-102150000D01*
X106583922Y-102150000D01*
X106494905Y-102173852D01*
X106415095Y-102219930D01*
X106349930Y-102285095D01*
X106303852Y-102364905D01*
X106280000Y-102453922D01*
X106230369Y-102453922D01*
X105550524Y-101774077D01*
X105550523Y-101774077D01*
X105518143Y-101818644D01*
X105425244Y-102000968D01*
X105362009Y-102195582D01*
X105330000Y-102397682D01*
X100718646Y-102397682D01*
X100668055Y-102124718D01*
X100667049Y-102118362D01*
X100575214Y-101420806D01*
X100575184Y-101420523D01*
X105904077Y-101420523D01*
X105904077Y-101420524D01*
X106630000Y-102146446D01*
X107355922Y-101420524D01*
X107355921Y-101420523D01*
X107311359Y-101388147D01*
X107311350Y-101388141D01*
X107129031Y-101295244D01*
X106934417Y-101232009D01*
X106732317Y-101200000D01*
X106527683Y-101200000D01*
X106325582Y-101232009D01*
X106130968Y-101295244D01*
X105948644Y-101388143D01*
X105904077Y-101420523D01*
X100575184Y-101420523D01*
X100574542Y-101414418D01*
X100519340Y-100713018D01*
X100519001Y-100706538D01*
X100515583Y-100575996D01*
X100500584Y-100003207D01*
X100500584Y-99996792D01*
X100519001Y-99293455D01*
X100519341Y-99286978D01*
X100523145Y-99238642D01*
X100574542Y-98585577D01*
X100575214Y-98579193D01*
X100667050Y-97881631D01*
X100668054Y-97875287D01*
X100796273Y-97183477D01*
X100797621Y-97177139D01*
X100961860Y-96493036D01*
X100963527Y-96486810D01*
X101163355Y-95812205D01*
X101165348Y-95806072D01*
X101400206Y-95142850D01*
X101402520Y-95136824D01*
X101671760Y-94486822D01*
X101674384Y-94480928D01*
X101977287Y-93845880D01*
X101980209Y-93840146D01*
X102315931Y-93221820D01*
X102319142Y-93216259D01*
X102686762Y-92616358D01*
X102690272Y-92610953D01*
X103088790Y-92031106D01*
X103092573Y-92025899D01*
X103520882Y-91467715D01*
X103524937Y-91462708D01*
X103981875Y-90927703D01*
X103986198Y-90922902D01*
X104470486Y-90412569D01*
X104475073Y-90407983D01*
X104985402Y-89923698D01*
X104990203Y-89919375D01*
X105525208Y-89462437D01*
X105530215Y-89458382D01*
X106088399Y-89030073D01*
X106093606Y-89026290D01*
X106673453Y-88627772D01*
X106678858Y-88624262D01*
X107278759Y-88256642D01*
X107284320Y-88253431D01*
X107902646Y-87917709D01*
X107908380Y-87914787D01*
X108543428Y-87611884D01*
X108549322Y-87609260D01*
X109199324Y-87340020D01*
X109205350Y-87337706D01*
X109868572Y-87102848D01*
X109874705Y-87100855D01*
X110549310Y-86901027D01*
X110555536Y-86899360D01*
X111239652Y-86735118D01*
X111245977Y-86733773D01*
X111937787Y-86605554D01*
X111944131Y-86604550D01*
X112641693Y-86512714D01*
X112648077Y-86512042D01*
X113349483Y-86456840D01*
X113355955Y-86456501D01*
X114060896Y-86438041D01*
X114064142Y-86438000D01*
X114128392Y-86438000D01*
X122334211Y-86438000D01*
X122401250Y-86457685D01*
G37*
%TD.AperFunction*%
%TD*%
M02*
