M48
; DRILL file {KiCad 9.0.3} date 2026-07-25T14:26:43+0900
; FORMAT={-:-/ absolute / metric / decimal}
; #@! TF.CreationDate,2026-07-25T14:26:43+09:00
; #@! TF.GenerationSoftware,Kicad,Pcbnew,9.0.3
; #@! TF.FileFunction,NonPlated,1,2,NPTH
FMAT,2
METRIC
; #@! TA.AperFunction,NonPlated,NPTH,ComponentDrill
T1C0.900
; #@! TA.AperFunction,NonPlated,NPTH,ComponentDrill
T2C2.200
%
G90
G05
T1
X114.8Y-96.19
X114.8Y-103.81
X117.34Y-96.19
X117.34Y-103.81
X119.88Y-96.19
X119.88Y-103.81
X122.42Y-96.19
X122.42Y-103.81
X124.96Y-96.19
X124.96Y-103.81
X127.5Y-96.19
X127.5Y-103.81
X130.04Y-96.19
X130.04Y-103.81
X132.58Y-96.19
X132.58Y-103.81
X135.12Y-96.19
X135.12Y-103.81
X137.66Y-96.19
X137.66Y-103.81
X140.2Y-96.19
X140.2Y-103.81
X142.74Y-96.19
X142.74Y-103.81
X145.28Y-96.19
X145.28Y-103.81
X147.82Y-96.19
X147.82Y-103.81
X150.36Y-96.19
X150.36Y-103.81
X152.9Y-96.19
X152.9Y-103.81
X155.44Y-96.19
X155.44Y-103.81
X157.98Y-96.19
X157.98Y-103.81
X160.52Y-96.19
X160.52Y-103.81
X163.06Y-96.19
X163.06Y-103.81
X165.67Y-94.92
X165.67Y-97.46
X165.67Y-100.0
X165.67Y-102.54
X165.67Y-105.08
X173.29Y-94.92
X173.29Y-97.46
X173.29Y-100.0
X173.29Y-102.54
X173.29Y-105.08
T2
X107.43Y-109.4
X142.43Y-88.4
M30
