%TF.GenerationSoftware,KiCad,Pcbnew,9.0.3*%
%TF.CreationDate,2026-07-25T14:26:35+09:00*%
%TF.ProjectId,pacer_bottom,70616365-725f-4626-9f74-746f6d2e6b69,rev?*%
%TF.SameCoordinates,Original*%
%TF.FileFunction,Soldermask,Bot*%
%TF.FilePolarity,Negative*%
%FSLAX46Y46*%
G04 Gerber Fmt 4.6, Leading zero omitted, Abs format (unit mm)*
G04 Created by KiCad (PCBNEW 9.0.3) date 2026-07-25 14:26:35*
%MOMM*%
%LPD*%
G01*
G04 APERTURE LIST*
G04 Aperture macros list*
%AMRoundRect*
0 Rectangle with rounded corners*
0 $1 Rounding radius*
0 $2 $3 $4 $5 $6 $7 $8 $9 X,Y pos of 4 corners*
0 Add a 4 corners polygon primitive as box body*
4,1,4,$2,$3,$4,$5,$6,$7,$8,$9,$2,$3,0*
0 Add four circle primitives for the rounded corners*
1,1,$1+$1,$2,$3*
1,1,$1+$1,$4,$5*
1,1,$1+$1,$6,$7*
1,1,$1+$1,$8,$9*
0 Add four rect primitives between the rounded corners*
20,1,$1+$1,$2,$3,$4,$5,0*
20,1,$1+$1,$4,$5,$6,$7,0*
20,1,$1+$1,$6,$7,$8,$9,0*
20,1,$1+$1,$8,$9,$2,$3,0*%
G04 Aperture macros list end*
%ADD10C,0.900000*%
%ADD11R,1.700000X1.700000*%
%ADD12C,1.700000*%
%ADD13C,1.600000*%
%ADD14C,2.200000*%
%ADD15RoundRect,0.375000X1.875000X-0.875000X1.875000X0.875000X-1.875000X0.875000X-1.875000X-0.875000X0*%
%ADD16R,2.000000X2.000000*%
%ADD17C,2.000000*%
G04 APERTURE END LIST*
D10*
%TO.C,H1*%
X114800000Y-103810000D03*
X117340000Y-103810000D03*
X119880000Y-103810000D03*
X122420000Y-103810000D03*
X124960000Y-103810000D03*
X127500000Y-103810000D03*
X130040000Y-103810000D03*
X132580000Y-103810000D03*
X135120000Y-103810000D03*
X137660000Y-103810000D03*
X114800000Y-96190000D03*
X117340000Y-96190000D03*
X119880000Y-96190000D03*
X122420000Y-96190000D03*
X124960000Y-96190000D03*
X127500000Y-96190000D03*
X130040000Y-96190000D03*
X132580000Y-96190000D03*
X135120000Y-96190000D03*
X137660000Y-96190000D03*
%TD*%
D11*
%TO.C,J2*%
X172830000Y-109725000D03*
D12*
X172830000Y-112265000D03*
%TD*%
D13*
%TO.C,LS1*%
X106630000Y-97500000D03*
X106630000Y-102500000D03*
%TD*%
D14*
%TO.C,H5*%
X107430000Y-109400000D03*
%TD*%
D11*
%TO.C,J1*%
X123730000Y-87725000D03*
D12*
X123730000Y-90265000D03*
%TD*%
D10*
%TO.C,H3*%
X173290000Y-105080000D03*
X173290000Y-102540000D03*
X173290000Y-100000000D03*
X173290000Y-97460000D03*
X173290000Y-94920000D03*
X165670000Y-105080000D03*
X165670000Y-102540000D03*
X165670000Y-100000000D03*
X165670000Y-97460000D03*
X165670000Y-94920000D03*
%TD*%
D15*
%TO.C,SW1*%
X181300000Y-106000000D03*
X181300000Y-100000000D03*
%TD*%
D10*
%TO.C,H2*%
X140200000Y-103810000D03*
X142740000Y-103810000D03*
X145280000Y-103810000D03*
X147820000Y-103810000D03*
X150360000Y-103810000D03*
X152900000Y-103810000D03*
X155440000Y-103810000D03*
X157980000Y-103810000D03*
X160520000Y-103810000D03*
X163060000Y-103810000D03*
X140200000Y-96190000D03*
X142740000Y-96190000D03*
X145280000Y-96190000D03*
X147820000Y-96190000D03*
X150360000Y-96190000D03*
X152900000Y-96190000D03*
X155440000Y-96190000D03*
X157980000Y-96190000D03*
X160520000Y-96190000D03*
X163060000Y-96190000D03*
%TD*%
D14*
%TO.C,H4*%
X142430000Y-88400000D03*
%TD*%
D16*
%TO.C,BT1*%
X116630000Y-100000000D03*
D17*
X168620000Y-100000000D03*
%TD*%
M02*
